<svg width="2501" height="2400" viewBox="0 0 2501 2400" fill="none" xmlns="http://www.w3.org/2000/svg">
<path d="M1981.24 1743.43C1981.24 1755.6 1971.3 1765.48 1959.04 1765.48C1946.77 1765.48 1936.83 1755.6 1936.83 1743.43C1936.83 1731.24 1946.77 1721.37 1959.04 1721.37C1971.3 1721.37 1981.24 1731.24 1981.24 1743.43Z" fill="white"/>
<mask id="mask0_433_8482" style="mask-type:luminance" maskUnits="userSpaceOnUse" x="1929" y="1715" width="60" height="57">
<path d="M1929.83 1715H1988.5V1772H1929.83V1715Z" fill="white"/>
</mask>
<g mask="url(#mask0_433_8482)">
<path d="M1959.04 1771.85C1943.31 1771.85 1930.51 1759.1 1930.51 1743.43C1930.51 1727.75 1943.3 1715 1959.04 1715C1974.77 1715 1987.56 1727.75 1987.56 1743.43C1987.56 1759.1 1974.77 1771.85 1959.04 1771.85ZM1959.04 1720.98C1946.61 1720.98 1936.49 1731.05 1936.49 1743.43C1936.49 1755.8 1946.61 1765.86 1959.04 1765.86C1971.46 1765.86 1981.57 1755.8 1981.57 1743.43C1981.57 1731.05 1971.46 1720.98 1959.04 1720.98Z" fill="#232323"/>
</g>
<path d="M2096.6 2115.31L2093.98 2091.74C2136.63 2087.1 2179.02 2067.21 2210.36 2037.29C2242.69 2006.32 2260.53 1967.59 2260.53 1928.47C2260.53 1895.61 2233.77 1868.96 2200.79 1868.96C2167.8 1868.96 2141.04 1895.61 2141.04 1928.47V1940.37H2068.7V1916.65H2118.05C2124.68 1871.08 2167.07 1839.53 2212.81 1846.14C2253.98 1852.09 2284.51 1887.14 2284.51 1928.55C2284.51 1974.2 2264.05 2018.95 2226.97 2054.49C2191.86 2087.92 2144.32 2110.17 2096.6 2115.31Z" fill="white"/>
<mask id="mask1_433_8482" style="mask-type:luminance" maskUnits="userSpaceOnUse" x="2064" y="1841" width="224" height="278">
<path d="M2064.5 1841.33H2287.5V2118.67H2064.5V1841.33Z" fill="white"/>
</mask>
<g mask="url(#mask1_433_8482)">
<path d="M2096.6 2118.3C2095.07 2118.29 2093.8 2117.15 2093.63 2115.64L2091.01 2092.08C2090.92 2091.29 2091.15 2090.49 2091.65 2089.88C2092.15 2089.26 2092.87 2088.86 2093.66 2088.77C2135.58 2084.2 2177.36 2064.65 2208.29 2035.13C2240.04 2004.7 2257.53 1966.82 2257.53 1928.47C2257.53 1897.31 2232.07 1871.95 2200.79 1871.95C2169.49 1871.95 2144.04 1897.31 2144.04 1928.47V1940.37C2144.04 1942.02 2142.7 1943.36 2141.04 1943.36H2068.7C2067.04 1943.36 2065.7 1942.02 2065.7 1940.37V1916.65C2065.7 1915 2067.04 1913.66 2068.7 1913.66H2115.49C2123.54 1867.94 2166.82 1836.48 2213.24 1843.18C2233.86 1846.16 2252.73 1856.42 2266.35 1872.08C2279.99 1887.76 2287.5 1907.81 2287.5 1928.55C2287.5 1975.02 2266.74 2020.52 2229.05 2056.66C2193.36 2090.63 2145.21 2113.08 2096.92 2118.28C2096.82 2118.29 2096.71 2118.3 2096.6 2118.3ZM2097.29 2094.37L2099.25 2111.99C2145.25 2106.35 2190.9 2084.7 2224.91 2052.33C2261.41 2017.34 2281.51 1973.38 2281.51 1928.55C2281.51 1909.25 2274.53 1890.59 2261.84 1876.01C2249.15 1861.43 2231.59 1851.88 2212.39 1849.1C2168.39 1842.75 2127.39 1873.24 2121.01 1917.08C2120.8 1918.55 2119.54 1919.64 2118.05 1919.64H2071.69V1937.38H2138.05V1928.47C2138.05 1894.01 2166.19 1865.97 2200.79 1865.97C2235.38 1865.97 2263.52 1894.01 2263.52 1928.47C2263.52 1968.47 2245.38 2007.89 2212.43 2039.45C2181.3 2069.17 2139.48 2089.08 2097.29 2094.37Z" fill="#232323"/>
</g>
<path d="M1809.03 2267.01H2109.12L2108.96 2265.38L2102.09 2147.34L2101.27 2131.77L2093.01 1991.07L2087.44 1895.94L2087.28 1892.03L2083.18 1821.6H1834.97L1830.87 1892.03L1830.63 1895.94L1825.87 1977.27L1706.4 1911.1L1688.64 1901.32L1646.49 1926.43L1665.56 1944.53L1819.33 2089.74L1809.11 2265.38L1809.03 2267.01Z" fill="white"/>
<mask id="mask2_433_8482" style="mask-type:luminance" maskUnits="userSpaceOnUse" x="1643" y="1817" width="470" height="454">
<path d="M1643.5 1817.33H2112.5V2270H1643.5V1817.33Z" fill="white"/>
</mask>
<g mask="url(#mask2_433_8482)">
<path d="M2109.13 2270H1809.03C1808.2 2270 1807.42 2269.66 1806.85 2269.07C1806.29 2268.47 1805.99 2267.68 1806.04 2266.86L1806.11 2265.23L1816.26 2090.96L1663.51 1946.7L1644.43 1928.6C1643.75 1927.95 1643.41 1927.03 1643.52 1926.1C1643.62 1925.17 1644.16 1924.34 1644.96 1923.86L1687.11 1898.76C1688.02 1898.21 1689.16 1898.19 1690.09 1898.7L1707.85 1908.48L1823.16 1972.34L1827.64 1895.77L1827.89 1891.84L1831.98 1821.43C1832.07 1819.85 1833.38 1818.61 1834.97 1818.61H2083.19C2084.78 1818.61 2086.08 1819.85 2086.18 1821.43L2090.27 1891.86L2090.43 1895.82L2095.99 1990.9L2104.26 2131.59L2105.08 2147.18L2111.95 2265.14L2112.11 2266.71C2112.19 2267.55 2111.92 2268.39 2111.35 2269.02C2110.78 2269.64 2109.97 2270 2109.13 2270ZM1812.19 2264.02H2105.89L2099.1 2147.52L2098.28 2131.93L2090.02 1991.25L2084.45 1896.11L2084.28 1892.16L2080.36 1824.59H1837.79L1833.86 1892.2L1833.62 1896.13L1828.86 1977.44C1828.8 1978.47 1828.22 1979.39 1827.32 1979.89C1826.42 1980.39 1825.32 1980.38 1824.42 1979.89L1704.95 1913.72L1688.7 1904.77L1651.42 1926.98L1667.62 1942.36L1821.38 2087.56C1822.03 2088.17 1822.36 2089.03 1822.31 2089.91L1812.19 2264.02Z" fill="#232323"/>
</g>
<path d="M1904.2 1848.83C1904.2 1855.08 1901.31 1860.16 1897.74 1860.16C1894.17 1860.16 1891.28 1855.08 1891.28 1848.83C1891.28 1842.57 1894.17 1837.49 1897.74 1837.49C1901.31 1837.49 1904.2 1842.57 1904.2 1848.83Z" fill="#042628"/>
<path d="M1904.2 1871.57C1904.2 1877.83 1901.31 1882.9 1897.74 1882.9C1894.17 1882.9 1891.28 1877.83 1891.28 1871.57C1891.28 1865.31 1894.17 1860.24 1897.74 1860.24C1901.31 1860.24 1904.2 1865.31 1904.2 1871.57Z" fill="#042628"/>
<path d="M1920.49 1860.24C1920.49 1863.8 1915.4 1866.68 1909.11 1866.68C1902.83 1866.68 1897.74 1863.8 1897.74 1860.24C1897.74 1856.68 1902.83 1853.8 1909.11 1853.8C1915.4 1853.8 1920.49 1856.68 1920.49 1860.24Z" fill="#042628"/>
<path d="M1897.66 1860.24C1897.66 1863.8 1892.56 1866.68 1886.28 1866.68C1880 1866.68 1874.91 1863.8 1874.91 1860.24C1874.91 1856.68 1880 1853.8 1886.28 1853.8C1892.56 1853.8 1897.66 1856.68 1897.66 1860.24Z" fill="#042628"/>
<path d="M1965.5 1848.83C1965.5 1855.08 1962.6 1860.16 1959.04 1860.16C1955.46 1860.16 1952.57 1855.08 1952.57 1848.83C1952.57 1842.57 1955.46 1837.49 1959.04 1837.49C1962.6 1837.49 1965.5 1842.57 1965.5 1848.83Z" fill="#042628"/>
<path d="M1965.5 1871.57C1965.5 1877.83 1962.6 1882.9 1959.04 1882.9C1955.46 1882.9 1952.57 1877.83 1952.57 1871.57C1952.57 1865.31 1955.46 1860.24 1959.04 1860.24C1962.6 1860.24 1965.5 1865.31 1965.5 1871.57Z" fill="#042628"/>
<path d="M1981.79 1860.24C1981.79 1863.8 1976.69 1866.68 1970.41 1866.68C1964.13 1866.68 1959.04 1863.8 1959.04 1860.24C1959.04 1856.68 1964.13 1853.8 1970.41 1853.8C1976.69 1853.8 1981.79 1856.68 1981.79 1860.24Z" fill="#042628"/>
<path d="M1959.04 1860.24C1959.04 1863.8 1953.94 1866.68 1947.66 1866.68C1941.38 1866.68 1936.29 1863.8 1936.29 1860.24C1936.29 1856.68 1941.38 1853.8 1947.66 1853.8C1953.94 1853.8 1959.04 1856.68 1959.04 1860.24Z" fill="#042628"/>
<path d="M2026.88 1848.83C2026.88 1855.08 2023.98 1860.16 2020.42 1860.16C2016.84 1860.16 2013.95 1855.08 2013.95 1848.83C2013.95 1842.57 2016.84 1837.49 2020.42 1837.49C2023.98 1837.49 2026.88 1842.57 2026.88 1848.83Z" fill="#042628"/>
<path d="M2026.88 1871.57C2026.88 1877.83 2023.98 1882.9 2020.42 1882.9C2016.84 1882.9 2013.95 1877.83 2013.95 1871.57C2013.95 1865.31 2016.84 1860.24 2020.42 1860.24C2023.98 1860.24 2026.88 1865.31 2026.88 1871.57Z" fill="#042628"/>
<path d="M2043.17 1860.24C2043.17 1863.8 2038.07 1866.68 2031.79 1866.68C2025.51 1866.68 2020.42 1863.8 2020.42 1860.24C2020.42 1856.68 2025.51 1853.8 2031.79 1853.8C2038.07 1853.8 2043.17 1856.68 2043.17 1860.24Z" fill="#042628"/>
<path d="M2020.41 1860.24C2020.41 1863.8 2015.32 1866.68 2009.04 1866.68C2002.76 1866.68 1997.66 1863.8 1997.66 1860.24C1997.66 1856.68 2002.76 1853.8 2009.04 1853.8C2015.32 1853.8 2020.41 1856.68 2020.41 1860.24Z" fill="#042628"/>
<path d="M2083.18 1822.25H1834.97V1807.42C1834.97 1782.23 1855.43 1761.85 1880.71 1761.85H2037.35C2062.64 1761.85 2083.1 1782.23 2083.1 1807.42L2083.18 1822.25Z" fill="white"/>
<path d="M2083.18 1825.24H1834.97C1833.31 1825.24 1831.97 1823.9 1831.97 1822.25V1807.42C1831.97 1780.64 1853.84 1758.85 1880.72 1758.85H2037.35C2064.23 1758.85 2086.1 1780.64 2086.1 1807.42L2086.18 1822.23C2086.18 1823.03 2085.87 1823.79 2085.31 1824.36C2084.74 1824.92 2083.98 1825.24 2083.18 1825.24ZM1837.96 1819.26H2080.17L2080.11 1807.43C2080.11 1783.94 2060.93 1764.84 2037.35 1764.84H1880.72C1857.14 1764.84 1837.96 1783.94 1837.96 1807.42V1819.26ZM2087.44 1898.93H1830.63C1828.98 1898.93 1827.64 1897.59 1827.64 1895.94C1827.64 1894.29 1828.98 1892.95 1830.63 1892.95H2087.44C2089.09 1892.95 2090.43 1894.29 2090.43 1895.94C2090.43 1897.59 2089.09 1898.93 2087.44 1898.93Z" fill="#232323"/>
<path d="M1835.9 2178.15C1836.14 2177.91 1836.31 2177.66 1836.55 2177.41L1835.4 2174.94C1826.15 2153.72 1801.36 2138.88 1773.85 2138.05L1769.07 2137.96L1769.05 2137.95L1767.4 2134.99C1759.47 2116.68 1737.99 2103.89 1714.28 2103.22H1709.98C1709.98 2103.22 1706.97 2101.51 1707.51 2101.82C1676.11 2083.33 1633.72 2083.33 1602.33 2101.82L1598.27 2104.21L1593.9 2104.71C1570.19 2105.37 1548.71 2118.16 1540.78 2136.48L1540.03 2138.1L1536.89 2138.05C1509.38 2138.88 1484.59 2153.72 1475.34 2174.93L1474.18 2177.41C1474.43 2177.66 1474.6 2177.91 1474.84 2178.15H1835.9Z" fill="white"/>
<mask id="mask3_433_8482" style="mask-type:luminance" maskUnits="userSpaceOnUse" x="1471" y="2085" width="370" height="97">
<path d="M1471.17 2085H1840.5V2181.33H1471.17V2085Z" fill="white"/>
</mask>
<g mask="url(#mask3_433_8482)">
<path d="M1835.9 2181.11H1474.84C1474.06 2181.11 1473.31 2180.8 1472.76 2180.24C1472.58 2180.06 1472.41 2179.88 1472.25 2179.68C1472.2 2179.62 1472.16 2179.56 1472.1 2179.51C1471.22 2178.63 1470.98 2177.29 1471.51 2176.16L1472.67 2173.68C1482.35 2151.49 1508.14 2135.95 1536.81 2135.09C1536.85 2135.09 1536.9 2135.09 1536.95 2135.09L1538.15 2135.11C1546.54 2115.91 1568.84 2102.49 1593.69 2101.76L1597.31 2101.35L1600.82 2099.28C1633.17 2080.23 1676.63 2080.22 1708.98 2099.26H1708.98L1709 2099.27C1709.08 2099.32 1709.16 2099.38 1709.24 2099.43C1709.58 2099.59 1709.9 2099.78 1710.17 2099.93L1710.76 2100.27H1714.28C1739.26 2100.96 1761.62 2114.39 1770.05 2133.68L1770.81 2135.04L1773.9 2135.09C1802.6 2135.95 1828.39 2151.49 1838.1 2173.75L1839.23 2176.16C1839.76 2177.29 1839.52 2178.63 1838.64 2179.51C1838.58 2179.56 1838.54 2179.62 1838.49 2179.68C1838.33 2179.88 1838.16 2180.06 1837.98 2180.24C1837.43 2180.8 1836.68 2181.11 1835.89 2181.11H1835.9ZM1478.46 2175.2H1832.28C1823.1 2155.45 1799.76 2141.78 1773.76 2141L1769.02 2140.92C1768.49 2140.91 1767.97 2140.76 1767.53 2140.48C1767.09 2140.22 1766.72 2139.84 1766.47 2139.39L1764.82 2136.43C1764.78 2136.34 1764.73 2136.26 1764.69 2136.17C1757.2 2118.86 1736.91 2106.81 1714.2 2106.18H1709.98C1709.47 2106.18 1708.96 2106.05 1708.52 2105.79C1708.52 2105.79 1706.76 2104.79 1706.19 2104.47C1706.13 2104.44 1706.07 2104.41 1706.01 2104.37L1705.99 2104.36C1675.44 2086.38 1634.38 2086.38 1603.83 2104.36L1601.76 2105.59C1601.08 2105.99 1600.53 2106.32 1600.06 2106.57C1599.96 2106.64 1599.87 2106.7 1599.77 2106.76L1599.76 2106.73C1599 2107.11 1598.48 2107.27 1597.97 2107.22L1594.23 2107.65C1594.15 2107.65 1594.07 2107.66 1593.98 2107.66C1571.28 2108.3 1550.98 2120.35 1543.49 2137.65L1542.71 2139.34C1542.21 2140.41 1541.14 2141.1 1539.97 2141.06L1536.91 2141.01C1510.91 2141.81 1487.58 2155.49 1478.46 2175.2Z" fill="#232323"/>
</g>
<mask id="mask4_433_8482" style="mask-type:luminance" maskUnits="userSpaceOnUse" x="1457" y="2202" width="415" height="69">
<path d="M1457.83 2202.67H1871.17V2270H1457.83V2202.67Z" fill="white"/>
</mask>
<g mask="url(#mask4_433_8482)">
<path d="M1486.91 2270H1843.91L1870.35 2202.83H1458.57L1486.91 2270Z" fill="#4CAF7A"/>
</g>
<path d="M1655.7 2137.96C1631.74 2129.8 1610.84 2119.65 1598.28 2104.21C1583.82 2122.53 1563.58 2132.03 1540.94 2137.89L1540.03 2138.13H1541.35C1564.73 2141.02 1583.41 2152.73 1598.2 2171.72C1613.23 2154.22 1632.81 2143.66 1655.7 2137.96Z" fill="white"/>
<path d="M1598.2 2174.67H1598.13C1597.24 2174.65 1596.41 2174.23 1595.86 2173.53C1581 2154.46 1563.11 2143.84 1541.17 2141.08H1540.03C1538.55 2141.08 1537.3 2139.99 1537.1 2138.52C1536.91 2137.05 1537.83 2135.67 1539.26 2135.28L1540.17 2135.03C1565.92 2128.36 1583.64 2117.99 1595.96 2102.38C1596.52 2101.68 1597.36 2101.27 1598.26 2101.26C1599.16 2101.24 1600.01 2101.65 1600.57 2102.34C1611.09 2115.28 1628.92 2125.71 1656.65 2135.17C1657.9 2135.59 1658.71 2136.78 1658.65 2138.09C1658.6 2139.4 1657.69 2140.52 1656.41 2140.83C1632.64 2146.75 1614.33 2157.48 1600.44 2173.64C1599.88 2174.3 1599.06 2174.67 1598.2 2174.67ZM1553.11 2137.38C1570.52 2141.95 1585.67 2151.92 1598.31 2167.14C1610.84 2153.52 1626.54 2143.81 1646.01 2137.63C1623.85 2129.26 1608.48 2119.96 1598.33 2108.8C1587.34 2121.58 1572.74 2130.83 1553.11 2137.38Z" fill="#232323"/>
<path d="M1769.06 2137.96C1745.09 2129.8 1722.54 2118.66 1709.98 2103.22C1695.52 2121.54 1674.7 2132.02 1652.07 2137.88H1651.9L1651.98 2137.96L1651.9 2138.05H1652.07C1675.69 2140.85 1694.45 2152.57 1709.41 2171.71C1724.44 2154.22 1746.17 2143.66 1769.06 2137.96Z" fill="white"/>
<path d="M1709.4 2174.67H1709.33C1708.45 2174.65 1707.62 2174.23 1707.07 2173.54C1699.73 2164.13 1691.45 2156.65 1682.47 2151.29C1673.27 2145.81 1662.98 2142.34 1651.89 2141.01C1651.09 2141 1650.33 2140.68 1649.78 2140.1C1649.22 2139.53 1648.92 2138.76 1648.95 2137.96C1648.91 2136.4 1650.09 2135.07 1651.65 2134.94C1676.34 2128.49 1695.18 2117.21 1707.66 2101.39C1708.22 2100.69 1709.06 2100.28 1709.96 2100.27C1710.91 2100.25 1711.71 2100.66 1712.27 2101.35C1722.83 2114.33 1742.26 2125.7 1770.01 2135.17C1771.25 2135.59 1772.06 2136.78 1772.01 2138.09C1771.95 2139.4 1771.04 2140.52 1769.77 2140.83C1744.51 2147.12 1724.95 2158.16 1711.65 2173.65C1711.08 2174.3 1710.27 2174.67 1709.4 2174.67ZM1664.19 2137.33C1681.62 2141.9 1696.82 2151.9 1709.52 2167.16C1721.81 2153.96 1738.53 2144.05 1759.33 2137.6C1736.91 2129.08 1720.37 2119.08 1710.04 2107.8C1698.85 2120.81 1683.47 2130.71 1664.19 2137.33Z" fill="#232323"/>
<mask id="mask5_433_8482" style="mask-type:luminance" maskUnits="userSpaceOnUse" x="1418" y="2170" width="493" height="36">
<path d="M1418.5 2170.67H1910.5V2205.33H1418.5V2170.67Z" fill="white"/>
</mask>
<g mask="url(#mask5_433_8482)">
<path d="M1895.21 2204.06H1433.79C1425.36 2204.06 1418.5 2197.21 1418.5 2188.8V2187.07C1418.5 2178.65 1425.36 2171.8 1433.78 2171.8H1895.21C1903.64 2171.8 1910.5 2178.65 1910.5 2187.07V2188.8C1910.51 2192.85 1908.9 2196.74 1906.03 2199.61C1903.16 2202.47 1899.27 2204.08 1895.21 2204.06Z" fill="#4CAF7A"/>
</g>
<mask id="mask6_433_8482" style="mask-type:luminance" maskUnits="userSpaceOnUse" x="1197" y="2033" width="212" height="239">
<path d="M1197.5 2033.33H1408.5V2271H1197.5V2033.33Z" fill="white"/>
</mask>
<g mask="url(#mask6_433_8482)">
<path d="M1355.43 2050.83C1281.4 1999.63 1189.06 2071.97 1198.12 2170.09C1203.24 2226.96 1242.8 2273.96 1302.99 2270.85C1416.7 2276.47 1445.14 2111.35 1355.43 2050.83ZM1383.93 2167.12C1381.14 2198.13 1365.18 2226.31 1336.24 2238.26C1333.92 2239.58 1328.29 2242 1315.21 2244.76C1292.82 2248.72 1272.75 2239.91 1269.94 2238.26C1194.64 2207.15 1212.14 2074.88 1293.4 2062.83C1340.06 2054.8 1389.63 2103.2 1383.93 2167.12Z" fill="#042628"/>
</g>
<path d="M1528.94 2063.71C1528.94 2063.93 1528.94 2064.05 1528.84 2064.27C1528.94 2064.05 1529.04 2063.93 1529.13 2063.71H1528.94Z" fill="#21A0AA"/>
<path d="M1447.22 2047.85L1434.43 2023.19C1427.45 2009.76 1431.43 1992.46 1443.25 1984.54L1464.96 1970C1476.79 1962.07 1492.01 1966.59 1498.98 1980.02L1511.78 2004.69C1518.76 2018.12 1514.79 2035.41 1502.96 2043.34L1481.25 2057.87C1469.42 2065.81 1454.2 2061.29 1447.22 2047.85Z" fill="white"/>
<path d="M1468.69 2064.81C1466.62 2064.81 1464.53 2064.55 1462.47 2064.02C1454.96 2062.1 1448.42 2056.72 1444.54 2049.24L1431.74 2024.58C1424.11 2009.87 1428.51 1990.78 1441.57 1982.03L1463.28 1967.49C1469.46 1963.35 1476.72 1962.06 1483.74 1963.85C1491.25 1965.78 1497.79 1971.16 1501.67 1978.63L1514.46 2003.3C1522.1 2018.01 1517.7 2037.09 1504.65 2045.85L1482.93 2060.39C1478.57 2063.31 1473.67 2064.81 1468.69 2064.81ZM1449.91 2046.46C1453.04 2052.5 1458.04 2056.66 1463.97 2058.17C1469.3 2059.54 1474.84 2058.54 1479.56 2055.37L1501.28 2040.83C1511.86 2033.74 1515.36 2018.15 1509.09 2006.08L1496.3 1981.41C1493.17 1975.38 1488.18 1971.22 1482.24 1969.7C1476.91 1968.34 1471.37 1969.34 1466.65 1972.51L1444.93 1987.04C1434.35 1994.14 1430.84 2009.73 1437.11 2021.8L1449.91 2046.46Z" fill="#232323"/>
<path d="M1362.22 2020.33L1361.93 1987.62C1361.73 1970 1374.24 1955.57 1389.75 1955.35H1389.84L1418.63 1955.03C1434.14 1954.8 1446.84 1969.01 1447.03 1986.63V1986.74L1447.32 2019.44C1447.52 2037.06 1435.01 2051.49 1419.51 2051.71H1419.41L1390.62 2052.04C1375.11 2052.26 1362.41 2038.17 1362.22 2020.66V2020.32V2020.33Z" fill="white"/>
<path d="M1390.26 2055.06C1382.77 2055.06 1375.55 2052.04 1369.89 2046.53C1363.2 2040.02 1359.31 2030.6 1359.2 2020.69V2020.33L1358.91 1987.65C1358.69 1968.42 1372.51 1952.58 1389.7 1952.33H1389.84L1418.6 1952.01C1426.18 1951.9 1433.54 1954.92 1439.29 1960.52C1446.02 1967.07 1449.95 1976.58 1450.06 1986.59V1986.74L1450.34 2019.42C1450.56 2038.64 1436.74 2054.48 1419.55 2054.73H1419.41L1390.65 2055.06H1390.26ZM1418.98 1958.04C1418.88 1958.04 1418.78 1958.04 1418.68 1958.04L1389.88 1958.37H1389.75C1375.92 1958.57 1364.78 1971.67 1364.95 1987.58L1365.24 2020.3V2020.66C1365.33 2028.94 1368.57 2036.81 1374.11 2042.21C1378.71 2046.69 1384.57 2049.11 1390.58 2049.02L1419.38 2048.69H1419.51C1433.33 2048.49 1444.47 2035.39 1444.3 2019.48L1444.01 1986.63C1443.92 1978.24 1440.66 1970.28 1435.06 1964.84C1430.56 1960.45 1424.85 1958.04 1418.98 1958.04Z" fill="#232323"/>
<mask id="mask7_433_8482" style="mask-type:luminance" maskUnits="userSpaceOnUse" x="1311" y="2012" width="248" height="259">
<path d="M1311.17 2012H1558.5V2271H1311.17V2012Z" fill="white"/>
</mask>
<g mask="url(#mask7_433_8482)">
<path d="M1558.5 2012.51C1556.81 2060.81 1511.73 2118.21 1510.23 2267.44V2270.85H1360.28C1359.24 2223.75 1356.17 2148.08 1320.15 2052.59C1315.31 2039.93 1312.59 2026.27 1312.1 2012.4L1558.5 2012.51Z" fill="#042628"/>
</g>
<path d="M1428.3 1476.16C1398.84 1646.3 1512.42 1912.57 1579.8 1907.7C1635.21 1903.61 1550.83 1601.21 1428.3 1476.16Z" fill="#232323"/>
<path d="M1816.58 1643.78C1749.01 1759.79 1658.36 1812.83 1578.84 1837.81C1578.01 1838.05 1576.95 1838.39 1576.13 1838.62C1513.17 1857.56 1446.71 1861.49 1381.84 1850.15L1381.68 1850.09L1378.59 1849.46C1377.02 1849.22 1375.5 1848.83 1374.15 1848.49C1366.78 1846.97 1362.78 1845.81 1362.78 1845.81L1365.44 1831.12L1428.46 1473.4C1448.88 1478.07 1469.05 1483.39 1488.75 1489.45C1488.75 1489.45 1605.77 1362.26 1651.76 1194.39C1697.74 1026.52 1706.94 909.771 1693.82 802.958C1681.25 700.047 1703.33 702.776 1723.74 757.698C1744.16 812.62 1753.91 837.412 1753.91 837.412C1753.91 837.412 1747.73 769.469 1745.34 734.188C1742.94 698.906 1752.06 680.417 1770.95 719.979C1789.84 759.542 1787.48 759.927 1794.64 778.922C1777.06 686.662 1794.56 679.136 1810.51 714.797C1829.14 756.479 1835.44 780.136 1844.67 806.761C1841.34 765.208 1842.9 715.74 1864.23 768.25C1889.65 831.37 2000.35 1327.84 1816.58 1643.78Z" fill="white"/>
<mask id="mask8_433_8482" style="mask-type:luminance" maskUnits="userSpaceOnUse" x="1359" y="692" width="565" height="1168">
<path d="M1359.17 692H1923.5V1860H1359.17V692Z" fill="white"/>
</mask>
<g mask="url(#mask8_433_8482)">
<path d="M1454.48 1859.43C1429.97 1859.43 1405.46 1857.33 1381.32 1853.1C1381.16 1853.08 1381 1853.04 1380.84 1852.98L1378.07 1852.42C1376.55 1852.19 1375.12 1851.83 1373.87 1851.52L1373.48 1851.43C1366.11 1849.9 1362.11 1848.74 1361.94 1848.69C1360.46 1848.26 1359.55 1846.79 1359.82 1845.27L1362.49 1830.59L1425.51 1472.87C1425.65 1472.06 1426.12 1471.34 1426.81 1470.89C1427.49 1470.44 1428.33 1470.28 1429.14 1470.46C1449.56 1475.15 1469.29 1480.37 1487.8 1486.02C1493.77 1479.32 1520.14 1449.02 1550.57 1403.1C1582.36 1355.15 1625.22 1279.87 1648.86 1193.59C1671.33 1111.54 1685.44 1040.19 1691.97 975.469C1698.04 915.255 1697.68 858.943 1690.84 803.318C1684.2 748.911 1686.47 719.953 1697.6 717.25C1708.45 714.62 1719.34 737.219 1726.56 756.646C1736.55 783.521 1744.02 803.255 1749.02 816.359C1746.99 793.359 1743.88 756.995 1742.34 734.385C1741.42 720.786 1741.36 697.583 1751.41 694.948C1758.03 693.219 1765.1 700.75 1773.67 718.682C1779.74 731.406 1783.65 740.156 1786.38 746.766C1782.92 719.557 1782.82 695.38 1792.6 692.307C1800.68 689.776 1808.29 702.469 1813.24 713.568C1826.96 744.234 1833.95 764.964 1840.44 784.651C1840.25 777.771 1840.28 771.49 1840.54 766.146C1841.27 750.838 1843.64 743.823 1848.45 742.682C1854.05 741.354 1859.43 748.432 1867.02 767.115C1881.9 804.083 1914.33 947.354 1921.85 1111.06C1926.33 1208.49 1921.7 1299.99 1908.09 1383.05C1891.54 1484.08 1861.62 1572.31 1819.18 1645.28C1762.32 1742.89 1681.77 1808.62 1579.74 1840.67C1579.27 1840.81 1578.81 1840.95 1578.35 1841.09C1577.86 1841.23 1577.38 1841.38 1576.95 1841.51C1537.36 1853.42 1495.93 1859.43 1454.48 1859.43ZM1382.62 1847.24C1446.61 1858.39 1513.21 1854.41 1575.26 1835.74C1575.7 1835.62 1576.15 1835.48 1576.6 1835.34C1577.07 1835.2 1577.54 1835.06 1578.01 1834.93C1678.48 1803.36 1757.9 1738.54 1813.98 1642.27C1856.06 1569.93 1885.72 1482.39 1902.16 1382.08C1915.7 1299.44 1920.31 1208.35 1915.85 1111.34C1907.76 935.323 1872.64 797.172 1861.44 769.37C1854.29 751.771 1850.69 749.036 1849.8 748.609C1847.12 751.109 1844.76 770.286 1847.66 806.521C1847.78 808.026 1846.76 809.385 1845.28 809.698C1843.8 810.005 1842.32 809.172 1841.83 807.74C1839.66 801.49 1837.7 795.536 1835.62 789.234C1828.91 768.87 1821.97 747.812 1807.76 716.021C1801.19 701.328 1795.92 697.573 1794.4 698.036C1791.22 699.036 1785.59 715.417 1797.58 778.359C1797.87 779.891 1796.94 781.385 1795.44 781.807C1793.95 782.229 1792.37 781.437 1791.82 779.979C1789.72 774.406 1788.44 770.443 1787.2 766.609C1784.18 757.26 1781.57 749.182 1768.24 721.266C1760.01 704.031 1754.63 700.312 1752.93 700.76C1750.73 701.333 1746.72 710.213 1748.33 733.984C1750.7 768.823 1756.84 836.458 1756.9 837.135C1757.03 838.625 1756.05 839.984 1754.6 840.328C1753.15 840.672 1751.66 839.896 1751.11 838.51C1751.02 838.26 1741.12 813.062 1720.93 758.74C1710.76 731.354 1702.08 722.318 1699.02 723.083C1695.01 724.057 1689.4 741.927 1696.81 802.589C1703.69 858.661 1704.06 915.406 1697.94 976.073C1691.38 1041.14 1677.22 1112.8 1654.66 1195.18C1630.79 1282.28 1587.57 1358.19 1555.51 1406.53C1520.78 1458.9 1491.26 1491.17 1490.96 1491.48C1490.18 1492.34 1488.97 1492.66 1487.86 1492.32C1469.9 1486.79 1450.74 1481.65 1430.87 1477.03L1368.4 1831.64L1366.23 1843.61C1368.11 1844.09 1370.99 1844.77 1374.76 1845.55L1374.86 1845.58L1375.32 1845.69C1376.52 1845.99 1377.77 1846.3 1379.03 1846.48C1379.08 1846.49 1379.14 1846.5 1379.19 1846.51L1382.28 1847.15C1382.4 1847.17 1382.51 1847.2 1382.62 1847.24Z" fill="#232323"/>
</g>
<path d="M1533.43 1511.13C1532.99 1511.13 1532.55 1511.04 1532.14 1510.83C1519.02 1504.55 1503.24 1497.96 1487.71 1492.27C1486.69 1491.91 1485.95 1491.03 1485.76 1489.96C1485.57 1488.9 1485.96 1487.82 1486.8 1487.12C1487.63 1486.44 1488.77 1486.25 1489.78 1486.63C1505.48 1492.39 1521.44 1499.06 1534.73 1505.42C1536 1506.02 1536.68 1507.42 1536.36 1508.79C1536.06 1510.16 1534.83 1511.14 1533.43 1511.13ZM1790.29 1032.35C1788.9 1032.35 1787.7 1031.41 1787.37 1030.07C1778.91 995.453 1766.24 958.901 1752.63 929.781C1736.15 894.568 1726.67 887.833 1724.42 888.234C1723.61 888.37 1720.88 889.771 1719.43 902.109C1718.33 911.422 1718.24 923.989 1718.16 937.302C1718.06 951.385 1717.96 965.948 1716.7 978.875C1716.54 980.526 1715.07 981.713 1713.42 981.578C1711.77 981.417 1710.56 979.948 1710.72 978.297C1711.95 965.635 1712.05 951.208 1712.15 937.26C1712.35 906.432 1712.51 884.156 1723.41 882.312C1731.81 880.891 1743.46 896.01 1758.07 927.239C1771.84 956.703 1784.65 993.661 1793.21 1028.64C1793.6 1030.25 1792.61 1031.87 1791.01 1032.27C1790.77 1032.33 1790.53 1032.35 1790.29 1032.35ZM1811.13 856.042C1809.81 856.042 1808.64 855.182 1808.26 853.917C1808.18 853.672 1808.17 853.599 1807.82 851.682C1805.9 840.891 1803.78 830.135 1801.47 819.417C1798.23 804.427 1794.86 790.802 1791.45 778.922C1791 777.333 1791.92 775.672 1793.51 775.213C1795.1 774.76 1796.77 775.677 1797.23 777.266C1800.67 789.271 1804.08 803.026 1807.35 818.151C1809.67 828.937 1811.8 839.76 1813.74 850.62C1813.9 851.542 1814.01 852.125 1814.05 852.338C1814.27 853.234 1814.06 854.177 1813.49 854.901C1812.92 855.625 1812.05 856.047 1811.13 856.042ZM1855.31 853.906C1854.21 853.911 1853.19 853.302 1852.67 852.333C1852.45 851.922 1852.45 851.922 1851.67 848.516C1849.89 840.693 1848.05 832.88 1846.15 825.083C1844.66 818.969 1843.13 812.87 1841.55 806.776C1841.26 805.729 1841.56 804.614 1842.33 803.849C1843.09 803.088 1844.21 802.797 1845.26 803.088C1846.3 803.385 1847.1 804.219 1847.36 805.271C1848.9 811.198 1850.45 817.385 1851.98 823.661C1853.89 831.484 1855.74 839.328 1857.53 847.177C1857.88 848.708 1858.1 849.687 1858.18 850.01C1858.47 850.922 1858.3 851.917 1857.73 852.682C1857.17 853.453 1856.27 853.906 1855.31 853.906Z" fill="#232323"/>
<mask id="mask9_433_8482" style="mask-type:luminance" maskUnits="userSpaceOnUse" x="134" y="1429" width="1458" height="746">
<path d="M134.5 1429.33H1591.17V2174.67H134.5V1429.33Z" fill="white"/>
</mask>
<g mask="url(#mask9_433_8482)">
<mask id="mask10_433_8482" style="mask-type:luminance" maskUnits="userSpaceOnUse" x="134" y="1430" width="1457" height="744">
<path d="M1580.49 1904.81C1562.45 1902.58 1544.16 1886.74 1525.77 1860.18C1496.11 1817.34 1468.63 1747.03 1450.37 1667.28C1432.72 1590.13 1427.18 1518.2 1435.56 1474.85C1435.84 1473.4 1434.96 1471.98 1433.54 1471.58C1375.24 1455.41 1288.33 1448.23 1212.12 1453.29C1171.79 1455.97 1135.87 1462 1108.24 1470.72C1077.89 1480.32 1057.23 1493.03 1046.78 1508.56L823.031 1430.41C822.047 1430.06 820.953 1430.29 820.182 1430.99C813.38 1437.21 803.297 1444.82 790.203 1453.62C731.375 1392.32 539.885 1447.5 335.26 1676.26C278.026 1740.22 197.854 1833.35 158.5 1921.91C133.656 1977.82 134.521 2003.58 134.5 2004.6C134.432 2007.91 139.166 2008.61 140.057 2005.43C140.208 2004.89 154.307 1947.17 292.338 1934.44C381.484 1926.17 505.672 1940.64 602.25 1970.46L569.661 2170.23C569.531 2171.05 569.76 2171.88 570.302 2172.52C570.838 2173.15 571.625 2173.51 572.458 2173.52L572.515 2173.51L1094.21 2162.82C1095.55 2162.79 1096.69 2161.83 1096.94 2160.52C1097.19 2159.18 1122.12 2026.39 1115.59 1857.52C1240.04 1899.53 1359.07 1911.76 1437.34 1914.58C1523.06 1917.68 1569 1913.23 1579 1909.81C1586.94 1907.08 1590.03 1901.84 1590.03 1901.84C1590.03 1901.84 1586.01 1905.49 1580.49 1904.81Z" fill="white"/>
</mask>
<g mask="url(#mask10_433_8482)">
<path d="M1580.49 1904.81C1562.45 1902.58 1544.16 1886.74 1525.77 1860.18C1496.11 1817.34 1468.63 1747.03 1450.37 1667.28C1432.72 1590.13 1427.18 1518.2 1435.56 1474.85C1435.84 1473.4 1434.96 1471.98 1433.54 1471.58C1375.24 1455.41 1288.33 1448.23 1212.12 1453.29C1171.79 1455.97 1135.87 1462 1108.24 1470.72C1077.89 1480.32 1057.23 1493.03 1046.78 1508.56L823.031 1430.41C822.047 1430.06 820.953 1430.29 820.182 1430.99C813.38 1437.21 803.297 1444.82 790.203 1453.62C731.375 1392.32 539.885 1447.5 335.26 1676.26C278.026 1740.22 197.854 1833.35 158.5 1921.91C133.656 1977.82 134.521 2003.58 134.5 2004.6C134.432 2007.91 139.166 2008.61 140.057 2005.43C140.208 2004.89 154.307 1947.17 292.338 1934.44C381.484 1926.17 505.672 1940.64 602.25 1970.46L569.661 2170.23C569.531 2171.05 569.76 2171.88 570.302 2172.52C570.838 2173.15 571.625 2173.51 572.458 2173.52L572.515 2173.51L1094.21 2162.82C1095.55 2162.79 1096.69 2161.83 1096.94 2160.52C1097.19 2159.18 1122.12 2026.39 1115.59 1857.52C1240.04 1899.53 1359.07 1911.76 1437.34 1914.58C1523.06 1917.68 1569 1913.23 1579 1909.81C1586.94 1907.08 1590.03 1901.84 1590.03 1901.84C1590.03 1901.84 1586.01 1905.49 1580.49 1904.81Z" fill="#4CAF7A"/>
</g>
</g>
<mask id="mask11_433_8482" style="mask-type:luminance" maskUnits="userSpaceOnUse" x="969" y="1545" width="113" height="149">
<path d="M969.833 1545.33H1081.83V1693.33H969.833V1545.33Z" fill="white"/>
</mask>
<g mask="url(#mask11_433_8482)">
<mask id="mask12_433_8482" style="mask-type:luminance" maskUnits="userSpaceOnUse" x="134" y="1430" width="1457" height="744">
<path d="M1580.49 1904.81C1562.45 1902.58 1544.16 1886.74 1525.77 1860.18C1496.11 1817.34 1468.63 1747.03 1450.37 1667.28C1432.72 1590.13 1427.18 1518.2 1435.56 1474.85C1435.84 1473.4 1434.96 1471.98 1433.54 1471.58C1375.24 1455.41 1288.33 1448.23 1212.12 1453.29C1171.79 1455.97 1135.87 1462 1108.24 1470.72C1077.89 1480.32 1057.23 1493.03 1046.78 1508.56L823.031 1430.41C822.047 1430.06 820.953 1430.29 820.182 1430.99C813.38 1437.21 803.297 1444.82 790.203 1453.62C731.375 1392.32 539.885 1447.5 335.26 1676.26C278.026 1740.22 197.854 1833.35 158.5 1921.91C133.656 1977.82 134.521 2003.58 134.5 2004.6C134.432 2007.91 139.166 2008.61 140.057 2005.43C140.208 2004.89 154.307 1947.17 292.338 1934.44C381.484 1926.17 505.672 1940.64 602.25 1970.46L569.661 2170.23C569.531 2171.05 569.76 2171.88 570.302 2172.52C570.838 2173.15 571.625 2173.51 572.458 2173.52L572.515 2173.51L1094.21 2162.82C1095.55 2162.79 1096.69 2161.83 1096.94 2160.52C1097.19 2159.18 1122.12 2026.39 1115.59 1857.52C1240.04 1899.53 1359.07 1911.76 1437.34 1914.58C1523.06 1917.68 1569 1913.23 1579 1909.81C1586.94 1907.08 1590.03 1901.84 1590.03 1901.84C1590.03 1901.84 1586.01 1905.49 1580.49 1904.81Z" fill="white"/>
</mask>
<g mask="url(#mask12_433_8482)">
<path d="M1057.7 1692.95C1050.05 1692.95 1041.32 1688.31 1032.1 1679.25C1022.4 1669.72 1012.68 1655.7 1005.45 1640.78C992.083 1612.69 980.511 1582.2 971.037 1550.12C970.568 1548.53 971.474 1546.86 973.068 1546.39C973.828 1546.17 974.651 1546.25 975.354 1546.63C976.052 1547.02 976.573 1547.66 976.797 1548.42C986.182 1580.2 997.641 1610.4 1010.86 1638.18C1022.86 1662.94 1043.26 1686.94 1057.71 1686.94C1058.99 1686.95 1060.27 1686.74 1061.48 1686.33C1081.4 1679.64 1074.74 1622.28 1069.01 1588.69C1068.73 1587.05 1069.83 1585.5 1071.46 1585.22C1072.25 1585.09 1073.06 1585.27 1073.71 1585.73C1074.36 1586.19 1074.8 1586.89 1074.93 1587.68C1085.85 1651.61 1082.08 1685.74 1063.42 1692.02C1061.58 1692.64 1059.65 1692.96 1057.7 1692.95Z" fill="white"/>
</g>
</g>
<mask id="mask13_433_8482" style="mask-type:luminance" maskUnits="userSpaceOnUse" x="939" y="1528" width="54" height="274">
<path d="M939.167 1528H992.5V1801.33H939.167V1528Z" fill="white"/>
</mask>
<g mask="url(#mask13_433_8482)">
<mask id="mask14_433_8482" style="mask-type:luminance" maskUnits="userSpaceOnUse" x="134" y="1430" width="1457" height="744">
<path d="M1580.5 1904.81C1562.45 1902.58 1544.16 1886.74 1525.77 1860.18C1496.11 1817.34 1468.63 1747.03 1450.38 1667.28C1432.72 1590.13 1427.18 1518.2 1435.56 1474.85C1435.84 1473.4 1434.96 1471.98 1433.54 1471.58C1375.25 1455.41 1288.33 1448.23 1212.12 1453.29C1171.79 1455.97 1135.88 1462 1108.25 1470.72C1077.89 1480.32 1057.23 1493.03 1046.78 1508.56L823.032 1430.41C822.048 1430.06 820.954 1430.29 820.183 1430.99C813.381 1437.21 803.298 1444.82 790.204 1453.62C731.376 1392.32 539.886 1447.5 335.261 1676.26C278.027 1740.22 197.855 1833.35 158.501 1921.91C133.657 1977.82 134.522 2003.58 134.501 2004.6C134.433 2007.91 139.167 2008.61 140.058 2005.43C140.209 2004.89 154.308 1947.17 292.339 1934.44C381.485 1926.17 505.673 1940.64 602.251 1970.46L569.662 2170.23C569.532 2171.05 569.761 2171.88 570.303 2172.52C570.839 2173.15 571.626 2173.51 572.459 2173.52L572.516 2173.51L1094.21 2162.82C1095.55 2162.79 1096.69 2161.83 1096.94 2160.52C1097.19 2159.18 1122.13 2026.39 1115.59 1857.52C1240.04 1899.53 1359.07 1911.76 1437.34 1914.58C1523.06 1917.68 1569.01 1913.23 1579 1909.81C1586.94 1907.08 1590.03 1901.84 1590.03 1901.84C1590.03 1901.84 1586.01 1905.49 1580.5 1904.81Z" fill="white"/>
</mask>
<g mask="url(#mask14_433_8482)">
<path d="M959.506 1800.98C953.725 1800.98 948.439 1799.59 944.647 1798.59C943.704 1798.34 942.84 1798.11 942.079 1797.94C940.465 1797.56 939.454 1795.95 939.829 1794.33C940.199 1792.72 941.819 1791.71 943.433 1792.09C944.251 1792.28 945.168 1792.52 946.178 1792.78C954.277 1794.92 966.517 1798.14 976.183 1787.92C982.449 1781.3 989.027 1756.11 984.761 1673.74C982.001 1620.39 975.642 1563.4 973.246 1541.95C972.959 1539.43 972.683 1536.91 972.412 1534.39C972.084 1531.29 971.824 1528.83 974.761 1528.43C977.704 1528.03 978.173 1530.92 978.428 1532.47C978.496 1532.89 978.475 1533.3 978.376 1533.68C978.569 1535.48 978.871 1538.19 979.215 1541.28C995.918 1690.96 996.366 1775.33 980.548 1792.05C973.959 1799.01 966.381 1800.98 959.506 1800.98Z" fill="white"/>
</g>
</g>
<mask id="mask15_433_8482" style="mask-type:luminance" maskUnits="userSpaceOnUse" x="813" y="1493" width="169" height="205">
<path d="M813.833 1493.33H981.833V1697.33H813.833V1493.33Z" fill="white"/>
</mask>
<g mask="url(#mask15_433_8482)">
<mask id="mask16_433_8482" style="mask-type:luminance" maskUnits="userSpaceOnUse" x="134" y="1430" width="1457" height="744">
<path d="M1580.49 1904.81C1562.45 1902.58 1544.16 1886.74 1525.77 1860.18C1496.11 1817.34 1468.63 1747.03 1450.37 1667.28C1432.72 1590.13 1427.18 1518.2 1435.56 1474.85C1435.84 1473.4 1434.96 1471.98 1433.54 1471.58C1375.24 1455.41 1288.33 1448.23 1212.12 1453.29C1171.79 1455.97 1135.87 1462 1108.24 1470.72C1077.89 1480.32 1057.23 1493.03 1046.78 1508.56L823.031 1430.41C822.047 1430.06 820.953 1430.29 820.182 1430.99C813.38 1437.21 803.297 1444.82 790.203 1453.62C731.375 1392.32 539.885 1447.5 335.26 1676.26C278.026 1740.22 197.854 1833.35 158.5 1921.91C133.656 1977.82 134.521 2003.58 134.5 2004.6C134.432 2007.91 139.166 2008.61 140.057 2005.43C140.208 2004.89 154.307 1947.17 292.338 1934.44C381.484 1926.17 505.672 1940.64 602.25 1970.46L569.661 2170.23C569.531 2171.05 569.76 2171.88 570.302 2172.52C570.838 2173.15 571.625 2173.51 572.458 2173.52L572.515 2173.51L1094.21 2162.82C1095.55 2162.79 1096.69 2161.83 1096.94 2160.52C1097.19 2159.18 1122.12 2026.39 1115.59 1857.52C1240.04 1899.53 1359.07 1911.76 1437.34 1914.58C1523.06 1917.68 1569 1913.23 1579 1909.81C1586.94 1907.08 1590.03 1901.84 1590.03 1901.84C1590.03 1901.84 1586.01 1905.49 1580.49 1904.81Z" fill="white"/>
</mask>
<g mask="url(#mask16_433_8482)">
<path d="M928.641 1696.74C925.146 1696.74 921.589 1695.98 917.984 1694.47C877.667 1677.58 838.651 1565.7 821.99 1517.92C818.688 1508.45 816.297 1501.61 814.964 1498.52C814.307 1496.99 815.01 1495.23 816.531 1494.57C817.266 1494.26 818.089 1494.24 818.833 1494.54C819.573 1494.83 820.167 1495.41 820.479 1496.14C821.896 1499.43 824.318 1506.36 827.662 1515.95C844.057 1562.97 882.458 1673.08 920.302 1688.93C926.109 1691.36 931.484 1691.34 936.734 1688.86C969.792 1672.6 977.724 1564.02 973.859 1549.19C973.443 1547.58 974.401 1545.94 976.01 1545.53C977.615 1545.1 979.255 1546.07 979.672 1547.67C983.943 1564.04 976.568 1675.96 939.349 1694.27C935.865 1695.91 932.287 1696.74 928.641 1696.74Z" fill="white"/>
</g>
</g>
<mask id="mask17_433_8482" style="mask-type:luminance" maskUnits="userSpaceOnUse" x="676" y="1445" width="446" height="561">
<path d="M676.5 1445.33H1121.83V2005.33H676.5V1445.33Z" fill="white"/>
</mask>
<g mask="url(#mask17_433_8482)">
<mask id="mask18_433_8482" style="mask-type:luminance" maskUnits="userSpaceOnUse" x="134" y="1430" width="1457" height="744">
<path d="M1580.49 1904.81C1562.45 1902.58 1544.16 1886.74 1525.77 1860.18C1496.11 1817.34 1468.63 1747.03 1450.37 1667.28C1432.72 1590.13 1427.18 1518.2 1435.56 1474.85C1435.84 1473.4 1434.96 1471.98 1433.54 1471.58C1375.24 1455.41 1288.33 1448.23 1212.12 1453.29C1171.79 1455.97 1135.87 1462 1108.24 1470.72C1077.89 1480.32 1057.23 1493.03 1046.78 1508.56L823.031 1430.41C822.047 1430.06 820.953 1430.29 820.182 1430.99C813.38 1437.21 803.297 1444.82 790.203 1453.62C731.375 1392.32 539.885 1447.5 335.26 1676.26C278.026 1740.22 197.854 1833.35 158.5 1921.91C133.656 1977.82 134.521 2003.58 134.5 2004.6C134.432 2007.91 139.166 2008.61 140.057 2005.43C140.208 2004.89 154.307 1947.17 292.338 1934.44C381.484 1926.17 505.672 1940.64 602.25 1970.46L569.661 2170.23C569.531 2171.05 569.76 2171.88 570.302 2172.52C570.838 2173.15 571.625 2173.51 572.458 2173.52L572.515 2173.51L1094.21 2162.82C1095.55 2162.79 1096.69 2161.83 1096.94 2160.52C1097.19 2159.18 1122.12 2026.39 1115.59 1857.52C1240.04 1899.53 1359.07 1911.76 1437.34 1914.58C1523.06 1917.68 1569 1913.23 1579 1909.81C1586.94 1907.08 1590.03 1901.84 1590.03 1901.84C1590.03 1901.84 1586.01 1905.49 1580.49 1904.81Z" fill="white"/>
</mask>
<g mask="url(#mask18_433_8482)">
<path d="M680.146 2005.23C679.047 2005.23 678.031 2004.63 677.505 2003.66C676.979 2002.7 677.026 2001.52 677.63 2000.6C777.682 1845.94 811.735 1725.09 822.677 1650.95C829.474 1604.92 829.516 1563.67 822.807 1528.34C816.589 1495.57 804.474 1469.06 787.771 1451.67C786.62 1450.48 786.656 1448.58 787.854 1447.43C789.052 1446.28 790.959 1446.32 792.11 1447.52C828.834 1485.76 842.146 1560.22 828.62 1651.83C817.589 1726.56 783.313 1848.29 682.672 2003.86C682.12 2004.71 681.167 2005.23 680.146 2005.23ZM962.188 1758.65C965.25 1759.82 968.761 1758.39 969.995 1755.17C971.229 1751.95 969.735 1748.6 966.505 1747.37C963.281 1746.14 959.932 1747.62 958.698 1750.84C957.464 1754.07 959.12 1757.47 962.188 1758.65ZM971.563 1685.39C968.495 1684.21 964.99 1685.64 963.755 1688.86C962.521 1692.08 964.016 1695.43 967.24 1696.66C970.469 1697.9 973.818 1696.41 975.052 1693.18C976.287 1689.96 974.63 1686.56 971.563 1685.39ZM1118.72 1869.62C1117.13 1869.62 1115.82 1868.39 1115.73 1866.8C1112.86 1817.72 1104.87 1757.9 1091.97 1689.01C1078.95 1619.48 1062.2 1556.39 1044.79 1511.35C1044.19 1509.81 1044.96 1508.07 1046.51 1507.47C1047.25 1507.19 1048.08 1507.2 1048.81 1507.53C1049.54 1507.85 1050.1 1508.45 1050.39 1509.19C1067.93 1554.56 1084.79 1618.03 1097.88 1687.91C1110.82 1757.05 1118.84 1817.12 1121.72 1866.45C1121.82 1868.1 1120.56 1869.52 1118.9 1869.62C1118.84 1869.62 1118.78 1869.63 1118.72 1869.62Z" fill="white"/>
</g>
</g>
<mask id="mask19_433_8482" style="mask-type:luminance" maskUnits="userSpaceOnUse" x="134" y="1928" width="550" height="124">
<path d="M134.5 1928H683.167V2052H134.5V1928Z" fill="white"/>
</mask>
<g mask="url(#mask19_433_8482)">
<path d="M681.849 2000.11C588.328 1915.28 152.005 1895.37 134.958 2000.24C116.182 2115.91 681.849 2000.11 681.849 2000.11Z" fill="#232323"/>
</g>
<path d="M1299.81 2246.29C1299.81 2246.29 1286 2262.06 1103.42 2268.65C920.839 2275.23 676.636 2405.46 445.865 2343.17C260.235 2292.98 206.167 2145.73 220.401 2022.6C223.62 1993.91 231.13 1957.97 244.771 1930.36C458.708 1880.57 639.917 1956.09 681.75 1999.89L664.047 2025.81C720.693 2019.97 780.057 2018.13 838.479 2019.24C896.896 2020.36 954.104 2024.16 1006.27 2029.54C1042.42 2028.41 1068.71 2024.99 1107.99 2013.24C1147.29 2001.5 1216.1 1962.45 1185.38 2012.2C1176.71 2026.62 1165.39 2039.28 1152.13 2049.72C1198.37 2058.01 1230.17 2066.3 1239.84 2071.48C1274.89 2090.62 1264.58 2117.53 1264.58 2117.53C1286.86 2139.55 1275.62 2164.06 1275.62 2164.06C1285.88 2175.93 1290.39 2191.71 1287.96 2207.21C1302.83 2218.62 1299.81 2246.29 1299.81 2246.29Z" fill="white"/>
<mask id="mask20_433_8482" style="mask-type:luminance" maskUnits="userSpaceOnUse" x="215" y="1910" width="1089" height="454">
<path d="M215.167 1910.67H1303.17V2363H215.167V1910.67Z" fill="white"/>
</mask>
<g mask="url(#mask20_433_8482)">
<path d="M579.912 2362.96C531.464 2362.96 486.876 2357.35 445.084 2346.07C400.396 2333.98 361.188 2315.67 328.542 2291.64C298.667 2269.65 274.131 2242.78 255.61 2211.78C223.136 2157.44 209.574 2090.13 217.417 2022.26C221.417 1986.65 230.407 1952.67 242.079 1929.03C242.475 1928.22 243.214 1927.64 244.089 1927.43C362.683 1899.84 464.204 1912.02 528.485 1927.1C564.35 1935.52 598.485 1947.18 627.199 1960.83C652.48 1972.85 672.626 1985.98 683.922 1997.82C684.902 1998.84 685.032 2000.41 684.23 2001.58L670.162 2022.18C722.277 2017.1 778.881 2015.1 838.537 2016.24C893.923 2017.31 950.386 2020.77 1006.38 2026.53C1040.22 2025.47 1066.34 2022.57 1107.14 2010.37C1116.45 2007.59 1127.68 2003.16 1138.53 1998.88C1168.74 1986.95 1187.59 1980.04 1194.14 1987.86C1198.04 1992.53 1196.13 2000.52 1187.94 2013.78C1180.28 2026.52 1170.57 2037.99 1159.04 2047.93C1199.86 2055.45 1231.06 2063.37 1241.26 2068.83C1272.71 2086.01 1269.63 2109.79 1267.95 2116.67C1286.39 2136.03 1281.18 2157.21 1279.05 2163.47C1288.71 2175.4 1293.09 2190.74 1291.17 2205.97C1305.65 2218.79 1302.93 2245.46 1302.8 2246.62C1302.74 2247.23 1302.49 2247.81 1302.08 2248.28C1300.58 2249.99 1282.25 2265.21 1103.53 2271.65C1037.43 2274.04 962.928 2292.78 884.053 2312.61C814.23 2330.18 742.027 2348.34 668.126 2357.33C637.292 2361.08 607.954 2362.96 579.912 2362.96ZM246.839 1932.96C235.766 1955.94 227.235 1988.63 223.386 2022.94C215.688 2089.52 228.964 2155.48 260.761 2208.7C278.876 2239.01 302.876 2265.29 332.105 2286.8C364.146 2310.39 402.688 2328.38 446.646 2340.27C511.87 2357.88 584.079 2361.51 667.396 2351.36C740.923 2342.42 812.938 2324.3 882.579 2306.79C961.771 2286.87 1036.57 2268.05 1103.31 2265.65C1261.33 2259.95 1292.02 2247.41 1296.93 2244.65C1297.26 2239.21 1297.71 2218.48 1286.12 2209.59C1285.25 2208.92 1284.81 2207.83 1284.99 2206.74C1287.29 2192.11 1283.03 2177.22 1273.34 2166.02C1272.57 2165.13 1272.4 2163.88 1272.89 2162.8C1273.3 2161.89 1282.91 2139.86 1262.46 2119.66C1261.62 2118.82 1261.34 2117.56 1261.77 2116.45C1262.14 2115.46 1270.57 2091.68 1238.4 2074.11C1230.79 2070.03 1203.47 2061.96 1151.6 2052.68C1150.43 2052.47 1149.5 2051.6 1149.21 2050.45C1148.92 2049.3 1149.34 2048.09 1150.27 2047.36C1163.46 2036.96 1174.41 2024.61 1182.8 2010.65C1191.69 1996.24 1190.2 1992.52 1189.53 1991.72C1185.42 1986.81 1158.53 1997.43 1140.72 2004.45C1129.76 2008.79 1118.41 2013.26 1108.85 2016.12C1067.34 2028.53 1040.81 2031.46 1006.35 2032.54C1006.22 2032.54 1006.09 2032.54 1005.96 2032.52C950.068 2026.76 893.699 2023.3 838.417 2022.24C776.548 2021.06 717.98 2023.27 664.35 2028.79C663.188 2028.92 662.058 2028.35 661.459 2027.34C660.865 2026.34 660.902 2025.08 661.558 2024.11L677.865 2000.23C656.256 1979.07 602.115 1950.55 527.11 1932.95C463.704 1918.07 363.704 1906.05 246.839 1932.96Z" fill="#232323"/>
</g>
<path d="M678.067 2000.27C633.984 1956.47 423.349 1897.02 218.239 1942.62C218.239 1942.62 307.453 1821.8 444.526 1832.84C599.531 1845.34 670.041 1943.47 687.849 1984.81C685.177 1989.07 678.067 2000.27 678.067 2000.27Z" fill="#4CAF7A"/>
<mask id="mask21_433_8482" style="mask-type:luminance" maskUnits="userSpaceOnUse" x="936" y="996" width="325" height="286">
<path d="M936.5 996H1260.5V1281.33H936.5V996Z" fill="white"/>
</mask>
<g mask="url(#mask21_433_8482)">
<mask id="mask22_433_8482" style="mask-type:luminance" maskUnits="userSpaceOnUse" x="937" y="996" width="323" height="285">
<path d="M1236.24 1063.09C1219.4 1050.54 1197.74 1046.69 1177.62 1052.84C1169.33 984.635 1081.63 980.25 1060.97 1027.4C1009.87 971.437 924.969 1024.47 939.531 1083.07C944.833 1104.49 952.089 1148.83 937.016 1180.94C963.609 1199.43 1004.72 1280.02 1004.72 1280.02C1004.72 1280.02 1154.05 1178.12 1206.27 1172.25C1271.36 1164.65 1271.52 1090.81 1236.24 1063.09Z" fill="white"/>
</mask>
<g mask="url(#mask22_433_8482)">
<path d="M1236.24 1063.09C1219.4 1050.54 1197.74 1046.69 1177.62 1052.84C1169.33 984.635 1081.63 980.25 1060.97 1027.4C1009.87 971.437 924.969 1024.47 939.531 1083.07C944.833 1104.49 952.089 1148.83 937.016 1180.94C963.609 1199.43 1004.72 1280.02 1004.72 1280.02C1004.72 1280.02 1154.05 1178.12 1206.27 1172.25C1271.36 1164.65 1271.52 1090.81 1236.24 1063.09Z" fill="#232323"/>
</g>
</g>
<mask id="mask23_433_8482" style="mask-type:luminance" maskUnits="userSpaceOnUse" x="1141" y="1042" width="51" height="38">
<path d="M1141.83 1042.67H1191.17V1080H1141.83V1042.67Z" fill="white"/>
</mask>
<g mask="url(#mask23_433_8482)">
<mask id="mask24_433_8482" style="mask-type:luminance" maskUnits="userSpaceOnUse" x="937" y="996" width="323" height="285">
<path d="M1236.24 1063.09C1219.4 1050.54 1197.74 1046.69 1177.62 1052.84C1169.33 984.636 1081.63 980.25 1060.97 1027.4C1009.87 971.438 924.969 1024.47 939.531 1083.07C944.833 1104.49 952.089 1148.83 937.016 1180.94C963.609 1199.43 1004.72 1280.02 1004.72 1280.02C1004.72 1280.02 1154.05 1178.13 1206.27 1172.25C1271.36 1164.65 1271.52 1090.81 1236.24 1063.09Z" fill="white"/>
</mask>
<g mask="url(#mask24_433_8482)">
<path d="M1145.36 1079.26C1144.31 1079.25 1143.33 1078.7 1142.79 1077.79C1142.25 1076.89 1142.22 1075.77 1142.72 1074.83C1146.33 1068.1 1151.28 1062.17 1157.26 1057.42C1167.36 1049.35 1178.73 1045.69 1186.49 1044.04C1188.09 1043.76 1189.62 1044.79 1189.96 1046.37C1190.3 1047.96 1189.32 1049.52 1187.74 1049.91C1180.62 1051.43 1170.2 1054.78 1161.01 1062.11C1155.66 1066.35 1151.24 1071.65 1148.02 1077.67C1147.49 1078.65 1146.47 1079.26 1145.36 1079.26Z" fill="white"/>
</g>
</g>
<path d="M1221.13 1376.9C1219.74 1395.03 1207.23 1412.22 1186.71 1419.89C1133.23 1439.68 1070.89 1414.52 1070.89 1414.52C1070.89 1414.52 1057.66 1449.55 1047.98 1511.98C1005.46 1637.95 845.416 1497.8 822.036 1433.24C822.036 1433.24 889.494 1372.6 930.718 1308.95C896.807 1298.92 848.828 1254.14 864.656 1208.47C873.729 1182.39 905.713 1165.07 932.244 1177.45C957.968 1189.51 965.781 1207.28 983.744 1234.3C1000.59 1259.4 1008.31 1247.95 1025.94 1223.66C1040.19 1204.36 1058.03 1187.73 1078.44 1175.04C1113.09 1154.12 1169.5 1162.42 1206.11 1172.18C1201.59 1200.39 1198.98 1228.94 1198.39 1257.54C1196.97 1307.61 1224.24 1334.49 1221.13 1376.9Z" fill="white"/>
<mask id="mask25_433_8482" style="mask-type:luminance" maskUnits="userSpaceOnUse" x="819" y="1158" width="406" height="364">
<path d="M819.167 1158.67H1224.5V1521.33H819.167V1158.67Z" fill="white"/>
</mask>
<g mask="url(#mask25_433_8482)">
<mask id="mask26_433_8482" style="mask-type:luminance" maskUnits="userSpaceOnUse" x="819" y="1149" width="411" height="414">
<path d="M1228.74 1379.99C1227.34 1398.11 1209.53 1419.42 1189.01 1427.09C1135.53 1446.89 1075.66 1423.67 1075.66 1423.67C1075.66 1423.67 1056.54 1493.54 1051.48 1512.56C1050.03 1512.2 1049.32 1512.32 1047.99 1511.98C1005.46 1637.95 845.417 1497.8 822.032 1433.24C822.032 1433.24 820.256 1429.67 819.381 1427.22C836.574 1404.92 883.678 1352.44 911.839 1308.95C877.928 1298.93 829.949 1254.14 845.777 1208.47C854.85 1182.39 905.709 1155.64 932.245 1168.01C957.969 1180.08 965.782 1197.85 983.745 1224.86C1000.59 1249.97 1008.31 1235.68 1025.94 1211.4C1040.18 1192.09 1058.03 1175.46 1078.44 1162.77C1113.09 1141.86 1184.78 1148.49 1221.38 1158.26C1216.87 1186.46 1209.46 1228.59 1208.87 1257.18C1207.45 1307.26 1231.84 1337.58 1228.74 1379.99Z" fill="white"/>
</mask>
<g mask="url(#mask26_433_8482)">
<path d="M1051.83 1520.52L1045.89 1519.65C1055.6 1453.43 1067.9 1414.01 1068.03 1413.62C1068.28 1412.82 1068.85 1412.16 1069.6 1411.81C1070.36 1411.45 1071.23 1411.43 1072.01 1411.74C1072.63 1411.98 1133.94 1436.22 1185.67 1417.07C1204.32 1410.1 1216.76 1394.62 1218.14 1376.67C1219.63 1356.36 1213.88 1339.56 1207.8 1321.77C1201.33 1302.89 1194.66 1283.35 1195.39 1257.45C1195.96 1229.94 1198.42 1202.01 1202.72 1174.4C1175.96 1167.52 1116.06 1155.84 1079.99 1177.6C1059.97 1190.06 1042.59 1206.16 1028.36 1225.44L1027.51 1226.62C1016.7 1241.52 1009.53 1251.4 1000.57 1251.4C1000.49 1251.4 1000.42 1251.4 1000.34 1251.4C994.219 1251.29 988.334 1246.53 981.25 1235.97C978.479 1231.78 975.745 1227.56 973.052 1223.32C960.177 1203.18 951.677 1189.87 930.969 1180.16C920.12 1175.1 907.568 1175.09 895.636 1180.14C882.459 1185.7 871.943 1196.67 867.495 1209.45C862.349 1224.3 863.881 1239.88 872.047 1255.76C885.068 1281.08 911.849 1300.24 931.573 1306.07C932.479 1306.34 933.209 1307.02 933.537 1307.91C933.865 1308.8 933.756 1309.79 933.24 1310.58C892.271 1373.83 824.724 1434.86 824.047 1435.47L821.823 1437.46L817.808 1433L820.026 1431C820.688 1430.41 885.36 1371.97 926.063 1310.57C905.599 1303.2 879.677 1283.73 866.703 1258.51C857.881 1241.35 856.193 1223.71 861.818 1207.48C866.813 1193.11 878.584 1180.82 893.297 1174.6C906.818 1168.89 921.099 1168.93 933.516 1174.72C955.802 1185.18 965.162 1199.82 978.115 1220.08C980.787 1224.29 983.495 1228.47 986.245 1232.63C991.959 1241.14 996.604 1245.32 1000.45 1245.39C1006.4 1245.47 1013.2 1236.1 1022.64 1223.09L1023.51 1221.9C1038.2 1201.98 1056.15 1185.36 1076.85 1172.48C1116.16 1148.77 1180.88 1162.34 1206.88 1169.29C1208.37 1169.68 1209.32 1171.14 1209.07 1172.66C1204.56 1200.87 1201.97 1229.45 1201.39 1257.6C1200.69 1282.44 1207.19 1301.45 1213.48 1319.83C1219.77 1338.21 1225.71 1355.58 1224.13 1377.12C1222.57 1397.44 1208.64 1414.9 1187.77 1422.7C1139.96 1440.4 1086.27 1423.32 1072.84 1418.47C1069.84 1428.85 1059.94 1465.23 1051.83 1520.52Z" fill="#232323"/>
</g>
</g>
<path d="M1094.84 1167.46C1111.25 1159.52 1128.7 1164.02 1137.11 1174.04C1141.13 1179.03 1138.27 1186.3 1133.56 1187.64C1094.22 1200.65 1104.3 1198.27 1085.81 1206.49C1083.07 1207.85 1079.87 1208.47 1076.76 1208.39C1075.12 1208.31 1073.51 1207.7 1072.12 1206.98C1070.21 1205.69 1069.09 1203.79 1069.02 1201.55C1069.44 1200.45 1070.9 1179.09 1094.84 1167.46ZM1079.9 1226.77C1088.23 1226.27 1108.38 1225.85 1128.02 1219.51C1130.73 1218.7 1133.68 1220.2 1134.48 1222.91C1136.74 1230.06 1138.24 1242.08 1124.46 1244.75C1107.37 1247.81 1082.17 1238.72 1077.65 1230.71C1077.05 1229.37 1077.44 1227.86 1078.68 1227.04C1079.13 1226.84 1079.52 1226.81 1079.9 1226.77ZM1193.32 1228.26C1184.91 1227.99 1179.02 1226.47 1164.22 1222.1C1161.42 1221.21 1158.56 1222.89 1157.73 1225.53C1155.56 1232.64 1158.06 1240.61 1169.62 1243.75C1182.54 1247.22 1192.2 1238.91 1195.79 1231.97C1196.5 1230.58 1195.97 1229.08 1194.58 1228.36C1194.03 1228.34 1193.65 1228.37 1193.32 1228.26ZM1176.59 1170.49C1173.47 1171.88 1170.7 1173.78 1168.4 1176.41C1165.47 1179.72 1165.8 1184.65 1168.96 1187.52C1170.76 1189.49 1178.05 1190.99 1193.98 1198.03C1196.5 1199.18 1199.19 1200.39 1202.13 1201.88C1203.17 1191.93 1204.59 1181.95 1206.17 1172.02C1188.11 1167.51 1187.84 1167.52 1186.5 1167.82C1183.2 1168.22 1179.71 1169.1 1176.59 1170.49H1176.59ZM1057.01 1461.86L1057.33 1461.98C1064.37 1431.06 1070.79 1414.3 1070.79 1414.3C1070.79 1414.3 1030.99 1395.01 1012.75 1369.18C1003.51 1373.03 992.552 1431.09 1057.01 1461.86Z" fill="#232323"/>
<path d="M1057.33 1464.99C1056.97 1464.99 1056.6 1464.92 1056.25 1464.79L1055.93 1464.66C1055.86 1464.64 1055.79 1464.6 1055.71 1464.57C1036.4 1455.35 1022.02 1442.96 1012.96 1427.76C1004.07 1412.84 1002.48 1398.94 1002.71 1389.91C1003.02 1378.13 1006.67 1368.46 1011.6 1366.41C1012.9 1365.86 1014.4 1366.3 1015.21 1367.45C1032.8 1392.35 1071.71 1411.41 1072.1 1411.6C1073.5 1412.28 1074.15 1413.92 1073.59 1415.38C1073.53 1415.54 1067.16 1432.33 1060.26 1462.65C1059.95 1464.02 1058.73 1464.98 1057.33 1464.99ZM1012.39 1373.72C1010.83 1376.37 1008.93 1381.89 1008.72 1390.06C1008.42 1401.71 1011.76 1414.01 1018.12 1424.69C1026.08 1438.05 1038.56 1449.13 1055.25 1457.65C1060.44 1435.47 1065.12 1421.28 1067.06 1415.78C1058.37 1411.29 1028.96 1395.09 1012.39 1373.72ZM1875.3 1012.88C1873.97 1012.88 1872.8 1012.01 1872.42 1010.73C1861.16 972.719 1826.49 936.823 1789.99 925.375C1788.43 924.854 1787.58 923.188 1788.07 921.625C1788.56 920.063 1790.21 919.182 1791.79 919.646C1830.06 931.646 1866.4 969.235 1878.18 1009.02C1878.45 1009.93 1878.27 1010.91 1877.7 1011.67C1877.14 1012.43 1876.24 1012.88 1875.3 1012.88ZM950.286 1269.57C948.797 1269.56 947.536 1268.47 947.317 1267C945.416 1254.03 940.948 1243.32 934.031 1235.15C921.208 1220 904.297 1218.7 904.13 1218.69C902.474 1218.6 901.203 1217.2 901.281 1215.55C901.359 1213.9 902.755 1212.62 904.406 1212.69C904.599 1212.7 924.031 1214.04 938.62 1231.27C946.271 1240.31 951.198 1252.04 953.26 1266.13C953.385 1266.99 953.13 1267.87 952.562 1268.53C951.989 1269.19 951.161 1269.57 950.286 1269.57ZM944.948 1313.46C944.614 1313.46 944.291 1313.46 943.963 1313.46C938.979 1313.4 934.239 1312.84 929.87 1311.81C928.807 1311.58 927.948 1310.8 927.63 1309.76C927.312 1308.72 927.578 1307.59 928.328 1306.81C929.078 1306.02 930.192 1305.7 931.245 1305.97C935.187 1306.9 939.495 1307.4 944.041 1307.45C947.265 1307.49 950.484 1307.32 953.687 1306.95C955.317 1306.8 956.771 1307.97 956.953 1309.6C957.14 1311.22 955.989 1312.7 954.37 1312.92C951.239 1313.28 948.093 1313.46 944.948 1313.46ZM1161.22 1284.22C1159.82 1284.23 1158.6 1283.27 1158.29 1281.91C1157.97 1280.55 1158.63 1279.15 1159.89 1278.53C1167.06 1274.98 1170.92 1271.81 1171.66 1268.86C1172.5 1265.54 1169.74 1261.32 1165.1 1254.77C1152.31 1236.71 1157.57 1225.8 1157.8 1225.34C1158.55 1223.89 1160.33 1223.3 1161.81 1224.03C1163.28 1224.76 1163.89 1226.53 1163.19 1228.01C1163.08 1228.26 1159.6 1236.61 1170 1251.3C1174.86 1258.16 1179.07 1264.09 1177.49 1270.33C1176.25 1275.22 1171.65 1279.41 1162.55 1283.91C1162.14 1284.12 1161.68 1284.22 1161.22 1284.22ZM1162.64 1324.29C1160.19 1326.34 1157.24 1327.71 1154.24 1328.57C1151.23 1329.4 1148.12 1329.76 1145 1329.64C1138.83 1329.44 1132.69 1327.71 1127.3 1324.14C1124.7 1322.34 1122.37 1320.19 1120.37 1317.75C1118.42 1315.29 1116.77 1312.57 1115.63 1309.64C1113.31 1303.82 1112.84 1297.16 1114.84 1291.26C1115.26 1290.03 1116.54 1289.31 1117.81 1289.58C1119.08 1289.85 1119.94 1291.04 1119.82 1292.33L1119.81 1292.41C1119.31 1297.39 1120.28 1302.33 1122.41 1306.69C1123.5 1308.85 1124.81 1310.91 1126.42 1312.71C1128 1314.55 1129.81 1316.16 1131.81 1317.53C1135.67 1320.17 1140.57 1321.76 1145.47 1322.32C1150.4 1322.85 1155.45 1322.29 1159.76 1320.09L1159.83 1320.05C1160.99 1319.46 1162.41 1319.84 1163.13 1320.92C1163.84 1322.01 1163.64 1323.46 1162.64 1324.29ZM443.291 2074.17C441.823 2074.17 440.573 2073.12 440.328 2071.68C440.083 2070.23 440.911 2068.82 442.291 2068.34C471.604 2057.99 510.062 2048.08 553.515 2039.65C588.526 2032.86 625.724 2027.19 664.088 2022.79C664.88 2022.69 665.677 2022.92 666.302 2023.42C666.927 2023.91 667.323 2024.64 667.411 2025.43C667.604 2027.08 666.422 2028.56 664.771 2028.76C626.562 2033.14 589.515 2038.79 554.661 2045.55C511.495 2053.92 473.328 2063.76 444.291 2074C443.968 2074.11 443.63 2074.17 443.291 2074.17ZM1153.08 2052.89C1152.92 2052.89 1152.76 2052.88 1152.6 2052.85C1129.68 2049.17 1108.86 2045.99 1088.98 2043.16C1060.15 2039.04 1033.3 2035.61 1006.89 2032.68C1005.24 2032.5 1004.05 2031.02 1004.23 2029.36C1004.42 2027.72 1005.9 2026.53 1007.55 2026.71C1034.03 2029.65 1060.94 2033.08 1089.83 2037.21C1109.75 2040.05 1130.59 2043.23 1153.56 2046.92C1155.1 2047.17 1156.2 2048.56 1156.08 2050.12C1155.96 2051.68 1154.65 2052.89 1153.08 2052.89ZM1264.57 2120.53C1263.91 2120.53 1263.26 2120.31 1262.73 2119.9C1259.03 2117.03 1248.69 2110.01 1232.73 2106.88C1222.72 2104.92 1212.29 2104.81 1201.74 2106.59C1200.11 2106.87 1198.56 2105.76 1198.28 2104.13C1198.01 2102.49 1199.11 2100.94 1200.75 2100.67C1212.02 2098.78 1223.17 2098.89 1233.89 2100.99C1250.48 2104.24 1261.39 2111.26 1266.41 2115.15C1267.43 2115.94 1267.83 2117.28 1267.42 2118.5C1267 2119.71 1265.86 2120.53 1264.57 2120.53ZM1275.61 2167.06C1274.95 2167.06 1274.3 2166.84 1273.78 2166.43C1265.56 2160.05 1252.44 2155.43 1238.68 2154.06C1229.24 2153.12 1219.72 2153.66 1210.46 2155.66C1208.84 2156.01 1207.24 2154.98 1206.89 2153.36C1206.54 2151.74 1207.57 2150.14 1209.19 2149.79C1219.07 2147.66 1229.22 2147.08 1239.27 2148.09C1254.34 2149.58 1268.26 2154.54 1277.46 2161.69C1278.48 2162.47 1278.88 2163.82 1278.46 2165.04C1278.04 2166.25 1276.9 2167.06 1275.61 2167.06Z" fill="#232323"/>
<path d="M1224.17 2197.39C1235.47 2195.43 1247.06 2195.48 1258.01 2197.22C1268.95 2198.96 1279.25 2202.4 1287.95 2207.21" fill="white"/>
<path d="M1287.95 2210.21C1287.46 2210.21 1286.96 2210.09 1286.51 2209.83C1278.13 2205.2 1268.11 2201.87 1257.54 2200.19C1246.65 2198.45 1235.29 2198.51 1224.69 2200.34C1223.05 2200.63 1221.5 2199.53 1221.21 2197.9C1220.93 2196.26 1222.03 2194.71 1223.66 2194.43C1234.91 2192.48 1246.95 2192.42 1258.48 2194.26C1269.73 2196.05 1280.43 2199.61 1289.41 2204.58C1290.87 2205.38 1291.39 2207.21 1290.59 2208.66C1290.06 2209.61 1289.05 2210.21 1287.95 2210.21Z" fill="#232323"/>
<mask id="mask27_433_8482" style="mask-type:luminance" maskUnits="userSpaceOnUse" x="703" y="850" width="490" height="356">
<path d="M703.167 850H1192.5V1205.33H703.167V850Z" fill="white"/>
</mask>
<g mask="url(#mask27_433_8482)">
<path d="M1191.21 1055.29C1191.21 1055.41 1128.33 850.713 967.891 850C953.719 849.963 939.589 851.552 925.776 854.739C953.646 857.391 953.646 857.37 925.776 854.739C747.521 897.885 703.636 1168.36 703.636 1168.36C703.636 1168.36 766.276 1092.98 820.901 1058.49C864.193 1029.81 897.229 1076.74 901.354 1103.65C907.724 1146.44 895.927 1204.75 895.927 1204.75L1191.21 1055.29Z" fill="#4CAF7A"/>
</g>
<path d="M1296.21 1136.36C1292.55 1176.58 1259.02 1207.39 1218.82 1207.48C1216.46 1207.48 1214.1 1207.36 1211.74 1207.12C1144.61 1201.08 1079.73 1213.29 1018.39 1243.74C981.813 1261.76 957.276 1281.56 947.839 1289.73C919.542 1322.64 870.047 1326.27 837.297 1297.84C820.047 1282.86 810.141 1261.08 810.162 1238.18C810.058 1212.86 822.198 1189.08 842.724 1174.41C857.589 1161.02 892.157 1133.16 942.766 1107.08C1029.98 1062.06 1128.11 1042.79 1225.78 1051.49C1268.37 1055.41 1299.86 1093.45 1296.21 1136.36Z" fill="white"/>
<mask id="mask28_433_8482" style="mask-type:luminance" maskUnits="userSpaceOnUse" x="805" y="1045" width="495" height="276">
<path d="M805.833 1045.33H1299.5V1320H805.833V1045.33Z" fill="white"/>
</mask>
<g mask="url(#mask28_433_8482)">
<path d="M888.411 1320.01C868.895 1320.01 850.244 1313.05 835.328 1300.1C817.411 1284.57 807.13 1261.95 807.161 1238.17C807.051 1212 819.64 1187.29 840.838 1172.06C853.328 1160.82 887.88 1131.98 941.39 1104.42C1029.23 1059.07 1127.67 1039.73 1226.05 1048.51C1270.18 1052.56 1302.99 1092.08 1299.2 1136.61L1299.2 1136.63C1297.38 1156.79 1288.12 1175.54 1273.24 1189.18C1258.39 1202.85 1238.98 1210.45 1218.83 1210.48C1216.37 1210.48 1213.88 1210.35 1211.44 1210.11C1144.85 1204.11 1080.34 1216.33 1019.72 1246.43C984.942 1263.57 961.15 1282.19 949.968 1291.86C935.76 1308.29 916.046 1318.2 894.432 1319.78C892.426 1319.93 890.416 1320.01 888.411 1320.01ZM1179.76 1052.45C1097.98 1052.45 1017.35 1071.96 944.14 1109.76C891.072 1137.1 856.942 1165.64 844.734 1176.64C844.65 1176.71 844.562 1176.79 844.468 1176.85C824.765 1190.94 813.062 1213.86 813.166 1238.16C813.13 1260.2 822.661 1281.17 839.265 1295.57C854.489 1308.79 873.926 1315.26 893.994 1313.79C914.078 1312.33 932.39 1303.09 945.557 1287.78C945.656 1287.67 945.76 1287.56 945.869 1287.46C957.203 1277.65 981.515 1258.56 1017.06 1241.05C1078.68 1210.45 1144.27 1198.03 1212.01 1204.13C1214.29 1204.36 1216.57 1204.47 1218.82 1204.47C1237.47 1204.45 1255.43 1197.42 1269.18 1184.76C1282.96 1172.13 1291.53 1154.77 1293.22 1136.1C1296.73 1094.85 1266.35 1058.24 1225.5 1054.49C1210.29 1053.13 1195.03 1052.45 1179.76 1052.45Z" fill="#232323"/>
</g>
<mask id="mask29_433_8482" style="mask-type:luminance" maskUnits="userSpaceOnUse" x="631" y="1062" width="170" height="188">
<path d="M631.5 1062.67H800.5V1249.33H631.5V1062.67Z" fill="white"/>
</mask>
<g mask="url(#mask29_433_8482)">
<path d="M799.38 1156.39C799.38 1207.45 758.364 1248.84 707.765 1248.84C657.166 1248.84 616.146 1207.45 616.146 1156.39C616.146 1105.33 657.166 1063.94 707.765 1063.94C758.364 1063.94 799.38 1105.33 799.38 1156.39Z" fill="white"/>
</g>
<mask id="mask30_433_8482" style="mask-type:luminance" maskUnits="userSpaceOnUse" x="631" y="1078" width="154" height="156">
<path d="M631.5 1078.67H784.5V1233.33H631.5V1078.67Z" fill="white"/>
</mask>
<g mask="url(#mask30_433_8482)">
<path d="M707.76 1233C665.708 1233 631.5 1198.64 631.5 1156.39C631.5 1114.15 665.708 1079.78 707.76 1079.78C749.813 1079.78 784.026 1114.15 784.026 1156.39C784.026 1198.64 749.813 1233 707.76 1233ZM707.76 1085.79C669.021 1085.79 637.505 1117.46 637.505 1156.39C637.505 1195.32 669.021 1226.99 707.76 1226.99C746.505 1226.99 778.021 1195.32 778.021 1156.39C778.021 1117.46 746.505 1085.79 707.76 1085.79Z" fill="#232323"/>
</g>
<mask id="mask31_433_8482" style="mask-type:luminance" maskUnits="userSpaceOnUse" x="190" y="1042" width="117" height="194">
<path d="M190.5 1042H306.5V1236H190.5V1042Z" fill="white"/>
</mask>
<g mask="url(#mask31_433_8482)">
<path d="M235.76 1236C227.599 1236.01 219.599 1233.76 212.625 1229.51C191.813 1216.97 184.448 1190.28 195.87 1168.79C198.109 1164.41 201.037 1160.41 204.531 1156.95C202.974 1155.39 201.51 1153.73 200.151 1151.99C184.875 1132.05 188.583 1103.47 208.438 1088.12C219.005 1080.01 231.953 1077.52 244.901 1080.58C246.412 1070.61 251.203 1061.43 258.516 1054.52C271.349 1042.33 290.047 1038.69 306.5 1045.16L304.974 1049.17C283.844 1040.82 259.969 1051.24 251.646 1072.43C250.458 1075.45 249.635 1078.6 249.182 1081.82C254.266 1083.54 259.073 1085.98 263.464 1089.07L263.943 1089.46C268.307 1092.67 272.188 1096.49 275.458 1100.82C279.375 1105.91 282.339 1111.67 284.219 1117.81C285.646 1123.83 284.885 1128.31 281.839 1130.6C278.792 1132.9 274.224 1132.51 268.891 1129.36C263.443 1125.97 258.693 1121.56 254.896 1116.38C251.63 1112.19 249.031 1107.52 247.182 1102.54L246.708 1101.2C245.078 1095.95 244.37 1090.46 244.615 1084.97C232.807 1081.92 220.813 1084.11 211.292 1091.46C193.359 1105.36 190 1131.17 203.771 1149.22C205.104 1150.84 206.531 1152.46 207.958 1153.9C211.583 1151.14 215.682 1149.06 220.052 1147.79H220.146L221.667 1147.41C226.354 1146.36 231.162 1146.01 235.948 1146.35C247.849 1147.31 260.229 1152.28 259.656 1159.91C259.37 1163.44 256.323 1166.31 251.089 1168.13C245.63 1169.77 239.912 1170.35 234.234 1169.84C229.542 1169.55 224.922 1168.56 220.526 1166.88L220.052 1166.69C215.625 1165.07 211.505 1162.72 207.865 1159.72C204.568 1162.97 201.833 1166.74 199.771 1170.89C189.005 1190.92 196.464 1215.9 216.432 1226.7C236.401 1237.49 261.318 1230.02 272.089 1209.99C278.203 1198.61 278.641 1185.03 273.271 1173.28L277.177 1171.46C283.162 1184.71 282.526 1200.01 275.464 1212.71C269.479 1223.43 259.412 1231.25 247.568 1234.38C243.719 1235.43 239.75 1235.97 235.76 1236ZM211.005 1156.86C214.146 1159.24 217.609 1161.17 221.292 1162.58L221.859 1162.78C225.87 1164.26 230.068 1165.16 234.333 1165.45C239.427 1165.95 244.563 1165.47 249.469 1164.02C252.802 1162.87 254.896 1161.25 255.089 1159.72C255.281 1156.67 247.948 1151.8 235.474 1150.84C231.135 1150.41 226.755 1150.73 222.526 1151.8L221.099 1152.18C217.516 1153.21 214.115 1154.79 211.005 1156.86ZM248.615 1086.21C248.542 1090.8 249.188 1095.38 250.516 1099.77L250.995 1101.1C252.714 1105.63 255.089 1109.87 258.037 1113.7C261.464 1118.41 265.76 1122.39 270.703 1125.45C274.318 1127.45 277.271 1128.03 278.891 1126.88C280.318 1125.73 280.698 1122.68 279.745 1118.57C278.115 1112.99 275.432 1107.78 271.844 1103.2C268.917 1099.18 265.344 1095.66 261.276 1092.8L260.802 1092.42C256.958 1089.94 252.875 1087.85 248.615 1086.21Z" fill="#232323"/>
</g>
<mask id="mask32_433_8482" style="mask-type:luminance" maskUnits="userSpaceOnUse" x="1279" y="670" width="205" height="134">
<path d="M1279.17 670.667H1483.17V804H1279.17V670.667Z" fill="white"/>
</mask>
<g mask="url(#mask32_433_8482)">
<mask id="mask33_433_8482" style="mask-type:luminance" maskUnits="userSpaceOnUse" x="1261" y="630" width="225" height="212">
<path d="M1414.14 630.542L1485.63 721.891L1332.86 841.464L1261.36 750.115L1414.14 630.542Z" fill="white"/>
</mask>
<g mask="url(#mask33_433_8482)">
<path d="M1289.26 785.755C1284.23 779.333 1281.06 771.646 1280.11 763.531C1277.16 739.417 1293.64 717.161 1317.6 712.917C1322.43 711.979 1327.39 711.818 1332.27 712.443C1332.53 710.25 1332.94 708.078 1333.47 705.932C1339.76 681.615 1364.55 666.922 1388.87 673.089C1401.78 676.411 1411.71 685.078 1417.29 697.156C1426.07 692.203 1436.24 690.323 1446.2 691.813C1463.71 694.411 1478.1 706.891 1483.15 723.833L1479.05 725.104C1472.59 703.323 1449.68 690.938 1427.86 697.448C1424.75 698.375 1421.76 699.667 1418.95 701.297C1420.73 706.359 1421.77 711.651 1422.04 717.016L1422.03 717.625C1422.2 723.042 1421.57 728.453 1420.19 733.698C1418.59 739.917 1415.88 745.802 1412.2 751.068C1408.34 755.901 1404.34 758.068 1400.66 757.078C1396.98 756.094 1394.46 752.26 1393.66 746.12C1392.97 739.734 1393.52 733.281 1395.26 727.094C1396.54 721.943 1398.61 717.016 1401.4 712.49L1402.16 711.292C1405.29 706.776 1409.18 702.833 1413.65 699.641C1408.78 688.458 1399.66 680.365 1388 677.396C1366.01 671.844 1343.61 685.109 1337.88 707.073C1337.43 709.125 1337.03 711.25 1336.78 713.255C1341.19 714.406 1345.35 716.359 1349.05 719.01L1349.1 719.089L1350.34 720.052C1354.06 723.094 1357.3 726.667 1359.97 730.651C1366.55 740.609 1370.28 753.417 1363.91 757.677C1360.95 759.625 1356.82 758.995 1352.16 755.99C1347.5 752.703 1343.52 748.563 1340.42 743.776C1337.76 739.906 1335.69 735.651 1334.3 731.156L1334.16 730.667C1332.7 726.182 1332.02 721.484 1332.14 716.771C1327.55 716.177 1322.89 716.349 1318.35 717.286C1295.95 721.146 1280.87 742.422 1284.68 764.802C1288.48 787.182 1309.73 802.193 1332.14 798.328C1344.86 796.135 1355.83 788.104 1361.78 776.635L1365.61 778.589C1358.87 791.464 1346.43 800.396 1332.07 802.661C1319.95 804.557 1307.58 801.453 1297.82 794.052C1294.62 791.667 1291.74 788.875 1289.26 785.755ZM1336.33 717.479C1336.39 721.427 1337 725.339 1338.16 729.109L1338.36 729.677C1339.66 733.75 1341.54 737.609 1343.94 741.146C1346.68 745.469 1350.23 749.214 1354.4 752.182C1357.35 754.104 1359.92 754.75 1361.24 753.958C1363.77 752.229 1363.08 743.453 1356.15 733.042C1353.81 729.359 1350.86 726.109 1347.42 723.438L1346.23 722.547C1343.21 720.359 1339.87 718.651 1336.33 717.479ZM1415.14 703.552C1411.48 706.328 1408.28 709.651 1405.64 713.406L1404.88 714.604C1402.38 718.75 1400.5 723.234 1399.3 727.922C1397.71 733.516 1397.22 739.359 1397.85 745.13C1398.51 749.214 1399.87 751.891 1401.78 752.464C1403.56 752.88 1406.2 751.297 1408.84 748.016C1412.23 743.292 1414.69 737.964 1416.08 732.318C1417.44 727.531 1418.01 722.552 1417.76 717.583L1417.77 716.974C1417.35 712.422 1416.47 707.922 1415.14 703.552Z" fill="#232323"/>
</g>
</g>
<mask id="mask34_433_8482" style="mask-type:luminance" maskUnits="userSpaceOnUse" x="2167" y="1190" width="203" height="136">
<path d="M2167.17 1190.67H2369.83V1325.33H2167.17V1190.67Z" fill="white"/>
</mask>
<g mask="url(#mask34_433_8482)">
<mask id="mask35_433_8482" style="mask-type:luminance" maskUnits="userSpaceOnUse" x="2165" y="1152" width="223" height="216">
<path d="M2240.52 1367.14L2165.09 1279.01L2312.49 1152.86L2387.91 1240.99L2240.52 1367.14Z" fill="white"/>
</mask>
<g mask="url(#mask35_433_8482)">
<path d="M2358.48 1206.61C2363.79 1212.81 2367.29 1220.35 2368.59 1228.41C2372.59 1252.37 2357.1 1275.33 2333.35 1280.62C2328.57 1281.77 2323.63 1282.14 2318.73 1281.73C2318.55 1283.93 2318.24 1286.12 2317.8 1288.29C2312.59 1312.86 2288.47 1328.62 2263.89 1323.52C2250.85 1320.77 2240.55 1312.55 2234.45 1300.72C2225.9 1306.06 2215.81 1308.38 2205.8 1307.32C2188.2 1305.49 2173.27 1293.66 2167.49 1276.95L2171.53 1275.5C2178.93 1296.98 2202.37 1308.35 2223.87 1300.9C2226.94 1299.83 2229.87 1298.41 2232.61 1296.66C2230.61 1291.68 2229.34 1286.44 2228.84 1281.09L2228.82 1280.48C2228.42 1275.08 2228.8 1269.64 2229.96 1264.34C2231.29 1258.06 2233.73 1252.06 2237.18 1246.64C2240.82 1241.64 2244.72 1239.3 2248.44 1240.13C2252.17 1240.95 2254.84 1244.67 2255.92 1250.77C2256.88 1257.12 2256.62 1263.59 2255.16 1269.85C2254.09 1275.05 2252.24 1280.07 2249.65 1284.71L2248.95 1285.94C2246.02 1290.59 2242.31 1294.7 2237.98 1298.08C2243.33 1309.04 2252.8 1316.72 2264.58 1319.18C2286.79 1323.77 2308.59 1309.54 2313.35 1287.34C2313.71 1285.27 2314.02 1283.13 2314.18 1281.11C2309.72 1280.16 2305.48 1278.39 2301.68 1275.9L2301.61 1275.83L2300.33 1274.92C2296.49 1272.04 2293.09 1268.62 2290.25 1264.75C2283.24 1255.09 2278.96 1242.46 2285.14 1237.93C2288 1235.85 2292.16 1236.3 2296.94 1239.1C2301.74 1242.17 2305.91 1246.14 2309.21 1250.78C2312.04 1254.54 2314.29 1258.7 2315.87 1263.12L2316.04 1263.61C2317.69 1268.02 2318.57 1272.69 2318.67 1277.4C2323.28 1277.8 2327.92 1277.42 2332.41 1276.29C2354.63 1271.45 2368.76 1249.53 2363.98 1227.34C2359.2 1205.15 2337.31 1191.08 2315.1 1195.92C2302.48 1198.67 2291.87 1207.18 2286.44 1218.89L2282.52 1217.1C2288.69 1203.95 2300.73 1194.48 2314.97 1191.59C2327 1189.16 2339.49 1191.73 2349.57 1198.69C2352.87 1200.94 2355.86 1203.6 2358.48 1206.61ZM2314.45 1276.87C2314.21 1272.94 2313.43 1269.05 2312.11 1265.34L2311.89 1264.78C2310.41 1260.77 2308.36 1256.99 2305.81 1253.57C2302.88 1249.37 2299.17 1245.78 2294.87 1242.99C2291.84 1241.21 2289.24 1240.67 2287.96 1241.52C2285.52 1243.36 2286.58 1252.1 2293.96 1262.2C2296.46 1265.77 2299.55 1268.89 2303.11 1271.41L2304.33 1272.25C2307.44 1274.3 2310.85 1275.86 2314.45 1276.87ZM2236.32 1294.24C2239.85 1291.31 2242.91 1287.84 2245.38 1283.98L2246.09 1282.74C2248.4 1278.49 2250.08 1273.93 2251.08 1269.2C2252.43 1263.54 2252.66 1257.68 2251.77 1251.94C2250.94 1247.89 2249.45 1245.28 2247.53 1244.79C2245.73 1244.45 2243.17 1246.15 2240.67 1249.54C2237.48 1254.41 2235.27 1259.84 2234.12 1265.54C2232.97 1270.38 2232.62 1275.38 2233.09 1280.33L2233.11 1280.94C2233.72 1285.47 2234.8 1289.93 2236.32 1294.24Z" fill="#232323"/>
</g>
</g>
<mask id="mask36_433_8482" style="mask-type:luminance" maskUnits="userSpaceOnUse" x="1029" y="237" width="901" height="280">
<path d="M1029.83 237.333H1929.83V517H1029.83V237.333Z" fill="white"/>
</mask>
<g mask="url(#mask36_433_8482)">
<path d="M1196.13 517L1120.27 428.364L1119.79 427.786L1030.43 504.104L1046.91 293.25C1075.54 295.656 1103.3 297.193 1129.71 298.255C1131.06 298.349 1132.51 298.349 1133.77 298.349C1161.53 299.312 1188 299.443 1213.19 298.734L1196.13 517ZM1929.23 454.734L1836.97 383.135L1836.4 382.656L1764.29 475.427L1737.78 265.63C1766.41 262.167 1793.79 258.318 1820.01 253.792C1821.36 253.505 1822.81 253.312 1823.96 253.12C1851.43 248.5 1877.46 243.203 1901.66 237.432L1929.23 454.734Z" fill="#4CAF7A"/>
</g>
<path d="M789.063 488.63L724.573 391.271L724.167 390.708L626.078 455.495L668.458 248.271C696.63 254.141 723.906 259.182 750.089 263.385C751.448 263.63 752.906 263.87 754.073 264.12C781.516 268.474 807.865 271.713 832.74 274.234L789.063 488.63Z" fill="white"/>
<path d="M789.063 491.635C788.052 491.63 787.115 491.125 786.558 490.286L723.344 394.849L627.735 458C626.724 458.667 625.407 458.661 624.396 457.979C623.391 457.302 622.891 456.083 623.136 454.896L665.516 247.667C665.672 246.885 666.141 246.198 666.808 245.76C667.474 245.323 668.292 245.167 669.073 245.328C696.818 251.114 724.24 256.193 750.568 260.422L751.625 260.609C752.677 260.792 753.724 260.979 754.62 261.167C779.693 265.146 805.344 268.443 833.042 271.25C833.886 271.333 834.657 271.771 835.157 272.453C835.662 273.135 835.854 274 835.683 274.833L792.005 489.229C791.724 490.63 790.49 491.635 789.063 491.635ZM724.167 387.708C725.104 387.708 726.026 388.146 726.61 388.958L727.016 389.521L727.078 389.614L787.563 480.932L829.136 276.885C802.552 274.135 777.808 270.927 753.599 267.083C753.547 267.073 753.495 267.068 753.443 267.052C752.599 266.875 751.594 266.698 750.594 266.521L749.563 266.344C724.125 262.255 697.625 257.37 670.797 251.818L630.474 448.995L722.511 388.203C723 387.88 723.578 387.703 724.167 387.708Z" fill="#232323"/>
<path d="M385.495 402.38L341.604 294.151L341.323 293.474L232.328 337.573L314.911 142.917C341.38 154.307 367.057 164.661 391.943 173.979C393.286 174.474 394.536 174.974 395.781 175.375C421.885 185.026 446.911 193.51 470.859 200.828L385.495 402.38Z" fill="#4CAF7A"/>
<path d="M1566.19 283.219L1573.18 502.182L1488.2 422.406L1488.1 422.318L1488 422.224L1487.39 421.677L1407.12 507.026L1407.03 507.125L1406.94 507.224L1400.4 297.01L1400.49 297.005C1445.21 292.521 1444.69 297.911 1566.19 283.219Z" fill="white"/>
<path d="M1406.94 510.245C1405.9 510.245 1404.81 509.682 1404.27 508.604C1404.07 508.208 1403.95 507.776 1403.94 507.333V507.271L1403.93 507.198L1397.4 297.099C1397.34 295.469 1398.61 294.094 1400.24 294.01C1415.7 292.463 1425.74 292.094 1437.36 291.661C1459.18 290.854 1486.34 289.849 1565.83 280.234C1566.67 280.135 1567.5 280.391 1568.15 280.937C1568.79 281.484 1569.17 282.276 1569.19 283.12L1576.16 501.25C1576.16 501.417 1576.16 501.583 1576.16 501.74C1576.17 501.818 1576.18 501.896 1576.18 501.979V502.083C1576.21 502.745 1576 503.396 1575.62 503.932C1575.05 504.875 1574.12 505.156 1573.28 505.187C1572.96 505.193 1572.64 505.151 1572.33 505.057C1571.88 504.927 1571.47 504.687 1571.12 504.365L1487.54 425.901L1409.18 509.229C1409.02 509.406 1408.84 509.562 1408.64 509.698C1408.15 510.052 1407.55 510.24 1406.94 510.245ZM1403.48 299.724L1409.71 499.88L1485.2 419.625C1486.32 418.432 1488.19 418.354 1489.4 419.448L1490.21 420.177L1569.95 495.026L1563.29 286.588C1486.06 295.87 1459.21 296.859 1437.58 297.661C1426.75 298.062 1417.31 298.406 1403.48 299.724Z" fill="#232323"/>
<path d="M2292.54 343.771L2188.59 290.547L2188.01 290.156L2134.31 394.604L2069.45 193.349C2120.74 177.083 2176.34 157.297 2225.45 135.365L2292.54 343.771Z" fill="white"/>
<path d="M2134.31 397.61C2133.01 397.61 2131.85 396.766 2131.45 395.526L2066.59 194.266C2066.34 193.511 2066.41 192.682 2066.78 191.974C2067.14 191.266 2067.78 190.729 2068.54 190.49C2128.32 171.531 2180.7 152.063 2224.22 132.625C2225.01 132.276 2225.9 132.271 2226.68 132.62C2227.46 132.969 2228.05 133.63 2228.31 134.443L2295.4 342.849C2295.78 344.005 2295.41 345.271 2294.48 346.052C2293.56 346.839 2292.25 346.99 2291.17 346.438L2189.28 294.266L2136.98 395.974C2136.47 396.979 2135.44 397.61 2134.31 397.61ZM2073.23 195.297L2134.95 386.797L2185.34 288.787C2185.73 288.016 2186.44 287.459 2187.28 287.245C2188.11 287.031 2188.99 287.193 2189.71 287.677L2190.13 287.964L2287.46 337.797L2223.62 139.464C2181.21 158.229 2130.65 177 2073.23 195.297H2073.23Z" fill="#232323"/>
<mask id="mask37_433_8482" style="mask-type:luminance" maskUnits="userSpaceOnUse" x="134" y="46" width="2249" height="257">
<path d="M134.5 46H2382.5V302.667H134.5V46Z" fill="white"/>
</mask>
<g mask="url(#mask37_433_8482)">
<path d="M1255.6 302.187C1197.62 302.187 1139.64 300.766 1081.71 297.917C907.573 289.359 742.922 268.344 592.339 235.453C376.855 188.437 213.881 100.052 135.917 51.5521C134.511 50.6719 134.079 48.8229 134.954 47.4166C135.829 46.0104 137.683 45.5781 139.094 46.4531C216.73 94.75 379.016 182.766 593.62 229.594C743.881 262.406 908.198 283.38 1082.01 291.922C1251.4 300.245 1420.85 296.38 1585.67 280.427C1752.6 264.276 1905.25 236.62 2039.37 198.229C2179.94 157.995 2293.8 107.677 2377.77 48.6614C2379.13 47.7083 2381 48.0364 2381.95 49.3906C2382.91 50.7448 2382.58 52.6198 2381.22 53.5729C2296.71 112.969 2182.25 163.583 2041.03 204C1906.55 242.49 1753.54 270.214 1586.25 286.406C1477.61 296.917 1366.92 302.193 1255.6 302.193V302.187Z" fill="#232323"/>
</g>
</svg>
