<svg width="2501" height="2500" viewBox="0 0 2501 2500" fill="none" xmlns="http://www.w3.org/2000/svg">
<path d="M1058.95 1519.29C925.469 1353.53 786.182 1262.12 706.526 1299.04C700.036 1302.05 669.401 1317.29 667.885 1341.55C663.828 1406.41 871.948 1472.09 1058.95 1519.29Z" fill="#232323"/>
<path d="M1103.01 1385.76C1095.65 1458.4 1090.76 1506.6 1065.91 1561.96C963.995 1789.03 660.182 1837.83 623.068 1843.26C561.344 1852.29 448.094 1859.88 309.292 1814.67L335.568 1639.24C396.865 1642.55 439.021 1628.99 465.406 1616.83C531.083 1586.55 550.021 1541.42 635.156 1485.04C670.729 1461.48 702.135 1446.38 721.797 1437.72C721.823 1437.67 724.646 1432.02 726.068 1429.21C744.651 1392.68 767.604 1353.7 796.062 1313.95C888.255 1185.18 997.599 1105.05 1078.28 1057.31C1097.09 1131.71 1117.1 1246.83 1103.01 1385.76Z" fill="white"/>
<path d="M528.068 1852.62C517.047 1852.62 506.005 1852.35 494.958 1851.81C432.641 1848.74 369.911 1837.05 308.516 1817.05C307.349 1816.67 306.63 1815.51 306.812 1814.3L333.088 1638.87C333.276 1637.59 334.411 1636.67 335.703 1636.74C383.542 1639.32 426.828 1631.85 464.359 1614.55C499.156 1598.51 521.021 1577.95 546.333 1554.14C568.698 1533.1 594.047 1509.26 633.771 1482.95C661.125 1464.84 689.958 1449.06 719.958 1435.79C720.797 1434.11 722.734 1430.24 723.828 1428.08C744.307 1387.84 767.922 1348.95 794.026 1312.49C868.12 1209.01 963.323 1122.43 1077 1055.16C1077.68 1054.76 1078.51 1054.7 1079.23 1055C1079.96 1055.3 1080.51 1055.93 1080.7 1056.7C1108.27 1165.68 1116.61 1276.48 1105.5 1386.01C1098.1 1459.01 1093.21 1507.24 1068.2 1562.98C1044.67 1615.41 1008.45 1662.47 960.552 1702.86C921.599 1735.71 874.714 1764.36 821.198 1788.02C730.911 1827.93 647 1842.29 623.432 1845.74C592.141 1850.32 560.182 1852.62 528.068 1852.62ZM312.083 1812.94C372.411 1832.4 434.016 1843.79 495.208 1846.8C538.094 1848.91 580.995 1846.89 622.708 1840.78C646.115 1837.35 729.469 1823.09 819.177 1783.43C872.255 1759.97 918.734 1731.57 957.323 1699.03C1004.64 1659.14 1040.41 1612.67 1063.62 1560.93C1088.31 1505.93 1093.17 1458.02 1100.52 1385.51C1111.45 1277.65 1103.43 1168.55 1076.67 1061.19C964.87 1127.85 871.156 1213.37 798.104 1315.41C772.146 1351.66 748.661 1390.34 728.302 1430.35C726.901 1433.12 725.51 1435.9 724.125 1438.68L724.036 1438.85C723.776 1439.36 723.344 1439.78 722.807 1440.01C692.771 1453.24 663.911 1469.01 636.542 1487.13C597.177 1513.2 571.99 1536.89 549.771 1557.79C524.135 1581.9 502 1602.72 466.458 1619.1C428.776 1636.47 385.469 1644.13 337.708 1641.86L312.083 1812.94Z" fill="#232323"/>
<path d="M1299.18 1050.39C1281.7 981.953 1160.11 952.104 1053.08 1001.61C964.698 1042.49 892.516 1103.31 674.068 1322.22C760.594 1248.31 997.818 1447.3 1076.72 1538.61C1206.37 1281.26 1314.71 1111.23 1299.18 1050.39Z" fill="#4CAF7A"/>
<path d="M1456.95 528.516C1455.08 554.979 1456.54 602.318 1457.76 621.792C1457.79 622.286 1457.82 622.755 1457.85 623.203C1458.13 627.432 1458.39 630.062 1458.59 630.479C1447.97 637.927 1435.74 653.427 1424.52 670.088C1424.45 670.182 1424.39 670.281 1424.32 670.375C1424.32 670.38 1424.32 670.38 1424.32 670.391C1422.32 673.333 1420.38 676.312 1418.47 679.292L1418.46 679.302C1418.45 679.318 1418.44 679.328 1418.44 679.344C1401.7 705.51 1388.49 731.422 1388.49 731.422C1388.49 731.422 1387.04 730.521 1384.38 728.875H1384.37C1376.5 724.031 1358.08 712.823 1334.89 699.521H1334.88C1327.02 695.021 1318.6 690.266 1309.87 685.448H1309.86C1303.42 681.88 1296.79 678.292 1290.07 674.693C1290.06 674.693 1290.06 674.682 1290.05 674.682C1290.04 674.682 1290.04 674.677 1290.03 674.677C1265.6 661.682 1240.05 649.036 1217.71 639.984H1217.7C1216.99 639.682 1216.27 639.401 1215.56 639.114C1199.33 632.641 1184.92 628.151 1174.05 626.932H1174.03C1174.03 626.932 1174.02 626.932 1174.01 626.922H1174C1173.9 626.911 1173.81 626.896 1173.71 626.885C1173.65 626.88 1173.59 626.87 1173.53 626.87L1173.42 626.844H1173.34L1143.2 500.891C1142.94 500.812 1142.66 500.724 1142.35 500.641C1140.61 500.094 1138.19 499.312 1135.31 498.25C1133.79 497.698 1132.15 497.062 1130.4 496.354C1131.15 495.708 1131.92 495.109 1132.71 494.531C1135.39 492.557 1138.19 490.766 1141.1 489.156C1145.47 486.739 1150.07 484.771 1154.83 483.281C1168.39 479.026 1183.02 478.739 1196.99 482.932C1197.01 482.766 1197.04 482.609 1197.06 482.448C1197.36 479.911 1197.76 477.453 1198.26 475.073C1200.7 463.448 1205.4 453.734 1211.63 445.87C1212.47 444.802 1213.34 443.771 1214.24 442.771C1245.17 408.354 1307.13 414.151 1324.95 454.177C1380.72 392.25 1474.26 450.104 1458.73 514.521C1458.47 515.614 1458.23 516.88 1458.02 518.302C1457.58 521.141 1457.23 524.599 1456.95 528.516Z" fill="#232323"/>
<path d="M1478.11 751.266C1475.71 751.776 1473.24 752.25 1470.71 752.672L1470.73 752.818C1471.04 754.937 1471.32 757.057 1471.58 759.182C1471.79 761.016 1482.46 813.021 1519.29 977.531C1515.49 988.427 1499.43 1030.4 1453.54 1053.3C1441.81 1059.15 1392.65 1083.69 1349.42 1056.94C1314.41 1035.28 1307.38 995.75 1306.28 988.521C1310.08 971.682 1313.49 951.068 1314.74 928.687V928.672C1314.78 927.953 1314.82 927.234 1314.85 926.51C1315.55 912.573 1315.43 898.609 1314.49 884.682L1314.47 884.396C1303.16 890.26 1240.55 921.599 1196.31 893.005C1183.83 884.948 1176.79 875.167 1173.9 869.896C1148.2 823.026 1197.9 751.203 1181.35 658.286C1180.75 654.891 1180.07 651.51 1179.3 648.146C1177.68 641.073 1175.72 634.083 1173.42 627.208C1173.41 627.193 1173.41 627.172 1173.4 627.156V627.151C1173.6 627.078 1173.8 627.005 1174.01 626.922H1174.01C1174.23 626.844 1174.45 626.76 1174.66 626.687C1175.05 626.547 1175.43 626.406 1175.81 626.266C1181.1 624.349 1186.43 622.552 1191.79 620.875C1209.43 615.37 1226.44 611.641 1242.83 610.177C1252.19 609.338 1261.35 609.24 1270.32 609.969C1280.23 610.76 1289.93 612.568 1299.38 615.5C1300.48 615.844 1301.58 616.198 1302.67 616.568C1308.97 618.713 1315.09 621.338 1320.98 624.417C1321.18 624.51 1321.39 624.62 1321.58 624.74C1338.9 633.891 1355.41 647.474 1371.17 666.333C1392.56 691.667 1400.82 700.172 1418.47 679.292C1418.47 679.281 1418.47 679.281 1418.48 679.276C1420.54 676.401 1422.46 673.422 1424.32 670.375C1433.94 654.588 1441.8 637.021 1457.84 623.203C1549.76 557.036 1615.92 718.958 1481.79 750.453C1480.58 750.734 1479.36 751.005 1478.11 751.266Z" fill="white"/>
<path d="M1393.85 1071.71C1374.17 1071.71 1359.01 1065.82 1348.1 1059.07C1313.69 1037.79 1305.49 999.979 1303.8 988.896C1303.75 988.588 1303.76 988.271 1303.83 987.969C1308.32 968.135 1311.15 948.156 1312.23 928.594L1312.24 928.521C1312.28 927.849 1312.31 927.177 1312.35 926.5L1312.35 926.385C1312.98 913.713 1312.93 901.015 1312.21 888.349C1297.99 895.375 1282.54 900.916 1268.28 904.068C1238.88 910.568 1214.21 907.552 1194.95 895.109C1180.47 885.755 1173.5 874.37 1171.71 871.104C1158.43 846.885 1164.59 816.338 1171.72 780.963C1178.92 745.245 1187.08 704.76 1178.89 658.729C1178.29 655.37 1177.62 652.031 1176.86 648.703C1175.26 641.713 1173.32 634.802 1171.04 628.005C1171.03 627.953 1171.01 627.901 1170.99 627.849C1170.63 626.578 1171.31 625.234 1172.56 624.791C1172.74 624.724 1172.91 624.661 1173.09 624.594C1173.14 624.573 1173.2 624.552 1173.25 624.536C1173.47 624.458 1173.66 624.385 1173.84 624.323C1174.07 624.234 1174.37 624.125 1174.67 624.021L1174.95 623.916C1180.28 621.984 1185.64 620.172 1191.05 618.484C1209.76 612.646 1226.63 609.109 1242.61 607.682C1252.24 606.823 1261.64 606.75 1270.52 607.469C1280.74 608.286 1290.7 610.187 1300.13 613.109C1301.25 613.458 1302.37 613.823 1303.48 614.198C1309.9 616.39 1316.14 619.062 1322.15 622.198C1322.32 622.281 1322.56 622.411 1322.81 622.552C1340.7 632.021 1357.61 646.208 1373.09 664.729C1385.56 679.495 1393.58 688.552 1400.88 688.557H1400.88C1405.35 688.557 1410.18 685.213 1416.52 677.724C1418.38 675.114 1420.23 672.281 1422.18 669.073C1424.21 665.755 1426.2 662.271 1428.13 658.901C1435.56 645.906 1443.24 632.474 1456.21 621.307C1456.27 621.26 1456.32 621.213 1456.39 621.172C1481.76 602.906 1508.51 599.984 1529.79 613.156C1540.59 619.838 1549.14 630.073 1554.52 642.745C1559.92 655.469 1561.59 669.448 1559.35 683.161C1553.78 717.297 1525.71 742.713 1482.36 752.896C1481.14 753.182 1479.9 753.458 1478.63 753.724C1476.92 754.083 1475.21 754.422 1473.53 754.729C1473.83 756.969 1474.06 758.859 1474.07 758.885C1474.31 760.646 1484.46 810.489 1521.74 976.984C1521.84 977.443 1521.82 977.916 1521.66 978.359C1516.1 994.286 1498.44 1033.69 1454.66 1055.55C1430.94 1067.37 1410.73 1071.71 1393.85 1071.71ZM1308.82 988.604C1310.59 999.703 1318.62 1034.94 1350.73 1054.81C1369.92 1066.68 1403.13 1075.66 1452.42 1051.06C1493.96 1030.33 1511.08 993.135 1516.69 977.375C1481.45 819.974 1469.37 761.88 1469.09 759.469C1469.08 759.448 1468.69 756.182 1468.26 753.182L1468.23 753.047C1468.03 751.693 1468.95 750.427 1470.3 750.203C1472.74 749.791 1475.17 749.333 1477.59 748.818H1477.6C1478.82 748.557 1480.03 748.291 1481.22 748.015C1522.49 738.323 1549.17 714.385 1554.4 682.349C1558.6 656.651 1547.39 629.943 1527.15 617.411C1515.72 610.338 1491.72 601.948 1459.4 625.172C1447.13 635.765 1439.68 648.791 1432.47 661.385C1430.53 664.786 1428.52 668.297 1426.46 671.677C1424.42 675.031 1422.48 677.995 1420.53 680.734C1420.46 680.812 1420.4 680.89 1420.33 680.969C1412.96 689.677 1406.96 693.562 1400.88 693.562C1391.34 693.562 1383.06 684.307 1369.25 667.948C1353.96 649.651 1337.99 636.245 1320.41 626.953C1320.38 626.937 1320.34 626.916 1320.31 626.896C1320.17 626.818 1320.04 626.745 1319.9 626.677C1314.09 623.646 1308.06 621.057 1301.86 618.943C1300.79 618.578 1299.72 618.229 1298.64 617.89C1289.57 615.078 1279.97 613.25 1270.11 612.463C1261.51 611.765 1252.41 611.838 1243.05 612.672C1227.43 614.068 1210.9 617.531 1192.54 623.265C1187.21 624.932 1181.92 626.719 1176.66 628.625L1176.53 628.672C1178.55 634.896 1180.29 641.208 1181.74 647.588C1182.52 650.995 1183.21 654.416 1183.82 657.854C1192.18 704.818 1183.92 745.797 1176.63 781.953C1169.69 816.364 1163.7 846.083 1176.1 868.693C1177.75 871.698 1184.18 882.187 1197.67 890.901C1215.76 902.588 1239.15 905.375 1267.2 899.177C1282.19 895.864 1298.57 889.823 1313.31 882.172C1314.06 881.781 1314.95 881.797 1315.69 882.203C1316.42 882.609 1316.9 883.359 1316.97 884.198L1316.99 884.505C1317.93 898.531 1318.05 912.599 1317.36 926.635L1317.35 926.76C1317.32 927.448 1317.28 928.135 1317.24 928.828C1316.15 948.531 1313.31 968.64 1308.82 988.604Z" fill="#232323"/>
<path d="M1313.72 674.547C1304.7 674.812 1283.09 676.042 1261.54 671.078C1258.56 670.406 1255.56 672.276 1254.8 675.271L1254.82 675.359C1253.1 683.182 1252.41 696.276 1267.58 697.765C1286.11 699.635 1312.32 687.443 1316.49 678.547C1317.16 677.073 1316.45 675.37 1315 674.797C1314.58 674.62 1314.19 674.526 1313.72 674.547ZM1192.34 686.323C1201.36 685.307 1207.55 683.031 1222.97 677.245C1225.89 676.151 1229.12 677.505 1230.22 680.417C1233.09 687.849 1231.24 696.64 1219.21 701.021C1205.72 705.953 1194.63 697.833 1190.26 690.771C1189.45 689.38 1189.85 687.594 1191.15 686.802C1191.55 686.521 1191.9 686.432 1192.34 686.323ZM1471.57 756.083C1466.97 756.531 1461.98 756.765 1457.33 756.422C1455.67 756.292 1454.36 754.807 1454.49 753.13C1454.61 751.474 1456.1 750.156 1457.77 750.292C1462.1 750.604 1466.45 750.552 1470.78 750.13C1471.03 752.12 1471.3 754.104 1471.57 756.083ZM1377.8 872.823C1374.2 903.375 1348.75 929.896 1313.23 941.135C1313.45 936.432 1313.55 931.448 1313.49 926.203V926.193C1313.54 925.469 1313.58 924.75 1313.61 924.031C1314.31 910.094 1314.19 896.125 1313.25 882.203C1320.13 878.396 1326.78 874.193 1333.16 869.609C1349.67 857.739 1362.02 845.026 1370.95 834.172C1375.07 842.896 1379.72 856.625 1377.8 872.823ZM1240.92 777.604C1244.87 780.406 1249.4 782.026 1254.18 782.104C1258.87 782.359 1263.57 781.437 1267.83 779.422C1272.01 777.229 1275.6 773.943 1278.35 769.844C1281.14 765.604 1282.77 760.713 1283.08 755.651V755.562C1283.16 753.922 1284.5 752.739 1286.01 752.823C1287.27 752.911 1288.28 753.906 1288.53 755.271C1289.47 761.901 1288.24 768.724 1284.99 774.458C1283.41 777.375 1281.49 779.927 1279.15 782.203C1272.22 789.042 1262.76 792.073 1253.53 790.557C1250.51 790.114 1247.56 789.203 1244.81 787.859C1241.95 786.505 1239.43 784.422 1237.33 781.885C1236.32 780.614 1236.48 778.797 1237.65 777.703C1238.57 776.792 1239.99 776.786 1241.01 777.51L1240.92 777.604ZM1453.05 708.427C1451.37 709.219 1449.43 708.573 1448.65 706.896C1448.43 706.39 1448.27 705.771 1448.32 705.198C1451.83 647.495 1499.24 639.229 1499.69 639.12C1501.49 638.859 1503.19 640.031 1503.45 641.838C1503.71 643.651 1502.52 645.255 1500.73 645.604C1499.03 645.932 1458.04 653.26 1454.89 705.635C1454.82 706.864 1454.13 707.88 1453.05 708.427Z" fill="#232323"/>
<path d="M1232.63 742.365C1231.96 742.719 1231.21 742.714 1230.51 742.516C1220.48 738.724 1215.22 734.875 1213.43 729.885C1211.13 723.62 1215.01 716.953 1219.36 709.224C1229.22 691.896 1224.24 683.115 1224.22 683.026C1223.45 681.812 1223.89 680.203 1225.11 679.432C1225.69 679.062 1226.39 678.937 1227.06 679.089C1227.73 679.24 1228.31 679.651 1228.68 680.234C1228.98 680.719 1235.59 691.536 1223.95 711.833C1219.56 719.474 1217.04 724.406 1218.33 728.115C1219.51 731.38 1224.02 734.474 1232.28 737.583C1233.63 738.094 1234.29 739.615 1233.78 740.958C1233.75 741.62 1233.22 742.125 1232.63 742.365ZM1322.71 644.984C1318.05 625.766 1299.76 611.266 1280.32 609.594C1267.33 606.995 1231.41 626.854 1250.22 636.328C1260.16 641.333 1271.17 641.271 1281.36 644.823C1288.64 646.786 1297.97 650.771 1305.57 653.344C1312.05 656.542 1325.19 654.542 1322.71 644.984ZM1215.56 639.115C1214.57 640.708 1212.84 641.838 1211.13 642.635C1200.39 647.922 1191.39 652.021 1181.35 658.286C1179.27 647.667 1175.97 637.687 1173.4 627.156L1174.04 626.932C1173.82 626.896 1173.61 626.88 1173.41 626.854C1182.69 621.026 1194.64 618.922 1205.07 622.687C1211.79 624.797 1220.54 631.495 1215.56 639.115Z" fill="#232323"/>
<path d="M1539.67 467.656C1539.67 506.604 1489.58 527.161 1458.52 527.161C1458.51 527.161 1458.52 527.172 1458.52 527.172C1458.27 559.114 1458 591.062 1457.75 622.995C1367.83 613.156 1266.91 613.927 1174.66 626.687C1174.23 626.734 1173.8 626.812 1173.37 626.844C1173.36 626.854 1173.35 626.854 1173.34 626.854V626.844L1143.2 500.89C1071.27 481.917 1038.16 406.833 1113.83 348.646C1149.96 324.838 1195.1 339.547 1242.9 350.193C1434.72 395.812 1539.7 343.713 1539.67 467.656Z" fill="white"/>
<mask id="mask0_433_8779" style="mask-type:luminance" maskUnits="userSpaceOnUse" x="1067" y="333" width="477" height="298">
<path d="M1067.17 333.333H1543.17V630.667H1067.17V333.333Z" fill="white"/>
</mask>
<g mask="url(#mask0_433_8779)">
<path d="M1173.34 629.359C1172.14 629.359 1171.11 628.51 1170.88 627.328L1141.11 502.922C1103.26 492.474 1075.93 466.713 1069.62 435.401C1063.33 404.177 1078.49 372.661 1112.31 346.661C1112.35 346.625 1112.41 346.588 1112.45 346.552C1145.37 324.865 1185.14 334.172 1227.24 344.021C1232.54 345.255 1238.01 346.536 1243.44 347.75C1306.4 362.719 1360.28 367.167 1403.57 370.74C1492.96 378.115 1542.2 382.182 1542.18 467.656C1542.18 490.896 1525.79 505.771 1512.05 514.151C1497.1 523.271 1477.79 529.094 1461.01 529.625C1460.89 544.963 1460.76 560.302 1460.64 575.641C1460.51 591.437 1460.38 607.229 1460.26 623.016C1460.25 623.724 1459.94 624.396 1459.42 624.865C1458.89 625.338 1458.18 625.562 1457.48 625.484C1365.36 615.406 1265.04 616.713 1175.01 629.167C1174.78 629.193 1174.62 629.213 1174.47 629.234C1174.22 629.271 1173.97 629.307 1173.72 629.328C1173.59 629.349 1173.47 629.359 1173.34 629.359ZM1115.29 350.687C1083.11 375.453 1068.64 405.182 1074.53 434.411C1080.54 464.234 1107.1 488.776 1143.84 498.463C1144.73 498.703 1145.42 499.406 1145.64 500.307L1175.26 624.078C1264.49 611.807 1363.8 610.437 1455.27 620.208C1455.38 605.344 1455.5 590.474 1455.62 575.604C1455.76 559.49 1455.89 543.375 1456.01 527.26C1455.99 526.901 1456.06 526.542 1456.2 526.203C1456.59 525.266 1457.5 524.656 1458.52 524.656C1474.98 524.656 1494.49 518.995 1509.44 509.875C1532.35 495.896 1537.17 479.203 1537.17 467.656C1537.18 386.797 1492.4 383.099 1403.16 375.734C1359.7 372.146 1305.6 367.682 1242.31 352.63C1236.89 351.422 1231.41 350.141 1226.1 348.896C1185.1 339.307 1146.39 330.25 1115.29 350.687Z" fill="#232323"/>
</g>
<path d="M1947.91 2023.07L1045.07 2020.16C1033.93 1879.82 1033.78 1681.8 1085.12 1453.01C1127.83 1262.66 1193.23 1108.74 1251.4 996.26C1270.14 992.838 1290.96 990.078 1308.98 987.807C1319.31 1040.89 1356.83 1065.9 1385.79 1065.93C1428.57 1065.97 1487.36 1051.23 1516.8 977.307C1555.84 976.896 1598.89 976.187 1642.46 974.62C1720.4 1080.78 1830.43 1258.07 1896.22 1501.06C1953.97 1714.35 1956.18 1899.04 1947.91 2023.07Z" fill="#4CAF7A"/>
<path d="M1881.22 1449.18C1802.65 1388.31 1676.48 1273.66 1638.16 1207.83C1631.42 1196.27 1625.47 1184.83 1620.31 1173.53C1620.08 1167 1619.94 1160.47 1619.89 1153.94C1626.32 1170.32 1634.52 1187.1 1644.45 1204.17C1681.11 1267.16 1803.2 1378.68 1877.55 1437.42C1878.9 1441.15 1880.29 1445.33 1881.22 1449.18ZM1529.48 1017.29C1528.3 1027.01 1527.15 1036.74 1526.04 1046.48C1520.41 1058.6 1516.96 1068.94 1511.82 1084.08C1491.41 1144.21 1471.67 1178.46 1453.15 1185.88C1451.59 1186.51 1448.54 1187.73 1444.38 1187.73C1443.92 1187.73 1443.45 1187.71 1442.97 1187.69C1426.68 1186.61 1412.91 1167.67 1400.87 1129.78C1395.27 1112.15 1390.11 1090.27 1385.79 1065.93C1374.07 1096.62 1363.4 1121.24 1353.98 1139.23C1338.69 1168.47 1326.51 1181.15 1315.64 1179.13C1309.15 1177.92 1305.54 1171.95 1302.88 1166.28C1290.3 1139.48 1287.65 1093.01 1288.45 1050.63C1291.21 1038.69 1294.14 1026.78 1297.24 1014.92C1294.27 1063.23 1293.8 1129.71 1309.52 1163.19C1311.29 1166.97 1313.74 1171.37 1316.99 1171.97C1317.27 1172.03 1317.56 1172.06 1317.88 1172.06C1324.8 1172.06 1343.67 1158.54 1383.72 1050.65C1384.3 1049.08 1385.86 1048.11 1387.53 1048.28C1389.18 1048.45 1390.52 1049.7 1390.78 1051.34C1403.4 1130.82 1423.09 1179.07 1443.45 1180.42C1446.65 1180.64 1449.09 1179.66 1450.4 1179.14C1461.71 1174.6 1480.33 1154.04 1504.87 1081.76C1513.08 1057.58 1522.24 1036.76 1529.48 1017.29Z" fill="white"/>
<path d="M1384.04 1270.93C1381.28 1270.93 1378.76 1270.36 1376.51 1269.22C1361.05 1261.41 1364.29 1230.45 1366.02 1213.82C1371.31 1163.24 1377.72 1107.09 1384.58 1051.46C1384.82 1049.46 1386.64 1048.05 1388.64 1048.29C1390.63 1048.54 1392.05 1050.35 1391.81 1052.35C1384.96 1107.94 1378.55 1164.04 1373.27 1214.57C1372.05 1226.22 1368.81 1257.18 1379.79 1262.72C1383.06 1264.38 1387.71 1263.83 1393.63 1261.12C1394.51 1260.71 1395.51 1260.68 1396.41 1261.01C1397.32 1261.34 1398.05 1262.03 1398.45 1262.91C1399.29 1264.73 1398.49 1266.9 1396.67 1267.73C1392.03 1269.86 1387.8 1270.93 1384.04 1270.93Z" fill="white"/>
<path d="M1402.88 1187.15C1402.88 1191.41 1399.42 1194.87 1395.15 1194.87C1390.88 1194.87 1387.42 1191.41 1387.42 1187.15C1387.42 1182.87 1390.88 1179.42 1395.15 1179.42C1399.42 1179.42 1402.88 1182.87 1402.88 1187.15Z" fill="white"/>
<path d="M1400.56 1222.69C1400.56 1226.96 1397.1 1230.42 1392.83 1230.42C1388.56 1230.42 1385.1 1226.96 1385.1 1222.69C1385.1 1218.43 1388.56 1214.96 1392.83 1214.96C1397.1 1214.96 1400.56 1218.43 1400.56 1222.69Z" fill="white"/>
<path d="M1945 1758.06C1933.57 1673.68 1917.53 1595.96 1899.79 1524.47C1880.34 1525.52 1779.83 1529.24 1714.33 1462.27C1714.33 1462.27 1665.54 1412.26 1639.7 1316.98C1638.94 1314.17 1638.2 1311.35 1637.51 1308.52C1634.68 1297.23 1632.79 1287.88 1631.64 1281.43C1631.62 1281.44 1631.6 1281.45 1631.58 1281.45L1631.43 1281.51C1625.24 1246.58 1621.53 1210.03 1620.31 1173.53C1620.08 1166.99 1619.94 1160.47 1619.89 1153.93C1619.63 1153.3 1619.38 1152.66 1619.14 1152.03C1599.84 1101.99 1596.98 1055.68 1611.11 1016.03C1616.24 1001.62 1623.66 987.859 1633.32 974.859C1636.73 970.26 1640.36 965.828 1644.19 961.568L1633.28 963.094C1600.35 967.698 1567.13 974.635 1534.19 979.24C1532.56 991.917 1530.99 1004.6 1529.48 1017.29C1523.27 1069.01 1517.85 1120.82 1513.24 1172.7C1508.93 1221.19 1505.31 1269.73 1502.39 1318.32C1429.56 1332.16 1347.96 1335.87 1258.96 1320.53C1258.41 1320.44 1257.86 1320.34 1257.3 1320.24C1251.73 1319.27 1246.18 1318.23 1240.65 1317.12C1246.99 1259.57 1253.99 1217.68 1257.68 1196.73C1270.29 1125.07 1299.91 995.599 1300.3 991.552C1283.77 993.359 1266.81 995.536 1250.32 998.088C1171.57 1148.71 1088.56 1394 1060.36 1584.78C1046.97 1666.49 1038.22 1748.9 1034.15 1831.59C1030.4 1908 1030.64 1984.55 1034.88 2060.93L1967.57 2061.66C1966.17 1960.1 1958.63 1858.71 1945 1758.06Z" fill="white"/>
<mask id="mask1_433_8779" style="mask-type:luminance" maskUnits="userSpaceOnUse" x="1028" y="958" width="944" height="1107">
<path d="M1028.5 958.667H1971.17V2064.17H1028.5V958.667Z" fill="white"/>
</mask>
<g mask="url(#mask1_433_8779)">
<path d="M1967.57 2064.17H1967.57L1034.88 2063.44C1033.55 2063.44 1032.45 2062.4 1032.38 2061.07C1028.15 1984.9 1027.9 1907.65 1031.65 1831.47C1035.71 1749 1044.54 1665.87 1057.89 1584.38C1071.4 1492.97 1097.72 1386.18 1134.01 1275.6C1168.33 1170.96 1208.85 1071.99 1248.1 996.932C1248.46 996.224 1249.15 995.734 1249.93 995.614C1265.64 993.182 1282.49 990.979 1300.03 989.062C1300.78 988.984 1301.53 989.239 1302.06 989.771C1302.6 990.302 1302.86 991.041 1302.8 991.791C1302.67 993.052 1300.83 1001.48 1296.3 1022.15C1286.81 1065.46 1269.14 1146.09 1260.15 1197.16C1253.59 1234.39 1247.96 1274.06 1243.39 1315.11C1248.16 1316.05 1252.94 1316.94 1257.73 1317.78L1258.35 1317.89C1258.69 1317.94 1259.02 1318 1259.35 1318.05C1339.11 1331.81 1420.06 1331.19 1500.01 1316.22C1502.91 1268.26 1506.49 1220.34 1510.74 1172.48C1515.36 1120.57 1520.78 1068.73 1526.99 1016.98C1528.51 1004.29 1530.08 991.604 1531.7 978.922C1531.84 977.802 1532.72 976.916 1533.84 976.76C1550.24 974.463 1567.02 971.541 1583.23 968.708C1599.54 965.864 1616.4 962.927 1632.93 960.614L1643.85 959.083C1644.89 958.937 1645.91 959.458 1646.41 960.39C1646.9 961.317 1646.76 962.458 1646.06 963.239C1642.28 967.442 1638.7 971.817 1635.33 976.354C1625.86 989.099 1618.51 1002.73 1613.47 1016.87C1599.53 1056.03 1602.21 1101.19 1621.47 1151.12L1621.66 1151.61C1621.84 1152.08 1622.02 1152.54 1622.21 1153C1622.32 1153.29 1622.39 1153.6 1622.39 1153.91C1622.44 1160.19 1622.58 1166.76 1622.81 1173.44C1624.04 1209.96 1627.7 1245.81 1633.7 1280.01C1633.91 1280.3 1634.05 1280.64 1634.11 1280.99C1635.14 1286.78 1636.98 1296.14 1639.93 1307.92C1640.63 1310.73 1641.36 1313.53 1642.12 1316.33C1667.49 1409.9 1715.64 1460.02 1716.13 1460.52C1743.44 1488.45 1780.02 1507.26 1824.83 1516.43C1855.49 1522.69 1882.44 1522.9 1899.66 1521.97C1900.85 1521.9 1901.93 1522.7 1902.22 1523.86C1922.35 1604.98 1937.16 1681.47 1947.48 1757.72C1961.07 1858.06 1968.67 1960.3 1970.08 2061.63C1970.08 2062.3 1969.82 2062.94 1969.35 2063.42C1968.88 2063.9 1968.24 2064.17 1967.57 2064.17ZM1037.25 2058.43L1965.03 2059.15C1963.54 1958.86 1955.96 1857.69 1942.52 1758.4C1932.3 1682.95 1917.69 1607.27 1897.85 1527.07C1880.3 1527.89 1853.8 1527.46 1823.83 1521.33C1778.02 1511.96 1740.57 1492.68 1712.54 1464.02C1712.05 1463.51 1662.99 1412.45 1637.29 1317.64C1636.52 1314.81 1635.78 1311.97 1635.07 1309.12C1632.26 1297.89 1630.44 1288.81 1629.36 1282.91C1629.16 1282.62 1629.02 1282.29 1628.96 1281.95C1622.8 1247.19 1619.05 1210.74 1617.8 1173.61C1617.59 1167.22 1617.45 1160.82 1617.39 1154.43C1617.25 1154.09 1617.13 1153.76 1616.99 1153.43L1616.8 1152.94C1597.1 1101.84 1594.39 1055.5 1608.75 1015.18C1613.95 1000.58 1621.54 986.51 1631.31 973.364C1633.43 970.505 1635.64 967.708 1637.92 964.974L1633.63 965.578C1617.18 967.875 1600.36 970.807 1584.1 973.646C1568.46 976.375 1552.31 979.192 1536.43 981.453C1534.9 993.489 1533.41 1005.53 1531.97 1017.58C1525.76 1069.28 1520.35 1121.06 1515.73 1172.93C1511.43 1221.39 1507.81 1269.91 1504.9 1318.47C1504.83 1319.61 1503.99 1320.57 1502.86 1320.78C1421.69 1336.21 1339.49 1336.95 1258.54 1322.99C1258.19 1322.94 1257.84 1322.88 1257.49 1322.82L1256.88 1322.71C1254.58 1322.31 1252.28 1321.9 1249.97 1321.47C1246.69 1320.86 1243.42 1320.23 1240.16 1319.57C1238.88 1319.32 1238.02 1318.14 1238.16 1316.84C1242.78 1274.87 1248.52 1234.31 1255.21 1196.29C1264.22 1145.11 1281.91 1064.42 1291.41 1021.07C1293.99 1009.27 1296.18 999.297 1297.2 994.416C1281.41 996.182 1266.21 998.182 1251.95 1000.37C1213.02 1075.06 1172.84 1173.3 1138.77 1277.16C1102.57 1387.47 1076.32 1493.98 1062.84 1585.15C1049.51 1666.49 1040.7 1749.44 1036.66 1831.72C1032.95 1906.94 1033.16 1983.2 1037.25 2058.43Z" fill="#232323"/>
</g>
<path d="M1725.6 1990.06C1732.1 2007.24 1723.28 2026.44 1705.99 2032.7C1688.72 2038.96 1669.65 2029.87 1663.63 2012.51L1512.1 1575.47L1499.72 1539.73L1492.05 1517.61L1540.39 1500.1L1549.52 1524.26L1552.53 1532.22L1725.6 1990.06Z" fill="#042628"/>
<path d="M1570.5 1438.95C1587.48 1485.84 1569.74 1535.26 1530.86 1549.34C1491.98 1563.43 1446.7 1536.84 1429.71 1489.95C1412.73 1443.07 1430.47 1393.65 1469.35 1379.56C1508.23 1365.48 1553.52 1392.07 1570.5 1438.95Z" fill="#042628"/>
<path d="M1506.45 1529.38C1496.86 1529.38 1487.11 1526.64 1477.91 1521.24C1463.45 1512.74 1452.07 1498.65 1445.88 1481.55C1432.99 1446.01 1446.76 1408.31 1476.56 1397.52C1506.35 1386.72 1541.07 1406.86 1553.94 1442.4C1566.82 1477.94 1553.06 1515.64 1523.26 1526.43C1517.87 1528.39 1512.18 1529.39 1506.45 1529.38ZM1493.3 1401.87C1488.43 1401.86 1483.61 1402.71 1479.04 1404.36C1453.02 1413.79 1441.21 1447.3 1452.72 1479.07C1458.34 1494.58 1468.59 1507.32 1481.6 1514.96C1494.39 1522.46 1508.3 1524.11 1520.78 1519.59C1546.8 1510.16 1558.61 1476.65 1547.1 1444.88C1537.65 1418.8 1515.37 1401.87 1493.3 1401.87Z" fill="white"/>
<path d="M2015.06 1588.41C2213.99 1454.58 2384.58 1315.98 2356.07 1244.57C2344.96 1216.74 2306.23 1205.68 2280.81 1204.99C2180.26 1202.26 2073.88 1356.04 2015.06 1588.41Z" fill="#232323"/>
<path d="M2415.95 1608.29C2341.36 1854.89 1807.91 1877.34 1749.59 1885.12C1730.88 1887.62 1711.99 1885.5 1700.92 1886.63C1692.6 1844.74 1687.88 1816.46 1683.08 1788.68C1679.48 1767.81 1677.02 1747.76 1674.06 1721.24C1672.57 1707.87 1695.67 1690.26 1696.24 1676.72C1809.15 1635.59 1916.54 1558.5 1990.37 1524.55C1992.06 1523.77 1993.77 1522.99 1995.48 1522.24C1995.82 1522.09 1996.16 1521.94 1996.5 1521.79C1996.48 1521.78 1996.46 1521.77 1996.45 1521.76C1996.05 1521.49 1995.67 1521.21 1995.28 1520.95C1993.41 1519.66 1991.52 1518.35 1989.63 1517.04C1989.17 1516.71 1988.7 1516.4 1988.23 1516.07C1946.87 1487.26 1906.83 1456.59 1868.23 1424.17C1824.69 1387.57 1783.04 1348.76 1743.46 1307.9C1765.35 1223.63 1787.24 1139.36 1809.13 1055.08C1864.64 1054.09 2052.87 1057.62 2215.85 1195.27C2305.44 1270.93 2463.43 1451.34 2415.95 1608.29Z" fill="white"/>
<path d="M1700.92 1889.14C1699.72 1889.14 1698.7 1888.29 1698.46 1887.11C1691.02 1849.66 1686.51 1823.4 1682.15 1798L1680.61 1789.1C1677.06 1768.51 1674.6 1748.73 1671.57 1721.52C1670.68 1713.55 1677.03 1704.86 1683.16 1696.46C1688.24 1689.5 1693.5 1682.3 1693.74 1676.61C1693.79 1675.6 1694.44 1674.71 1695.39 1674.37C1765.56 1648.8 1833.22 1609.53 1892.91 1574.87C1928.14 1554.43 1961.41 1535.11 1989.32 1522.28C1990.02 1521.95 1990.71 1521.64 1991.4 1521.32C1990.33 1520.58 1989.27 1519.84 1988.2 1519.09C1987.74 1518.78 1987.27 1518.45 1986.79 1518.12C1945.38 1489.27 1905.28 1458.55 1866.63 1426.08C1823.02 1389.42 1781.31 1350.56 1741.66 1309.65C1741.05 1309.02 1740.82 1308.12 1741.04 1307.28L1806.7 1054.46C1806.99 1053.37 1807.96 1052.6 1809.08 1052.58C1862.97 1051.62 1919.58 1057.9 1972.78 1070.75C2065.27 1093.09 2147.59 1134.34 2217.47 1193.36C2239.18 1211.7 2314.3 1278.62 2369.44 1370C2393.94 1410.59 2410.86 1450.15 2419.75 1487.6C2430.06 1531.02 2429.59 1571.86 2418.35 1609.01C2389.38 1704.82 2288.9 1778.25 2119.73 1827.28C1984.25 1866.53 1839.84 1879.37 1778.18 1884.85C1764.93 1886.03 1755.36 1886.88 1749.92 1887.6C1738.61 1889.11 1727.48 1888.97 1717.67 1888.84C1711.15 1888.76 1705.52 1888.68 1701.17 1889.12C1701.09 1889.13 1701.01 1889.14 1700.92 1889.14ZM1698.58 1678.54C1697.55 1685.26 1692.3 1692.45 1687.21 1699.42C1681.64 1707.04 1675.88 1714.93 1676.55 1720.97C1679.57 1748.08 1682.02 1767.79 1685.55 1788.25L1687.08 1797.15C1691.35 1822.02 1695.77 1847.71 1702.94 1883.95C1707.14 1883.69 1712.11 1883.76 1717.73 1883.83C1727.38 1883.96 1738.31 1884.1 1749.26 1882.64C1754.81 1881.9 1764.43 1881.04 1777.74 1879.86C1839.26 1874.39 1983.32 1861.58 2118.33 1822.46C2285.77 1773.94 2385.1 1701.64 2413.56 1607.56C2424.53 1571.28 2424.97 1531.3 2414.88 1488.76C2406.1 1451.82 2389.38 1412.73 2365.15 1372.59C2310.41 1281.87 2235.8 1215.4 2214.23 1197.19C2144.96 1138.68 2063.33 1097.78 1971.6 1075.62C1919.44 1063.03 1863.97 1056.79 1811.08 1057.56L1746.24 1307.17C1785.48 1347.59 1826.73 1386 1869.85 1422.25C1908.39 1454.62 1948.36 1485.24 1989.67 1514.02C1990.14 1514.34 1990.59 1514.66 1991.05 1514.97C1992.95 1516.3 1994.83 1517.6 1996.7 1518.89L1997.16 1519.2C1997.38 1519.36 1997.61 1519.52 1997.84 1519.67C1997.98 1519.77 1998.12 1519.87 1998.24 1520C1998.84 1520.58 1999.11 1521.42 1998.96 1522.24C1998.81 1523.06 1998.27 1523.76 1997.5 1524.09C1997.18 1524.23 1996.84 1524.38 1996.51 1524.53C1994.81 1525.28 1993.11 1526.04 1991.42 1526.83C1963.71 1539.57 1930.54 1558.82 1895.43 1579.21C1835.97 1613.72 1768.64 1652.81 1698.58 1678.54Z" fill="#232323"/>
<path d="M2348.33 1231.91C2202.74 1092.62 1790.67 803.432 1643.3 959.068C1485.62 1125.6 1771.48 1361.46 1916.35 1466.24C2107.73 1284.93 2298.85 1173.43 2348.33 1231.91Z" fill="#4CAF7A"/>
<path d="M1812.19 1879.21C1730.72 1888.89 1606.04 1900.7 1552.69 1874.96C1526.99 1862.57 1511.76 1844.49 1509.65 1823.43C1509.61 1823.06 1509.58 1822.71 1509.56 1822.34V1822.33C1509.32 1819.31 1509.35 1816.27 1509.65 1813.25C1509.65 1813.2 1509.65 1813.14 1509.66 1813.09C1509.04 1811.8 1508.44 1810.49 1507.89 1809.17C1502.28 1795.89 1502.33 1786.2 1504.15 1779.08C1504.22 1778.8 1504.29 1778.54 1504.37 1778.27C1504.98 1776.12 1505.79 1774.04 1506.78 1772.04C1506.8 1771.99 1506.82 1771.96 1506.84 1771.92C1506.31 1770.99 1505.81 1770.06 1505.32 1769.12C1505.32 1769.11 1505.31 1769.11 1505.31 1769.1C1496.91 1752.74 1498.89 1739.71 1501.45 1732.37C1501.55 1732.1 1501.64 1731.85 1501.73 1731.6C1503.14 1727.85 1504.61 1725.79 1504.61 1725.79C1504.58 1725.71 1504.56 1725.62 1504.54 1725.55C1504.3 1724.83 1504.08 1724.1 1503.89 1723.37C1495.8 1694.45 1517.3 1679.07 1530.6 1680.94C1551.18 1683.83 1580.66 1700.2 1599.56 1695.34C1579.28 1627.33 1594.38 1583.87 1611.48 1602.45C1641.66 1635.24 1667.93 1674.93 1734.13 1655.19C1747.69 1651.15 1783.23 1637.16 1797.78 1630.9" fill="white"/>
<path d="M1657.71 1893.02C1609 1893.02 1573.35 1887.71 1551.6 1877.22C1525.11 1864.44 1509.33 1845.43 1507.16 1823.68C1507.11 1823.24 1507.08 1822.87 1507.05 1822.49V1822.48C1506.82 1819.51 1506.84 1816.52 1507.1 1813.55C1506.59 1812.46 1506.08 1811.34 1505.58 1810.15C1500.56 1798.26 1499.3 1787.9 1501.72 1778.46C1501.79 1778.18 1501.88 1777.85 1501.97 1777.54C1502.51 1775.65 1503.19 1773.8 1504.02 1772.01C1503.7 1771.43 1503.39 1770.84 1503.08 1770.24C1494.47 1753.48 1496.16 1739.94 1499.09 1731.54L1499.36 1730.77C1500.29 1728.3 1501.24 1726.49 1501.87 1725.43C1501.73 1724.97 1501.6 1724.5 1501.47 1724.04C1496.24 1705.32 1503.18 1693.7 1507.79 1688.43C1514.05 1681.28 1523.14 1677.36 1530.95 1678.46C1538.85 1679.57 1547.71 1682.5 1557.1 1685.61C1571.07 1690.24 1585.48 1695.01 1596.39 1693.42C1581.86 1642.91 1586.35 1604.12 1599.08 1596.89C1601.7 1595.4 1607.04 1593.92 1613.33 1600.76C1616.29 1603.97 1619.25 1607.3 1622.12 1610.53C1635.24 1625.26 1648.81 1640.5 1666.04 1649.48C1685.51 1659.64 1706.92 1660.69 1733.42 1652.79C1747.05 1648.72 1782.68 1634.66 1796.79 1628.59C1797.61 1628.24 1798.57 1628.34 1799.29 1628.88C1800.01 1629.42 1800.39 1630.3 1800.28 1631.19C1800.17 1632.08 1799.59 1632.85 1798.77 1633.2C1784.56 1639.31 1748.65 1653.47 1734.84 1657.59C1722.3 1661.33 1711.14 1662.98 1701.1 1662.98C1662.12 1662.99 1639.96 1638.09 1618.37 1613.85C1615.52 1610.65 1612.57 1607.33 1609.64 1604.15C1606.63 1600.89 1603.91 1599.91 1601.56 1601.24C1591.97 1606.7 1586.59 1643.09 1601.96 1694.62C1602.15 1695.28 1602.07 1695.98 1601.73 1696.57C1601.4 1697.17 1600.84 1697.59 1600.18 1697.77C1587.61 1700.99 1571.3 1695.59 1555.52 1690.37C1546.36 1687.33 1537.7 1684.46 1530.26 1683.42C1525.19 1682.71 1517.45 1685.01 1511.56 1691.73C1507.62 1696.23 1501.7 1706.24 1506.3 1722.69C1506.48 1723.38 1506.69 1724.07 1506.92 1724.77C1506.93 1724.81 1506.94 1724.84 1506.95 1724.89C1507.24 1725.66 1507.13 1726.57 1506.65 1727.24C1506.64 1727.26 1505.33 1729.14 1504.08 1732.48L1503.81 1733.22C1501.21 1740.67 1499.74 1752.77 1507.54 1767.96V1767.97L1507.55 1767.97C1508.02 1768.88 1508.51 1769.78 1509.02 1770.67C1509.43 1771.4 1509.46 1772.28 1509.08 1773.03L1509.08 1773.04C1509.06 1773.08 1509.04 1773.12 1509.03 1773.15C1508.1 1775.01 1507.35 1776.95 1506.78 1778.95C1506.7 1779.21 1506.65 1779.43 1506.59 1779.66C1504.44 1788.04 1505.62 1797.36 1510.2 1808.2C1510.73 1809.48 1511.31 1810.74 1511.91 1811.99C1512.12 1812.43 1512.2 1812.9 1512.15 1813.37C1511.85 1816.32 1511.82 1819.28 1512.06 1822.23C1512.08 1822.53 1512.11 1822.83 1512.14 1823.13C1514.14 1843.12 1528.92 1860.71 1553.78 1872.71C1605.44 1897.64 1725.83 1886.94 1811.89 1876.73C1812.78 1876.61 1813.66 1876.99 1814.2 1877.71C1814.74 1878.43 1814.85 1879.38 1814.5 1880.2C1814.15 1881.03 1813.37 1881.6 1812.48 1881.7C1776.05 1886.03 1721.84 1891.89 1671.94 1892.87C1667.08 1892.97 1662.33 1893.02 1657.71 1893.02ZM1509.16 1772.84L1509.15 1772.85C1509.15 1772.84 1509.16 1772.84 1509.16 1772.84Z" fill="#232323"/>
<path d="M1550.33 1754.69H1550.25C1538.98 1754.33 1511.77 1750.89 1502.28 1726.7C1501.77 1725.42 1502.41 1723.96 1503.7 1723.45C1504.98 1722.95 1506.44 1723.58 1506.94 1724.87C1515.34 1746.28 1540.14 1749.35 1550.41 1749.68C1551.77 1749.73 1552.84 1750.86 1552.82 1752.22C1552.8 1753.59 1551.69 1754.68 1550.33 1754.69ZM1551.35 1796.55L1551.27 1796.55C1538.46 1796.14 1514.81 1788.47 1504.75 1773.3C1504.24 1772.56 1504.18 1771.59 1504.58 1770.79C1504.97 1769.98 1505.78 1769.45 1506.68 1769.4C1507.58 1769.34 1508.44 1769.78 1508.93 1770.53C1517.61 1783.64 1539.19 1791.15 1551.43 1791.54C1552.79 1791.59 1553.86 1792.72 1553.84 1794.08C1553.82 1795.45 1552.72 1796.54 1551.35 1796.55ZM1554.07 1836.49L1553.99 1836.49C1550.18 1836.37 1540.19 1835.67 1529.88 1831.82C1519.41 1827.9 1511.87 1822.02 1507.48 1814.33C1506.8 1813.13 1507.21 1811.6 1508.42 1810.91C1509.61 1810.23 1511.15 1810.65 1511.83 1811.85C1519.69 1825.6 1539.54 1831.02 1554.15 1831.48C1555.51 1831.54 1556.57 1832.67 1556.55 1834.03C1556.53 1835.39 1555.43 1836.48 1554.07 1836.49Z" fill="#232323"/>
<path d="M304.245 1769.75C229.271 1642.45 144.49 1455.01 121.365 1219.08C115.698 1161.28 114.328 1106.64 115.849 1055.77C140.12 1099.24 162.161 1143.91 181.885 1189.62C275.203 1405.93 301.5 1610.76 304.245 1769.75Z" fill="#4CAF7A"/>
<path d="M327.516 1680.74C259.073 1549.81 183.88 1358.32 172.708 1121.53C169.974 1063.52 171.365 1008.87 175.453 958.146C197.5 1002.79 217.255 1048.52 234.641 1095.17C316.906 1315.92 332.812 1521.81 327.516 1680.74Z" fill="#4CAF7A"/>
<path d="M343.057 1754.36C286.896 1617.71 229.552 1420.15 240.12 1183.32C242.708 1125.31 249.099 1071.02 257.818 1020.89C275.682 1067.35 291.167 1114.7 304.208 1162.75C365.906 1390.1 362.891 1596.58 343.057 1754.36Z" fill="#4CAF7A"/>
<path d="M564.005 1422.03C549.458 1645.21 494.932 1823.34 396.146 1816.9C326.391 1812.35 291.016 1722.79 280.713 1593.95C278.755 1569.46 277.703 1543.56 277.495 1516.56C277.224 1482.8 278.276 1447.31 280.521 1410.71C280.667 1408.34 280.818 1405.96 280.974 1403.58C282.578 1378.91 284.625 1354.8 287.125 1331.41C291.109 1294.16 296.26 1258.79 302.677 1226.04C308.307 1197.24 314.911 1170.49 322.557 1146.29C350.141 1058.97 391.229 1004.96 448.833 1008.71C569.911 1016.6 578.557 1198.85 564.005 1422.03Z" fill="white"/>
<path d="M401.286 1819.57C399.526 1819.57 397.76 1819.52 395.984 1819.4C330.385 1815.12 289.661 1737.23 278.213 1594.15C276.286 1570.01 275.198 1543.91 274.99 1516.58C274.724 1483.33 275.745 1447.67 278.021 1410.56C278.167 1408.18 278.318 1405.8 278.474 1403.42C280.094 1378.53 282.167 1354.21 284.635 1331.14C288.708 1293.05 293.953 1257.53 300.219 1225.56C305.974 1196.14 312.687 1169.21 320.172 1145.54C334.573 1099.94 352.198 1065.01 372.552 1041.7C394.745 1016.29 420.469 1004.35 448.995 1006.21C506.396 1009.95 542.62 1051.8 559.734 1134.13C573.187 1198.84 575.276 1287.68 566.51 1422.19C558.87 1539.34 540.714 1637.65 514 1706.48C499.568 1743.67 482.672 1772.13 463.776 1791.07C444.896 1810.01 423.896 1819.57 401.286 1819.57ZM443.312 1011.04C418.542 1011.04 396.031 1022.44 376.323 1045C356.427 1067.78 339.141 1102.11 324.948 1147.05C317.521 1170.54 310.854 1197.28 305.135 1226.53C298.896 1258.35 293.677 1293.73 289.615 1331.68C287.156 1354.67 285.088 1378.92 283.469 1403.74C283.318 1406.12 283.167 1408.5 283.021 1410.87C280.75 1447.86 279.734 1483.41 280 1516.54C280.208 1543.75 281.286 1569.72 283.208 1593.75C297.38 1770.95 352.536 1811.55 396.307 1814.4C419.437 1815.91 440.943 1806.87 460.229 1787.54C478.625 1769.09 495.146 1741.21 509.328 1704.67C535.859 1636.31 553.901 1538.52 561.505 1421.87C570.245 1287.83 568.187 1199.4 554.828 1135.15C538.234 1055.33 503.51 1014.79 448.672 1011.21C446.885 1011.09 445.099 1011.04 443.312 1011.04Z" fill="#232323"/>
<path d="M467.417 1216.7C463.417 1228.85 428.776 1217.08 343.115 1222.54C328.411 1223.48 314.927 1224.74 302.677 1226.05C308.307 1197.24 314.911 1170.49 322.557 1146.29C337.964 1146.45 353.234 1148.19 367.12 1151.31C422.068 1163.61 472.516 1201.19 467.417 1216.7Z" fill="white"/>
<path d="M302.677 1228.55C301.927 1228.55 301.219 1228.21 300.74 1227.64C300.266 1227.06 300.073 1226.3 300.219 1225.56C305.974 1196.14 312.687 1169.21 320.172 1145.54C320.5 1144.49 321.464 1143.79 322.557 1143.79H322.583C337.953 1143.94 353.542 1145.69 367.672 1148.86C388.911 1153.62 411.354 1162.6 430.849 1174.16C448.828 1184.81 462.234 1196.37 467.641 1205.89C470.146 1210.31 470.875 1214.21 469.797 1217.48C467.042 1225.86 455.625 1225.41 430.62 1224.43C411.422 1223.68 382.411 1222.54 343.276 1225.04C330.62 1225.85 317.802 1226.96 302.943 1228.54C302.854 1228.55 302.766 1228.55 302.677 1228.55ZM324.391 1148.82C317.469 1170.99 311.219 1195.98 305.792 1223.2C319.307 1221.8 331.198 1220.79 342.958 1220.04C382.349 1217.53 411.516 1218.67 430.812 1219.42C451.172 1220.22 463.458 1220.7 465.036 1215.92C465.646 1214.07 465.036 1211.45 463.281 1208.36C453.146 1190.51 410.937 1163.69 366.573 1153.75C353.354 1150.79 338.807 1149.09 324.391 1148.82Z" fill="#232323"/>
<path d="M442.188 1401.7C438.193 1413.84 403.547 1402.08 317.891 1407.54C304.406 1408.39 291.948 1409.53 280.521 1410.72C280.667 1408.34 280.818 1405.96 280.974 1403.58C282.578 1378.91 284.625 1354.8 287.125 1331.41C305.917 1330.74 324.943 1332.51 341.896 1336.3C396.844 1348.61 447.292 1386.19 442.188 1401.7Z" fill="white"/>
<path d="M280.521 1413.22C279.833 1413.22 279.172 1412.94 278.698 1412.43C278.224 1411.93 277.979 1411.25 278.021 1410.56C278.167 1408.18 278.318 1405.8 278.474 1403.42C280.094 1378.52 282.167 1354.21 284.635 1331.14C284.766 1329.9 285.792 1328.95 287.036 1328.91C305.859 1328.24 325.016 1329.95 342.443 1333.86C363.687 1338.62 386.125 1347.6 405.625 1359.16C423.599 1369.81 437.01 1381.37 442.411 1390.89C444.922 1395.3 445.646 1399.2 444.568 1402.48V1402.48C441.812 1410.85 430.401 1410.41 405.391 1409.43C386.198 1408.68 357.187 1407.54 318.047 1410.04C306.297 1410.79 294.453 1411.79 280.781 1413.21C280.693 1413.22 280.609 1413.22 280.521 1413.22ZM289.385 1333.85C287.026 1356.19 285.042 1379.7 283.474 1403.74C283.38 1405.14 283.292 1406.53 283.203 1407.92C295.719 1406.66 306.76 1405.73 317.729 1405.04C357.125 1402.53 386.286 1403.67 405.583 1404.42C425.943 1405.22 438.229 1405.7 439.807 1400.92C440.417 1399.06 439.807 1396.45 438.052 1393.36C427.917 1375.51 385.708 1348.69 341.344 1338.74C325 1335.08 307.083 1333.4 289.385 1333.85Z" fill="#232323"/>
<path d="M420.818 1586.95C416.823 1599.09 382.177 1587.33 296.521 1592.79C291.083 1593.13 285.812 1593.52 280.714 1593.95C278.755 1569.46 277.703 1543.56 277.495 1516.56C292.38 1516.81 307.099 1518.54 320.526 1521.55C375.469 1533.86 425.922 1571.44 420.818 1586.95Z" fill="white"/>
<path d="M280.714 1596.45C279.406 1596.45 278.318 1595.45 278.214 1594.15C276.286 1570.01 275.198 1543.9 274.99 1516.57C274.984 1515.9 275.25 1515.25 275.734 1514.78C276.214 1514.3 276.859 1514.03 277.536 1514.05C292.427 1514.31 307.479 1516.06 321.073 1519.11C342.318 1523.87 364.755 1532.85 384.255 1544.4C402.229 1555.05 415.641 1566.62 421.042 1576.14C423.552 1580.55 424.276 1584.45 423.198 1587.73C420.443 1596.1 409.026 1595.66 384.021 1594.68C364.823 1593.93 335.818 1592.79 296.677 1595.29C291.552 1595.61 286.25 1596 280.922 1596.44C280.854 1596.45 280.781 1596.45 280.714 1596.45ZM280.026 1519.12C280.271 1544.45 281.276 1568.69 283.016 1591.24C287.531 1590.88 292.01 1590.56 296.365 1590.29C335.755 1587.78 364.917 1588.92 384.219 1589.67C404.573 1590.47 416.865 1590.95 418.437 1586.17C419.047 1584.31 418.443 1581.7 416.687 1578.61C406.547 1560.76 364.339 1533.94 319.979 1524C307.49 1521.2 293.729 1519.52 280.026 1519.12Z" fill="#232323"/>
<path d="M139.552 1440.63C276.042 1449.62 444.828 1448.3 582.062 1436.99L625.693 2061.66H115.714H116.026L139.552 1440.63Z" fill="white"/>
<mask id="mask2_433_8779" style="mask-type:luminance" maskUnits="userSpaceOnUse" x="112" y="1433" width="517" height="632">
<path d="M112.5 1433.33H628.5V2064.17H112.5V1433.33Z" fill="white"/>
</mask>
<g mask="url(#mask2_433_8779)">
<path d="M625.693 2064.17H115.708C114.807 2064.17 113.974 2063.68 113.526 2062.89C113.083 2062.1 113.099 2061.14 113.563 2060.36L137.047 1440.53C137.073 1439.86 137.375 1439.22 137.875 1438.77C138.38 1438.31 139.042 1438.08 139.719 1438.13C276.135 1447.13 445.552 1445.73 581.854 1434.49C582.526 1434.44 583.188 1434.65 583.693 1435.09C584.203 1435.52 584.516 1436.15 584.563 1436.81L628.193 2061.48C628.24 2062.18 628 2062.86 627.526 2063.37C627.052 2063.88 626.385 2064.17 625.693 2064.17ZM118.625 2059.16H623.005L579.74 1439.69C444.505 1450.69 277.313 1452.07 141.958 1443.3L118.625 2059.16Z" fill="#232323"/>
</g>
<path d="M206.641 1789.35C203.943 1800.35 167.667 1804.77 130.016 1789.44C96.6718 1775.87 95.0572 1735.41 126 1746.21C163.078 1759.16 210.588 1773.23 206.641 1789.35Z" fill="white"/>
<path d="M177.781 1801.82C163.807 1801.82 146.521 1798.86 129.073 1791.77C107.589 1783.02 97.8021 1763.2 102.453 1750.89C103.667 1747.67 109.026 1737.63 126.823 1743.84C130.906 1745.27 135.109 1746.71 139.365 1748.16C177.302 1761.13 213.135 1773.38 209.073 1789.95C208.344 1792.93 206.005 1795.44 202.13 1797.42C196.708 1800.19 188.156 1801.82 177.781 1801.82ZM116.573 1746.9C111.88 1746.9 108.578 1748.86 107.141 1752.66C103.755 1761.62 111.177 1779.07 130.958 1787.12C152.922 1796.06 184.698 1800.69 199.849 1792.96C202.297 1791.71 203.844 1790.21 204.203 1788.76C205.432 1783.73 199.208 1777.83 185.698 1771.22C172.677 1764.84 154.917 1758.77 137.74 1752.9C133.479 1751.44 129.26 1750.01 125.172 1748.57C121.958 1747.45 119.073 1746.9 116.573 1746.9Z" fill="#232323"/>
<path d="M204.984 1754.04C202.984 1760.86 177.885 1770.42 112.651 1744.46C76.6771 1730.15 81.5781 1679.1 116.797 1695.27C159 1714.65 210.51 1735.21 204.984 1754.04Z" fill="white"/>
<path d="M182.635 1764.06C179.411 1764.06 175.76 1763.86 171.63 1763.41C155.021 1761.59 134.87 1755.99 111.724 1746.79C94.6615 1740 87.0833 1725.89 85.6771 1714.94C84.4792 1705.61 87.3333 1697.42 93.3073 1693.03C99.4115 1688.55 108.125 1688.53 117.839 1692.99C122.62 1695.18 127.401 1697.35 132.193 1699.51C173.703 1718.23 212.911 1735.93 207.391 1754.75C206.708 1757.07 204.635 1759.12 201.391 1760.71C197.984 1762.37 192.172 1764.06 182.635 1764.06ZM104.276 1694.62C101.182 1694.62 98.4896 1695.44 96.276 1697.07C91.7917 1700.36 89.6875 1706.81 90.651 1714.3C91.875 1723.83 98.5417 1736.15 113.578 1742.12C144.047 1754.25 182.542 1764.32 199.198 1756.2C201.391 1755.14 202.385 1754.02 202.583 1753.34C204.396 1747.16 197.833 1739.41 183.083 1730.3C168.979 1721.59 149.234 1712.69 130.135 1704.07C125.286 1701.88 120.464 1699.71 115.755 1697.54C111.516 1695.6 107.656 1694.62 104.276 1694.62Z" fill="#232323"/>
<path d="M207.516 1712.65C203.521 1717.03 179.167 1722.61 116.797 1695.27C62.1979 1671.32 77.2343 1613.95 117.562 1633.86C159.198 1654.43 220.74 1698.14 207.516 1712.65Z" fill="white"/>
<mask id="mask3_433_8779" style="mask-type:luminance" maskUnits="userSpaceOnUse" x="78" y="1626" width="135" height="94">
<path d="M78.8333 1626.67H212.5V1720H78.8333V1626.67Z" fill="white"/>
</mask>
<g mask="url(#mask3_433_8779)">
<path d="M192.161 1718.79C177.453 1718.79 153.021 1713.89 115.792 1697.56C94.3906 1688.18 80.6302 1672.28 78.9844 1655.04C78.0208 1644.93 81.6666 1635.99 88.7396 1631.12C96.526 1625.76 107.151 1625.93 118.672 1631.62C154.281 1649.21 207.875 1685.64 211.615 1705.49C212.271 1708.94 211.49 1712.01 209.365 1714.33C207.208 1716.7 201.755 1718.79 192.161 1718.79ZM101.859 1632.24C97.9739 1632.24 94.4948 1633.24 91.5833 1635.24C86.026 1639.07 83.1823 1646.3 83.9739 1654.56C84.526 1660.33 88.5937 1680.16 117.802 1692.97C179.646 1720.09 202.833 1714.06 205.656 1710.96C206.729 1709.79 207.052 1708.35 206.693 1706.42C203.677 1690.44 155.703 1655.51 116.448 1636.11C111.229 1633.53 106.281 1632.24 101.859 1632.24Z" fill="#232323"/>
</g>
<path d="M196.135 1667.11C189.484 1673.01 166.193 1669.31 112.641 1641.05C58.9479 1612.72 100.807 1557.68 138.828 1587.67C175.292 1616.42 208.031 1656.55 196.135 1667.11Z" fill="white"/>
<path d="M187.437 1672.01C173.151 1672.01 147.714 1662.4 111.474 1643.27C94.0781 1634.09 84.2812 1620.66 84.6094 1606.44C84.8646 1595.04 91.8542 1584.46 102.411 1579.49C108.078 1576.82 123.12 1572.09 140.38 1585.7C169.437 1608.61 200.599 1642.6 201.12 1660.45C201.224 1664.06 200.109 1666.93 197.797 1668.98C195.521 1671 192.062 1672.01 187.437 1672.01ZM115.937 1581.48C112.01 1581.48 108.167 1582.32 104.547 1584.03C95.6927 1588.19 89.8333 1597.04 89.6198 1606.55C89.4531 1613.76 92.3802 1627.53 113.812 1638.84C178.052 1672.74 191.792 1667.61 194.474 1665.23C195.635 1664.2 196.172 1662.68 196.109 1660.6C195.708 1646.73 169.312 1614.9 137.276 1589.64C130.437 1584.24 123.052 1581.48 115.937 1581.48Z" fill="#232323"/>
<path d="M1197.38 1323.78C1197.38 1332.53 1190.28 1339.63 1181.53 1339.63C1172.78 1339.63 1165.69 1332.53 1165.69 1323.78C1165.69 1315.03 1172.78 1307.94 1181.53 1307.94C1190.28 1307.94 1197.38 1315.03 1197.38 1323.78Z" fill="#232323"/>
<path d="M1587.64 1323.78C1587.64 1332.53 1580.54 1339.63 1571.79 1339.63C1563.04 1339.63 1555.95 1332.53 1555.95 1323.78C1555.95 1315.03 1563.04 1307.94 1571.79 1307.94C1580.54 1307.94 1587.64 1315.03 1587.64 1323.78Z" fill="#232323"/>
<path d="M1143.2 500.89C1153.01 482.932 1182.97 454.75 1211.63 445.87Z" fill="white"/>
<path d="M1143.2 503.396C1142.31 503.396 1141.49 502.927 1141.04 502.167C1140.59 501.406 1140.57 500.464 1141 499.688C1151.74 480.016 1183.09 452.089 1210.89 443.474C1212.2 443.068 1213.61 443.807 1214.02 445.125C1214.43 446.448 1213.69 447.849 1212.36 448.26C1183.24 457.286 1154.29 485.818 1145.4 502.089C1144.96 502.896 1144.11 503.396 1143.2 503.396Z" fill="#232323"/>
<path d="M1458.52 527.161C1440.01 502.239 1412.57 480.031 1396.48 470.917Z" fill="white"/>
<path d="M1458.52 529.667C1457.72 529.672 1456.98 529.292 1456.51 528.656C1438.95 505.01 1412.4 482.807 1395.24 473.099C1394.04 472.417 1393.61 470.885 1394.3 469.682C1394.98 468.479 1396.51 468.057 1397.71 468.74C1415.32 478.708 1442.56 501.463 1460.53 525.667C1461.09 526.427 1461.18 527.443 1460.76 528.286C1460.33 529.135 1459.47 529.667 1458.52 529.667Z" fill="#232323"/>
<path d="M1996.45 1521.76C2027.74 1507.64 2052.17 1498.66 2059.03 1495.95Z" fill="white"/>
<path d="M1996.45 1524.26C1995.27 1524.27 1994.24 1523.44 1993.99 1522.29C1993.74 1521.13 1994.34 1519.96 1995.42 1519.47C2021.82 1507.56 2043.28 1499.32 2053.59 1495.36C2055.51 1494.63 2057.03 1494.05 2058.11 1493.63C2059.4 1493.11 2060.85 1493.74 2061.36 1495.04C2061.86 1496.32 2061.23 1497.78 2059.95 1498.29C2058.86 1498.71 2057.32 1499.3 2055.39 1500.05C2045.12 1503.98 2023.75 1512.18 1997.48 1524.04C1997.16 1524.19 1996.8 1524.26 1996.45 1524.26ZM721.802 1440.22C720.594 1440.22 719.557 1439.36 719.333 1438.18C719.109 1436.99 719.766 1435.82 720.891 1435.38C734.865 1429.96 753.307 1427.69 775.708 1428.63L776.536 1428.66C777.917 1428.71 778.995 1429.88 778.937 1431.27C778.917 1431.93 778.625 1432.56 778.141 1433.01C777.651 1433.46 777 1433.7 776.333 1433.67L775.495 1433.63C753.792 1432.72 736.031 1434.88 722.703 1440.05C722.417 1440.17 722.109 1440.22 721.802 1440.22Z" fill="#232323"/>
<mask id="mask4_433_8779" style="mask-type:luminance" maskUnits="userSpaceOnUse" x="817" y="1973" width="810" height="93">
<path d="M817.167 1973.33H1626.33V2065.83H817.167V1973.33Z" fill="white"/>
</mask>
<g mask="url(#mask4_433_8779)">
<path d="M1607.58 2065.83L835.854 2064.39C822.391 2064.36 813.365 2050.34 818.745 2037.82L841.547 1984.73C844.521 1977.81 851.25 1973.33 858.693 1973.33H1585.03C1592.56 1973.33 1599.35 1977.92 1602.27 1984.96L1624.85 2039.51C1630.04 2052.03 1620.96 2065.86 1607.58 2065.83Z" fill="#042628"/>
</g>
<mask id="mask5_433_8779" style="mask-type:luminance" maskUnits="userSpaceOnUse" x="756" y="1722" width="229" height="106">
<path d="M756.5 1722.5H984.5V1828H756.5V1722.5Z" fill="white"/>
</mask>
<g mask="url(#mask5_433_8779)">
<path d="M983.781 1818.24C969.823 1822.83 909.88 1840.8 844.604 1810.9C790.401 1786.06 764.557 1742.9 756.521 1728.05C774.823 1723.78 825.458 1714.48 883.38 1737.18C942.338 1760.29 973.422 1802.66 983.781 1818.24Z" fill="#4CAF7A"/>
</g>
<path d="M989.734 1814.98C979.693 1825.72 935.729 1870.32 864.141 1875.5C804.693 1879.8 761.339 1854.38 747.167 1845.22C761.167 1832.66 801.125 1800.15 862.812 1792.19C925.599 1784.08 973.177 1806.29 989.734 1814.98Z" fill="#4CAF7A"/>
<path d="M1122.39 1773.15C1193.61 1792.83 1243.17 1849.65 1245.6 1908.02C1246.26 1923.72 1251.7 1939.39 1261.2 1953.77C1264.58 1958.88 1265.57 1964.34 1263.82 1968.46C1261.82 1973.18 1255.99 1976.83 1248.53 1978C1230.59 1980.82 1214.56 1987.95 1201.4 1997.81C1162.19 2027.19 1106.31 2037.05 1053.72 2022.57C973.708 2000.55 914.734 1925.9 934.156 1855.34C952.99 1786.93 1037.96 1749.83 1122.39 1773.15Z" fill="white"/>
<mask id="mask6_433_8779" style="mask-type:luminance" maskUnits="userSpaceOnUse" x="927" y="1762" width="341" height="270">
<path d="M927.167 1762.67H1267.17V2031.67H927.167V1762.67Z" fill="white"/>
</mask>
<g mask="url(#mask6_433_8779)">
<path d="M1102.54 2031.66C1085.9 2031.66 1069.17 2029.42 1053.06 2024.98C1013.62 2014.13 977.75 1989.95 954.641 1958.65C930.443 1925.86 922.312 1888.94 931.75 1854.68C941.062 1820.84 966.25 1793.45 1002.67 1777.55C1038.92 1761.72 1081.67 1759.31 1123.05 1770.74C1158.1 1780.42 1188.73 1798.98 1211.65 1824.4C1233.94 1849.14 1246.89 1878.79 1248.1 1907.92C1248.73 1922.92 1253.98 1938.3 1263.28 1952.39C1267.12 1958.19 1268.18 1964.57 1266.12 1969.44C1263.79 1974.95 1257.2 1979.17 1248.92 1980.47C1232.18 1983.1 1216.27 1989.79 1202.9 1999.81C1183.24 2014.54 1159.08 2024.67 1133 2029.1C1122.99 2030.81 1112.78 2031.66 1102.54 2031.66ZM1071.32 1768.64C1047.95 1768.64 1025.23 1773.17 1004.67 1782.14C969.656 1797.43 945.474 1823.66 936.568 1856.01C927.552 1888.76 935.401 1924.15 958.661 1955.67C981.115 1986.08 1016.01 2009.59 1054.39 2020.16C1079.71 2027.12 1106.6 2028.51 1132.16 2024.17C1157.46 2019.86 1180.89 2010.06 1199.9 1995.8C1213.93 1985.29 1230.6 1978.28 1248.14 1975.53C1254.63 1974.51 1259.88 1971.35 1261.52 1967.49C1262.92 1964.17 1262.03 1959.55 1259.11 1955.15C1249.31 1940.3 1243.77 1924.05 1243.11 1908.12C1241.94 1880.17 1229.45 1851.62 1207.94 1827.76C1185.66 1803.05 1155.85 1785 1121.72 1775.57C1104.96 1770.94 1087.97 1768.64 1071.32 1768.64Z" fill="#232323"/>
</g>
<path d="M1028.88 1889.51C1028.15 1889.52 1027.45 1889.19 1026.97 1888.63C1026.5 1888.07 1026.29 1887.33 1026.41 1886.6C1033.14 1845.16 1060.66 1792.29 1106.98 1767.58C1108.2 1766.93 1109.72 1767.4 1110.37 1768.61C1111.02 1769.84 1110.56 1771.35 1109.34 1772.01C1064.53 1795.91 1037.88 1847.19 1031.35 1887.41C1031.15 1888.62 1030.1 1889.51 1028.88 1889.51ZM1086.02 1860.16C1085.18 1860.16 1084.4 1859.73 1083.93 1859.04C1083.47 1858.33 1083.39 1857.45 1083.71 1856.68C1096.79 1825.72 1119.49 1797.72 1146.01 1779.86C1147.15 1779.08 1148.7 1779.39 1149.47 1780.54C1150.24 1781.69 1149.94 1783.24 1148.8 1784.02C1123.07 1801.35 1101.03 1828.55 1088.32 1858.63C1087.93 1859.56 1087.02 1860.16 1086.02 1860.16ZM1149.68 1846.05C1148.77 1846.05 1147.93 1845.55 1147.49 1844.74C1147.06 1843.94 1147.09 1842.97 1147.58 1842.2C1159.33 1823.69 1170.8 1810.21 1182.63 1800.97C1183.72 1800.12 1185.29 1800.31 1186.14 1801.41C1186.99 1802.49 1186.8 1804.07 1185.7 1804.92C1174.33 1813.8 1163.24 1826.87 1151.8 1844.89C1151.34 1845.61 1150.54 1846.05 1149.68 1846.05Z" fill="#232323"/>
</svg>
