<svg width="2300" height="2123" viewBox="0 0 2300 2123" fill="none" xmlns="http://www.w3.org/2000/svg">
<mask id="mask0_433_63473" style="mask-type:luminance" maskUnits="userSpaceOnUse" x="1877" y="2081" width="174" height="42">
<path d="M1877.5 2081H2050.5V2123H1877.5V2081Z" fill="white"/>
</mask>
<g mask="url(#mask0_433_63473)">
<path d="M2050.5 2102C2050.5 2113.6 2011.77 2123 1964 2123C1916.23 2123 1877.5 2113.6 1877.5 2102C1877.5 2090.4 1916.23 2081 1964 2081C2011.77 2081 2050.5 2090.4 2050.5 2102Z" fill="#232323"/>
</g>
<mask id="mask1_433_63473" style="mask-type:luminance" maskUnits="userSpaceOnUse" x="314" y="2083" width="165" height="40">
<path d="M314.5 2083H478.5V2123H314.5V2083Z" fill="white"/>
</mask>
<g mask="url(#mask1_433_63473)">
<path d="M478.5 2103C478.5 2114.05 441.786 2123 396.5 2123C351.214 2123 314.5 2114.05 314.5 2103C314.5 2091.95 351.214 2083 396.5 2083C441.786 2083 478.5 2091.95 478.5 2103Z" fill="#232323"/>
</g>
<path d="M1574.43 1321.02C1667.1 1339.93 1761.48 1349.14 1856.04 1348.49C2120.75 1346.39 2202.87 1266.95 2221.75 1246.56C2252.73 1213.16 2252.35 1191.2 2251.27 1186.97C2242.36 1152.39 2172.45 1144.31 2145.6 1140.22C1991.06 1116.65 1682.94 1266.05 1574.43 1321.02Z" fill="#042628"/>
<path d="M2117.75 1688.4C2140.96 1735.31 2161.33 1790.07 2089.2 1819.49C1896.83 1765.33 1758.38 1669.17 1666.85 1569.51C1576.03 1486.37 1550.19 1368.19 1573.53 1253.66C1598.07 1133.51 1658.65 1014.21 1725.85 937.223L1987.94 992.165C1917.8 1100.34 1837.15 1298.35 1811.74 1430.87C1971.18 1495.91 1991.84 1583.05 2117.75 1688.4Z" fill="white"/>
<path d="M2089.2 1822.51C2088.93 1822.51 2088.65 1822.48 2088.39 1822.4C1872.82 1761.7 1739.02 1652.56 1664.73 1571.65C1620.62 1531.24 1590.25 1481.61 1574.46 1424.14C1559.9 1371.1 1558.56 1311.95 1570.59 1253.01C1594.03 1138.26 1652.65 1016.45 1723.57 935.227C1724.29 934.394 1725.39 934.009 1726.46 934.222L1988.57 989.175C1989.54 989.378 1990.34 990.05 1990.72 990.967C1991.11 991.884 1991.02 992.93 1990.48 993.764C1956.28 1046.43 1919.17 1120.9 1885.88 1203.48C1852.59 1286.06 1827.55 1366.02 1815.19 1428.97C1916.28 1470.74 1961.46 1521.4 2013.67 1579.98C2043.62 1613.59 2074.59 1648.35 2119.68 1686.08C2120.01 1686.36 2120.27 1686.7 2120.45 1687.09C2127.3 1700.94 2134.87 1717.29 2139.04 1733.64C2143.6 1751.55 2143.41 1766.64 2138.42 1779.79C2131.51 1798.05 2115.78 1812 2090.34 1822.32C2089.97 1822.46 2089.59 1822.52 2089.2 1822.51ZM1726.96 940.571C1657.21 1021.04 1599.62 1141.06 1576.5 1254.32C1564.67 1312.27 1565.97 1370.47 1580.29 1422.59C1595.78 1478.97 1625.55 1527.69 1668.9 1567.33L1669.08 1567.52C1742.72 1647.73 1875.33 1755.97 2089.01 1816.35C2112.26 1806.7 2126.58 1794.05 2132.78 1777.68C2142.53 1751.94 2130.2 1720.52 2115.32 1690.35C2070.15 1652.49 2039.15 1617.7 2009.17 1584.05C1957.06 1525.59 1912.06 1475.09 1810.6 1433.76C1809.27 1433.22 1808.51 1431.81 1808.77 1430.39C1820.99 1366.7 1846.38 1285.36 1880.27 1201.34C1912.95 1120.34 1949.34 1047.04 1983.04 994.305L1726.96 940.571Z" fill="#232323"/>
<path d="M2123.7 1756.9C2122.97 1758.21 2089.37 1819.19 2088.66 1820.48C2064.8 1812.68 2033.9 1801.52 2007.94 1791.74L2081.81 1653.37C2094.29 1665.4 2107.24 1676.93 2120.62 1687.94C2120.62 1688.94 2120.75 1691.11 2120.8 1692.15L2123.7 1756.9Z" fill="#042628"/>
<path d="M2105.5 1675.09L2105.06 1675.9L2103.99 1677.84L2077.98 1725.28L2035.85 1802.06L2027.25 1798.92L2051.24 1755.16L2096.3 1673.08L2098.17 1669.67L2098.56 1668.95C2100.33 1670.55 2102.12 1672.15 2103.95 1673.76L2105.5 1675.09Z" fill="white"/>
<path d="M2089.2 1822.51C2088.93 1822.51 2088.65 1822.48 2088.39 1822.4C1872.82 1761.7 1739.02 1652.56 1664.73 1571.65C1620.62 1531.24 1590.25 1481.61 1574.46 1424.14C1559.9 1371.1 1558.56 1311.95 1570.59 1253.01C1594.03 1138.26 1652.65 1016.45 1723.57 935.227C1724.29 934.394 1725.39 934.009 1726.46 934.222L1988.57 989.175C1989.54 989.378 1990.34 990.05 1990.72 990.967C1991.11 991.884 1991.02 992.93 1990.48 993.764C1956.28 1046.43 1919.17 1120.9 1885.88 1203.48C1852.59 1286.06 1827.55 1366.02 1815.19 1428.97C1916.28 1470.74 1961.46 1521.4 2013.67 1579.98C2043.62 1613.59 2074.59 1648.35 2119.68 1686.08C2119.93 1686.29 2120.14 1686.53 2120.31 1686.8C2143.56 1724.1 2151.02 1753.56 2143.1 1776.85C2136.45 1796.41 2118.67 1811.71 2090.26 1822.32C2089.92 1822.45 2089.56 1822.51 2089.2 1822.51ZM1726.96 940.571C1657.21 1021.04 1599.62 1141.06 1576.5 1254.32C1564.67 1312.27 1565.97 1370.47 1580.29 1422.59C1595.78 1478.97 1625.55 1527.69 1668.9 1567.33L1669.08 1567.52C1742.72 1647.74 1875.33 1755.98 2089.06 1816.37C2115.21 1806.45 2131.42 1792.51 2137.39 1774.96C2144.66 1753.57 2137.47 1725.93 2115.44 1690.4C2070.18 1652.5 2039.18 1617.68 2009.17 1584C1957.06 1525.53 1912.06 1475.04 1810.6 1433.71C1809.27 1433.16 1808.51 1431.76 1808.77 1430.35C1820.99 1366.64 1846.38 1285.31 1880.27 1201.29C1912.95 1120.29 1949.34 1046.99 1983.04 994.259L1726.96 940.571Z" fill="#232323"/>
<path d="M2010.96 1132.24C1985.04 1247.38 1923.3 1359.89 1868.76 1457.99C1863.12 1467.62 1857.39 1477.21 1851.57 1486.74C1866.25 1513.09 1888.47 1575.68 1891.81 1620.39C1896.83 1682.23 1874.58 1898.79 1873.09 1915.87C1869.69 1976.79 1772.81 2009.8 1749.53 1957.57C1686.17 1815.46 1653.16 1572.48 1670.08 1437.13C1678.66 1348.46 1698.29 1261.21 1728.52 1177.42C1739.45 1098.23 1750.37 1019.04 1761.28 939.848L2026.93 946.895C2030.31 1026.55 2020.42 1089.86 2010.96 1132.24Z" fill="white"/>
<path d="M1792.98 1986.62C1771.52 1986.62 1754.77 1976.74 1746.72 1958.81C1716.66 1891.36 1691.78 1797.74 1676.68 1695.26C1662.26 1597.35 1658.75 1503.13 1667.05 1436.74C1675.67 1347.96 1695.31 1260.61 1725.55 1176.71C1736.45 1097.64 1747.35 1018.58 1758.27 939.504C1758.47 937.983 1759.79 936.858 1761.33 936.9L1773.4 937.222L2027.01 943.988C2028.59 944.025 2029.88 945.29 2029.94 946.874C2032.77 1009.32 2027.38 1071.86 2013.93 1132.89C1987.33 1250.98 1923.12 1366.48 1871.48 1459.32L1871.38 1459.51C1865.72 1469.16 1860.26 1478.33 1855.08 1486.82C1869.54 1513.63 1891.47 1575.05 1894.78 1620.17C1897.74 1656.94 1891.82 1752.49 1877.2 1904.14C1876.62 1910.18 1876.2 1914.3 1876.06 1916.14C1875.12 1933.13 1867.19 1949.08 1853.17 1962.15C1840.32 1973.96 1824.44 1981.96 1807.3 1985.25C1802.58 1986.14 1797.79 1986.6 1792.98 1986.62ZM1763.89 943.009C1753.1 1021.3 1742.3 1099.57 1731.49 1177.81C1731.46 1178.02 1731.41 1178.22 1731.34 1178.43C1701.21 1261.97 1681.63 1348.96 1673.07 1437.36C1664.81 1503.32 1668.31 1596.95 1682.66 1694.34C1697.68 1796.26 1722.39 1889.3 1752.24 1956.31C1760.73 1975.34 1780.89 1983.94 1806.19 1979.28C1835.71 1973.84 1868.13 1949.7 1870.02 1915.68C1870.19 1913.74 1870.59 1909.58 1871.18 1903.54C1885.77 1752.23 1891.68 1657.04 1888.75 1620.6C1885.43 1575.43 1863.11 1513.62 1848.94 1488.18C1848.42 1487.23 1848.45 1486.08 1849.01 1485.16C1854.39 1476.34 1860.14 1466.73 1866.11 1456.59V1456.51C1917.57 1364.04 1981.65 1248.87 2008.02 1131.57C2021.16 1071.97 2026.53 1010.93 2024.01 949.946L1773.22 943.259L1763.89 943.009Z" fill="#232323"/>
<path d="M1879.06 1865.19C1877.05 1882.08 1875.67 1899.77 1874.98 1916.85L1873.45 1918.16L1871.44 1919.86L1822.49 1961.69L1751.02 1961.03C1738.73 1933.3 1728.28 1903.65 1719.15 1875.35L1879.06 1865.19Z" fill="#042628"/>
<path d="M1877.16 1886.84C1876.91 1889.87 1876.66 1892.91 1876.39 1895.96H1876.13L1873.44 1896.11C1861.78 1896.75 1844.99 1897.81 1826.38 1899.06C1793.62 1901.26 1755.25 1903.98 1729.4 1905.84C1728.35 1902.82 1727.32 1899.88 1726.32 1896.98C1747.08 1895.49 1776.85 1893.37 1805.31 1891.42C1831.7 1889.6 1856.96 1887.94 1872.88 1887.06L1876.84 1886.84H1877.16Z" fill="white"/>
<path d="M1792.98 1986.62C1771.52 1986.62 1754.77 1976.74 1746.72 1958.81C1716.66 1891.36 1691.78 1797.74 1676.68 1695.26C1662.26 1597.35 1658.75 1503.13 1667.05 1436.74C1675.67 1347.96 1695.31 1260.61 1725.55 1176.71C1736.45 1097.64 1747.35 1018.58 1758.27 939.504C1758.47 937.983 1759.79 936.858 1761.33 936.9L1773.4 937.222L2027.01 943.988C2028.59 944.025 2029.88 945.29 2029.94 946.874C2032.77 1009.32 2027.38 1071.86 2013.93 1132.89C1987.33 1250.98 1923.12 1366.48 1871.48 1459.32L1871.38 1459.51C1865.72 1469.16 1860.26 1478.33 1855.08 1486.82C1869.54 1513.63 1891.47 1575.05 1894.78 1620.17C1897.74 1656.94 1891.82 1752.49 1877.2 1904.14C1876.62 1910.18 1876.2 1914.3 1876.06 1916.14C1875.12 1933.13 1867.19 1949.08 1853.17 1962.15C1840.32 1973.96 1824.44 1981.96 1807.3 1985.25C1802.58 1986.14 1797.79 1986.6 1792.98 1986.62ZM1763.89 943.009C1753.1 1021.3 1742.3 1099.57 1731.49 1177.81C1731.46 1178.02 1731.41 1178.22 1731.34 1178.43C1701.21 1261.97 1681.63 1348.96 1673.07 1437.36C1664.81 1503.32 1668.31 1596.95 1682.66 1694.34C1697.68 1796.26 1722.39 1889.3 1752.24 1956.31C1760.73 1975.34 1780.89 1983.94 1806.19 1979.28C1835.71 1973.84 1868.13 1949.7 1870.02 1915.68C1870.19 1913.74 1870.59 1909.58 1871.18 1903.54C1885.77 1752.23 1891.68 1657.04 1888.75 1620.6C1885.43 1575.43 1863.11 1513.62 1848.94 1488.18C1848.42 1487.23 1848.45 1486.08 1849.01 1485.16C1854.39 1476.34 1860.14 1466.73 1866.11 1456.59V1456.51C1917.57 1364.04 1981.65 1248.87 2008.02 1131.57C2021.16 1071.97 2026.53 1010.93 2024.01 949.946L1773.22 943.259L1763.89 943.009Z" fill="#232323"/>
<path d="M1545.92 2078.26C1555.88 2056.47 1573.18 2037.06 1591.42 2021.49C1637.29 1983.72 1683.32 1969.72 1752.11 1957.66C1781.12 1954.34 1795.86 1955.3 1815.03 1948.6C1836.01 1941 1847.28 1917.83 1873.04 1915.92C1877.55 1950.28 1895.76 2086.69 1899.89 2110.2C1899.89 2110.2 1683.84 2113.47 1612.19 2107.19C1573.3 2103.74 1554.74 2089.07 1545.87 2078.47C1545.93 2078.42 1545.95 2078.33 1545.92 2078.26Z" fill="white"/>
<mask id="mask2_433_63473" style="mask-type:luminance" maskUnits="userSpaceOnUse" x="1541" y="1911" width="363" height="203">
<path d="M1541.83 1911.67H1903.17V2114H1541.83V1911.67Z" fill="white"/>
</mask>
<g mask="url(#mask2_433_63473)">
<path d="M1780.33 2113.99C1717.81 2113.99 1647.15 2113.21 1611.92 2110.09C1590.53 2108.21 1561.3 2101.5 1543.53 2080.32C1542.77 2079.41 1542.61 2078.14 1543.12 2077.07V2077.01C1552.09 2057.38 1568.09 2037.4 1589.39 2019.21C1636.21 1980.66 1682.48 1966.8 1751.52 1954.7H1751.7C1760.35 1953.7 1767.79 1953.1 1774.34 1952.55C1789.73 1951.28 1800.84 1950.36 1813.95 1945.75C1822.15 1942.78 1828.82 1937.26 1835.87 1931.4C1846.12 1922.9 1856.72 1914.1 1872.74 1912.91C1874.34 1912.8 1875.74 1913.95 1875.95 1915.53C1880.27 1948.32 1898.6 2085.91 1902.8 2109.65C1902.95 2110.52 1902.71 2111.42 1902.15 2112.1C1901.59 2112.78 1900.76 2113.18 1899.87 2113.2C1898.84 2113.17 1843.78 2113.99 1780.33 2113.99ZM1549.43 2077.88C1558.91 2088.43 1577.36 2100.98 1612.45 2104.05C1678.14 2109.87 1868.08 2107.54 1896.33 2107.16C1891.38 2076.58 1875.15 1954.96 1870.43 1919.2C1857.87 1921.01 1849.07 1928.26 1839.79 1936C1832.65 1941.92 1825.26 1948.08 1816.05 1951.39C1802.18 1956.27 1790.75 1957.22 1774.92 1958.53C1768.42 1959.06 1761.07 1959.67 1752.54 1960.65C1684.57 1972.57 1639.06 1986.17 1593.33 2023.82C1573.32 2040.9 1558.17 2059.57 1549.43 2077.87V2077.88Z" fill="#232323"/>
</g>
<path d="M1886.71 2010.56C1886.52 2008.82 1884.98 2007.55 1883.24 2007.69C1882.55 2007.69 1866.32 2008.69 1846.33 1994.46C1841.75 1991.2 1838.05 1988.32 1834.79 1985.78C1821.97 1975.8 1814.9 1970.3 1789.11 1966.87C1787.82 1966.69 1786.56 1967.31 1785.9 1968.42C1785.25 1969.54 1785.32 1970.94 1786.1 1971.98C1786.62 1972.68 1787.41 1973.14 1788.28 1973.25C1812.35 1976.45 1818.53 1981.3 1830.9 1990.9C1834.23 1993.48 1837.94 1996.41 1842.63 1999.7C1860.99 2012.79 1876.21 2014.18 1881.85 2014.18C1882.52 2014.19 1883.19 2014.16 1883.86 2014.1C1884.71 2014.01 1885.49 2013.59 1886.03 2012.92C1886.56 2012.26 1886.81 2011.41 1886.71 2010.56ZM1892.01 2053.23C1890.93 2052.43 1865.44 2033.72 1839.71 2037.68C1824.62 2039.98 1816.77 2045.82 1809.14 2051.48C1803.24 2055.84 1797.67 2059.97 1788.79 2062.55C1779.48 2065.27 1771.96 2064.2 1764 2063.07C1753.23 2061.54 1741.01 2059.8 1722.76 2067.38C1696.61 2078.26 1671.53 2084.59 1648.34 2086.23C1613.01 2088.7 1581.72 2080.43 1555.35 2061.61C1554.08 2060.76 1552.36 2061.1 1551.51 2062.37C1550.65 2063.64 1550.99 2065.36 1552.26 2066.21C1576.48 2083.45 1604.73 2092.19 1636.24 2092.19C1640.32 2092.19 1644.53 2092.04 1648.72 2091.74C1672.54 2090.07 1698.17 2083.59 1724.91 2072.48C1741.75 2065.5 1752.68 2067.05 1763.26 2068.55C1771.45 2069.71 1779.92 2070.92 1790.37 2067.86C1800.21 2064.98 1806.46 2060.38 1812.5 2055.92C1819.91 2050.42 1826.91 2045.23 1840.65 2043.13C1864.05 2039.57 1888.57 2057.48 1888.81 2057.66C1890.03 2058.57 1891.77 2058.32 1892.68 2057.09C1893.6 2055.87 1893.35 2054.14 1892.12 2053.22L1892.01 2053.23Z" fill="#232323"/>
<path d="M1866.22 2065.06C1860.54 2061.68 1853.01 2059.81 1845.04 2059.76H1844.78C1836.9 2059.76 1829.47 2061.56 1823.82 2064.8C1821.05 2066.32 1818.65 2068.43 1816.78 2070.97C1815.2 2073.16 1814.34 2075.77 1814.31 2078.45C1814.31 2083.73 1817.61 2088.61 1823.67 2092.2C1829.36 2095.57 1836.87 2097.44 1844.85 2097.49H1845.11C1853 2097.49 1860.42 2095.69 1866.08 2092.41C1872.17 2088.87 1875.55 2084.02 1875.58 2078.75C1875.62 2073.49 1872.27 2068.69 1866.22 2065.06ZM1742.33 2020.2C1742.19 2019.86 1727.73 1986.76 1690.13 1973.53H1690.04C1686.51 1972.26 1684.67 1968.37 1685.94 1964.83C1687.21 1961.3 1691.1 1959.47 1694.63 1960.74C1738.1 1976.03 1754.19 2013.36 1754.86 2014.96C1755.2 2015.78 1755.38 2016.67 1755.38 2017.56C1755.43 2020.83 1753.15 2023.67 1749.94 2024.32C1746.75 2024.98 1743.54 2023.25 1742.3 2020.23L1742.33 2020.2ZM1710.1 2030.65C1709.96 2030.32 1694.71 1996.94 1656.28 1985.68H1656.09C1652.51 1984.57 1650.5 1980.76 1651.61 1977.17C1652.72 1973.58 1656.53 1971.57 1660.12 1972.69C1704.81 1985.78 1721.86 2023.62 1722.56 2025.22C1722.93 2026.08 1723.13 2027 1723.13 2027.94C1723.14 2031.16 1720.89 2033.93 1717.75 2034.6C1714.6 2035.27 1711.42 2033.64 1710.12 2030.7L1710.1 2030.65ZM1673.24 2038.49C1673.1 2038.2 1659.31 2009.86 1624.72 2000.24C1621.12 1999.22 1619.02 1995.47 1620.03 1991.86C1621.04 1988.25 1624.78 1986.15 1628.38 1987.15C1669.18 1998.57 1684.9 2031.38 1685.54 2032.78C1685.96 2033.67 1686.17 2034.63 1686.17 2035.62C1686.17 2038.8 1683.96 2041.55 1680.87 2042.25C1677.77 2042.95 1674.61 2041.41 1673.24 2038.54V2038.49Z" fill="#4CAF7A"/>
<path d="M2081.14 2051.78C2081.14 2051.72 2081.04 2051.65 2080.97 2051.54C2067.98 2031.56 2060.75 2006.71 2057.32 1983.08C2049.81 1924.7 2061.64 1881.66 2088.4 1818C2139.08 1722.3 2099.46 1743.32 2117.76 1688.43C2149.26 1702.88 2208.27 1730.55 2247.76 1748.72L2247.42 1748.83C2260.04 1754.19 2274.41 1760.05 2296.5 1769.04C2296.5 1769.04 2184.31 1953.74 2140.81 2011.04C2117.22 2042.15 2094.91 2050.06 2081.24 2051.93L2081.14 2051.78Z" fill="white"/>
<mask id="mask3_433_63473" style="mask-type:luminance" maskUnits="userSpaceOnUse" x="2051" y="1685" width="249" height="371">
<path d="M2051.17 1685H2299.5V2055.67H2051.17V1685Z" fill="white"/>
</mask>
<g mask="url(#mask3_433_63473)">
<path d="M2081.22 2054.92C2080.25 2054.92 2079.35 2054.45 2078.78 2053.67L2078.62 2053.46L2078.53 2053.33L2078.42 2053.18C2063.53 2030.27 2057.09 2002.64 2054.28 1983.49C2046.59 1923.77 2058.78 1880.5 2085.57 1816.8C2085.61 1816.71 2085.64 1816.64 2085.69 1816.56C2116.05 1759.18 2113.59 1745.08 2110.99 1729.98C2109.25 1719.92 2107.45 1709.6 2114.85 1687.41C2115.12 1686.59 2115.73 1685.93 2116.51 1685.59C2117.29 1685.24 2118.18 1685.24 2118.96 1685.59C2134.78 1692.85 2157.35 1703.35 2181.25 1714.47C2204.87 1725.46 2229.3 1736.84 2248.98 1745.89C2249.3 1746.04 2249.61 1746.25 2249.86 1746.52C2261.93 1751.63 2275.38 1757.11 2297.58 1766.16C2298.4 1766.49 2299.03 1767.17 2299.31 1768.01C2299.59 1768.85 2299.48 1769.77 2299.02 1770.52C2297.9 1772.36 2186.26 1956.01 2143.13 2012.78C2119.61 2043.79 2096.66 2052.76 2081.56 2054.83C2081.45 2054.86 2081.34 2054.9 2081.22 2054.92ZM2091.1 1819.23C2064.78 1881.87 2052.78 1924.37 2060.3 1982.64C2064.05 2008.54 2071.77 2031.32 2082.66 2048.59C2096.64 2046.19 2117.08 2037.24 2138.39 2009.16C2178.25 1956.64 2277.29 1794.65 2292.05 1770.44C2270.93 1761.86 2258.05 1756.58 2246.23 1751.55C2245.85 1751.38 2245.5 1751.13 2245.22 1750.81C2225.77 1741.85 2201.89 1730.74 2178.77 1719.98C2156.4 1709.57 2135.19 1699.7 2119.61 1692.53C2113.89 1711.05 2115.4 1719.77 2117 1728.96C2119.64 1744.34 2122.39 1760.2 2091.11 1819.27L2091.1 1819.23Z" fill="#232323"/>
</g>
<path d="M2118.66 1791.86H2118.72C2119.68 1791.86 2120.58 1791.44 2121.19 1790.7C2136.71 1772.03 2144.07 1769.35 2158.75 1764.02C2162.48 1762.66 2167.11 1761 2172.51 1758.75C2198.05 1748.2 2206.31 1732.16 2206.64 1731.47C2207.03 1730.71 2207.09 1729.83 2206.82 1729.01C2206.55 1728.2 2205.97 1727.54 2205.2 1727.16C2203.61 1726.36 2201.69 1727 2200.89 1728.59C2200.81 1728.74 2193.16 1743.25 2170.05 1752.74C2164.95 1754.85 2160.57 1756.45 2156.69 1757.86H2156.56C2141.28 1763.41 2132.87 1766.46 2116.23 1786.48C2115.69 1787.13 2115.43 1787.98 2115.51 1788.83C2115.58 1789.68 2116 1790.47 2116.66 1791.01C2117.2 1791.52 2117.91 1791.82 2118.66 1791.86ZM2248.05 1747.35C2247.51 1745.92 2245.92 1745.19 2244.48 1745.73C2243.22 1746.19 2213.48 1757.49 2203.11 1781.43C2197.08 1795.39 2197.8 1805.19 2198.53 1814.64C2199.09 1821.96 2199.62 1828.87 2197.08 1837.8C2194.43 1847.13 2189.52 1852.89 2184.33 1859.07C2177.29 1867.38 2169.33 1876.81 2166.04 1896.31C2161.31 1924.26 2153.35 1948.86 2142.38 1969.38C2125.68 2000.59 2102.03 2022.74 2072.08 2035.04C2070.88 2035.54 2070.18 2036.82 2070.42 2038.11C2070.67 2039.39 2071.78 2040.34 2073.09 2040.36C2073.5 2040.36 2073.91 2040.27 2074.28 2040.1C2105.39 2027.26 2129.92 2004.35 2147.21 1971.99C2158.46 1950.95 2166.62 1925.8 2171.45 1897.23C2174.47 1879.25 2181.63 1870.82 2188.55 1862.67C2193.89 1856.35 2199.41 1849.82 2202.39 1839.34C2205.19 1829.49 2204.6 1821.75 2204.03 1814.27C2203.32 1805.07 2202.66 1796.38 2208.17 1783.67C2217.63 1761.84 2246.1 1751.06 2246.39 1750.95C2247.09 1750.7 2247.66 1750.18 2247.97 1749.5C2248.29 1748.82 2248.31 1748.05 2248.05 1747.35Z" fill="#232323"/>
<path d="M2257.02 1772.94C2252.57 1770.11 2246.66 1770.33 2240.39 1773.55C2234.52 1776.57 2228.93 1781.94 2224.65 1788.65C2220.38 1795.36 2217.9 1802.74 2217.61 1809.33C2217.36 1816.37 2219.62 1821.8 2224.12 1824.64C2226.23 1825.97 2228.67 1826.67 2231.16 1826.65C2239.45 1826.65 2249.41 1820 2256.43 1808.94C2260.71 1802.21 2263.19 1794.84 2263.47 1788.26C2263.78 1781.21 2261.46 1775.75 2257.02 1772.94ZM2060.49 1881.45C2057.67 1881.45 2055.14 1879.7 2054.14 1877.06C2053.14 1874.42 2053.87 1871.43 2055.99 1869.56C2090.55 1839.07 2130.99 1843.24 2132.69 1843.38C2135.16 1843.58 2137.32 1845.11 2138.33 1847.37C2139.35 1849.63 2139.05 1852.26 2137.57 1854.24C2136.08 1856.22 2133.63 1857.23 2131.18 1856.88C2130.83 1856.88 2094.88 1853.32 2064.98 1879.7C2063.74 1880.8 2062.15 1881.4 2060.49 1881.4V1881.45ZM2054.33 1917.16C2051.57 1917.16 2049.09 1915.49 2048.04 1912.94C2047 1910.38 2047.6 1907.45 2049.57 1905.51C2082.77 1872.89 2124.15 1876.46 2125.89 1876.63C2129.62 1876.99 2132.35 1880.32 2131.99 1884.05C2131.63 1887.78 2128.31 1890.52 2124.58 1890.16C2124.22 1890.16 2087.85 1886.97 2059.09 1915.21C2057.82 1916.46 2056.11 1917.16 2054.33 1917.16ZM2051.49 1951.85C2048.75 1951.85 2046.28 1950.2 2045.22 1947.67C2044.17 1945.13 2044.74 1942.21 2046.68 1940.26C2076.55 1910.22 2112.85 1912.51 2114.38 1912.62C2118.12 1912.9 2120.93 1916.16 2120.66 1919.9C2120.37 1923.64 2117.12 1926.46 2113.38 1926.18C2113.06 1926.18 2081.6 1924.37 2056.27 1949.85C2055 1951.13 2053.27 1951.86 2051.45 1951.86L2051.49 1951.85Z" fill="#4CAF7A"/>
<path d="M1438.34 719.969C1525.24 728.969 1683.46 838.964 1661.39 897.349C1655.18 913.807 1627.03 914.354 1598.18 895.677C1511.11 839.286 1438.34 719.969 1438.34 719.969Z" fill="#232323"/>
<path d="M1427.29 725.235C1446.64 703.026 1474.42 629.605 1500.05 612.49C1533.43 590.261 1649.76 672.151 1630.27 757.032C1613.28 831.183 1539.36 949.917 1464.48 966.073C1380.11 980.318 1359.2 805.766 1427.29 725.235Z" fill="white"/>
<path d="M1455.09 969.892C1433.97 969.892 1415.57 957.809 1402.69 935.221C1387.7 908.887 1381.07 870.793 1384.51 830.59C1388.17 787.939 1402.54 749.83 1424.98 723.283C1432.56 714.585 1441.72 697.309 1451.42 678.991C1466.66 650.273 1482.41 620.606 1498.35 609.965C1512.24 600.715 1539.34 607.288 1567.43 626.705C1588.96 641.585 1607.52 661.403 1619.58 682.543C1633.98 707.71 1638.69 733.668 1633.2 757.668C1624.34 796.314 1600.7 845.116 1571.51 885.049C1537.31 931.736 1499.57 961.554 1465.11 968.986H1464.97C1461.71 969.564 1458.41 969.866 1455.09 969.892ZM1429.58 727.2C1407.94 752.799 1394.08 789.7 1390.53 831.106C1387.24 869.507 1393.74 907.309 1407.94 932.231C1417.48 949.002 1434.94 967.95 1463.92 963.096C1496.91 955.95 1533.39 926.976 1566.64 881.507C1595.4 842.247 1618.64 794.241 1627.33 756.351C1638.39 708.122 1603.49 658.986 1564.03 631.689C1538.4 613.96 1513.35 607.247 1501.72 614.997C1487.06 624.762 1470.97 655.08 1456.78 681.83C1446.92 700.424 1437.6 717.976 1429.58 727.2Z" fill="#232323"/>
<path d="M1661.39 897.35C1666.15 851.043 1477.71 691.673 1429.07 714.683C1458.77 658.855 1497.25 593.262 1534.09 551.678C1579.48 500.46 1623.6 463.418 1663.04 480.157C1676.72 490.808 1699.4 511.361 1703.82 521.98C1742.01 631.064 1707.08 767.814 1661.39 897.35Z" fill="#4CAF7A"/>
<path d="M1684.1 840.957C1683 840.957 1681.98 840.358 1681.45 839.394C1646.26 775.546 1630.56 709.91 1634.94 644.316C1638.69 587.999 1655.81 542.644 1668.31 509.426C1668.93 507.921 1670.64 507.181 1672.17 507.754C1673.69 508.332 1674.48 510.019 1673.95 511.561C1661.59 544.358 1644.66 589.275 1640.96 644.702C1636.61 710.03 1651.58 772.754 1686.73 836.457C1687.13 837.16 1687.23 837.988 1687.01 838.764C1686.79 839.54 1686.27 840.197 1685.56 840.582C1685.11 840.827 1684.61 840.957 1684.1 840.957ZM1480.58 787.421C1473.73 762.54 1465.56 744.269 1456.07 719.978C1425.7 642.275 1415.42 531.806 1413.41 484.342C1412.13 442.275 1441.69 393.743 1437.3 372.795C1434.86 361.108 1420.2 368.598 1405.27 384.561C1404.06 364.936 1403.36 345.91 1403.84 331.009C1406.04 262.858 1391.44 291.004 1379.95 316.676C1385.6 290.655 1380.34 273.92 1374.99 272.764C1370.61 272.113 1362.92 282.025 1358.12 294.509C1362.08 280.967 1357.23 266.827 1350.4 270.842C1340.63 276.592 1323.03 327.426 1322.64 328.624C1328.11 284.853 1309.43 301.608 1296.55 340.42C1282.35 383.223 1278.57 408.811 1272.14 453.447C1248.01 621.275 1223.72 1021.12 1464.51 966.061" fill="white"/>
<mask id="mask4_433_63473" style="mask-type:luminance" maskUnits="userSpaceOnUse" x="1254" y="266" width="231" height="709">
<path d="M1254.5 266.332H1484.5V974.332H1254.5V266.332Z" fill="white"/>
</mask>
<g mask="url(#mask4_433_63473)">
<path d="M1421.83 974.219C1387.09 974.219 1357.4 963.011 1333.21 940.698C1288.79 899.724 1262.88 821.99 1256.19 709.652C1250.08 607.042 1261.68 504.839 1269.13 453.027C1275.41 409.407 1279.19 383.084 1293.66 339.49C1295.11 335.131 1308.1 297.016 1320.32 299.787C1323.64 300.542 1325.62 303.813 1326.36 309.73C1332.57 293.766 1341.95 272.334 1348.88 268.256C1351.42 266.631 1354.72 266.808 1357.07 268.698C1359.77 270.792 1361.55 274.933 1362.23 279.896C1366.25 273.855 1370.98 269.131 1375.44 269.829H1375.64C1379.85 270.745 1383.11 276.24 1384.58 284.928C1385.3 289.459 1385.56 294.047 1385.36 298.625C1391.09 288.141 1395.09 284.667 1399.24 285.62C1404.65 286.87 1408.02 295.094 1406.87 331.131C1406.48 342.912 1406.87 358.532 1407.87 377.667C1415.06 370.844 1425.98 362.277 1433.81 364.474C1436.14 365.125 1439.15 367 1440.25 372.214C1442.44 382.704 1437.07 398.688 1430.85 417.188C1423.82 438.329 1415.77 462.219 1416.41 484.282C1417.05 498.75 1423.58 628.584 1458.88 718.902C1460.89 724.084 1462.9 728.969 1464.79 733.761C1471.92 751.558 1478.06 766.928 1483.49 786.652C1483.94 788.261 1482.99 789.922 1481.39 790.37C1479.78 790.813 1478.11 789.87 1477.67 788.261C1472.34 768.86 1466.25 753.631 1459.19 736.006C1457.27 731.235 1455.31 726.303 1453.26 721.094C1417.61 629.886 1411.02 499.11 1410.39 484.537C1409.68 461.381 1417.89 436.881 1425.14 415.297C1431.08 397.631 1436.21 382.37 1434.33 373.48C1433.77 370.766 1432.61 370.464 1432.18 370.323C1428.6 369.313 1419.33 374.006 1407.45 386.688C1406.63 387.568 1405.36 387.87 1404.23 387.459C1403.1 387.053 1402.32 386.011 1402.24 384.808C1400.84 362.079 1400.38 344.469 1400.81 330.969C1401.82 298.428 1398.8 292.631 1397.87 291.62C1396.24 292.245 1392.2 296.714 1382.7 317.964C1382.07 319.375 1380.47 320.084 1379 319.599C1377.54 319.12 1376.67 317.605 1377 316.094C1382.52 290.615 1377 276.834 1374.45 275.829C1372.59 276 1365.94 282.714 1360.93 295.667C1360.35 297.188 1358.68 297.974 1357.14 297.454C1355.6 296.933 1354.75 295.292 1355.21 293.735C1357.94 284.412 1355.93 275.537 1353.34 273.521C1352.97 273.23 1352.67 273.079 1351.92 273.521C1345.04 277.547 1330.23 315.308 1325.49 329.641C1325 331.105 1323.48 331.954 1321.97 331.615C1320.47 331.277 1319.46 329.855 1319.64 328.323C1321.94 309.86 1319.36 306.178 1318.96 305.745C1316.52 306.016 1307.73 316.344 1299.4 341.448C1285.1 384.537 1281.3 410.657 1275.12 453.954C1267.69 505.474 1256.14 607.256 1262.21 709.297C1268.8 820.032 1294.07 896.375 1337.3 936.256C1369.48 965.922 1412.02 974.964 1463.81 963.115C1465.43 962.771 1467.01 963.792 1467.38 965.402C1467.74 967.006 1466.75 968.61 1465.15 969C1450.95 972.36 1436.42 974.11 1421.83 974.219Z" fill="#232323"/>
</g>
<mask id="mask5_433_63473" style="mask-type:luminance" maskUnits="userSpaceOnUse" x="1307" y="146" width="970" height="763">
<path d="M1307.17 146H2276.5V909H1307.17V146Z" fill="white"/>
</mask>
<g mask="url(#mask5_433_63473)">
<path d="M1375.08 436.124C1374.79 436.124 1374.51 436.083 1374.23 436.005C1372.66 435.52 1371.76 433.853 1372.22 432.27C1379.36 407.635 1395.98 389.989 1403.09 382.489C1404.23 381.275 1406.14 381.218 1407.36 382.364C1408.57 383.51 1408.63 385.421 1407.48 386.64C1400.67 393.843 1384.76 410.718 1378.02 433.952C1377.64 435.255 1376.43 436.14 1375.08 436.124ZM1369.05 385.39H1368.77C1367.11 385.234 1365.9 383.765 1366.05 382.109C1366.13 381.15 1366.23 379.755 1366.34 377.989C1367.15 366.062 1369.04 338.13 1377.1 315.661C1377.71 314.166 1379.38 313.411 1380.9 313.952C1382.42 314.489 1383.25 316.13 1382.78 317.671C1375.01 339.343 1373.16 366.687 1372.36 378.364C1372.24 380.187 1372.14 381.635 1372.05 382.619C1371.92 384.182 1370.62 385.385 1369.05 385.39ZM1339.86 383.65H1339.53C1338.73 383.562 1338 383.161 1337.49 382.536C1336.99 381.911 1336.76 381.114 1336.85 380.317L1337.07 378.301C1339.86 352.593 1342.77 326.02 1355.29 293.432C1355.91 291.911 1357.63 291.171 1359.16 291.76C1360.69 292.348 1361.47 294.051 1360.92 295.598C1348.68 327.458 1345.83 353.64 1343.07 378.958L1342.85 380.968C1342.68 382.494 1341.39 383.645 1339.86 383.65ZM1311.2 383.65H1310.87C1310.07 383.562 1309.34 383.161 1308.84 382.536C1308.34 381.911 1308.11 381.114 1308.2 380.317C1310.76 362.551 1314.61 344.994 1319.72 327.791C1320.19 326.187 1321.87 325.27 1323.47 325.739C1325.07 326.213 1325.98 327.89 1325.52 329.489C1320.52 346.364 1316.74 363.567 1314.2 380.978C1314.02 382.499 1312.73 383.65 1311.2 383.65ZM2196.49 572.072C2220.63 613.906 2236.23 617.531 2257.01 649.505C2311.76 733.77 2242.84 863.395 2134.04 898.353C2030.8 931.572 1924.48 881.937 1895.49 790.244C1819.46 654.859 1741.96 412.859 1721.81 338.781C1672.53 334.072 1571.87 266.161 1573.88 197.619C1594.22 161.744 1660.27 126.932 1721.72 158.088C1784.08 189.697 1796.78 285.531 1864.42 329.098C1930.63 371.739 2032.62 310.343 2115.63 378.234C2183.28 433.598 2158.48 506.176 2196.45 572.072H2196.49Z" fill="#042628"/>
</g>
<path d="M1785.18 504.053C1726.13 540.574 1671.4 512.861 1671.4 512.861C1661.47 451.246 1651.67 408.454 1617.89 384.704C1601.7 387.475 1568.24 392.408 1557.68 385.434C1532.48 369.324 1540.16 313.444 1541.8 295.777C1535.38 291.751 1527.93 280.105 1536.77 276.35C1540.89 274.512 1545.03 272.324 1547.74 268.642C1559.36 246.23 1562.1 219.798 1576.75 198.621C1594.09 248.215 1647.44 292.871 1691.4 290.626C1726.93 267.475 1773.99 301.699 1721.86 338.887C1748.21 409.126 1785.22 447.501 1818.52 451.991C1818.6 475.496 1785.21 504.053 1785.21 504.053H1785.18Z" fill="white"/>
<path d="M1719.78 525.938C1715.12 525.938 1710.45 525.673 1705.81 525.152C1684.45 522.756 1670.62 515.85 1670.04 515.558C1669.18 515.126 1668.57 514.303 1668.42 513.345C1658.99 454.881 1649.76 411.553 1617.13 387.886C1584.76 393.345 1564.19 393.365 1555.99 387.949C1531.02 371.944 1536.16 321.339 1538.35 299.725C1538.43 298.839 1538.52 298.016 1538.59 297.23C1533.74 293.475 1529.25 286.798 1529.7 281.235C1530 277.756 1532.29 274.766 1535.56 273.574C1538.93 272.063 1542.76 270.173 1545.14 267.037C1549.94 257.72 1553.29 247.412 1556.51 237.433C1560.99 223.631 1565.56 209.371 1574.25 196.897C1574.89 195.964 1576.01 195.47 1577.13 195.621C1578.26 195.777 1579.2 196.548 1579.57 197.621C1587.75 221.027 1604.66 244.391 1625.96 261.725C1647.26 279.058 1670.6 288.391 1690.4 287.647C1711.33 274.438 1734.95 279.673 1744.06 293.032C1748.44 299.464 1749.2 307.407 1746.19 315.417C1743.05 323.782 1736.07 332.037 1725.44 339.97C1749.78 403.694 1784.61 444.391 1818.86 448.99C1820.37 449.194 1821.49 450.49 1821.48 452.011C1821.56 476.621 1788.52 505.173 1787.11 506.371C1786.99 506.47 1786.87 506.563 1786.74 506.641C1766.67 519.23 1743.47 525.917 1719.78 525.938ZM1674.13 510.839C1684.52 515.23 1695.51 518.053 1706.73 519.225C1733.53 522.157 1760.54 515.964 1783.39 501.647C1785.81 499.532 1813.22 475.115 1815.34 454.579C1779.38 447.912 1743.54 405.391 1719 339.99C1718.52 338.709 1718.96 337.261 1720.07 336.47C1748.96 315.834 1741.94 300.641 1739.11 296.475C1731.66 285.563 1710.94 281.527 1693.02 293.204C1692.57 293.49 1692.06 293.657 1691.52 293.683C1690.43 293.735 1689.32 293.766 1688.2 293.766C1646.11 293.766 1595.68 253.881 1576.05 205.36C1569.87 215.944 1566 227.813 1562.29 239.339C1558.95 249.626 1555.51 260.256 1550.41 270.079C1550.34 270.214 1550.26 270.339 1550.17 270.464C1547.09 274.688 1542.5 277.136 1538.01 279.152C1536.14 279.944 1535.81 280.923 1535.75 281.766C1535.47 285.329 1539.63 290.829 1543.41 293.261C1544.37 293.865 1544.91 294.959 1544.81 296.089C1544.69 297.339 1544.54 298.777 1544.38 300.371C1542.3 320.886 1537.43 368.902 1559.31 382.912C1563.27 385.532 1576.04 388.834 1617.38 381.756C1618.17 381.621 1618.97 381.803 1619.63 382.261C1654.66 406.871 1664.45 451.063 1674.13 510.798V510.839Z" fill="#232323"/>
<path d="M1721.31 335.9C1704.87 344.608 1691.84 343.27 1691.66 343.249C1690.25 343.087 1688.98 344.108 1688.81 345.52C1688.65 346.936 1689.67 348.212 1691.08 348.374C1692.24 348.473 1693.4 348.525 1694.57 348.525C1696.65 348.53 1698.73 348.374 1700.79 348.061C1708.4 347.004 1715.77 344.65 1722.58 341.098L1721.31 335.9ZM1640.6 408.733C1629.68 392.296 1619.18 384.072 1615.88 381.999C1620.22 380.988 1632.98 375.796 1644.15 370.441C1649.71 367.79 1658.56 362.54 1663.02 365.941C1668.71 370.28 1663.25 391.78 1642.96 407.02L1640.6 408.733ZM1609.95 250.358C1620.93 256.952 1625.03 268.686 1621.17 273.509C1617.31 278.332 1605.62 276.431 1596.03 267.926C1586.19 259.176 1581.14 248.947 1584.81 244.77C1588.63 240.384 1599.07 243.816 1609.95 250.358ZM1559.81 332.832C1562.11 333.608 1564.56 333.754 1566.93 333.254C1569.3 332.832 1571.53 331.869 1573.47 330.447C1574.41 329.728 1575.25 328.884 1575.97 327.952C1578.24 325.098 1579.3 321.462 1578.93 317.832V317.733C1578.86 316.827 1579.44 315.999 1580.31 315.764C1581.19 315.535 1582.11 315.962 1582.49 316.785C1583.83 319.957 1583.96 323.504 1582.86 326.764C1582.34 328.395 1581.56 329.941 1580.58 331.342C1577.58 335.598 1572.8 338.249 1567.61 338.551C1565.92 338.686 1564.23 338.566 1562.58 338.186C1560.89 337.806 1559.3 337.061 1557.92 336.004C1557.22 335.431 1557.02 334.431 1557.47 333.639C1557.91 332.848 1558.87 332.494 1559.72 332.801L1559.81 332.832ZM1591.09 283.103C1586.86 279.639 1576.52 271.587 1568.69 260.707C1568.17 259.973 1567.38 259.483 1566.5 259.337C1565.61 259.191 1564.71 259.405 1563.98 259.931C1560.06 262.79 1554.55 268.53 1560.84 275.254C1568.55 283.525 1585.34 288.431 1590.77 286.014C1591.63 285.598 1592.01 284.566 1591.61 283.697C1591.48 283.467 1591.3 283.264 1591.09 283.103ZM1723.31 305.238C1718.59 304.374 1713.74 304.494 1709.06 305.582C1701.67 307.171 1690.96 311.764 1682.02 324.587C1681.65 325.113 1681.49 325.759 1681.58 326.4C1681.75 327.681 1682.84 328.639 1684.13 328.645H1684.48C1685.19 328.556 1685.84 328.165 1686.25 327.566C1701.43 305.842 1721.34 310.113 1722.18 310.301C1723.57 310.619 1724.95 309.744 1725.26 308.353C1725.58 306.967 1724.71 305.582 1723.31 305.27V305.238ZM2170.94 583.395C2177.65 559.707 2166.23 534.072 2133.33 549.842C2101.76 564.941 1978.54 754.134 1978.54 754.134C1978.54 754.134 2149.11 651.967 2170.94 583.395Z" fill="#232323"/>
<path d="M1979.64 756.5C1978.74 756.422 1977.99 755.771 1977.8 754.891C1977.6 754.005 1977.99 753.099 1978.77 752.646C2090.49 686.88 2159.03 617.432 2168.98 582.823C2172.83 569.495 2170.41 556.448 2162.95 550.349C2156.34 544.932 2146.44 545.396 2134.3 551.698C2133.29 552.146 2132.11 551.729 2131.6 550.75C2131.1 549.771 2131.44 548.568 2132.39 548.005C2149.73 539.016 2160.02 542.578 2165.58 547.135C2174.28 554.276 2177.23 569.083 2172.95 583.969C2167.71 602.01 2147.16 628.828 2116.48 657.516C2080.91 690.786 2034.02 724.964 1980.82 756.219C1980.46 756.432 1980.05 756.531 1979.64 756.5Z" fill="#042628"/>
<path d="M1997.33 774.439C2010.48 786.669 2136.22 937.585 2158.93 907.127C2306.58 709.07 2047.46 545.32 1924.42 490.215C1851.4 457.507 1773.06 523.929 1818.94 585.747C1864.82 647.564 1975.17 753.846 1997.33 774.439Z" fill="white"/>
<path d="M2150.32 914.193C2123.31 914.193 2064.6 853.157 2010.6 793.261C2002.95 784.777 1997.42 778.647 1995.28 776.652C1970.68 753.792 1861.61 648.319 1816.51 587.548C1797.6 562.058 1797.48 532.907 1816.21 509.553C1837.06 483.548 1881.34 467.615 1925.66 487.454C1952.04 499.272 2020.2 532.292 2083.63 583.579C2147.06 634.865 2186.33 688.36 2200.41 742.506C2214.99 798.621 2201.84 854.61 2161.34 908.928C2158.95 912.183 2155.16 914.126 2151.12 914.173L2150.32 914.193ZM1999.38 772.256C2001.72 774.428 2007.04 780.308 2015.08 789.246C2044.72 822.126 2123.43 909.47 2150.85 908.173C2153.08 908.193 2155.19 907.141 2156.51 905.345C2195.87 852.532 2208.66 798.308 2194.56 744.027C2180.82 691.157 2142.26 638.761 2079.84 588.282C2017 537.433 1949.35 504.73 1923.19 492.97C1881.68 474.376 1840.31 489.136 1820.92 513.334C1804.01 534.407 1804.19 560.798 1821.36 583.944C1866.19 644.339 1974.88 749.444 1999.38 772.183V772.256Z" fill="#232323"/>
<path d="M1667.62 508.389C1680.35 514.269 1733.91 527.316 1784.7 500.337C1784.7 500.337 1777.79 465.295 1799.53 447.305C1801.78 445.373 1804.22 443.686 1806.83 442.274C1842.26 423.024 1896.9 442.274 1988.73 491.368C2071.32 535.571 2139.4 536.154 2158.87 543.623C2118.88 546.378 2096.29 597.982 2066.55 645.295C2043.42 682.139 2017.42 723.097 1978.48 756.285C1967.57 747.227 1957.18 743.071 1946.99 734.071C1956.94 765.357 1968.93 795.956 1982.88 825.675C1896.21 818.566 1798.77 834.884 1709.7 870.972C1623.85 752.29 1622.71 634.102 1667.62 508.389Z" fill="#4CAF7A"/>
<path d="M1784.67 500.34C1783.17 501.147 1781.65 501.913 1780.13 502.647C1789.85 533.73 1812.67 576.616 1843.15 620.996C1876.7 669.84 1914.55 713.324 1949.76 743.434C1949.86 743.527 1949.97 743.605 1950.1 743.678C1949.09 740.595 1948.08 737.507 1947.08 734.408C1874.83 670.059 1803.13 560.246 1784.67 500.34ZM1673.25 510.538V510.387C1670.96 509.673 1669.06 508.975 1667.59 508.371C1628.05 619.105 1624.27 724.105 1682.52 828.71C1607.28 685.564 1650.07 572.033 1673.25 510.538ZM1708.43 867.855C1699.55 899.855 1688.69 931.272 1675.9 961.918C1649.7 1024.76 1632.05 1069.82 1608.04 1134.05C1593.52 1173.01 1581.97 1213 1573.5 1253.7C1680.96 1303.89 1770.78 1304.08 1816.12 1300.67C1852.74 1297.91 1903.09 1294.13 1960.46 1266.99C2033.88 1232.26 2097.33 1169.43 2162.35 1157.98C2173.26 1156.06 2197.05 1152.2 2220.78 1164.18C2231.54 1169.72 2240.92 1177.59 2248.24 1187.23L2237.61 1164.18C2223.98 1135.78 2208.6 1108.25 2191.56 1081.76C2164.03 1039.25 2089.08 960.105 1982.46 825.928C1888.99 814.673 1794.22 829.184 1708.39 867.897L1708.43 867.855Z" fill="white"/>
<path d="M1783.33 1304.88C1712.93 1304.88 1640.65 1288.34 1572.27 1256.39C1571.01 1255.8 1570.31 1254.41 1570.6 1253.04C1579.11 1212.19 1590.69 1172.05 1605.25 1132.95C1630.26 1066.12 1648.03 1021.05 1673.16 960.751C1685.88 930.22 1696.69 898.929 1705.52 867.048C1705.76 866.184 1706.38 865.465 1707.19 865.1C1793.52 826.158 1888.84 811.564 1982.86 822.887C1983.65 822.981 1984.37 823.382 1984.87 824.007C2035.88 888.189 2079.41 939.538 2114.42 980.793C2152.3 1025.48 2179.69 1057.75 2194.15 1080.07C2211.26 1106.69 2226.71 1134.35 2240.41 1162.87L2251.04 1185.92C2251.69 1187.32 2251.18 1188.98 2249.87 1189.78C2248.56 1190.57 2246.86 1190.26 2245.92 1189.04C2238.89 1179.74 2229.86 1172.15 2219.5 1166.84C2196.17 1155.06 2172.89 1159.17 2162.94 1160.91C2124.4 1167.75 2086.25 1192.91 2045.86 1219.63C2018.99 1237.4 1991.21 1255.76 1961.79 1269.68C1903.91 1297.06 1853.32 1300.89 1816.4 1303.64C1805.43 1304.47 1794.41 1304.88 1783.33 1304.88ZM1576.99 1251.93C1654.57 1287.75 1737.14 1303.54 1815.94 1297.62C1852.4 1294.88 1902.35 1291.12 1959.21 1264.22C1988.25 1250.48 2015.85 1232.24 2042.54 1214.6C2083.46 1187.53 2122.12 1161.97 2161.87 1154.97C2171.49 1153.27 2197.07 1148.77 2222.21 1161.45C2227.84 1164.3 2233.12 1167.81 2237.92 1171.9L2234.9 1165.41C2221.32 1137.15 2206.01 1109.75 2189.06 1083.37C2174.81 1061.36 2147.54 1029.21 2109.79 984.715C2074.95 943.637 2031.63 892.548 1980.9 828.746C1888.85 817.887 1795.56 832.147 1710.94 870.022C1702.12 901.668 1691.36 932.741 1678.71 963.064C1653.62 1023.29 1635.87 1068.3 1610.89 1135.06C1596.72 1173.13 1585.39 1212.19 1576.99 1251.93Z" fill="#232323"/>
<path d="M2050.28 764.218C2024.48 762.359 2007.83 767.843 1997.33 774.437C1984.07 785.099 1756.95 1073.92 1755.4 1075.68C1730.97 1090.56 1646.52 1108.8 1726.23 1117.64C1670.59 1201.35 1671.17 1267.77 1744.22 1147.67C1735.45 1169.37 1696.62 1301.69 1750.67 1226.52C1744.27 1286.33 1787.34 1204.62 1795.59 1188.03C1773.3 1284.37 1814.7 1181.55 1889.38 1119.45C1962.8 1053.27 2111.81 968.859 2158.92 907.125" fill="white"/>
<path d="M1727.31 1252.42C1726.21 1252.43 1725.14 1252.15 1724.18 1251.62C1719.74 1249.17 1715.85 1241.24 1725.18 1201.35C1727.69 1190.64 1730.69 1179.69 1733.51 1170.24C1717.53 1194.5 1700.32 1216.55 1690.48 1216.14C1688.09 1216.06 1685.94 1214.66 1684.92 1212.49C1679.03 1201 1695.11 1160.15 1721.01 1120.06C1694.64 1116.71 1690.33 1112.28 1689.77 1107.98C1688.77 1100.24 1702.17 1094.62 1725.98 1085.36C1736.32 1081.33 1747.01 1077.17 1753.41 1073.37C1754.74 1071.7 1761.03 1063.75 1770.13 1052.23C1861.96 935.865 1985.27 780.256 1995.44 772.136L1995.73 771.933C2009.6 763.224 2028.03 759.631 2050.49 761.261C2052.16 761.381 2053.41 762.829 2053.29 764.5C2053.17 766.167 2051.72 767.422 2050.06 767.303C2028.99 765.782 2011.84 769.032 1999.09 776.964C1991.22 783.651 1915.79 877.521 1774.81 1056.01C1760.9 1073.63 1757.88 1077.43 1757.59 1077.76C1757.4 1077.98 1757.17 1078.17 1756.92 1078.32C1750.12 1082.46 1738.93 1086.82 1728.1 1091.04C1719.91 1094.23 1711.42 1097.53 1705.15 1100.63C1696.1 1105.11 1695.72 1107.19 1695.71 1107.29C1695.86 1107.65 1698.04 1111.55 1726.49 1114.7C1727.54 1114.82 1728.45 1115.47 1728.9 1116.43C1729.35 1117.39 1729.26 1118.51 1728.67 1119.39C1696.81 1167.33 1686.85 1203.2 1690.23 1209.8C1690.42 1210.16 1690.48 1210.17 1690.65 1210.17C1695.01 1210.33 1710.63 1197.08 1741.57 1146.17C1742.38 1144.81 1744.1 1144.31 1745.51 1145.02C1746.92 1145.73 1747.55 1147.41 1746.95 1148.87C1743.72 1156.87 1736.19 1180.67 1731.01 1202.8C1721.64 1242.89 1726.98 1246.38 1727.05 1246.4C1727.1 1246.43 1731.5 1247.96 1748.17 1224.83C1748.96 1223.72 1750.41 1223.28 1751.69 1223.77C1752.97 1224.26 1753.77 1225.55 1753.61 1226.92C1752.02 1241.85 1753.92 1244.73 1754.3 1245.15C1754.99 1245.07 1759.88 1243.71 1773.66 1221.4C1783.39 1205.66 1791.91 1188.64 1792.85 1186.75C1793.53 1185.39 1795.12 1184.75 1796.56 1185.26C1798 1185.77 1798.83 1187.28 1798.49 1188.76C1793.18 1211.68 1792.19 1220.68 1792.54 1223.91C1796.24 1221.2 1804.61 1210.3 1812.65 1199.75C1829.8 1177.37 1855.71 1143.55 1887.31 1117.2C1918.08 1089.52 1962.66 1058.17 2005.79 1027.82C2066.51 985.11 2129.31 940.938 2156.55 905.261C2157.56 903.938 2159.45 903.683 2160.78 904.693C2162.1 905.704 2162.35 907.599 2161.34 908.928C2133.54 945.344 2070.36 989.792 2009.26 1032.75C1966.26 1063.05 1921.82 1094.26 1891.38 1121.7L1891.29 1121.78C1860.19 1147.65 1834.51 1181.17 1817.52 1203.32C1800.12 1226.03 1794.88 1232.51 1789.72 1230.03C1786.49 1228.51 1785.33 1224.43 1788.18 1208.45C1785.22 1213.78 1781.83 1219.67 1778.29 1225.35C1762.97 1249.99 1756.69 1252.07 1752.6 1250.88C1748.72 1249.73 1746.92 1245.28 1746.98 1236.41C1738.34 1247.36 1732.1 1252.42 1727.31 1252.42Z" fill="#232323"/>
<path d="M1726.19 1120.65C1725.65 1120.66 1725.11 1120.51 1724.64 1120.23C1723.22 1119.37 1722.78 1117.52 1723.64 1116.1C1732.39 1101.28 1742.22 1087.13 1753.06 1073.77C1754.12 1072.47 1756.02 1072.28 1757.31 1073.34C1758.6 1074.39 1758.8 1076.3 1757.74 1077.59C1747.08 1090.72 1737.41 1104.62 1728.82 1119.18C1728.27 1120.11 1727.27 1120.67 1726.19 1120.65ZM1744.1 1151.01C1743.1 1151.01 1742.17 1150.52 1741.61 1149.69C1741.04 1148.87 1740.92 1147.82 1741.29 1146.89C1741.88 1145.38 1742.45 1143.87 1743 1142.47C1745.24 1136.66 1747.17 1131.65 1749.29 1127.31C1749.75 1126.31 1750.71 1125.63 1751.8 1125.54C1752.9 1125.46 1753.95 1125.97 1754.56 1126.89C1755.17 1127.81 1755.22 1128.98 1754.71 1129.96C1752.7 1134.07 1750.82 1138.97 1748.63 1144.64C1748.08 1146.09 1747.51 1147.56 1746.91 1149.09C1746.46 1150.24 1745.34 1151 1744.1 1151.01ZM1750.65 1229.54C1750.47 1229.56 1750.29 1229.56 1750.11 1229.54C1748.47 1229.25 1747.38 1227.68 1747.67 1226.04C1753.54 1193.05 1765.14 1160.36 1773.57 1145.12C1774.4 1143.71 1776.2 1143.22 1777.63 1144.01C1779.06 1144.8 1779.6 1146.59 1778.85 1148.04C1770.66 1162.85 1759.37 1194.75 1753.61 1227.1C1753.34 1228.52 1752.1 1229.55 1750.65 1229.54ZM1795.51 1191.21C1795.3 1191.21 1795.09 1191.19 1794.89 1191.15C1793.26 1190.82 1792.2 1189.22 1792.54 1187.59C1794.17 1179.68 1796.22 1171.86 1798.67 1164.16L1799.59 1161.14C1799.86 1160.07 1800.71 1159.23 1801.78 1158.97C1802.85 1158.7 1803.99 1159.04 1804.73 1159.86C1805.48 1160.67 1805.72 1161.84 1805.36 1162.88C1805.05 1163.89 1804.75 1164.9 1804.44 1165.9C1802.04 1173.41 1800.04 1181.04 1798.45 1188.76C1798.18 1190.18 1796.94 1191.21 1795.51 1191.21Z" fill="#232323"/>
<mask id="mask6_433_63473" style="mask-type:luminance" maskUnits="userSpaceOnUse" x="635" y="0" width="207" height="195">
<path d="M635.168 0H841.835V194.333H635.168V0Z" fill="white"/>
</mask>
<g mask="url(#mask6_433_63473)">
<path d="M825.869 38.5352C814.442 31.3789 800.239 30.2487 787.828 35.5143C778.687 -8.33984 722.406 -10.0326 711.916 21.806C676.078 -11.4336 624.729 32.6341 637.307 69.806C641.916 83.457 648.588 109.171 640.75 130.941C658.786 141.27 690.14 193.702 690.14 193.702C690.14 193.702 762.734 108.915 796.442 108.806C849.453 108.645 850.046 54.3893 825.869 38.5352Z" fill="#232323"/>
</g>
<path d="M834.641 236.954C834.781 248.85 827.766 260.782 815.052 266.985C781.948 283.162 736.75 268.709 736.75 268.709C736.75 268.709 726.271 312.381 730.297 343.063C730.297 343.063 666.599 372.136 574.484 334.61C574.484 334.61 602.516 295.933 638.667 210.865C616.396 206.386 589.693 180.058 597.281 149.428C601.62 131.975 620.984 121.126 638.719 125.136C656.932 129.245 668.036 145.36 681.12 161.829C695.917 180.459 701.703 166.058 709.302 147.938C714.203 136.292 719.849 123.11 729.141 116.162C750.125 100.438 796.422 105.225 796.422 105.225C796.422 105.225 796.229 111.386 796.531 119.141C796.927 129.407 798.193 142.459 801.859 147.777C808.318 157.115 815.385 155.933 815.276 161.829C815.182 166.86 809.234 172.683 805.922 175.162C806.146 209.678 834.318 209.183 834.641 236.954Z" fill="white"/>
<path d="M667.94 356.796C643.33 356.796 610.679 352.619 573.33 337.411C572.471 337.062 571.82 336.333 571.565 335.442C571.304 334.551 571.476 333.588 572.018 332.838C572.304 332.452 599.575 294.39 634.481 212.978C621.648 209.244 608.846 199.421 601.075 187.155C593.44 175.072 591.101 161.786 594.336 148.749C599.013 129.916 619.627 117.77 639.362 122.234C656.924 126.202 668.07 140.364 679.867 155.468C681.054 156.978 682.252 158.489 683.466 160.041C687.653 165.312 691.169 167.921 693.664 167.567C698.07 166.963 702.226 157.062 706.252 147.484L706.528 146.848C711.299 135.504 717.247 121.385 727.33 113.833C749.018 97.5981 794.763 102.109 796.778 102.312C798.351 102.473 799.533 103.827 799.487 105.411C799.487 105.473 799.304 111.556 799.596 119.119C800.106 132.635 801.862 142.489 804.388 146.145C806.481 149.166 809.231 151.671 812.44 153.473C815.237 155.239 818.408 157.234 818.325 161.968C818.226 167.645 812.893 173.499 808.997 176.702C809.487 192.708 816.372 200.077 823.648 207.874C830.466 215.166 837.507 222.708 837.669 236.984C837.83 250.718 829.679 263.28 816.382 269.775C798.648 278.447 777.664 278.478 763.19 276.989C755.039 276.15 746.961 274.676 739.033 272.577C736.789 282.989 730.039 317.609 733.341 342.739C733.513 344.051 732.804 345.327 731.596 345.879C730.924 346.181 714.888 353.385 687.263 355.952C681.523 356.447 675.065 356.796 667.94 356.796ZM579.117 333.197C624.408 350.968 662.33 352.145 686.346 349.926C707.601 347.963 721.966 343.077 727.028 341.124C723.747 310.478 733.388 269.765 733.81 268.004C734.007 267.187 734.533 266.489 735.263 266.072C735.997 265.661 736.867 265.572 737.669 265.827C738.112 265.968 782.122 279.718 813.726 264.275C824.898 258.817 831.763 248.364 831.622 236.984C831.481 225.046 825.804 218.973 819.231 211.921C811.643 203.806 803.039 194.588 802.924 175.202C802.919 174.234 803.377 173.327 804.153 172.754C807.487 170.286 812.205 165.26 812.278 161.786C812.278 160.666 812.075 160.312 809.257 158.52C805.356 156.286 802.002 153.213 799.445 149.515C796.143 144.734 794.169 134.562 793.575 119.301C793.393 114.65 793.393 110.609 793.414 108.051C783.289 107.348 747.95 105.937 731.013 118.624C722.237 125.192 716.643 138.478 712.153 149.145L711.882 149.78C706.778 161.937 702.362 172.431 694.549 173.51C689.638 174.181 684.627 171.083 678.799 163.749L675.174 159.145C663.58 144.369 653.565 131.609 638.096 128.114C621.768 124.426 604.086 134.744 600.263 150.192C596.69 164.593 601.539 176.478 606.242 183.911C613.888 195.999 626.872 205.426 639.315 207.926C640.2 208.103 640.966 208.671 641.388 209.473C641.81 210.28 641.846 211.239 641.487 212.072C611.283 283.02 586.424 322.301 579.117 333.197Z" fill="#232323"/>
<path d="M669.409 207.26C669.096 206.52 668.508 205.932 667.768 205.63C667.023 205.322 666.19 205.328 665.45 205.64C658.002 208.77 647.726 209.666 639.284 207.916C637.685 207.645 636.159 208.692 635.83 210.281C635.497 211.869 636.481 213.437 638.054 213.828C648.013 215.812 658.336 214.906 667.799 211.218C669.336 210.572 670.054 208.796 669.409 207.26Z" fill="#232323"/>
<path d="M787.83 35.5326C787.44 33.6628 786.935 31.8086 786.33 29.9961C777.153 34.1836 769.455 41.0482 764.258 49.694C763.398 51.1263 763.856 52.9857 765.284 53.8451C766.711 54.7096 768.57 54.2461 769.429 52.819C775.034 43.694 783.7 36.8659 793.877 33.5534C791.825 34.0898 789.804 34.7513 787.83 35.5326Z" fill="white"/>
<path d="M737.808 265.809C723.59 260.877 711.288 251.58 702.657 239.241C696.881 242.262 690.652 274.674 719.959 291.304C725.428 294.403 729.512 295.575 732.532 295.424C734.918 281.111 736.751 272.257 736.751 272.257C736.751 272.257 737.756 272.57 739.475 273.043C738.72 268.924 737.808 265.809 737.808 265.809ZM754.663 149.46C759.777 147.705 772.147 143.799 783.189 136.366C783.928 135.866 784.845 135.689 785.72 135.882C786.59 136.07 787.35 136.611 787.819 137.372C790.413 141.403 793.465 148.747 785.314 152.835C775.246 157.872 758.137 156.538 753.959 152.361C753.532 151.929 753.36 151.304 753.501 150.71C753.647 150.122 754.084 149.648 754.663 149.46ZM795.397 210.231C793.84 211.648 791.991 212.71 789.98 213.335C788.032 213.965 785.991 214.278 783.944 214.273C779.772 214.299 775.689 213.106 772.189 210.835C770.465 209.663 768.918 208.252 767.6 206.637C766.293 205.017 765.241 203.21 764.485 201.267C762.918 197.418 762.777 193.132 764.084 189.184C764.47 188.148 765.538 187.538 766.621 187.741C767.704 187.945 768.485 188.898 768.475 189.997V190.122C768.392 193.08 769.064 196.012 770.428 198.642C771.095 199.924 771.923 201.111 772.892 202.184C773.834 203.262 774.918 204.21 776.11 205.007C778.558 206.57 781.34 207.538 784.225 207.825C787.137 208.205 790.095 207.788 792.782 206.606L792.902 206.559C793.902 206.08 795.105 206.408 795.73 207.325C796.355 208.247 796.22 209.486 795.407 210.241L795.397 210.231ZM657.991 187.934C656.59 187.934 655.371 186.965 655.053 185.596C648.006 155.596 624.006 155.543 623.017 155.533C621.35 155.549 619.985 154.21 619.97 152.543C619.949 150.872 621.288 149.507 622.959 149.491C624.194 149.491 652.918 149.934 660.933 184.226C661.308 185.851 660.303 187.471 658.689 187.856C658.459 187.903 658.225 187.934 657.991 187.934ZM738.418 132.95C740.814 120.283 752.241 110.231 764.829 108.497C773.084 106.32 794.834 114.538 785.314 124.903C778.762 128.017 771.834 128.82 765.324 131.471C760.652 132.991 754.715 135.903 749.855 137.825C745.735 140.122 737.121 139.257 738.418 132.95ZM470.012 1009.81C421.965 1008.06 387.48 1023.27 383.647 1043.19C379.814 1063.12 425.918 1135.24 955.157 980.747C955.157 980.747 582.173 1013.89 470.012 1009.81ZM379.501 577.122C330.251 549.247 293.73 547.752 281.23 561.007C270.006 572.892 264.772 655.059 517.751 692.731C517.829 692.757 481.116 634.663 379.501 577.122Z" fill="#232323"/>
<path d="M360.679 568.543C351.028 580.511 342.164 593.095 334.138 606.209C279.044 697.563 292.409 770.022 358.044 789.319C409.653 804.485 458.502 784.173 458.502 784.173C458.502 784.173 505.148 724.173 517.83 692.756C563.122 605.454 582.57 374.688 551.174 357.366C518.747 339.527 360.679 568.543 360.679 568.543Z" fill="white"/>
<path d="M398.814 798.012C384.736 798.08 370.715 796.132 357.189 792.22C330.726 784.434 311.944 768.049 302.887 744.7C288.799 708.439 298.96 658.684 331.554 604.7C339.616 591.496 348.538 578.83 358.252 566.788C360.033 564.22 399.059 507.918 441.398 454.439C466.773 422.397 488.372 397.601 505.601 380.731C528.752 358.111 543.658 349.861 552.585 354.788C571.585 365.262 572.09 436.226 566.221 499.158C560.356 562.085 545.267 646.288 520.528 694.069C507.767 725.502 462.799 783.601 460.887 786.028C460.564 786.439 460.142 786.762 459.658 786.96C458.189 787.564 432.543 798.012 398.814 798.012ZM546.856 359.387C538.195 359.387 513.747 372.752 446.132 458.142C403.122 512.46 363.601 569.689 363.163 570.262L363.043 570.424C353.465 582.288 344.674 594.762 336.726 607.772C305.122 660.147 295.106 708.017 308.543 742.517C316.898 764.007 334.319 779.189 358.929 786.418C405.58 800.137 450.46 784.043 456.648 781.663C461.679 775.085 503.377 720.559 515.023 691.632L515.142 691.361C539.523 644.371 554.398 560.95 560.247 498.543C567.179 424.22 562.84 367.267 549.715 360.022C548.83 359.575 547.851 359.356 546.856 359.387Z" fill="#232323"/>
<path d="M303.824 738.214C321.767 795.016 382.236 851.854 440.21 886.703C578.251 969.698 663.158 971.38 697.303 978.661C731.454 985.943 728.861 972.557 713.699 963.453C702.632 956.802 690.553 950.479 689.548 949.953C690.491 950.438 702.215 956.271 737.1 962.292C791.902 971.75 765.184 946.5 765.184 946.5C820.017 954.083 781.637 927.536 781.637 927.536C810.939 931.354 808.449 921.49 787.97 906.161C767.486 890.833 709.251 858.682 709.251 858.682C745.132 849.797 719.319 837.37 694.616 830.229C669.918 823.089 615.944 802.734 565.418 757.542C519.501 716.49 525.371 721.516 509.647 709.297" fill="white"/>
<path d="M713.531 983.755C707.849 983.615 702.203 982.896 696.672 981.609C691.484 980.505 684.963 979.505 677.406 978.359C634.943 971.859 555.917 959.786 438.651 889.292C408.114 870.932 378.344 847.312 354.828 822.818C328.036 794.875 309.406 765.943 300.943 739.151C300.463 737.568 301.349 735.891 302.922 735.391C304.5 734.896 306.182 735.755 306.703 737.328C314.885 763.24 333.031 791.354 359.177 818.625C382.328 842.797 411.677 866.057 441.76 884.094C558 953.974 636.271 965.927 678.281 972.365C685.932 973.531 692.531 974.542 697.891 975.677C715.521 979.437 720.797 976.979 721.25 975.818C721.703 974.661 719.448 970.432 712.109 966.021C700.99 959.344 688.76 952.927 688.104 952.635C686.625 951.849 686.057 950.01 686.844 948.531C687.625 947.047 689.463 946.479 690.943 947.266C691.568 947.589 703.021 953.307 737.604 959.354C764.354 963.974 768.021 959.604 768.484 958.677C769.547 956.542 766.036 951.536 763.088 948.734C762.135 947.833 761.87 946.417 762.443 945.229C763.01 944.047 764.281 943.365 765.583 943.547C789.74 946.891 791.62 942.896 791.63 942.854C792.354 941 786.599 934.667 779.906 930.062C778.76 929.266 778.307 927.792 778.807 926.49C779.312 925.187 780.635 924.401 782.021 924.583C798.745 926.76 800.427 923.818 800.448 923.786C800.469 923.755 801.151 919.88 786.146 908.62C765.958 893.51 708.365 861.693 707.781 861.37C706.693 860.771 706.083 859.562 706.245 858.333C706.406 857.099 707.307 856.089 708.516 855.792C723.682 852.036 723.927 848.479 723.927 848.328C723.927 845.75 715.984 839.589 693.729 833.172C672.281 826.974 616.635 807.427 563.401 759.828L550.036 747.792C521.474 722.24 521.474 722.24 511.234 714.312L507.766 711.682C506.448 710.661 506.208 708.76 507.229 707.443C508.255 706.125 510.151 705.885 511.469 706.906L514.849 709.526C525.255 717.583 525.255 717.583 553.984 743.286L567.396 755.286C619.734 802.057 674.328 821.245 695.38 827.318C718.432 833.974 730.047 841.068 729.906 848.411C729.812 852.974 725.677 856.578 716.979 859.568C732.703 868.354 773 891.203 789.708 903.745C803.135 913.818 808.146 920.687 805.974 926.026C804.422 929.849 799.713 931.583 791.036 931.37C795.213 935.401 798.917 940.578 797.198 945C795.182 950.125 787.385 951.849 772.135 950.38C774.151 953.651 775.63 957.729 773.818 961.339C770.568 967.854 758.719 969.099 736.516 965.266C728.396 963.865 721.5 962.474 715.693 961.146C724.568 966.604 728.849 973.057 726.875 978.057C725.417 981.854 720.927 983.755 713.531 983.755Z" fill="#232323"/>
<path d="M651.569 867.385C645.736 867.385 639.898 867.193 633.866 866.823C632.2 866.719 630.934 865.281 631.033 863.614C631.137 861.943 632.575 860.677 634.241 860.776C658.142 862.26 679.028 860.828 708.72 855.739C709.804 855.505 710.934 855.891 711.653 856.734C712.377 857.583 712.575 858.755 712.168 859.792C711.767 860.828 710.83 861.557 709.726 861.693C687.012 865.594 669.335 867.385 651.569 867.385ZM617.976 905.187C608.663 905.26 599.371 904.281 590.278 902.266C588.7 901.828 587.757 900.213 588.153 898.62C588.549 897.031 590.137 896.047 591.736 896.401C592.252 896.521 643.689 908.838 681.996 878.724C682.84 878.021 684.002 877.833 685.028 878.234C686.054 878.635 686.778 879.562 686.924 880.651C687.069 881.745 686.606 882.828 685.72 883.479C663.278 901.125 637.21 905.187 617.976 905.187ZM781.601 930.557C781.413 930.573 781.231 930.573 781.043 930.557C735.986 922.068 703.163 900.036 701.783 899.099C700.398 898.167 700.028 896.276 700.965 894.885C701.903 893.495 703.788 893.13 705.179 894.068C705.507 894.286 738.392 916.344 782.163 924.583C783.7 924.87 784.767 926.281 784.621 927.838C784.47 929.396 783.163 930.583 781.601 930.578V930.557ZM765.142 949.521C764.986 949.531 764.825 949.531 764.668 949.521C718.762 942.219 687.168 922.489 685.882 921.651C684.549 920.734 684.174 918.922 685.038 917.552C685.903 916.177 687.7 915.734 689.101 916.547C689.424 916.75 720.996 936.458 765.595 943.547C767.262 943.677 768.507 945.141 768.377 946.807C768.246 948.474 766.788 949.724 765.121 949.594L765.142 949.521ZM689.507 952.974C689.106 952.974 688.71 952.896 688.34 952.745C683.601 950.75 678.924 948.625 674.309 946.37C672.814 945.63 672.2 943.818 672.939 942.318C673.679 940.823 675.491 940.208 676.986 940.948C677.054 940.948 683.345 944.094 690.674 947.167C692.002 947.719 692.757 949.135 692.476 950.552C692.189 951.963 690.95 952.979 689.507 952.974Z" fill="#232323"/>
<path d="M516.964 692.948C496.995 658.703 334.49 518.948 283.25 562.709C318.87 492.297 505.016 317.677 561.5 353.063C591.365 477.964 581.75 590.922 516.964 692.948Z" fill="white"/>
<path d="M516.962 695.97H516.9C515.848 695.949 514.884 695.382 514.358 694.47C504.806 678.085 467.462 643.97 436.858 620.465C410.436 600.158 360.244 565.069 320.983 558.408C305.462 555.762 293.384 557.986 285.212 565.038C284.119 565.976 282.515 566.007 281.384 565.121C280.249 564.231 279.905 562.668 280.551 561.382C295.457 531.918 336.077 484.585 384.046 440.778C437.702 391.798 488.431 358.189 523.233 348.449C540.02 343.778 553.426 344.47 563.098 350.533C563.77 350.955 564.254 351.621 564.436 352.387C596.16 485.095 581.468 597.038 519.509 694.601C518.947 695.46 517.988 695.981 516.962 695.97ZM309.082 551.278C313.416 551.304 317.738 551.694 322.009 552.449C388.676 563.778 493.655 655.059 516.9 687.413C575.64 592.533 589.369 483.736 558.863 355.038C550.738 350.507 539.306 350.241 524.853 354.272C453.686 374.054 329.337 492.377 291.369 554.351C297.03 552.215 303.041 551.173 309.082 551.278ZM255.077 1670.88C227.561 1600.05 179.056 1469.22 124.791 1519.67C70.3479 1570.29 205.478 1697.85 321.645 1777.65C321.645 1777.7 269.056 1706.86 255.077 1670.88Z" fill="#232323"/>
<path d="M326.729 1770.83C305.011 1786.78 229.375 1835.21 218.032 1835.29C216.016 1835.29 144.558 1803.37 147.657 1720.47C182.62 1690.6 227.854 1650.6 264.547 1613.11L326.729 1770.83Z" fill="white"/>
<path d="M270.419 1809.13C267.575 1810.77 264.893 1812.31 262.367 1813.75C228.549 1832.89 220.799 1834.76 219.893 1834.9H219.794C219.794 1834.9 145.95 1802.05 149.127 1719.24L149.45 1718.97C151.132 1717.55 158.69 1711.13 169.679 1701.55L175.288 1696.64L270.419 1809.13Z" fill="#042628"/>
<path d="M155.5 1713.8L245.448 1823.07C248.161 1821.62 251.182 1819.98 254.505 1818.17L163.135 1707.19L155.5 1713.8Z" fill="white"/>
<path d="M218.065 1838.31C215.586 1838.31 196.445 1829.32 178.898 1811.22C162.372 1794.17 143.007 1764.56 144.679 1720.39C144.711 1719.54 145.096 1718.75 145.737 1718.2C193.445 1677.47 232.705 1641.41 262.487 1611.04C263.205 1610.31 264.242 1609.99 265.242 1610.19C266.242 1610.4 267.075 1611.09 267.45 1612.04L329.622 1769.72C330.127 1771 329.716 1772.45 328.612 1773.27C311.502 1785.82 231.461 1838.23 218.174 1838.32L218.065 1838.31ZM150.648 1721.94C149.533 1762.42 167.013 1789.79 181.961 1805.69C198.195 1822.94 215.414 1831.21 218.356 1832.25C222.2 1831.82 236.815 1824.88 266.919 1806.43C289.867 1792.33 312.211 1777.54 323.06 1769.75L263.466 1618.56C234.237 1648.16 196.315 1682.91 150.648 1721.94Z" fill="#232323"/>
<path d="M149.921 1720.21C149.921 1720.21 58.5924 1793.42 2.41016 1830.93C2.41016 1830.93 146.145 1986.36 201.374 2034.8C231.342 2061.1 255.28 2064.44 269.348 2063.52C269.363 2063.48 269.384 2063.43 269.41 2063.39C269.457 2063.3 269.499 2063.21 269.53 2063.12C271.686 2058.08 291.983 2007.49 268.009 1930.38C264.264 1918.35 250.54 1881.41 225.197 1848.04C207.853 1825.21 192.988 1806.75 179.488 1793.01C148.993 1762.03 171.822 1743.63 149.921 1720.21Z" fill="white"/>
<path d="M150.01 1718.48C173.552 1743.22 149.63 1762.17 189.406 1798.93C201.948 1810.52 224.573 1838.5 241.151 1868.59C267.62 1915.93 284.234 1970.42 278.448 2024.97C277.641 2032.56 276.328 2040.09 274.526 2047.51C198.484 2032.99 164.312 1963.06 150.021 1926.15C137.703 1894.31 118.891 1899.24 107.026 1875.03C97.1094 1854.81 106.474 1839.88 89.9167 1817.92C80.651 1805.7 66.9896 1797.57 51.8281 1795.26C51.8281 1795.26 102.286 1762.43 150.01 1718.48Z" fill="#232323"/>
<path d="M181.13 1822.54C180.447 1822.54 179.781 1822.31 179.25 1821.87C159.843 1806.32 151.906 1805.15 136.083 1802.81C131.812 1802.18 127.026 1801.47 121.255 1800.36C93.5776 1795.05 80.062 1777.02 79.4995 1776.25C78.5099 1774.91 78.7964 1773.02 80.1349 1772.03C81.4787 1771.04 83.3693 1771.33 84.3589 1772.67C84.5203 1772.89 97.1818 1789.58 122.395 1794.43C127.989 1795.5 132.76 1796.21 136.968 1796.83C153.333 1799.25 162.354 1800.58 183.026 1817.16C184.026 1817.96 184.411 1819.31 183.984 1820.52C183.557 1821.73 182.416 1822.54 181.13 1822.54Z" fill="white"/>
<path d="M274.517 2050.53C274.272 2050.53 274.027 2050.5 273.788 2050.44C240.001 2043.96 210.736 2026.03 186.783 1997.16C171.199 1978.37 157.887 1954.85 147.194 1927.23C140.762 1910.65 132.782 1904.73 124.298 1898.56C117.251 1893.38 109.965 1888.02 104.267 1876.4C99.8085 1867.34 99.0429 1859.28 98.2981 1851.43C97.2929 1841.29 96.4387 1831.7 87.4283 1819.79C78.6419 1808.28 65.4023 1801.01 50.9752 1799.78C49.3085 1799.63 48.0689 1798.17 48.2148 1796.5C48.3554 1794.83 49.8242 1793.59 51.4908 1793.73C67.621 1795.1 82.4231 1803.23 92.2408 1816.11C102.309 1829.41 103.314 1840.28 104.319 1850.85C105.032 1858.43 105.72 1865.59 109.694 1873.72C114.725 1884 121.116 1888.7 127.881 1893.68C136.657 1900.13 145.736 1906.77 152.803 1925.08C163.246 1952.07 176.23 1975.04 191.402 1993.32C214.47 2021.13 242.611 2038.37 275.048 2044.55C275.73 2044.68 276.35 2045.03 276.798 2045.56C277.548 2046.46 277.71 2047.71 277.215 2048.77C276.72 2049.83 275.658 2050.52 274.486 2050.52L274.517 2050.53Z" fill="#232323"/>
<path d="M69.5959 1869.93C67.2991 1869.89 65.0178 1869.56 62.8147 1868.92C56.2001 1867.06 49.398 1862.76 43.6897 1856.83C31.2314 1843.92 27.7887 1827.7 35.8512 1819.9C43.9032 1812.12 60.0074 1816.13 72.4449 1829.04C84.8876 1841.95 88.3459 1858.17 80.2834 1865.96C77.3876 1868.64 73.5439 1870.07 69.5959 1869.93ZM40.0178 1824.26C34.5803 1829.51 38.2366 1842.51 48.0074 1852.63C53.0387 1857.82 58.8459 1861.55 64.4449 1863.1C69.4762 1864.51 73.6012 1863.99 76.0595 1861.61C81.4918 1856.36 77.8407 1843.36 68.0647 1833.24C58.2939 1823.12 45.4501 1819 40.0178 1824.26Z" fill="#232323"/>
<path d="M265.266 2066.67C238.834 2066.67 215.032 2050.79 199.381 2037.08C144.657 1989.08 2.71402 1833.51 1.28694 1831.94C0.698395 1831.29 0.417145 1830.43 0.521312 1829.56C0.625478 1828.69 1.10464 1827.9 1.8286 1827.41C100.584 1760.48 145.162 1718.71 145.594 1718.3C146.808 1717.15 148.719 1717.21 149.865 1718.43C151.011 1719.64 150.954 1721.56 149.74 1722.7C149.297 1723.11 105.303 1764.36 8.09944 1830.47C26.9015 1851.02 152.771 1988.17 203.355 2032.56C218.615 2045.93 241.933 2061.46 267.297 2060.62C271.12 2050.89 287.339 2002.73 265.115 1931.28C264.891 1930.58 264.662 1929.8 264.396 1928.97C260.485 1916.1 251.313 1886.01 221.495 1849.94C220.75 1849.12 220.521 1847.95 220.891 1846.9C221.266 1845.86 222.178 1845.1 223.277 1844.94C224.37 1844.76 225.474 1845.21 226.141 1846.09C256.73 1883.09 266.152 1914 270.178 1927.2C270.428 1928.03 270.657 1928.78 270.881 1929.48C294.928 2006.8 274.907 2058.09 272.349 2064.21V2064.28C272.282 2064.44 272.209 2064.57 272.157 2064.69C271.704 2065.73 270.704 2066.45 269.563 2066.54C268.115 2066.63 266.683 2066.67 265.266 2066.67Z" fill="#232323"/>
<path d="M251.958 1893.53C250.562 1893.53 249.187 1893.14 248.004 1892.4C215.562 1872.36 178.385 1883.2 178.01 1883.33C174.025 1884.55 169.806 1882.3 168.593 1878.31C167.374 1874.31 169.624 1870.1 173.614 1868.88C175.395 1868.33 217.556 1855.85 255.931 1879.55C258.801 1881.33 260.14 1884.8 259.218 1888.05C258.291 1891.3 255.333 1893.54 251.958 1893.54V1893.53ZM265.754 1927.93C264.301 1927.93 262.879 1927.51 261.661 1926.72C227.583 1904.65 191.859 1915.03 191.51 1915.14C187.52 1916.36 183.301 1914.11 182.083 1910.12C180.864 1906.13 183.114 1901.9 187.098 1900.69C188.822 1900.16 229.713 1888.04 269.864 1914.03C272.676 1915.85 273.958 1919.3 273.004 1922.52C272.056 1925.73 269.103 1927.93 265.754 1927.93ZM275.692 1962.07C274.208 1962.07 272.754 1961.63 271.525 1960.8C241.228 1940.66 210.369 1948.81 210.056 1948.9C206.041 1950.03 201.874 1947.68 200.749 1943.66C199.624 1939.64 201.968 1935.48 205.984 1934.35C207.499 1933.92 243.624 1924.12 279.879 1948.23C282.655 1950.07 283.895 1953.52 282.931 1956.71C281.963 1959.9 279.02 1962.08 275.692 1962.07Z" fill="#042628"/>
<path d="M710.59 1248.63C727.22 1090.51 714.98 879.056 714.98 879.056C714.98 879.056 577.09 875.452 572.673 855.176L455.512 865.983C455.512 865.983 431.736 975.186 449.6 1146.26C458.277 1229.24 456.798 1294.56 440.23 1322.59C424.017 1350 351.361 1378.87 301.72 1403.26C168.704 1475.6 124.793 1519.67 124.793 1519.67C162.314 1493.76 204.303 1535.15 226.897 1632.31C249.496 1729.46 321.647 1777.7 321.647 1777.7C627.033 1607.06 690.178 1347.44 710.59 1248.63Z" fill="#4CAF7A"/>
<path d="M555.734 1821.76C503.807 1754.34 453.729 1618.2 402.75 1682.77C351.771 1747.34 501.104 1876.95 682.187 1889.25C681.885 1889.25 578.328 1851.1 555.734 1821.76Z" fill="#232323"/>
<path d="M682.238 1883.25C670.733 1903.72 641.926 1955.11 635.374 1965.2C635.374 1965.2 521.764 1987.58 500.676 1921.54C512.754 1869.66 530.098 1795.26 542.217 1743.26L682.238 1883.25Z" fill="white"/>
<path d="M665.004 1917.39C652.384 1936.88 638.525 1960.38 635.374 1965.2C635.374 1965.2 521.764 1987.58 500.676 1921.54C500.676 1921.54 511.197 1876.37 511.207 1876.37L665.004 1917.39Z" fill="#042628"/>
<path d="M480.902 1900.85L483.408 1891.1L667.694 1938.48L665.189 1948.24L480.902 1900.85Z" fill="white"/>
<path d="M588.959 1972.8C584.642 1972.8 580.183 1972.67 575.652 1972.37C533.642 1969.6 506.657 1953.23 497.631 1924.9C497.464 1924.38 497.444 1923.83 497.569 1923.3C503.61 1897.21 511.22 1864.27 518.543 1832.41C525.772 1800.95 533.251 1768.42 539.267 1742.56C539.517 1741.49 540.324 1740.63 541.381 1740.33C542.438 1740.03 543.574 1740.32 544.35 1741.1L684.371 1881.1C685.329 1882.06 685.527 1883.54 684.866 1884.72L679.912 1893.56C666.688 1917.13 644.548 1956.59 637.902 1966.84C637.47 1967.5 636.793 1967.97 636.022 1968.14C620.522 1971.22 604.761 1972.78 588.959 1972.8ZM503.636 1923.85C523.147 1982.04 621.397 1964.84 633.475 1962.49C640.803 1950.88 662.662 1911.88 674.6 1890.62L678.444 1883.78L543.876 1749.22C538.089 1774.14 531.126 1804.42 524.381 1833.77C517.178 1865.32 509.688 1897.89 503.636 1923.85Z" fill="#232323"/>
<path d="M500.72 1921.54C500.72 1921.54 477.449 2042.48 465.496 2109.27C465.496 2109.27 672.225 2117.23 745.71 2110.94C785.585 2107.52 804.658 2092.51 813.777 2081.68C813.772 2081.64 813.772 2081.59 813.777 2081.55C813.777 2081.48 813.715 2081.38 813.663 2081.27C811.533 2076.23 789.048 2026.29 716.579 1990.01C705.288 1984.35 669.001 1968.57 627.225 1963.71C598.642 1960.38 574.335 1961.7 556.017 1955.66C532.647 1947.91 529.434 1925.24 500.72 1921.54Z" fill="white"/>
<path d="M501.434 1919.93C528.611 1924.86 533.1 1946.12 557.949 1955.18C574.053 1961.05 619.798 1957.54 653.1 1966.48C705.788 1980.27 756.767 2006.13 792.168 2048.28C797.069 2054.14 801.585 2060.31 805.684 2066.76C742.277 2111.74 678.402 2087.91 641.757 2072.53C610.147 2059.3 601.501 2076.77 575.741 2068.51C554.225 2061.62 550.371 2043.58 522.944 2040.3C497.309 2037.28 472.949 2054.64 472.949 2054.64C472.949 2054.64 487.991 1973.64 501.434 1919.93Z" fill="#232323"/>
<path d="M486.115 2019.97C485.052 2019.98 483.99 2019.91 482.932 2019.76C481.354 2019.42 480.323 2017.89 480.594 2016.3C480.865 2014.7 482.339 2013.6 483.943 2013.8C484.182 2013.8 499.412 2015.97 518.745 1999.47C520.417 1998.04 522 1996.67 523.495 1995.36C537.589 1983.05 546.172 1975.63 574.25 1974.62C575.912 1974.56 577.307 1975.85 577.375 1977.52C577.401 1978.32 577.115 1979.09 576.568 1979.68C576.021 1980.27 575.266 1980.62 574.464 1980.65C548.526 1981.59 541.479 1987.7 527.464 1999.91C525.943 2001.25 524.349 2002.63 522.662 2004.06C506.136 2018.16 492.167 2019.97 486.115 2019.97Z" fill="white"/>
<path d="M727.782 2095.27C692.939 2095.27 662.491 2082.53 642.23 2074.02C625.715 2067.12 615.913 2068.81 605.532 2070.61C596.881 2072.1 587.933 2073.63 575.574 2069.69C565.881 2066.59 559.47 2061.53 553.371 2056.65C545.319 2050.28 537.788 2044.27 522.902 2042.55C498.98 2039.71 477.288 2058.74 477.069 2058.93C476.267 2059.68 475.126 2059.93 474.084 2059.6C473.043 2059.27 472.262 2058.39 472.043 2057.32C471.829 2056.25 472.209 2055.14 473.043 2054.42C473.996 2053.56 496.928 2033.38 523.6 2036.55C540.194 2038.56 548.762 2045.36 557.116 2051.96C563.152 2056.72 568.756 2061.22 577.402 2063.99C588.355 2067.5 596.194 2066.14 604.496 2064.7C615.277 2062.83 626.418 2060.91 644.548 2068.51C661.251 2075.5 686.496 2086.07 714.808 2088.65C747.517 2091.67 776.689 2083.72 804.001 2064.34C805.105 2063.56 806.595 2063.61 807.642 2064.46C808.694 2065.31 809.053 2066.76 808.522 2068C808.282 2068.57 807.876 2069.05 807.355 2069.37C779.986 2088.72 752.751 2095.27 727.782 2095.27Z" fill="#232323"/>
<path d="M519.328 2101.23C511.078 2101.23 503.276 2099.33 497.349 2095.87C490.885 2092.11 487.281 2086.91 487.281 2081.24C487.281 2069.99 501.375 2061.09 519.339 2061.09H519.458C527.714 2061.09 535.563 2063 541.443 2066.45C547.901 2070.23 551.505 2075.42 551.505 2081.1C551.505 2092.35 537.417 2101.19 519.448 2101.24L519.328 2101.23ZM519.479 2067.14H519.37C505.276 2067.14 493.323 2073.62 493.344 2081.24C493.344 2084.67 495.849 2088.01 500.385 2090.66C505.422 2093.6 512.13 2095.19 519.328 2095.19H519.427C533.521 2095.19 545.49 2088.72 545.469 2081.1C545.469 2077.66 542.964 2074.31 538.422 2071.67C533.401 2068.78 526.677 2067.14 519.479 2067.14Z" fill="#232323"/>
<path d="M626.975 2116.98C547.521 2116.98 464.495 2114.86 463.188 2114.82C462.308 2114.8 461.48 2114.4 460.923 2113.72C460.37 2113.04 460.136 2112.15 460.287 2111.28C472.126 2045.2 497.678 1922.74 497.943 1921.51C498.324 1919.92 499.896 1918.93 501.495 1919.26C503.094 1919.6 504.136 1921.14 503.85 1922.75C503.6 1923.96 478.917 2042.17 466.86 2108.87C494.61 2109.55 678.141 2113.69 745.396 2107.93C765.693 2106.18 793.193 2100.1 810.204 2081.13C805.844 2071.6 782.324 2026.35 715.12 1992.69L712.943 1991.59C700.87 1985.48 672.756 1971.19 625.928 1967.68C624.256 1967.56 623.006 1966.1 623.131 1964.44C623.256 1962.76 624.709 1961.51 626.381 1961.64C674.407 1965.22 703.324 1979.91 715.673 1986.19L717.818 1987.26C790.12 2023.52 813.433 2073.31 816.251 2079.85L816.329 2080C816.402 2080.18 816.454 2080.32 816.49 2080.43C816.938 2081.48 816.756 2082.69 816.021 2083.56C797.803 2105.22 767.829 2112 745.896 2113.88C718.985 2116.25 673.594 2116.98 626.975 2116.98Z" fill="#232323"/>
<path d="M619.143 2030.62C616.528 2030.61 614.101 2029.25 612.731 2027.02C611.362 2024.79 611.237 2022.02 612.408 2019.68C613.237 2018.03 633.153 1979.39 680.466 1968.19C683.132 1967.45 685.981 1968.24 687.898 1970.23C689.82 1972.22 690.497 1975.1 689.669 1977.74C688.841 1980.37 686.643 1982.34 683.929 1982.88C643.669 1992.4 626.07 2026.19 625.888 2026.49C624.596 2029.02 621.992 2030.62 619.143 2030.62ZM651.58 2043.03C648.961 2043.03 646.528 2041.66 645.158 2039.43C643.789 2037.19 643.669 2034.41 644.851 2032.06C645.664 2030.45 665.351 1992.4 712.08 1981.41C716.143 1980.46 720.205 1982.98 721.158 1987.04C722.112 1991.11 719.596 1995.17 715.533 1996.13C675.575 2005.53 658.497 2038.55 658.325 2038.88C657.039 2041.43 654.434 2043.03 651.58 2043.03ZM688.992 2052.92C686.356 2052.91 683.914 2051.52 682.554 2049.26C681.195 2046.99 681.112 2044.18 682.341 2041.84C683.086 2040.44 701.132 2007.48 743.737 1997.99C747.809 1997.08 751.841 1999.65 752.747 2003.73C753.653 2007.8 751.091 2011.84 747.018 2012.75C711.054 2020.75 695.768 2048.68 695.617 2049.01C694.289 2051.42 691.752 2052.93 688.992 2052.92Z" fill="#042628"/>
<path d="M866.28 829.043L511.79 855.934C507.915 880.559 507.983 905.6 506.686 930.465C500.395 1051.45 617.842 1403.94 536.098 1501.12C442.342 1612.52 402.488 1682.77 402.488 1682.77C422.191 1657.59 466.52 1678.98 509.223 1767.49C556.525 1865.56 682.145 1889.26 682.145 1889.26C970.431 1462.77 866.28 829.043 866.28 829.043Z" fill="#4CAF7A"/>
<path d="M564.069 1246.68C563.793 1240.36 563.533 1234.06 563.283 1227.79C560.001 1146.07 552.043 1066.05 549.809 1058.85C549.512 1057.78 548.668 1056.97 547.595 1056.71C546.527 1056.45 545.402 1056.8 544.663 1057.62C543.918 1058.43 543.684 1059.58 544.038 1060.63C545.84 1066.46 553.882 1144.23 557.257 1228.03C557.512 1234.31 557.767 1240.61 558.027 1246.94C562.184 1346.74 566.496 1449.94 533.543 1499.46C475.486 1586.7 430.658 1648.16 409.746 1676.2C412.762 1674.44 416.126 1673.37 419.611 1673.06C442.246 1642.48 484.725 1583.72 538.564 1502.85C572.605 1451.65 568.267 1347.45 564.069 1246.68ZM472.48 1305.06C471.574 1303.66 469.704 1303.26 468.303 1304.17L440.48 1322.12L440.23 1322.59C436.126 1329.53 428.397 1336.56 418.35 1343.59L471.574 1309.24C472.246 1308.81 472.72 1308.13 472.892 1307.34C473.064 1306.56 472.913 1305.74 472.48 1305.06Z" fill="white"/>
<path d="M541.303 1495.22C540.178 1495.21 539.147 1494.59 538.631 1493.59C538.111 1492.59 538.189 1491.39 538.834 1490.46L604.939 1396.02C605.538 1395.09 606.6 1394.56 607.704 1394.64C608.808 1394.72 609.782 1395.4 610.236 1396.41C610.689 1397.43 610.553 1398.6 609.881 1399.49L543.777 1493.93C543.209 1494.74 542.288 1495.22 541.303 1495.22Z" fill="white"/>
<path d="M887.7 1003.8L855.413 1010.59C855.413 1010.59 800.653 917.344 783.762 867.657C766.872 817.975 847.715 876.922 847.715 876.922L887.7 1003.8Z" fill="#232323"/>
<path d="M563.376 350.634L578.611 328.473C578.611 328.473 634.975 353.322 715.361 338.728C717.97 338.254 720.605 337.723 723.262 337.186C732.762 335.171 742.595 332.686 752.704 329.54C752.704 329.54 881.428 524.556 955.158 980.712C955.158 980.712 925.965 993.332 875.642 1003.2C853.892 967.639 835.939 920.707 811.533 880.285C813.22 936.686 812.376 967.91 813.392 1010.51C765.23 1007.93 700.668 1002.56 638.908 1003.37C447.892 1005.9 391.517 1012.63 386.465 1045.48C386.465 1045.48 395.684 885.806 429.423 699.223C472.105 463.217 563.376 350.634 563.376 350.634Z" fill="white"/>
<path d="M386.464 1048.49H386.152C384.553 1048.32 383.365 1046.92 383.454 1045.32C383.548 1043.72 393.058 883.319 426.454 698.694C448.594 576.439 483.923 487.877 509.699 435.111C536.871 379.502 559.428 350.736 560.949 348.835L576.126 326.804C576.959 325.627 578.511 325.205 579.829 325.798C580.381 326.038 636.324 350.08 714.818 335.871C717.678 335.356 720.235 334.861 722.636 334.351C732.329 332.335 742.141 329.788 751.824 326.788C753.11 326.387 754.496 326.887 755.24 328.007C755.558 328.496 788.068 378.231 829.115 483.111C866.938 579.752 920.027 744.481 958.152 980.371C958.376 981.736 957.641 983.08 956.371 983.627C956.079 983.757 926.287 996.491 876.204 1006.31C874.964 1006.55 873.704 1006 873.048 1004.92C862.329 987.335 852.673 967.361 842.469 946.21C833.772 928.2 824.824 909.689 814.902 892.121C815.568 918.47 815.688 939.059 815.808 959.054C815.897 976.121 816.001 992.288 816.433 1010.56C816.449 1011.4 816.115 1012.21 815.511 1012.79C814.912 1013.38 814.089 1013.68 813.251 1013.64C802.292 1013.06 790.527 1012.32 778.027 1011.55C735.136 1008.9 686.506 1005.89 638.928 1006.52C550.813 1007.68 483.839 1009.77 443.402 1016.17C407.459 1021.85 391.818 1030.51 389.433 1046.06C389.152 1047.48 387.907 1048.5 386.464 1048.49ZM579.709 332.215L565.85 352.356L565.709 352.538C565.475 352.819 542.688 381.236 514.99 438.002C489.428 490.371 454.35 578.33 432.391 699.767C405.105 850.585 393.803 985.158 390.553 1029.93C399.136 1020.44 415.61 1014.32 442.475 1010.07C483.266 1003.62 550.49 1001.52 638.871 1000.36C686.688 999.72 735.423 1002.74 778.417 1005.39C789.641 1006.08 800.298 1006.75 810.303 1007.3C809.928 990.272 809.839 975.075 809.751 958.96C809.61 936.106 809.475 912.491 808.522 880.397C808.485 879.033 809.376 877.809 810.683 877.424C811.996 877.038 813.407 877.58 814.115 878.746C826.626 899.465 837.438 921.845 847.886 943.491C857.678 963.772 867.006 982.981 877.074 999.892C917.683 991.772 944.277 981.866 951.772 978.882C913.798 744.913 861.131 581.496 823.579 485.47C787.193 392.434 757.615 343.09 751.381 333.121C742.256 335.892 733.006 338.257 723.876 340.173C721.428 340.694 718.844 341.179 715.897 341.731C682.964 347.778 649.225 347.892 616.256 342.075C603.798 339.929 591.563 336.632 579.719 332.226L579.709 332.215Z" fill="#232323"/>
<path d="M647.476 375.099C636.991 375.109 626.517 374.437 616.122 373.083C589.221 369.5 567.46 361.583 560.689 352.943C560.002 352.094 559.825 350.937 560.231 349.922C560.632 348.906 561.554 348.193 562.632 348.047C563.715 347.901 564.794 348.349 565.45 349.224C570.085 355.177 588.163 363.323 616.919 367.14C634.715 369.51 670.09 371.844 706.997 360.896C708.601 360.427 710.278 361.338 710.752 362.943C711.226 364.542 710.309 366.224 708.71 366.698C688.804 372.406 668.184 375.234 647.476 375.099ZM776.856 617.651C742.799 636.297 699.116 668.656 703.387 685.515C707.663 702.536 792.601 744.338 1015 546.302C1014.96 546.302 955.788 519.713 776.856 617.651Z" fill="#232323"/>
<path d="M1014.96 542.724C1014.96 542.724 845.318 333.5 765.724 336.401C685.266 339.292 744.667 561.38 767.495 619.786C767.901 620.792 768.313 621.802 768.724 622.88C774.625 637.286 781.537 651.26 789.396 664.698L789.709 665.24C837.016 746.198 957.99 848.62 1072.68 797.635C1198.35 688.536 1033.06 564.292 1014.96 542.724Z" fill="white"/>
<path d="M1008.64 814.276C968.006 814.276 931.48 799.167 904.407 783.474C857.871 756.401 814.016 712.782 787.105 666.761L786.792 666.219C778.85 652.641 771.881 638.516 765.928 623.959L765.647 623.25C765.324 622.438 765.001 621.631 764.636 620.823C755.813 598.261 739.126 544.219 729.329 487.875C714.725 403.886 724.298 367.011 734.907 350.828C742.204 339.745 752.522 333.834 765.563 333.36C799.412 332.131 852.121 366.802 922.261 436.354C973.777 487.464 1016.22 539.584 1017.24 540.834C1019.36 543.349 1023.83 547.584 1029.5 552.917C1043.78 566.396 1067.65 588.948 1087.32 616.11C1111.23 649.094 1123.03 680.693 1122.41 710.032C1121.71 742.724 1105.63 772.959 1074.62 799.886C1074.38 800.073 1074.13 800.235 1073.86 800.365C1053.34 809.552 1031.12 814.292 1008.64 814.276ZM767.438 339.344H765.886C754.746 339.745 746.303 344.563 740.058 354.078C725.709 375.953 724.089 421.834 735.381 486.776C745.105 542.709 761.631 596.261 770.365 618.599C770.667 619.396 770.99 620.177 771.303 620.964L771.584 621.672C777.423 635.943 784.261 649.787 792.053 663.094L792.365 663.631C818.777 708.834 861.813 751.667 907.49 778.219C947.194 801.302 1007.77 822.917 1071.09 794.979C1100.55 769.297 1115.82 740.662 1116.47 709.86C1117.07 681.87 1105.64 651.516 1082.54 619.625C1063.19 592.917 1039.57 570.604 1025.46 557.271C1019.42 551.547 1015.03 547.422 1012.69 544.641C1010.93 542.563 845.256 339.344 767.438 339.344Z" fill="#232323"/>
<path d="M989.928 602.063C992.121 588.855 1005.03 567.324 1019.95 551.339C1052.08 523.058 1097.21 479.131 1135.7 425.683C1147.91 408.72 1286.36 501.907 1276.87 525.241C1241.55 612.131 1193.7 717.548 1119.92 773.282C997.236 858.683 880.517 780.475 817.199 704.282" fill="white"/>
<path d="M1009.17 813.491C987.386 813.381 965.782 809.574 945.271 802.23C883.079 780.407 836.865 732.735 814.849 706.215C814.099 705.392 813.865 704.225 814.235 703.173C814.599 702.126 815.516 701.36 816.615 701.194C817.719 701.022 818.823 701.47 819.49 702.355C841.11 728.366 886.454 775.189 947.261 796.532C1006.33 817.256 1063.82 808.616 1118.13 770.845C1151.05 745.949 1181.16 709.496 1210.18 659.433C1236.34 614.277 1257.14 565.694 1274.04 524.105C1275.71 519.996 1269.17 507.991 1245.21 487.595C1224.39 470.173 1202.01 454.715 1178.34 441.412C1148.85 425.095 1139.3 425.803 1138.08 427.454C1099.38 481.23 1053.63 525.668 1022.02 553.517C1007.44 569.147 994.922 590.204 992.829 602.553C992.485 604.136 990.964 605.168 989.37 604.897C987.777 604.626 986.683 603.152 986.881 601.548C989.131 587.928 1002.08 565.944 1017.67 549.261C1017.73 549.189 1017.8 549.121 1017.88 549.064C1049.26 521.433 1094.73 477.287 1133.14 423.907C1138.17 416.991 1153.83 420.98 1181.19 436.116C1205.2 449.61 1227.92 465.298 1249.05 482.98C1272.78 503.126 1283.04 517.767 1279.55 526.381C1262.57 568.147 1241.66 617.027 1215.32 662.454C1185.88 713.256 1155.23 750.298 1121.64 775.689L1121.54 775.761C1092.14 796.22 1061.35 808.496 1030.02 812.241C1023.1 813.069 1016.14 813.485 1009.17 813.491Z" fill="#232323"/>
<path d="M1276.83 525.241C1324.67 407.736 1319.23 341.772 1323.55 307.106C1327.85 272.439 1316.56 276.121 1307 292.059C1303.98 297.022 1299.18 305.002 1298.74 306.049C1299.14 305.038 1300.84 304.163 1303.77 268.871C1308.48 213.418 1289.31 243.955 1289.31 243.955C1292.14 188.627 1269.01 229.179 1269.01 229.179C1270.29 199.637 1260.72 202.991 1247.18 224.705C1233.64 246.424 1206.7 307.299 1206.7 307.299C1194.75 272.288 1184.56 299.059 1179.63 324.34C1174.7 349.616 1168.56 377.72 1135.61 425.7" fill="white"/>
<mask id="mask7_433_63473" style="mask-type:luminance" maskUnits="userSpaceOnUse" x="1132" y="203" width="196" height="326">
<path d="M1132.5 203.668H1327.5V529.001H1132.5V203.668Z" fill="white"/>
</mask>
<g mask="url(#mask7_433_63473)">
<path d="M1276.83 528.273C1275.83 528.278 1274.88 527.773 1274.32 526.94C1273.76 526.101 1273.65 525.039 1274.04 524.106C1312.67 429.205 1316.45 367.106 1318.7 329.997C1319.24 321.075 1319.71 313.361 1320.55 306.731C1323.15 285.71 1319.36 283.419 1319.32 283.398C1318.53 283.122 1314.74 285.028 1309.58 293.611L1308.23 295.856C1306.07 299.45 1302.57 305.273 1301.68 306.934L1301.54 307.216C1300.91 308.757 1299.14 309.497 1297.6 308.861C1296.06 308.231 1295.32 306.466 1295.96 304.919C1296.01 304.768 1296.09 304.627 1296.17 304.455C1296.89 303.054 1298.45 296.539 1300.82 268.643C1303.19 240.591 1299.03 238.627 1298.98 238.606C1297.92 238.393 1294.39 241.627 1291.94 245.585C1291.21 246.757 1289.79 247.283 1288.47 246.867C1287.16 246.45 1286.29 245.2 1286.36 243.825C1287.61 219.419 1283.48 217.919 1283.44 217.908C1281.51 217.356 1275.72 223.679 1271.7 230.7C1271.01 231.908 1269.58 232.486 1268.24 232.101C1266.91 231.71 1266 230.46 1266.06 229.07C1266.8 212.2 1263.73 210.768 1263.7 210.757C1263.67 210.747 1259.73 210.403 1249.82 226.32C1236.47 247.762 1209.79 307.903 1209.56 308.518C1209.06 309.653 1207.91 310.367 1206.66 310.309C1205.43 310.257 1204.35 309.455 1203.94 308.294C1198.91 293.486 1195.32 293.559 1195.19 293.58C1192.61 293.752 1187.13 302.252 1182.69 324.955C1178.06 348.45 1172.29 377.7 1138.21 427.445C1137.61 428.351 1136.56 428.861 1135.48 428.783C1134.39 428.705 1133.44 428.044 1132.97 427.065C1132.5 426.08 1132.6 424.919 1133.23 424.028C1166.6 375.315 1172.24 346.736 1176.76 323.783C1181.4 300.226 1187.47 288.039 1194.79 287.528C1199.34 287.226 1203.28 291.039 1207 299.45C1214.39 283.023 1233.69 240.872 1244.73 223.137C1253.47 209.033 1260.09 203.315 1265.51 205.007C1269.45 206.236 1271.55 210.778 1272.11 219.44C1275.8 214.94 1280.61 210.799 1285.2 212.127C1290.33 213.627 1292.72 220.908 1292.72 235.424C1295.15 233.351 1298.06 231.919 1300.99 232.898C1308.71 235.486 1308.32 252.684 1306.93 269.153C1306.17 277.986 1305.51 284.705 1304.92 289.83C1308.49 284.039 1314.98 275.507 1321.38 277.747C1327.24 279.762 1328.9 289.236 1326.62 307.539C1325.83 313.976 1325.36 321.637 1324.82 330.434C1322.55 367.908 1318.72 430.627 1279.72 526.45C1279.23 527.601 1278.08 528.325 1276.83 528.273Z" fill="#232323"/>
</g>
<path d="M1298.75 306.047C1291.45 319.37 1288.94 324.469 1285.59 332.443L1298.75 306.047Z" fill="white"/>
<path d="M1285.59 335.465C1284.58 335.465 1283.64 334.96 1283.07 334.116C1282.52 333.267 1282.42 332.2 1282.81 331.267C1286.33 322.887 1288.94 317.653 1296.1 304.595C1296.6 303.611 1297.59 302.981 1298.69 302.939C1299.79 302.903 1300.83 303.47 1301.39 304.418C1301.95 305.366 1301.95 306.549 1301.39 307.496C1293.91 321.163 1291.58 326.012 1288.38 333.616C1287.91 334.736 1286.81 335.47 1285.59 335.465Z" fill="#232323"/>
<path d="M1289.36 243.953C1279.88 260.672 1266.87 299.844 1260.47 320.693L1289.36 243.953Z" fill="white"/>
<path d="M1260.47 323.714C1260.17 323.714 1259.87 323.673 1259.58 323.584C1258.8 323.35 1258.16 322.818 1257.78 322.11C1257.41 321.402 1257.33 320.574 1257.56 319.803C1260.46 310.355 1275.5 262.246 1286.75 242.464C1287.59 241.011 1289.43 240.511 1290.89 241.344C1292.34 242.178 1292.84 244.032 1292 245.485C1283.54 260.402 1271.29 295.844 1263.36 321.615C1262.96 322.871 1261.79 323.719 1260.47 323.714Z" fill="#232323"/>
<path d="M1269.06 229.176C1257.22 253.65 1240.68 295.197 1234.84 311.764L1269.06 229.176Z" fill="white"/>
<path d="M1234.89 314.759C1234.54 314.754 1234.2 314.696 1233.88 314.587C1232.3 314.03 1231.48 312.301 1232.04 310.728C1238.24 293.04 1254.68 251.957 1266.35 227.858C1267.07 226.353 1268.88 225.728 1270.38 226.457C1271.89 227.186 1272.51 228.993 1271.78 230.493C1260.39 254.045 1243.74 295.592 1237.74 312.733C1237.31 313.946 1236.17 314.754 1234.89 314.759Z" fill="#232323"/>
<path d="M1206.76 307.277C1202.6 317.105 1193.74 333.715 1186.62 347.392L1206.76 307.277Z" fill="white"/>
<path d="M1186.6 350.41C1185.55 350.41 1184.57 349.853 1184.03 348.952C1183.48 348.046 1183.45 346.926 1183.94 345.988C1184.94 343.978 1186.05 341.962 1187.15 339.848C1193.4 327.91 1200.48 314.374 1203.96 306.093C1204.61 304.556 1206.39 303.837 1207.92 304.483C1209.46 305.129 1210.18 306.905 1209.53 308.441C1205.95 316.962 1198.8 330.598 1192.5 342.686C1191.41 344.77 1190.33 346.837 1189.29 348.832C1188.76 349.816 1187.72 350.426 1186.6 350.41Z" fill="#232323"/>
<path d="M1014.96 542.722C967.778 532.181 850.111 575.175 774.304 619.269C742.96 637.503 714.569 658.972 707.33 674.524C705.668 678.092 705.127 681.363 705.913 684.196C705.913 684.102 705.648 683.509 705.288 682.462C702.731 675.212 693.049 646.155 685.924 603.993C676.632 549.16 671.663 472.181 692.304 392.259C697.778 371.05 707.955 350.503 724.158 338.415C764.418 309.597 871.757 329.806 1014.96 542.722Z" fill="white"/>
<path d="M705.911 687.217C704.619 687.227 703.468 686.415 703.041 685.201V685.102C702.942 684.842 702.76 684.326 702.499 683.571V683.488C699.718 675.602 690.129 646.618 682.999 604.514C674.223 552.696 668.218 473.68 689.432 391.524C693.963 374.029 703.364 350.227 722.447 336.066C736.458 325.998 756.536 322.753 779.02 326.811C809.775 332.363 845.275 351.446 881.682 381.998C925.692 418.951 971.395 472.472 1017.56 541.071C1018.24 542.102 1018.24 543.446 1017.54 544.467C1016.84 545.488 1015.59 545.977 1014.38 545.706C968.629 535.493 851.978 577.675 775.911 621.93C740.906 642.196 716.327 662.347 710.067 675.826C708.666 678.847 708.254 681.363 708.817 683.41C709.067 684.316 708.879 685.295 708.312 686.045C707.739 686.795 706.853 687.238 705.911 687.238V687.217ZM760.702 331.113C746.973 331.113 734.978 334.446 725.937 340.915C708.317 354.008 699.499 376.446 695.218 392.993C674.275 474.123 680.213 552.232 688.89 603.498C692.754 626.758 698.166 649.732 705.083 672.269C709.109 664.535 723.312 645.467 772.781 616.691C810.906 594.535 860.114 572.446 904.406 557.67C948.984 542.795 985.478 536.175 1008.54 538.665C897.744 375.852 816.614 339.706 777.885 332.717C772.213 331.67 766.463 331.133 760.702 331.113Z" fill="#232323"/>
<mask id="mask8_433_63473" style="mask-type:luminance" maskUnits="userSpaceOnUse" x="1224" y="63" width="242" height="116">
<path d="M1224.5 63.668H1465.83V178.335H1224.5V63.668Z" fill="white"/>
</mask>
<g mask="url(#mask8_433_63473)">
<mask id="mask9_433_63473" style="mask-type:luminance" maskUnits="userSpaceOnUse" x="1224" y="34" width="247" height="173">
<path d="M1445.68 34.6367L1470.35 164.309L1249.32 206.361L1224.64 76.6888L1445.68 34.6367Z" fill="white"/>
</mask>
<g mask="url(#mask9_433_63473)">
<path d="M1393.4 175.491C1393.12 174.017 1393.83 172.538 1395.15 171.845L1460.76 137.303C1462.41 136.428 1464.46 137.074 1465.34 138.735C1466.21 140.397 1465.57 142.454 1463.91 143.329L1398.31 177.866C1397.36 178.371 1396.23 178.386 1395.26 177.918C1394.29 177.449 1393.6 176.548 1393.4 175.491ZM1225.28 80.0323C1224.98 78.4385 1225.84 76.85 1227.34 76.2458C1228.84 75.6365 1230.56 76.1781 1231.45 77.5375L1272.1 139.772C1272.77 140.788 1272.86 142.09 1272.32 143.189C1271.77 144.282 1270.68 144.996 1269.46 145.058C1268.24 145.121 1267.08 144.527 1266.42 143.496L1225.78 81.2615C1225.53 80.8865 1225.36 80.4698 1225.28 80.0323ZM1334.44 140.345C1334.35 139.866 1334.37 139.366 1334.48 138.892L1352.33 66.7406C1352.77 64.9177 1354.61 63.8083 1356.43 64.2615C1358.25 64.7146 1359.36 66.5635 1358.9 68.3865L1341.07 140.538C1340.69 142.09 1339.27 143.163 1337.68 143.116C1336.09 143.069 1334.74 141.918 1334.44 140.345Z" fill="#232323"/>
</g>
</g>
</svg>
