<svg width="3173" height="2509" viewBox="0 0 3173 2509" fill="none" xmlns="http://www.w3.org/2000/svg">
<path d="M1603.92 1573.05C1603.92 1573.05 1517.31 1269.03 1460.9 1069.7C1405.36 873.504 1349.31 884.703 1295 829.294C1242.88 776.104 1215.16 678.551 1215.16 678.551L1158.54 479.292L831.828 572.126L888.447 771.385C888.447 771.385 916.166 868.938 899.801 941.589C882.743 1017.28 829.174 1037.23 885.109 1233.32C941.93 1432.52 1028.13 1736.66 1028.13 1736.66C1028.13 1736.66 1054.51 1870.49 1190.67 1831.8L1515.7 1739.44C1651.85 1700.76 1603.92 1573.05 1603.92 1573.05Z" fill="white"/>
<path d="M1519.29 1752.08L1194.26 1844.44C1149.56 1857.14 1110.91 1853.78 1079.38 1834.47C1030.41 1804.47 1016.81 1746.65 1015.36 1739.78C1011.52 1726.27 927.625 1430.27 872.471 1236.92C829.041 1084.66 850.177 1034.36 870.625 985.722C877.009 970.538 883.033 956.2 886.977 938.699C902.402 870.24 876.075 775.92 875.806 774.971L819.188 575.717C817.204 568.734 821.258 561.462 828.241 559.478L1154.95 466.645C1161.93 464.661 1169.21 468.714 1171.19 475.697L1227.81 674.957C1228.07 675.895 1255.28 769.972 1304.4 820.09C1316.95 832.903 1329.62 841.93 1343.03 851.489C1386 882.109 1430.43 913.779 1473.55 1066.12C1528.31 1259.6 1612.6 1555.51 1616.44 1568.98C1618.81 1575.59 1637.65 1631.92 1611.77 1683.19C1595.11 1716.2 1563.99 1739.38 1519.29 1752.08ZM848.065 581.179L901.09 767.792C902.259 771.904 929.529 869.429 912.618 944.477C908.167 964.245 901.398 980.342 894.856 995.91C875.312 1042.41 856.853 1086.34 897.75 1229.71C953.927 1426.64 1039.91 1730.03 1040.78 1733.07C1040.88 1733.41 1040.96 1733.76 1041.03 1734.11C1041.13 1734.61 1052.13 1787.07 1093.28 1812.15C1118.26 1827.38 1149.82 1829.73 1187.08 1819.15L1512.1 1726.79C1549.36 1716.2 1574.97 1697.61 1588.2 1671.52C1610.01 1628.55 1591.79 1578.14 1591.6 1577.64C1591.48 1577.32 1591.37 1576.97 1591.28 1576.65C1590.41 1573.61 1504.02 1270.33 1448.25 1073.29C1407.64 929.831 1368.85 902.176 1327.77 872.899C1314.02 863.1 1299.8 852.965 1285.62 838.491C1231.77 783.547 1203.68 686.256 1202.51 682.138L1149.49 495.525L848.063 581.173L848.065 581.179Z" fill="#232323"/>
<path d="M1197.24 532.223L826.741 637.5C811.265 641.897 795.152 632.92 790.754 617.441L773.062 555.176C768.669 539.696 777.648 523.589 793.124 519.191L1163.62 413.915C1179.1 409.518 1195.21 418.496 1199.61 433.974L1217.3 496.243C1221.7 511.718 1212.72 527.826 1197.24 532.223Z" fill="#4CAF7A"/>
<path d="M888.523 1245.37L1465.72 1081.37L1560.08 1413.45L982.883 1577.46L888.523 1245.37Z" fill="white"/>
<path d="M1563.51 1425.52L986.313 1589.53C979.641 1591.43 972.703 1587.55 970.808 1580.89L876.448 1248.8C874.553 1242.13 878.424 1235.19 885.091 1233.3L1462.29 1069.29C1468.96 1067.4 1475.9 1071.27 1477.79 1077.94L1572.15 1410.02C1574.05 1416.69 1570.18 1423.63 1563.51 1425.52ZM991.526 1561.96L1544.58 1404.81L1457.08 1096.87L904.028 1254.02L991.526 1561.96Z" fill="#232323"/>
<path d="M2327.9 332.558C2475 411.571 2434.86 772.375 2238.24 1138.44C2041.62 1504.51 1762.98 1737.21 1615.87 1658.2C1468.77 1579.19 1508.91 1218.38 1705.53 852.314C1902.15 486.249 2180.79 253.548 2327.9 332.558Z" fill="white"/>
<path d="M1680.36 1686.76C1654.52 1686.76 1630.8 1681.14 1609.62 1669.76C1533.43 1628.84 1501.15 1519.34 1518.72 1361.44C1535.84 1207.61 1598.06 1024.59 1693.93 846.116C1789.8 667.631 1908.03 514.702 2026.84 415.487C2148.78 313.654 2257.89 280.105 2334.08 321.029C2410.27 361.956 2442.55 471.45 2424.98 629.349C2407.87 783.182 2345.64 966.194 2249.77 1144.68C2153.9 1323.16 2035.67 1476.09 1916.86 1575.31C1828.83 1648.83 1747.46 1686.76 1680.36 1686.76ZM2263.89 330.608C2203.08 330.608 2126.17 366.779 2043.69 435.668C1927.4 532.777 1811.41 682.967 1717.09 858.558C1622.77 1034.15 1561.6 1213.78 1544.84 1364.35C1528.77 1508.74 1556.92 1611.62 1622.05 1646.6C1687.18 1681.59 1788.5 1648.25 1900.01 1555.13C2016.3 1458.02 2132.29 1307.83 2226.61 1132.24C2320.92 956.645 2382.1 777.018 2398.85 626.442C2414.92 482.055 2386.78 379.178 2321.64 344.189C2304.69 335.084 2285.29 330.608 2263.89 330.608Z" fill="#232323"/>
<path d="M2231.67 751.641C2229.86 751.641 2228.02 751.248 2226.27 750.423C2094.57 688.24 1927.65 716.805 1925.99 717.102C1919.1 718.319 1912.52 713.725 1911.29 706.834C1910.07 699.944 1914.66 693.365 1921.55 692.139C1928.69 690.87 2097.96 661.803 2237.09 727.494C2243.43 730.488 2246.14 738.041 2243.14 744.369C2240.98 748.958 2236.43 751.641 2231.67 751.641Z" fill="#232323"/>
<path d="M2123.93 972.62C2122.12 972.62 2120.27 972.228 2118.52 971.403C1986.82 909.219 1819.9 937.784 1818.24 938.081C1811.34 939.296 1804.77 934.704 1803.55 927.814C1802.32 920.923 1806.91 914.344 1813.8 913.119C1820.95 911.85 1990.22 882.782 2129.35 948.473C2135.68 951.464 2138.39 959.021 2135.4 965.349C2133.23 969.938 2128.68 972.62 2123.93 972.62Z" fill="#232323"/>
<path d="M2019.93 1193.6C2018.11 1193.6 2016.27 1193.21 2014.52 1192.38C1882.61 1130.1 1715.91 1158.76 1714.24 1159.06C1707.35 1160.29 1700.77 1155.69 1699.54 1148.8C1698.31 1141.91 1702.91 1135.33 1709.8 1134.1C1716.94 1132.83 1886.2 1103.77 2025.34 1169.46C2031.68 1172.45 2034.38 1180 2031.39 1186.34C2029.23 1190.92 2024.67 1193.6 2019.93 1193.6Z" fill="#232323"/>
<path d="M543.439 2072.32C531.048 2012.42 538.403 1771.4 917.437 1698.35C1157.76 1652.03 1405.06 1772.32 1599.13 1757.35C1674.45 1751.55 1755.98 1655.14 1830.9 1679.48C1912.36 1705.94 1914.07 1863.09 1838.74 1878.04C1767.74 1892.13 1714.56 1827.65 1616.53 1875.49C1377.5 1992.13 1268.77 2173.01 996.558 2260.12C859.232 2304.06 594.52 2319.23 543.439 2072.32Z" fill="white"/>
<path d="M1863.11 1886.41C1856.59 1890.06 1849.51 1892.69 1841.94 1894.19C1809.66 1900.59 1781.12 1892.8 1753.52 1885.27C1714.11 1874.51 1676.88 1864.35 1623.75 1890.28C1522.91 1939.48 1444.2 2001.43 1368.09 2061.32C1265.77 2141.84 1159.97 2225.11 1001.58 2275.79C848.687 2324.71 720.71 2299.22 651.919 2259.05C586.514 2220.86 544.587 2159.15 527.317 2075.66C519.64 2038.55 521.126 1954.04 575.394 1872.68C638.964 1777.36 752.995 1713.27 914.327 1682.18C1054.47 1655.17 1193.14 1682.77 1327.24 1709.48C1424.66 1728.87 1516.67 1747.19 1597.87 1740.93C1626.32 1738.74 1657.15 1721.16 1689.78 1702.55C1737.15 1675.54 1786.11 1647.62 1835.99 1663.82C1891.09 1681.73 1912.9 1745.35 1909.85 1796.89C1907.36 1839 1890.01 1871.37 1863.11 1886.41ZM1562 1885.44C1577.24 1876.92 1592.98 1868.65 1609.31 1860.68C1673.59 1829.31 1720.65 1842.16 1762.19 1853.49C1788.3 1860.62 1810.85 1866.78 1835.53 1861.88C1863.52 1856.33 1875.35 1822.34 1876.97 1794.93C1879.38 1754.38 1862.56 1707.07 1825.81 1695.13C1789.78 1683.43 1749.12 1706.61 1706.1 1731.15C1671.74 1750.74 1636.22 1771 1600.4 1773.76C1514.69 1780.37 1420.51 1761.62 1320.8 1741.77C1189.81 1715.69 1054.36 1688.72 920.553 1714.51C768.199 1743.88 661.286 1803.24 602.788 1890.95C554.555 1963.27 552.926 2036.89 559.566 2068.99C574.868 2142.95 611.525 2197.33 668.53 2230.62C764.209 2286.49 902.332 2272.98 991.544 2244.43C1144.28 2195.56 1243.1 2117.78 1347.73 2035.45C1413.03 1984.06 1480.21 1931.18 1562 1885.44Z" fill="#232323"/>
<path d="M1079.02 1999.53C1077.44 2000.41 1075.64 2000.97 1073.71 2001.1C928.181 2011.12 796.673 2117.5 795.361 2118.58C789.948 2123.02 781.958 2122.21 777.525 2116.8C773.091 2111.38 773.886 2103.39 779.304 2098.96C784.911 2094.37 918.464 1986.38 1071.97 1975.81C1078.95 1975.33 1085.01 1980.6 1085.48 1987.59C1085.83 1992.64 1083.17 1997.21 1079.02 1999.53Z" fill="#232323"/>
<path d="M990.127 1840.56C988.543 1841.44 986.746 1842 984.815 1842.14C839.286 1852.16 707.778 1958.54 706.466 1959.61C701.053 1964.05 693.063 1963.25 688.63 1957.83C684.196 1952.41 684.991 1944.43 690.409 1939.99C696.016 1935.4 829.569 1827.42 983.072 1816.85C990.06 1816.36 996.11 1821.64 996.59 1828.62C996.94 1833.67 994.27 1838.24 990.127 1840.56Z" fill="#232323"/>
<path d="M2168.78 1964.32C2207.09 1960.19 2370.68 1946.86 2521.9 2059.05C2647.47 2152.22 2690.28 2276.86 2702.81 2319.29C2653.53 2320.25 2518.54 2316.44 2382.28 2226.71C2243.57 2135.37 2186.87 2009.89 2168.78 1964.32Z" fill="#4CAF7A"/>
<path d="M2151.72 1969.43C2183.34 1947.4 2320.43 1857.14 2506.94 1882.92C2661.83 1904.33 2759.24 1993.09 2790.61 2024.28C2747.85 2048.8 2627.62 2110.29 2465 2097.04C2299.47 2083.55 2189.48 2000.72 2151.72 1969.43Z" fill="#4CAF7A"/>
<path d="M1788.58 2004.21C1616.51 1914.95 1520.29 1742.39 1545.82 1591.56C1552.69 1550.99 1547.27 1507.91 1530.72 1465.89C1524.84 1450.95 1525.26 1436.44 1532 1426.81C1539.68 1415.84 1556.64 1409.66 1576.43 1410.73C1623.99 1413.3 1669.01 1403.78 1708.14 1385.7C1824.74 1331.82 1973.5 1337.07 2100.56 1402.82C2293.88 1502.88 2404.57 1726.23 2316.31 1896.37C2230.74 2061.31 1992.52 2110.01 1788.58 2004.21Z" fill="white"/>
<path d="M1980.24 1352.93C2022.94 1362.01 2064.64 1376.85 2103.57 1397C2198.86 1446.31 2277.74 1527.81 2319.99 1620.6C2364.23 1717.75 2364.99 1816.76 2322.13 1899.39C2279.82 1980.95 2200.27 2037.37 2098.15 2058.24C1996.53 2079.01 1885.52 2061.89 1785.56 2010.03C1700.89 1966.11 1632.38 1901.87 1587.42 1824.26C1543.68 1748.75 1526.61 1665.72 1539.35 1590.47C1545.92 1551.69 1540.82 1509.44 1524.61 1468.29C1517.93 1451.31 1518.68 1434.4 1526.62 1423.05C1535.59 1410.23 1554.81 1402.99 1576.78 1404.18C1621.14 1406.57 1665.61 1398.13 1705.39 1379.75C1763.83 1352.74 1831.36 1339.98 1900.69 1342.84C1927.3 1343.94 1953.96 1347.35 1980.24 1352.93ZM1917.14 2043.63C1977.12 2056.38 2037.89 2057.17 2095.52 2045.39C2193.69 2025.33 2270.03 1971.33 2310.48 1893.34C2351.45 1814.37 2350.59 1719.44 2308.05 1626.03C2267 1535.87 2190.27 1456.64 2097.54 1408.65C2036.35 1376.98 1968.09 1358.76 1900.15 1355.95C1832.89 1353.17 1767.45 1365.52 1710.89 1391.65C1669.18 1410.92 1622.56 1419.79 1576.07 1417.28C1558.86 1416.35 1543.67 1421.57 1537.37 1430.57C1531.96 1438.31 1531.75 1450.61 1536.82 1463.49C1553.9 1506.86 1559.25 1551.52 1552.29 1592.66C1540.06 1664.9 1556.56 1744.82 1598.77 1817.69C1642.48 1893.13 1709.15 1955.62 1791.6 1998.39C1832.08 2019.39 1874.41 2034.54 1917.14 2043.63Z" fill="#232323"/>
<path d="M2091.86 1757.18C2092.2 1757.25 2092.54 1757.35 2092.88 1757.48C2096.25 1758.8 2097.93 1762.59 2096.61 1765.97C2056.79 1868.45 1957.37 1988.86 1825.06 2026.87C1821.58 2027.88 1817.94 2025.86 1816.94 2022.38C1815.94 2018.9 1817.95 2015.27 1821.43 2014.27C1949.43 1977.49 2045.73 1860.68 2084.38 1761.22C2085.57 1758.18 2088.77 1756.52 2091.86 1757.18Z" fill="#232323"/>
<path d="M1929.27 1801.2C1930.1 1801.38 1930.92 1801.72 1931.66 1802.24C1934.63 1804.32 1935.35 1808.4 1933.28 1811.38C1882.87 1883.53 1809.37 1942.86 1731.61 1974.16C1728.25 1975.51 1724.44 1973.88 1723.08 1970.52C1721.73 1967.16 1723.36 1963.34 1726.72 1961.99C1802.17 1931.61 1873.54 1873.98 1922.52 1803.86C1924.08 1801.64 1926.77 1800.67 1929.27 1801.2Z" fill="#232323"/>
<path d="M1758.21 1802.62C1759.39 1802.87 1760.51 1803.45 1761.43 1804.36C1764.02 1806.89 1764.06 1811.05 1761.52 1813.63C1721.29 1854.61 1684.53 1882.9 1649.13 1900.11C1645.87 1901.69 1641.94 1900.33 1640.36 1897.08C1638.78 1893.82 1640.13 1889.89 1643.39 1888.31C1677.42 1871.77 1713 1844.33 1752.16 1804.44C1753.79 1802.78 1756.09 1802.17 1758.21 1802.62Z" fill="#232323"/>
<path d="M2003.22 106.146C1984.5 125.969 1926.42 145.902 1956.83 171.329C1967.96 180.636 2041.2 167.381 2035.14 224.693C2025.17 319.021 1795.96 313.469 1839.62 358.381C1847.71 366.709 1878.22 380.256 1889.82 411.803C1923.64 503.73 1805.52 525.995 1729.5 638.839C1651.94 753.974 1660.92 869.735 1618.72 871.735C1600.21 872.61 1608.32 807.594 1614.07 737.49C1621.44 647.558 1644.52 278.058 1746.06 119.777C1887.12 -100.151 2067.22 38.3651 2003.22 106.146Z" fill="#4CAF7A"/>
<path d="M1301.82 190.797C1345.64 173.787 1536.39 165.146 1593.55 442.251C1629.46 616.355 1630.84 864.136 1584.02 820.068C1566.44 803.511 1588.52 646.844 1536.73 639.657C1518.95 637.193 1485.79 643.823 1478.4 621.136C1474.62 609.516 1481.62 598.058 1498.35 584.386C1514.44 571.24 1514.84 559.808 1481.93 554.297C1431.14 545.797 1270.29 506.751 1313.05 412.74C1328.4 378.98 1381.8 352.141 1333.49 336.943C1232.85 305.303 1224.06 220.99 1301.82 190.797Z" fill="#4CAF7A"/>
<path d="M1723.77 1451.66L1772.48 1071.77L1774.73 1054.14L1723.77 1451.66ZM1723.77 1451.66L1723.78 1451.68L1723.77 1451.66ZM1773.18 971.829L1773.18 971.829C1773.86 966.533 1774.27 961.206 1774.43 955.871C1776.93 866.83 1706.79 792.619 1617.75 790.11L1773.18 971.829ZM1773.18 971.829L1762.82 1052.61L1762.82 1052.62M1773.18 971.829L1762.82 1052.62M1762.82 1052.62L1760.58 1070.24L1760.58 1070.25L1711.87 1450.13L1711.4 1453.75M1762.82 1052.62L1711.4 1453.75M1711.4 1453.75L1711.41 1453.77M1711.4 1453.75L1711.41 1453.77M1711.41 1453.77L1709.6 1467.77L1709.6 1467.78L1662.59 1834.61L1662.59 1834.62L1660.31 1852.24L1660.31 1852.25L1611.61 2232.16L1611.61 2232.17L1609.37 2249.79L1609.37 2249.8L1580.36 2476.02L1580.35 2476.03L1580.35 2476.04C1579.37 2483.8 1572.29 2489.3 1564.52 2488.32C1557.78 2487.47 1552.6 2481.95 1552.16 2475.18L1552.16 2475.17L1552.16 2475.16L1517.78 1954.61L1517.77 1954.59L1516.54 1935.54L1516.24 1931.03L1516.22 1931.01L1493.9 1592.88L1493.9 1592.88L1492.64 1573.78L1492.64 1573.78L1462.33 1114.73L1462.17 1112.31L1462.16 1112.29L1461.06 1095.6L1461.06 1095.6L1452.23 961.985L1452.23 961.985C1446.36 873.098 1513.66 796.277 1602.55 790.401L1602.56 790.401C1607.6 790.062 1612.67 789.969 1617.74 790.11L1711.41 1453.77Z" fill="white" stroke="black" stroke-width="24"/>
<path d="M1624.58 1001.42C1625.96 998.131 1629.21 996.026 1632.77 996.12C1633.82 996.146 1634.84 996.365 1635.79 996.776L1774.73 1054.14L1772.48 1071.77L1629.24 1012.63C1624.86 1010.82 1622.77 1005.8 1624.58 1001.42Z" fill="white"/>
<path d="M1449.1 1096.38L1586.7 1153.21C1591.11 1154.96 1593.26 1159.95 1591.51 1164.37C1589.76 1168.78 1584.77 1170.93 1580.36 1169.18C1580.29 1169.15 1580.22 1169.12 1580.15 1169.09L1450.36 1115.52L1450.35 1115.5L1449.1 1096.38Z" fill="white"/>
<path d="M1612.89 1415.19C1614.26 1411.89 1617.52 1409.77 1621.09 1409.86C1622.12 1409.9 1623.15 1410.13 1624.1 1410.52L1723.76 1451.66L1723.77 1451.68L1721.5 1469.31L1617.55 1426.4C1613.17 1424.59 1611.08 1419.58 1612.88 1415.2C1612.89 1415.19 1612.89 1415.19 1612.89 1415.19Z" fill="white"/>
<path d="M1480.67 1574.57L1585.52 1617.85C1589.87 1619.76 1591.85 1624.83 1589.95 1629.18C1588.09 1633.4 1583.24 1635.41 1578.94 1633.74L1481.93 1593.67L1480.67 1574.57Z" fill="white"/>
<path d="M1581.01 1806.84C1582.36 1803.54 1585.61 1801.42 1589.18 1801.52C1590.23 1801.54 1591.26 1801.76 1592.23 1802.18L1674.49 1836.15L1672.22 1853.78L1585.68 1818.06C1581.3 1816.24 1579.21 1811.23 1581.01 1806.84Z" fill="white"/>
<path d="M1504.56 1936.32L1575.7 1965.68C1580.08 1967.5 1582.17 1972.52 1580.35 1976.91C1578.53 1981.29 1573.5 1983.37 1569.12 1981.55L1505.8 1955.4L1504.56 1936.32Z" fill="white"/>
<path d="M1557.57 2215.72C1558.91 2212.42 1562.17 2210.3 1565.74 2210.4C1566.78 2210.44 1567.81 2210.66 1568.79 2211.06L1623.53 2233.68L1621.29 2251.31L1562.2 2226.94C1557.83 2225.13 1555.75 2220.11 1557.56 2215.74C1557.56 2215.74 1557.56 2215.73 1557.57 2215.72Z" fill="white"/>
<path d="M1294.08 1167.68C1310.4 1335.96 995.786 1440.35 1202.08 1782.68C1229.97 1828.95 1346.41 1830.67 1315.85 1867.61C1311.59 1872.8 1308.19 1878.16 1305.51 1883.63C1303.39 1887.95 1301.69 1892.35 1300.34 1896.69C1300.04 1897.46 1299.82 1898.26 1299.58 1899.05C1298.47 1902.87 1297.57 1906.62 1296.84 1910.27C1292.74 1930.07 1292.98 1946.87 1284.58 1952.05C1241.79 1978.43 1194.19 1863.73 1131.38 1868.97C927.125 1886 873.004 1784.02 653.622 1833.74C572.725 1852.07 504.247 1856.55 464.169 1814.57C416.402 1764.51 441.659 1725 445.237 1689.65C450.069 1641.86 250.618 1679.84 241.412 1554.39C235.714 1476.86 325.381 1478.14 336.688 1448.4C358.834 1390.11 295.758 1368.84 305.982 1314.76C322.133 1229.39 437.416 1275.17 463.87 1230.7C513.164 1147.85 334.33 1087.78 403.358 965.549C456.302 871.808 569.68 957.254 625.728 934.944C666.961 918.52 663.229 845.784 721.16 850.213C788.571 855.384 794.337 952.867 840.739 916.262C928.649 846.821 1034.89 893.645 999.997 1084.96C991.918 1129.17 1025.17 1130.16 1119.75 1073.05C1208.47 1019.48 1287.62 1101.05 1294.08 1167.68Z" fill="#4CAF7A"/>
<path d="M883.442 1607.77C862.958 1579.09 844.333 1546.69 829.046 1510.17C826.95 1505.16 829.307 1499.4 834.317 1497.3C839.327 1495.2 845.084 1497.56 847.185 1502.57C912.085 1657.57 1039.61 1735.81 1106.54 1767.66C1064.6 1717.88 1002.74 1617.24 1032.87 1480.19C1034.03 1474.88 1039.28 1471.53 1044.58 1472.69C1049.88 1473.86 1053.24 1479.1 1052.07 1484.41C1011.02 1671.17 1151.67 1786.11 1153.09 1787.25C1156.78 1790.2 1157.86 1795.36 1155.65 1799.53C1153.45 1803.71 1148.58 1805.73 1144.07 1804.33C1142.23 1803.77 988.47 1754.82 883.442 1607.77Z" fill="white"/>
<path d="M926.582 1782.41C924.536 1779.54 924.1 1775.67 925.778 1772.3C928.2 1767.44 934.101 1765.46 938.962 1767.88C1031.59 1813.97 1132.81 1812.1 1133.82 1812.07C1139.25 1811.94 1143.76 1816.23 1143.89 1821.66C1144.02 1827.1 1139.72 1831.6 1134.29 1831.73C1129.96 1831.84 1027.15 1833.73 930.208 1785.49C928.711 1784.75 927.487 1783.67 926.582 1782.41Z" fill="white"/>
<path d="M537.609 1739.91C537.555 1739.83 537.5 1739.75 537.448 1739.67C524.05 1719.75 520.928 1698.57 528.653 1680.03C537.006 1659.99 556.621 1646.08 583.884 1640.87C601.932 1637.41 613.73 1625.67 613.944 1610.96C614.184 1594.43 598.279 1571.53 552.656 1561.42C486.515 1546.77 460.882 1516.41 458.942 1492.88C457.476 1475.09 468.438 1459.71 488.264 1451.74C507.784 1443.88 528.045 1444.37 547.641 1444.83C575.623 1445.49 599.792 1446.06 617.739 1422.89C627.649 1410.09 620.719 1395.24 608.124 1372.31C596.528 1351.19 583.388 1327.26 597.347 1304.44C612.039 1280.42 635.414 1281.72 654.202 1282.76C672.929 1283.8 689.099 1284.7 701.434 1266.63C712.37 1250.61 706.253 1225.24 700.33 1200.71C692.96 1170.16 685.338 1138.57 708.899 1119.17C738.192 1095.05 769.354 1119.44 794.394 1139.04C811.495 1152.42 829.179 1166.26 843.573 1164.89C851.454 1164.14 861.109 1157.95 871.334 1151.39C893.4 1137.25 923.623 1117.88 959.212 1143.61C974.728 1154.83 980.801 1172.71 986.676 1190C994.731 1213.71 1001.68 1234.19 1029.96 1241.2C1047.15 1245.46 1064.38 1240.59 1077.23 1227.84C1088.31 1216.85 1093.37 1202.43 1090.45 1190.21C1089.18 1184.93 1092.44 1179.62 1097.72 1178.36C1103 1177.1 1108.31 1180.35 1109.58 1185.64C1114.09 1204.49 1107 1226.01 1091.08 1241.81C1073.5 1259.25 1048.88 1266.15 1025.22 1260.29C986.522 1250.69 976.284 1220.55 968.055 1196.34C962.947 1181.3 958.12 1167.1 947.687 1159.55C924.622 1142.87 907.462 1151.6 881.941 1167.96C869.656 1175.83 858.051 1183.27 845.428 1184.47C823.234 1186.58 802.407 1170.28 782.269 1154.52C755.036 1133.21 737.346 1121.22 721.393 1134.36C708.288 1145.14 711.916 1164.88 719.444 1196.1C726.046 1223.47 733.529 1254.49 717.669 1277.73C699.078 1304.96 673.587 1303.54 653.104 1302.4C633.672 1301.32 622.282 1301.36 614.122 1314.7C606.647 1326.92 613.379 1341.04 625.358 1362.85C637.756 1385.42 651.814 1411.02 633.283 1434.94C609.251 1465.96 576.268 1465.18 547.168 1464.5C528.755 1464.06 511.363 1463.65 495.596 1469.99C488.792 1472.73 477.534 1479.13 478.534 1491.27C479.937 1508.3 504.71 1530.67 556.897 1542.23C614.006 1554.88 633.966 1586.18 633.6 1611.25C633.248 1635.32 614.754 1654.99 587.57 1660.19C567.006 1664.12 552.527 1673.85 546.799 1687.6C541.697 1699.84 544.171 1714.44 553.757 1728.7C556.787 1733.21 555.59 1739.32 551.081 1742.35C546.669 1745.33 540.692 1744.22 537.609 1739.91Z" fill="white"/>
<path d="M1879.66 1148.21C1883.06 1317.24 2207.69 1384.28 2042.69 1748.3C2020.38 1797.51 1904.92 1812.78 1939.58 1845.91C1944.42 1850.56 1948.42 1855.49 1951.72 1860.61C1954.33 1864.66 1956.53 1868.83 1958.37 1872.98C1958.76 1873.72 1959.08 1874.48 1959.4 1875.24C1960.95 1878.9 1962.28 1882.52 1963.43 1886.06C1969.81 1905.24 1971.53 1921.97 1980.47 1926.13C2026.04 1947.35 2059.96 1827.88 2122.95 1825.77C2327.8 1818.89 2369.67 1711.3 2593.35 1735.13C2675.84 1743.9 2744.37 1740.38 2779.28 1694.02C2820.9 1638.74 2791.21 1602.44 2783.54 1567.75C2773.17 1520.84 2975.69 1535.33 2970.22 1409.66C2966.85 1331.99 2877.94 1343.71 2863.24 1315.49C2834.46 1260.18 2894.63 1231.71 2878.17 1179.18C2852.19 1096.28 2743.02 1155.17 2711.57 1114.09C2652.96 1037.55 2823.58 957.049 2740.78 843.694C2677.28 756.759 2574.63 854.83 2516.36 839.201C2473.5 827.692 2468.73 755.016 2411.71 766.163C2345.36 779.152 2350.99 876.642 2300.64 845.692C2205.24 786.964 2105.18 845.844 2162.11 1031.79C2175.29 1074.76 2142.38 1079.62 2041.79 1033.92C1947.43 991.041 1878.32 1081.28 1879.66 1148.21Z" fill="#4CAF7A"/>
<path d="M2338.78 1537.46C2355.78 1506.59 2370.5 1472.24 2381.43 1434.19C2382.93 1428.97 2379.92 1423.53 2374.7 1422.02C2369.48 1420.53 2364.04 1423.54 2362.53 1428.76C2316.13 1590.26 2198.58 1682.83 2135.82 1722.25C2171.67 1667.93 2221.4 1560.77 2175.51 1428.16C2173.73 1423.02 2168.13 1420.3 2163 1422.08C2157.87 1423.85 2155.15 1429.45 2156.93 1434.58C2219.45 1615.29 2093.15 1745.83 2091.87 1747.13C2088.55 1750.49 2088.08 1755.74 2090.76 1759.63C2093.44 1763.52 2098.5 1764.96 2102.82 1763.05C2104.58 1762.27 2251.59 1695.75 2338.78 1537.46Z" fill="white"/>
<path d="M2316.27 1715.94C2317.97 1712.86 2317.95 1708.96 2315.89 1705.81C2312.92 1701.26 2306.83 1699.98 2302.28 1702.95C2215.66 1759.52 2114.91 1769.45 2113.9 1769.54C2108.5 1770.05 2104.52 1774.83 2105.02 1780.24C2105.52 1785.65 2110.31 1789.63 2115.72 1789.13C2120.03 1788.73 2222.37 1778.63 2313.03 1719.42C2314.43 1718.51 2315.52 1717.3 2316.27 1715.94Z" fill="white"/>
<path d="M2697.65 1628.42C2697.69 1628.34 2697.74 1628.25 2697.78 1628.17C2708.77 1606.82 2709.4 1585.42 2699.57 1567.91C2688.94 1548.97 2667.84 1537.45 2640.15 1535.44C2621.82 1534.11 2608.74 1523.83 2606.81 1509.24C2604.65 1492.85 2617.78 1468.25 2661.91 1452.9C2725.9 1430.65 2747.82 1397.51 2747 1373.91C2746.39 1356.07 2733.71 1342.07 2713.09 1336.47C2692.79 1330.94 2672.72 1333.78 2653.31 1336.52C2625.6 1340.43 2601.66 1343.82 2581.13 1322.89C2569.8 1311.34 2574.95 1295.78 2584.79 1271.54C2593.85 1249.21 2604.11 1223.92 2587.59 1202.87C2570.2 1180.73 2547.14 1184.74 2528.6 1187.97C2510.12 1191.18 2494.16 1193.96 2479.81 1177.45C2467.08 1162.81 2470.2 1136.9 2473.22 1111.84C2476.99 1080.65 2480.88 1048.38 2455.22 1031.86C2423.31 1011.32 2395.2 1039.17 2372.62 1061.55C2357.19 1076.83 2341.24 1092.64 2326.78 1092.95C2318.87 1093.13 2308.56 1088.1 2297.64 1082.79C2274.08 1071.31 2241.8 1055.59 2209.45 1085.29C2195.35 1098.24 2191.4 1116.71 2187.58 1134.57C2182.34 1159.05 2177.82 1180.2 2150.56 1190.46C2133.98 1196.69 2116.3 1193.86 2102.05 1182.69C2089.77 1173.07 2083.06 1159.34 2084.54 1146.86C2085.18 1141.47 2081.33 1136.58 2075.93 1135.94C2070.54 1135.3 2065.65 1139.15 2065.01 1144.55C2062.72 1163.8 2072.27 1184.35 2089.92 1198.18C2109.42 1213.46 2134.67 1217.45 2157.48 1208.87C2194.8 1194.83 2201.46 1163.7 2206.81 1138.69C2210.13 1123.16 2213.27 1108.49 2222.76 1099.78C2243.72 1080.53 2261.78 1087.2 2289.03 1100.47C2302.15 1106.86 2314.55 1112.9 2327.22 1112.62C2349.51 1112.13 2368.3 1093.52 2386.46 1075.52C2411.03 1051.18 2427.2 1037.21 2444.58 1048.4C2458.85 1057.59 2457.54 1077.61 2453.7 1109.49C2450.33 1137.45 2446.52 1169.13 2464.97 1190.36C2486.61 1215.24 2511.76 1210.86 2531.97 1207.35C2551.15 1204.01 2562.47 1202.72 2572.12 1215.02C2580.97 1226.28 2575.93 1241.09 2566.57 1264.15C2556.89 1288.01 2545.91 1315.07 2567.1 1336.67C2594.58 1364.69 2627.25 1360.07 2656.07 1356C2674.31 1353.42 2691.53 1350.98 2707.93 1355.45C2715.01 1357.37 2726.94 1362.42 2727.36 1374.6C2727.95 1391.68 2705.95 1416.77 2655.46 1434.33C2600.22 1453.55 2584.04 1486.96 2587.32 1511.82C2590.48 1535.69 2611.14 1553.06 2638.74 1555.06C2659.62 1556.57 2675.14 1564.55 2682.43 1577.54C2688.92 1589.1 2688.16 1603.89 2680.3 1619.17C2677.82 1624 2679.72 1629.93 2684.55 1632.42C2689.28 1634.86 2695.09 1633.06 2697.65 1628.42Z" fill="white"/>
</svg>
