<svg width="2501" height="2200" viewBox="0 0 2501 2200" fill="none" xmlns="http://www.w3.org/2000/svg">
<path d="M1279.15 334.172L1286.3 397.932V397.953C1286.36 398.984 1285.92 399.995 1285.13 400.646L1284.92 400.818C1284.88 400.844 1284.83 400.885 1284.79 400.917C1284.79 400.917 1284.66 401.026 1284.66 401.026C1284.6 401.073 1284.55 401.115 1284.51 401.156C1284.43 401.214 1284.36 401.266 1284.29 401.328C1276.17 408.021 1266.39 419.333 1255.18 434.953C1254.92 435.312 1254.66 435.672 1254.4 436.042C1241.64 453.943 1227.03 477.448 1210.91 505.979C1209.77 508 1208.62 510.042 1207.46 512.115C1203.88 518.521 1200.19 525.25 1196.47 532.115C1196.21 532.604 1195.94 533.094 1195.68 533.589C1190.84 542.578 1185.95 551.844 1181.14 561.135C1167.5 587.464 1157.06 608.984 1153.21 617.026C1152.45 618.604 1151.7 620.187 1150.96 621.771C1150.42 622.891 1149.3 623.599 1148.06 623.604C1147.48 623.604 1146.93 623.453 1146.43 623.161C1145.5 622.609 1053.56 568.474 1016.27 566.974C1014.71 566.917 1013.41 565.734 1013.21 564.177C1012.82 561.167 1012.28 558.141 1011.59 555.187C1011.59 555.172 1011.59 555.141 1011.58 555.12C1011.34 554.068 1011.08 553.016 1010.8 551.974L1010.79 551.964C1007.56 539.766 1002.08 527.958 995.646 517.109C981.802 493.714 963.573 474.724 954.12 465.646C941.255 453.339 933.766 437.042 932.464 418.505C931.255 401.448 935.495 383.365 944.407 367.599C953.802 350.953 967.427 338.109 983.792 330.458C1000.68 322.573 1019.81 320.771 1039.4 325.167C1037.37 296.865 1055.9 268.615 1085.86 255.25C1111.56 243.797 1148.59 243.349 1176.92 275.432C1177.24 275.062 1177.54 274.693 1177.85 274.328C1192.25 257.271 1203.61 243.786 1235.41 243.786C1235.73 243.786 1236.05 243.776 1236.36 243.839C1259.55 248.193 1275.37 258.245 1283.41 273.719C1296.28 298.484 1285.53 326.719 1279.28 334.026C1279.23 334.073 1279.19 334.125 1279.15 334.172Z" fill="#232323"/>
<path d="M1400.41 650.271C1369.49 714.448 1285.25 722.755 1276.58 723.458C1276.5 723.474 1276.46 723.474 1276.46 723.474C1280.85 746.068 1285.74 768.563 1291.11 790.943C1293.93 802.646 1296.86 814.318 1299.94 825.953C1301.34 831.26 1302.77 836.563 1304.23 841.854C1304.66 843.438 1305.09 845.01 1305.54 846.583C1305.93 848.016 1306.32 849.438 1306.73 850.854C1302.93 862.073 1297.7 870.521 1292.42 876.906C1282.02 889.49 1268.51 897.625 1253.87 902.693C1250.88 903.724 1247.85 904.635 1244.78 905.427C1198.69 917.281 1145.63 902.875 1142.02 901.833C1142.02 901.833 1101.97 888.63 1082.62 863.099C1079.06 858.406 1075.93 853.406 1073.27 848.156C1070.63 842.979 1068.44 837.583 1066.72 832.031C1066.66 831.859 1066.6 831.677 1066.55 831.5C1066.74 828.828 1066.95 826.146 1067.14 823.464C1070.11 782.333 1072.32 741.151 1073.78 699.938C1073.86 697.438 1073.95 694.922 1074.03 692.432V692.422C1074.04 691.995 1074.06 691.578 1074.07 691.146C926.208 708.885 917.854 547.401 1014.92 555.401C1034.88 557.026 1059.3 565.859 1087.9 584.875C1139.46 614.089 1109.8 529.427 1160.67 463.146C1166.53 455.5 1173.46 448.099 1181.72 441.146C1201.25 424.698 1228.19 410.745 1265.79 401.979C1271.37 400.677 1276.98 399.531 1282.63 398.542L1283.28 398.427C1284.24 401.214 1285.22 403.99 1286.22 406.76C1287.02 409.016 1287.83 411.26 1288.67 413.495C1288.98 414.38 1289.32 415.266 1289.64 416.141C1290.53 418.542 1291.44 420.938 1292.36 423.328C1293.16 425.432 1293.97 427.531 1294.81 429.62C1295.05 430.271 1295.3 430.912 1295.56 431.563C1303.55 451.708 1312.38 471.505 1322.04 490.901C1351.1 549.214 1405.99 556.599 1410.87 602.188C1413.19 623.755 1405 640.755 1400.41 650.276V650.271Z" fill="white"/>
<path d="M1204.3 913.125C1170.91 913.125 1142.82 905.193 1141.19 904.724C1141.15 904.714 1141.11 904.698 1141.08 904.688C1139.41 904.135 1099.92 890.891 1080.23 864.912C1076.57 860.078 1073.34 854.927 1070.59 849.521C1067.89 844.208 1065.65 838.677 1063.87 832.984C1063.8 832.771 1063.73 832.552 1063.67 832.339C1063.57 831.995 1063.53 831.635 1063.56 831.281L1063.74 828.807C1063.88 826.964 1064.02 825.109 1064.14 823.26C1067.11 782.162 1069.33 741.01 1070.79 699.828L1070.91 696.151L1070.96 694.51C1021.16 699.604 980.984 684.5 960.422 652.802C945.266 629.427 943.693 600.547 956.427 579.229C967.875 560.047 989.292 550.276 1015.17 552.406C1037.32 554.214 1062.33 564.276 1089.47 582.313C1098.53 587.427 1105.04 588.948 1109.37 586.964C1116.79 583.557 1119.67 569.083 1123.32 550.76C1128.29 525.771 1135.09 491.542 1158.3 461.313C1164.54 453.156 1171.78 445.599 1179.8 438.849C1201.47 420.589 1230.18 407.198 1265.11 399.057C1270.74 397.74 1276.41 396.583 1282.11 395.583L1282.77 395.469C1284.21 395.214 1285.64 396.052 1286.12 397.448C1287.07 400.219 1288.05 402.984 1289.05 405.74C1289.84 408 1290.66 410.224 1291.48 412.453C1291.73 413.151 1291.97 413.807 1292.22 414.453L1292.45 415.089C1293.34 417.484 1294.24 419.865 1295.16 422.25C1295.97 424.354 1296.77 426.438 1297.59 428.505C1297.85 429.188 1298.09 429.813 1298.35 430.443C1306.31 450.51 1315.11 470.234 1324.73 489.563C1338.29 516.76 1357.71 532.76 1374.85 546.875C1394.34 562.917 1411.17 576.771 1413.85 601.87C1416.27 624.313 1407.71 642.052 1403.11 651.578C1373.91 712.214 1298.47 724.115 1280.05 726.141C1284.27 747.604 1288.93 768.974 1294.04 790.24C1296.84 801.922 1299.78 813.573 1302.84 825.188C1304.24 830.484 1305.67 835.771 1307.12 841.052C1307.55 842.63 1307.98 844.193 1308.43 845.75C1308.82 847.182 1309.21 848.609 1309.62 850.037C1309.78 850.62 1309.77 851.245 1309.57 851.823C1306.12 862.01 1301.12 871.099 1294.73 878.823C1284.82 890.818 1271.4 899.807 1254.86 905.531C1251.79 906.589 1248.68 907.526 1245.54 908.339C1231.84 911.859 1217.65 913.13 1204.3 913.13V913.125ZM1142.9 898.964C1144.95 899.542 1198.34 914.271 1244.04 902.521C1247.05 901.74 1250.04 900.844 1252.9 899.854C1268.38 894.495 1280.9 886.13 1290.1 874.99C1295.85 868.052 1300.38 859.906 1303.58 850.766C1303.27 849.635 1302.96 848.505 1302.65 847.375C1302.2 845.802 1301.76 844.224 1301.33 842.646C1299.87 837.344 1298.44 832.037 1297.04 826.724C1293.96 815.063 1291.02 803.37 1288.2 791.641C1282.81 769.219 1277.92 746.682 1273.52 724.047C1273.34 723.104 1273.44 722.12 1274.09 721.417C1274.72 720.734 1275.47 720.375 1276.39 720.458C1285.9 719.682 1367.73 711.198 1397.71 648.969V648.964C1402.35 639.344 1410.11 623.245 1407.89 602.505C1405.46 579.849 1390.27 567.344 1371.04 551.51C1353.44 537.016 1333.48 520.589 1319.35 492.24C1309.66 472.766 1300.79 452.891 1292.77 432.667C1292.51 432.01 1292.26 431.354 1292 430.688C1291.17 428.599 1290.35 426.5 1289.56 424.401C1288.63 422 1287.72 419.594 1286.83 417.177L1286.59 416.563C1286.34 415.875 1286.08 415.188 1285.83 414.495C1285 412.255 1284.19 410.01 1283.39 407.755C1282.68 405.786 1281.98 403.813 1281.29 401.833C1276.32 402.729 1271.39 403.755 1266.48 404.901C1232.47 412.828 1204.6 425.797 1183.66 443.443C1175.97 449.911 1169.04 457.156 1163.06 464.969C1140.7 494.089 1134.06 527.521 1129.2 551.932C1125.07 572.719 1122.08 587.74 1111.86 592.422C1105.56 595.313 1097.47 593.745 1086.42 587.484C1086.36 587.448 1086.3 587.412 1086.24 587.375C1059.91 569.87 1035.83 560.115 1014.68 558.391C990.823 556.422 971.958 564.917 961.573 582.307C950.01 601.677 951.531 628.063 965.453 649.526C985.198 679.964 1024.66 694.047 1073.71 688.162C1074.58 688.057 1075.45 688.333 1076.09 688.922C1076.73 689.51 1077.09 690.354 1077.07 691.224L1077.03 692.505C1076.99 693.797 1076.95 695.073 1076.91 696.354L1076.79 700.026C1075.32 741.281 1073.1 782.505 1070.13 823.677C1070.01 825.526 1069.86 827.391 1069.73 829.25L1069.59 831.141C1071.26 836.531 1073.39 841.766 1075.94 846.797C1078.53 851.88 1081.56 856.729 1085.01 861.276C1103.24 885.333 1141.23 898.396 1142.9 898.964Z" fill="#232323"/>
<path d="M1054.61 695.88C1048.58 695.88 1042.02 695.474 1034.82 694.573C1034.04 694.474 1033.32 694.068 1032.83 693.438C1032.34 692.813 1032.12 692.011 1032.22 691.224C1032.32 690.432 1032.72 689.714 1033.35 689.224C1033.98 688.734 1034.78 688.516 1035.57 688.615C1071.15 693.063 1089.65 685.042 1104.2 677.177C1105.66 676.386 1107.47 676.932 1108.27 678.391C1109.05 679.849 1108.51 681.672 1107.05 682.458C1093.9 689.578 1078.4 695.88 1054.61 695.88ZM1157.34 502.615L1156.32 499.307C1156.06 498.245 1155.84 497.281 1155.61 496.313C1155.26 494.344 1154.96 492.25 1154.91 490.281C1154.66 486.188 1154.94 482.12 1155.66 478.115C1157.17 469.662 1160.7 461.662 1165.8 454.901C1168.53 451.255 1171.72 448.073 1175.26 445.297C1178.89 442.5 1182.91 440.276 1187.21 438.698C1191.39 437.167 1195.82 436.385 1200.28 436.318C1204.62 436.193 1209.06 436.974 1213.07 438.63C1218.21 440.839 1220.66 446.792 1218.48 452.031C1218.07 453.01 1217.49 453.912 1216.79 454.703L1215.52 456.182C1213.04 459.016 1210.8 461.031 1208.88 463.047C1206.93 464.969 1205.29 466.891 1203.73 468.464C1200.6 471.833 1197.94 474.729 1195.03 478.125C1192.08 481.432 1189.11 485.271 1185.9 489.609L1180.73 496.495C1179.89 497.719 1178.96 498.979 1177.91 500.172C1175.81 503.193 1172.95 505.526 1169.62 507.083C1167.91 507.88 1165.94 508.24 1164.04 508.156C1161.44 507.896 1159.18 506.474 1157.89 504.203C1157.79 503.609 1157.5 503.078 1157.34 502.615ZM1182.93 524.37C1191.33 519.302 1211.8 507.703 1228.58 490.479C1230.9 488.115 1234.74 488.052 1237.2 490.349L1237.23 490.443C1243.4 496.589 1251.73 508.151 1238.75 518.443C1222.91 531.068 1191.79 535.339 1182.76 529.651C1181.28 528.693 1180.92 526.729 1181.91 525.344C1182.19 524.938 1182.49 524.62 1182.93 524.37ZM1300.77 463.698C1291.92 468.083 1284.94 469.636 1267.44 473.427C1264.14 474.141 1261.97 477.281 1262.68 480.589C1264.43 489.078 1271.29 496.031 1284.86 492.958C1300.08 489.531 1305.44 475.578 1305.29 466.542C1305.21 464.792 1303.79 463.396 1302.14 463.438C1301.6 463.412 1301.23 463.542 1300.77 463.698ZM1251.79 434.182C1252.27 434.396 1252.77 434.568 1253.29 434.698C1254.19 434.906 1255.16 435 1256.19 434.958L1257.91 434.792C1261.28 434.578 1263.9 433.995 1266.43 433.755C1268.9 433.328 1271.14 433.188 1273.17 433.016C1277.32 432.635 1280.85 432.271 1284.81 431.953C1288.1 431.703 1291.67 431.63 1295.57 431.557C1291.22 420.609 1287.12 409.563 1283.29 398.422C1283.04 398.479 1282.81 398.537 1282.57 398.594C1282.67 398.516 1282.75 398.432 1282.85 398.359L1283.1 398.151C1279.28 398.234 1275.44 398.797 1271.73 399.76C1268.29 400.76 1264.98 402.188 1261.89 404.016L1261.89 404.021C1261.43 404.287 1260.98 404.563 1260.53 404.849C1257.1 407.063 1254.19 409.839 1251.72 412.984C1249.26 416.089 1247.49 419.682 1246.54 423.526C1245.44 427.927 1247.78 432.396 1251.79 434.182ZM1288.09 780.146C1286.93 775.38 1285.82 770.609 1284.75 765.828C1281.6 751.787 1278.84 737.667 1276.46 723.479L1276.58 723.464C1276.57 723.453 1276.56 723.448 1276.56 723.448C1276.56 723.448 1224.87 725.245 1191.97 708.703C1184.39 717.662 1204.86 783.479 1288.09 780.146Z" fill="#232323"/>
<path d="M1282.01 783.271C1259.63 783.271 1240.14 778.255 1224.01 768.328C1210.55 760.057 1199.57 748.161 1193.07 734.833C1187.23 722.849 1185.84 711.307 1189.69 706.76C1190.58 705.703 1192.08 705.396 1193.32 706.016C1225.14 722.021 1275.94 720.464 1276.45 720.443C1276.9 720.427 1277.37 720.521 1277.79 720.708C1278.08 720.839 1278.38 721.036 1278.61 721.255C1279.32 721.906 1279.67 722.854 1279.56 723.807C1281.9 737.661 1284.6 751.458 1287.68 765.172C1288.75 769.937 1289.85 774.693 1291.01 779.437C1291.22 780.312 1291.03 781.234 1290.48 781.953C1289.94 782.672 1289.11 783.109 1288.21 783.146C1286.12 783.229 1284.05 783.271 1282.01 783.271ZM1193.61 712.818C1193.23 716.234 1194.04 723.125 1198.46 732.198C1203.73 743 1225 777.266 1282.06 777.266C1282.8 777.266 1283.55 777.255 1284.31 777.245C1283.45 773.661 1282.63 770.078 1281.82 766.484C1278.85 753.224 1276.22 739.896 1273.93 726.505C1263.05 726.625 1222.7 726.125 1193.61 712.818ZM1315.6 574.484C1312.2 578.885 1307.72 582.297 1302.43 584.214C1297.31 586.281 1291.77 587.135 1286.27 586.714C1280.82 586.062 1275.66 584.073 1271.13 580.917C1266.58 577.667 1262.98 573.255 1260.82 568.146L1260.79 568.052C1260.13 566.401 1258.21 565.693 1256.56 566.365C1255.19 566.937 1254.42 568.349 1254.62 569.849C1255.92 577.031 1259.72 583.568 1265.38 588.214C1268.15 590.589 1271.27 592.516 1274.64 593.927C1284.79 598.292 1296.41 597.766 1306.15 592.656C1309.35 591.047 1312.3 588.984 1314.91 586.526C1317.61 584.036 1319.68 580.927 1321.13 577.505C1321.8 575.812 1320.97 574.005 1319.28 573.328C1317.93 572.745 1316.34 573.292 1315.48 574.422L1315.6 574.484ZM1296.91 538.672C1297.72 538.604 1298.41 538.161 1298.93 537.562C1305.86 528.193 1308.41 521.578 1307.11 515.958C1305.54 508.875 1298.07 505.052 1289.54 500.552C1270.35 490.505 1269.73 479.536 1269.7 479.443C1269.69 477.875 1268.34 476.667 1266.78 476.682C1266.03 476.682 1265.32 476.984 1264.79 477.516C1264.27 478.047 1263.98 478.766 1263.99 479.516C1263.99 480.141 1264.31 493.922 1286.89 505.635C1295.39 510.042 1300.6 513.068 1301.6 517.219C1302.44 520.901 1300.14 526.391 1294.41 534.094C1293.48 535.349 1293.78 537.13 1295.03 538.057C1295.44 538.651 1296.22 538.802 1296.91 538.672ZM1073.67 635.531C1072.6 635.531 1071.61 634.958 1071.07 634.031C1059.12 613.354 1028.33 596.859 994.808 607.026C993.224 607.49 991.563 606.594 991.084 605.016C990.605 603.437 991.49 601.766 993.063 601.276C1029.55 590.219 1063.16 608.349 1076.27 631.021C1076.81 631.953 1076.81 633.099 1076.27 634.026C1075.73 634.958 1074.75 635.531 1073.67 635.531ZM281.964 1119.35C567.745 1384.34 673.672 1426.6 710.037 1399.39C744.391 1373.69 721.761 1282.16 689.219 1227.46C622.12 1114.7 456.282 1063.39 281.964 1119.35ZM1976.04 1000.83C1947.23 1020.01 1631.41 1233.24 1676.78 1352.5C1685.42 1375.21 1708.14 1397.09 1734.03 1399.39C1821.67 1407.17 1913.36 1187.71 1976.04 1000.83Z" fill="#232323"/>
<path d="M2254.82 1414.31C2284.93 1388.69 2294.87 1375.07 2298.73 1347.29C2318.97 1201.46 2151.7 1068.55 1865.45 923.974C1796.49 1032.53 1693.7 1177.53 1624.74 1286.07C1705.2 1307.66 2111.68 1561.05 2254.82 1414.31Z" fill="white"/>
<path d="M2126.96 1462.79C2090.5 1462.79 2048.1 1456.35 2000.6 1443.6C1899.08 1416.33 1793.53 1366.09 1716.46 1329.41C1674.44 1309.41 1641.24 1293.6 1623.96 1288.97C1623.04 1288.72 1622.29 1288.05 1621.94 1287.16C1621.59 1286.27 1621.69 1285.26 1622.21 1284.45C1656.69 1230.18 1700.34 1165.74 1742.55 1103.44C1784.78 1041.09 1828.44 976.63 1862.92 922.365C1863.75 921.063 1865.42 920.599 1866.8 921.292C2020.32 998.828 2129 1068.07 2199.06 1132.96C2278.04 1206.1 2311.61 1276.34 2301.7 1347.7C2297.61 1377.18 2286.4 1391.37 2256.88 1416.51C2230.22 1443.77 2192.68 1459.15 2145.28 1462.21C2139.35 1462.59 2133.24 1462.79 2126.96 1462.79ZM1629.42 1284.31C1647.97 1290.16 1679.65 1305.23 1719.04 1323.98C1795.9 1360.57 1901.17 1410.68 2002.16 1437.8C2048.89 1450.35 2090.31 1456.61 2126.25 1456.62C2181.51 1456.62 2223.82 1441.8 2252.68 1412.21C2252.75 1412.15 2252.81 1412.08 2252.88 1412.02C2283.72 1385.78 2292.13 1372.99 2295.76 1346.88C2305.38 1277.6 2272.41 1209.07 2194.99 1137.36C2125.71 1073.2 2018.25 1004.66 1866.52 927.88C1832.23 981.734 1789.18 1045.3 1747.52 1106.81C1706.2 1167.79 1663.51 1230.82 1629.42 1284.31Z" fill="#232323"/>
<path d="M1812.1 1177.96C1765.19 1232.04 1658.34 1356.7 1718.42 1395.27C1654.14 1359.59 1601.54 1332.03 1533.66 1304.31C1533.66 1304.31 1417.09 1213.32 1354.69 983.266V983.24C1347.28 955.948 1337.83 914.057 1335.56 896.964C1333.52 881.609 1333.3 861.693 1343.7 843.224C1355.58 822.135 1377.1 807.193 1399.61 800.12C1648.28 744.484 1942.41 959.177 1992.85 988.729C1992.85 988.729 1859.95 1122.83 1812.1 1177.96V1177.96Z" fill="#4CAF7A"/>
<mask id="mask0_433_10998" style="mask-type:luminance" maskUnits="userSpaceOnUse" x="595" y="778" width="1105" height="1253">
<path d="M595.167 778.667H1699.17V2031H595.167V778.667Z" fill="white"/>
</mask>
<g mask="url(#mask0_433_10998)">
<path d="M1698.28 1955.73C1698.28 1955.73 1090.91 2137.62 595.537 1935.9C609.964 1882.82 747.636 1378.56 748.579 1372.04C753.902 1315.67 756.386 1292.06 760.542 1257.96C779.693 1103.34 807.167 991.386 808.896 982.427C831.865 881.125 860.923 783.094 862.568 778.823C934.959 779.24 1005.06 796.787 1066.81 828.068C1117.99 929.396 1272.19 929.396 1303.93 849.182C1304.33 847.484 1306.1 839.979 1306.54 838.276C1336.64 821.74 1367.91 808.906 1401.24 799.667C1441.84 854.412 1602.21 1267.65 1609.69 1302.19C1609.69 1302.22 1609.7 1302.26 1609.71 1302.29C1634.54 1417.21 1704.43 1852.59 1698.28 1955.73Z" fill="#4CAF7A"/>
</g>
<mask id="mask1_433_10998" style="mask-type:luminance" maskUnits="userSpaceOnUse" x="1065" y="824" width="276" height="254">
<path d="M1065.83 824H1340.5V1077.33H1065.83V824Z" fill="white"/>
</mask>
<g mask="url(#mask1_433_10998)">
<mask id="mask2_433_10998" style="mask-type:luminance" maskUnits="userSpaceOnUse" x="595" y="778" width="1104" height="1253">
<path d="M1698.28 1955.73C1698.28 1955.73 1090.91 2137.62 595.536 1935.9C609.963 1882.82 747.635 1378.56 748.578 1372.04C753.901 1315.67 756.385 1292.06 760.541 1257.96C779.692 1103.34 807.166 991.386 808.896 982.427C831.864 881.125 860.922 783.094 862.567 778.823C934.958 779.24 1005.06 796.787 1066.81 828.068C1117.99 929.396 1272.19 929.396 1303.93 849.182C1304.33 847.484 1306.1 839.979 1306.54 838.276C1336.64 821.74 1367.91 808.906 1401.23 799.667C1441.84 854.412 1602.21 1267.65 1609.69 1302.19C1609.69 1302.22 1609.7 1302.26 1609.71 1302.29C1634.54 1417.21 1704.43 1852.59 1698.28 1955.73Z" fill="white"/>
</mask>
<g mask="url(#mask2_433_10998)">
<path d="M1302.22 834.516C1314.68 880.484 1361.49 1018.82 1327.01 1026.16C1315.67 1029.36 1304.24 1017.42 1286.45 988.568C1278.48 976.078 1251.92 924.839 1243.31 899.422C1252.69 950.646 1241.17 1076.33 1196.34 1076.33C1129.98 1076.33 1081.93 892.885 1066.41 824.958" fill="#4CAF7A"/>
</g>
</g>
<mask id="mask3_433_10998" style="mask-type:luminance" maskUnits="userSpaceOnUse" x="1063" y="821" width="281" height="260">
<path d="M1063.17 821.333H1343.17V1080H1063.17V821.333Z" fill="white"/>
</mask>
<g mask="url(#mask3_433_10998)">
<mask id="mask4_433_10998" style="mask-type:luminance" maskUnits="userSpaceOnUse" x="595" y="778" width="1104" height="1253">
<path d="M1698.28 1955.73C1698.28 1955.73 1090.91 2137.62 595.537 1935.9C609.964 1882.82 747.636 1378.56 748.579 1372.04C753.902 1315.67 756.386 1292.06 760.542 1257.96C779.693 1103.34 807.167 991.386 808.896 982.427C831.865 881.125 860.923 783.094 862.568 778.823C933.824 779.234 1002.86 796.24 1063.89 826.604C1064.86 827.089 1065.83 827.578 1066.81 828.068C1117.99 929.396 1272.19 929.396 1303.93 849.182C1304.29 847.703 1306.14 839.682 1306.54 838.276C1336.64 821.74 1367.91 808.906 1401.24 799.667C1441.84 854.412 1602.21 1267.65 1609.69 1302.19C1609.69 1302.22 1609.7 1302.26 1609.71 1302.29C1634.54 1417.21 1704.43 1852.59 1698.28 1955.73Z" fill="white"/>
</mask>
<g mask="url(#mask4_433_10998)">
<path d="M1196.34 1079.33C1128.74 1079.33 1080.91 901.912 1063.49 825.63C1063.12 824.011 1064.13 822.401 1065.75 822.031C1067.36 821.662 1068.97 822.672 1069.34 824.292C1082.68 882.714 1131.28 1073.32 1196.34 1073.32C1203.27 1073.32 1209.73 1069.79 1215.53 1062.82C1241.1 1032.11 1248.22 942.854 1240.36 899.964C1240.07 898.417 1241.03 896.912 1242.55 896.516C1244.07 896.12 1245.65 896.964 1246.15 898.458C1254.74 923.792 1281.26 974.839 1288.98 986.953C1306.68 1015.66 1317.11 1025.83 1326.2 1023.27C1326.26 1023.25 1326.32 1023.23 1326.39 1023.22C1329 1022.67 1331.03 1021.1 1332.61 1018.46C1346.25 995.578 1320.42 907.651 1306.55 860.412C1303.65 850.521 1301.14 841.979 1299.33 835.302C1299.04 834.266 1299.33 833.151 1300.08 832.38C1300.84 831.615 1301.95 831.313 1303 831.594C1304.04 831.87 1304.85 832.688 1305.12 833.734C1306.91 840.344 1309.41 848.859 1312.31 858.719C1332.77 928.386 1351.58 998.344 1337.77 1021.53C1335.33 1025.61 1331.96 1028.15 1327.74 1029.07C1326.31 1029.47 1324.83 1029.68 1323.34 1029.68C1310.89 1029.68 1299.15 1014.89 1283.9 990.146C1277.86 980.677 1260.42 947.594 1248.78 921.182C1249.96 940.724 1249.2 964.125 1246.5 986.011C1243.84 1007.5 1236.89 1046.56 1220.14 1066.67C1213.15 1075.07 1205.14 1079.33 1196.34 1079.33Z" fill="white"/>
</g>
</g>
<path d="M1275.61 1077.22C1275.61 1082.61 1271.24 1086.99 1265.85 1086.99C1260.46 1086.99 1256.09 1082.61 1256.09 1077.22C1256.09 1071.83 1260.46 1067.46 1265.85 1067.46C1271.24 1067.46 1275.61 1071.83 1275.61 1077.22Z" fill="white"/>
<path d="M1292.53 1151.47C1292.53 1156.86 1288.16 1161.23 1282.77 1161.23C1277.38 1161.23 1273.01 1156.86 1273.01 1151.47C1273.01 1146.08 1277.38 1141.71 1282.77 1141.71C1288.16 1141.71 1292.53 1146.08 1292.53 1151.47Z" fill="white"/>
<path d="M1622.6 1350.01C1621.21 1350.01 1620.01 1349.05 1619.69 1347.7C1591.95 1230.79 1576.9 1192.38 1567.9 1169.42C1566.05 1164.69 1564.44 1160.59 1563.1 1156.72C1531.4 1077.23 1491.91 1000.42 1445.74 928.422C1444.85 927.026 1445.26 925.172 1446.65 924.276C1448.04 923.38 1449.9 923.786 1450.8 925.182C1497.18 997.521 1536.85 1074.69 1568.7 1154.56C1568.72 1154.61 1568.74 1154.65 1568.76 1154.7C1570.06 1158.47 1571.65 1162.53 1573.48 1167.23C1582.54 1190.33 1597.69 1228.99 1625.53 1346.31C1625.74 1347.2 1625.53 1348.15 1624.96 1348.87C1624.39 1349.59 1623.52 1350.01 1622.6 1350.01ZM1297.69 1215.07C1295.64 1215.07 1293.39 1214.71 1290.92 1214.01C1289.33 1213.55 1288.41 1211.88 1288.88 1210.29C1289.33 1208.69 1290.99 1207.78 1292.59 1208.23C1299.49 1210.23 1301.67 1208.14 1302.39 1207.44C1312.24 1197.99 1300.4 1149.41 1282.48 1075.87C1272.1 1033.31 1259.2 980.339 1246.15 917.792C1245.92 916.734 1246.27 915.635 1247.07 914.911C1247.88 914.187 1249.01 913.953 1250.03 914.292C1251.06 914.635 1251.82 915.5 1252.03 916.562C1265.05 979.01 1277.95 1031.93 1288.31 1074.45C1308.67 1157.99 1318.89 1199.93 1306.55 1211.78C1304.26 1213.97 1301.3 1215.07 1297.69 1215.07Z" fill="white"/>
<mask id="mask5_433_10998" style="mask-type:luminance" maskUnits="userSpaceOnUse" x="1160" y="249" width="36" height="90">
<path d="M1160.5 249.333H1195.17V338.667H1160.5V249.333Z" fill="white"/>
</mask>
<g mask="url(#mask5_433_10998)">
<mask id="mask6_433_10998" style="mask-type:luminance" maskUnits="userSpaceOnUse" x="935" y="247" width="377" height="374">
<path d="M1242.48 253.161C1217.51 251.568 1193.18 256.391 1176.92 275.427C1124.94 211.823 1033.76 268.651 1043.1 329.391C955.739 305.573 904.265 413.542 956.333 463.328C975.432 481.667 1011.03 521.724 1016.4 563.771C1054.93 565.323 1148.05 620.396 1148.05 620.396C1148.05 620.396 1234.06 437.724 1282.85 398.365C1343.72 349.135 1298.81 256.677 1242.48 253.161Z" fill="white"/>
</mask>
<g mask="url(#mask6_433_10998)">
<path d="M1170.37 337.271C1170.11 337.417 1169.85 337.568 1169.55 337.625C1167.41 338.266 1165.27 337.094 1164.63 334.958C1164.43 334.391 1160.75 321.479 1161.62 304.74C1162.85 282.229 1171.94 263.787 1188.02 251.266C1189.77 249.938 1192.22 250.25 1193.55 252C1194.87 253.75 1194.56 256.198 1192.81 257.526C1158.41 284.406 1172.02 332.359 1172.12 332.755C1172.79 334.537 1171.92 336.396 1170.37 337.271Z" fill="white"/>
</g>
</g>
<path d="M1107.38 1807.77C1107.37 1807.77 1107.36 1807.76 1107.35 1807.75C1098.49 1802.82 1088.58 1797.55 1077.46 1791.94C1077.51 1791.95 1077.92 1792.05 1077.95 1792.05C1163.83 1811.88 1216.8 1789.1 1117.07 1758.65C1008.6 1725.52 955.245 1675.34 998.443 1678.73C1058.58 1683.44 1075.82 1665.04 952.823 1611.35C915.224 1594.93 912.026 1592.91 787.922 1529.93C643.885 1449.09 562.739 1396.16 558.276 1393.45C634.547 1347.88 888.979 1205.11 915.989 1189.27L836.406 783.474C663.151 783.474 310.755 981.422 142.021 1249.42C116.479 1289.98 98.8748 1340.24 91.8279 1385.43L91.6717 1385.49C80.229 1470.56 98.7029 1541.72 164.531 1608.86C193.51 1641.58 236.052 1671.17 285.844 1697.62C359.609 1738.8 443.427 1768.96 524.229 1791.49C566.958 1804.48 608.708 1815.75 646.896 1825.28C734.338 1846.7 1145.78 1944.72 1072.87 1891.54C1130.7 1901.05 1174.66 1880.94 1146.71 1867.31C1179.4 1869.13 1186.15 1851.65 1107.38 1807.77Z" fill="white"/>
<mask id="mask7_433_10998" style="mask-type:luminance" maskUnits="userSpaceOnUse" x="85" y="780" width="1091" height="1131">
<path d="M85.5 780H1175.17V1910.67H85.5V780Z" fill="white"/>
</mask>
<g mask="url(#mask7_433_10998)">
<path d="M1062.39 1910.14C1052.88 1910.14 1039.19 1909.1 1019.41 1906.49C987.719 1902.3 943.828 1894.46 888.958 1883.21C782.734 1861.44 668.089 1833.56 646.182 1828.19C603.344 1817.51 562.026 1806.13 523.359 1794.36C430.104 1768.36 349.677 1736.69 284.38 1700.24C230.635 1671.69 189.557 1641.63 162.338 1610.91C129.687 1577.59 108.073 1542.89 96.2603 1504.79C85.151 1468.98 82.6822 1429.82 88.6978 1385.09C88.7395 1384.76 88.8437 1384.43 88.9947 1384.13C96.5572 1336.44 114.937 1286.8 139.484 1247.82C217.005 1124.69 340.036 1005.93 485.911 913.411C550.094 872.708 616.333 838.948 677.484 815.781C738.458 792.682 793.417 780.469 836.406 780.469C837.844 780.469 839.078 781.484 839.354 782.896L918.932 1188.69C919.177 1189.94 918.604 1191.22 917.505 1191.86C908.714 1197.02 875.333 1215.9 833.073 1239.81C747.062 1288.46 618.224 1361.35 564.01 1393.53C626.922 1433.6 704.812 1479.84 789.339 1527.28C805.552 1535.51 819.698 1542.69 832.13 1549.01C914.677 1590.94 921.422 1594.36 954.021 1608.59C987.094 1623.03 1011.77 1635.68 1027.36 1646.19C1042.79 1656.59 1049.18 1664.63 1047.46 1671.49C1045.18 1680.66 1028.61 1684.1 998.208 1681.72C990.521 1681.13 986.771 1682.41 986.479 1683.96C985.802 1687.54 993.932 1698.39 1019.1 1713.6C1044.97 1729.23 1080.07 1744.21 1117.94 1755.77C1157.98 1767.99 1176.81 1779.68 1173.92 1790.49C1170.66 1802.69 1138.66 1805.84 1097.61 1799.02C1101.34 1801.02 1105.06 1803.04 1108.77 1805.1L1108.84 1805.14C1154.45 1830.55 1175.83 1849.46 1172.4 1861.33C1171.3 1865.13 1167.41 1869.37 1155.86 1870.27C1158.83 1873.81 1158.58 1877.14 1157.93 1879.2C1154.05 1891.39 1121.67 1900.3 1082.1 1895.85C1084.16 1898.47 1085.23 1901.31 1083.93 1904.11C1082.46 1907.28 1078.19 1910.14 1062.39 1910.14ZM94.5312 1386.73C82.7239 1475.96 104.995 1543.85 166.677 1606.76C166.708 1606.79 166.745 1606.83 166.781 1606.87C193.521 1637.06 234.052 1666.7 287.25 1694.96C352.187 1731.21 432.172 1762.7 525.036 1788.6C563.677 1800.35 604.901 1811.7 647.625 1822.36C669.484 1827.72 783.974 1855.55 890.068 1877.31C944.792 1888.53 988.536 1896.34 1020.09 1900.52C1073.96 1907.66 1078.19 1902.22 1078.49 1901.58C1078.8 1900.93 1078.54 1899.39 1071.1 1893.97C1069.98 1893.15 1069.56 1891.67 1070.1 1890.38C1070.64 1889.09 1071.98 1888.35 1073.36 1888.57C1117.74 1895.88 1149.63 1885.47 1152.21 1877.38C1153.21 1874.21 1147.78 1871.17 1145.4 1870.01C1144.11 1869.38 1143.45 1867.93 1143.81 1866.55C1144.17 1865.17 1145.45 1864.23 1146.88 1864.3C1160.23 1865.05 1165.84 1862.4 1166.63 1859.66C1167.27 1857.44 1167.37 1844.63 1105.95 1810.41C1105.93 1810.4 1105.91 1810.39 1105.89 1810.37C1096.51 1805.15 1086.49 1799.85 1076.11 1794.62C1074.78 1793.94 1074.14 1792.39 1074.62 1790.97C1075.1 1789.55 1076.56 1788.7 1078.03 1788.98C1078.06 1788.99 1078.17 1789.02 1078.3 1789.05L1078.48 1789.09C1078.53 1789.1 1078.58 1789.11 1078.63 1789.12C1133.14 1801.71 1166.34 1795.6 1168.12 1788.93C1169.11 1785.23 1159.53 1774.75 1116.19 1761.52C1077.86 1749.81 1042.28 1734.62 1016 1718.74C1001.85 1710.19 978.438 1694.16 980.583 1682.84C981.635 1677.27 987.729 1674.88 998.677 1675.73C1028.75 1678.09 1040.62 1674.13 1041.64 1670.03C1042.27 1667.53 1040.86 1653.06 951.625 1614.1C918.859 1599.8 912.104 1596.36 829.411 1554.36C816.969 1548.04 802.802 1540.84 786.568 1532.6C786.531 1532.58 786.495 1532.56 786.458 1532.54C701.594 1484.92 623.385 1438.48 560.286 1398.27C558.354 1397.04 557.161 1396.28 556.724 1396.01C555.823 1395.47 555.276 1394.49 555.281 1393.44C555.281 1392.38 555.839 1391.41 556.74 1390.87C608.271 1360.08 741.776 1284.55 830.12 1234.58C869.823 1212.11 901.682 1194.09 912.63 1187.75L833.943 786.484C652.365 788.344 305.849 994.849 144.562 1251.02C120.292 1289.56 102.151 1338.72 94.7916 1385.89C94.7499 1386.18 94.6614 1386.46 94.5312 1386.73V1386.73Z" fill="#232323"/>
</g>
<path d="M903.625 1241.02C861.531 1282.78 820.479 1315.36 797.213 1335.56C767.062 1361.75 749.307 1374.41 706.135 1401.99C714.734 1395.77 719.437 1390.45 720.453 1375.94C723.552 1331.5 657.244 1303.1 564.312 1260.02C488.093 1224.7 250.677 1131.21 231.958 1126.14C255.526 1098.19 315.291 1039.73 370.177 996.146C670.437 757.75 818.833 777.589 861.885 778.828C919.416 778.755 970.479 809.854 986.609 824.104C1033.37 865.432 1041.37 925.568 1043.98 947.5C1057.62 1062.37 978.932 1166.36 903.625 1241.02Z" fill="#4CAF7A"/>
<path d="M1036.37 1161.25C970.281 1260.66 853.151 1334.45 744.989 1386.11C746.073 1382.11 746.88 1378.06 748.062 1374.22C752.302 1376.07 951.166 1275.82 1026.52 1159.12C1032.41 1149.99 1041.83 1153.04 1036.37 1161.25Z" fill="white"/>
<path d="M2214.67 639.885L2211.44 639.318C2136.64 626.276 2078.64 678.078 2070.3 758.13C2060.86 848.776 2049.03 963.516 2049.03 1025.76C2049.33 1026.21 2050.58 1090.49 2086.56 1243.12C2113.18 1356.08 2166.57 1456.88 2166.57 1456.88C2166.57 1456.88 2384.17 1460.28 2384.5 1144.88C2384.6 1046.75 2341.1 864.99 2316.64 739.849C2306.63 688.604 2266.07 648.865 2214.67 639.885Z" fill="#042628"/>
<mask id="mask8_433_10998" style="mask-type:luminance" maskUnits="userSpaceOnUse" x="2045" y="633" width="343" height="827">
<path d="M2045.83 633.333H2387.5V1460H2045.83V633.333Z" fill="white"/>
</mask>
<g mask="url(#mask8_433_10998)">
<path d="M2166.94 1459.89C2166.71 1459.89 2166.58 1459.89 2166.52 1459.89C2165.43 1459.87 2164.43 1459.26 2163.92 1458.29C2163.38 1457.28 2110.04 1355.85 2083.63 1243.81C2054.1 1118.54 2047.6 1050.96 2046.17 1027.72C2046.12 1027.02 2046.09 1026.54 2046.07 1026.3C2046.04 1026.12 2046.03 1025.94 2046.03 1025.76C2046.03 962.245 2058.33 844.094 2067.31 757.818C2071.78 714.943 2090.29 679.188 2119.44 657.141C2145.39 637.516 2177.38 630.333 2211.95 636.359L2215.19 636.927C2241.01 641.438 2264.56 653.521 2283.28 671.87C2302 690.224 2314.55 713.531 2319.58 739.271C2324.89 766.417 2331.04 795.984 2337.55 827.287C2361 939.995 2387.58 1067.74 2387.5 1144.89C2387.38 1259.1 2359.1 1344.8 2303.43 1399.58C2271.18 1431.32 2235.73 1446.03 2211.68 1452.77C2187.39 1459.58 2169.88 1459.89 2166.94 1459.89ZM2052.03 1025.58C2052.07 1025.99 2052.11 1026.55 2052.16 1027.35C2053.58 1050.44 2060.06 1117.61 2089.48 1242.44C2113.88 1345.96 2161.45 1440.41 2168.37 1453.85C2179.82 1453.49 2244.65 1449.09 2299.32 1395.21C2353.73 1341.59 2381.38 1257.36 2381.5 1144.88C2381.58 1068.35 2355.07 940.932 2331.68 828.511C2325.16 797.188 2319 767.604 2313.69 740.427C2303.99 690.766 2263.98 651.547 2214.16 642.844L2210.93 642.276C2178.03 636.542 2147.65 643.339 2123.07 661.932C2095.25 682.969 2077.58 717.24 2073.29 758.443C2064.32 844.5 2052.05 962.333 2052.03 1025.58ZM2046.5 1027.39L2046.51 1027.4C2046.5 1027.39 2046.5 1027.39 2046.5 1027.39ZM2046.47 1027.34L2046.48 1027.35C2046.47 1027.34 2046.47 1027.34 2046.47 1027.34ZM2046.43 1027.27L2046.44 1027.28C2046.43 1027.27 2046.43 1027.27 2046.43 1027.27ZM2046.4 1027.22L2046.41 1027.23C2046.41 1027.22 2046.4 1027.22 2046.4 1027.22ZM2046.39 1027.19V1027.2C2046.39 1027.2 2046.39 1027.2 2046.39 1027.19ZM2046.37 1027.16L2046.37 1027.17C2046.37 1027.17 2046.37 1027.16 2046.37 1027.16ZM2046.36 1027.15L2046.36 1027.16C2046.36 1027.15 2046.36 1027.15 2046.36 1027.15ZM2046.35 1027.12L2046.35 1027.13C2046.35 1027.13 2046.35 1027.13 2046.35 1027.12ZM2046.34 1027.1V1027.11C2046.34 1027.1 2046.34 1027.1 2046.34 1027.1ZM2046.33 1027.08L2046.33 1027.09C2046.33 1027.09 2046.33 1027.09 2046.33 1027.08ZM2046.29 1026.99L2046.29 1027.01C2046.29 1027.01 2046.29 1027 2046.29 1026.99ZM2046.24 1026.88C2046.25 1026.92 2046.27 1026.96 2046.29 1026.99C2046.27 1026.96 2046.25 1026.92 2046.24 1026.88ZM2046.23 1026.86L2046.23 1026.87C2046.23 1026.86 2046.23 1026.86 2046.23 1026.86Z" fill="#042628"/>
</g>
<mask id="mask9_433_10998" style="mask-type:luminance" maskUnits="userSpaceOnUse" x="2243" y="637" width="54" height="617">
<path d="M2243.17 637.333H2296.5V1253.33H2243.17V637.333Z" fill="white"/>
</mask>
<g mask="url(#mask9_433_10998)">
<mask id="mask10_433_10998" style="mask-type:luminance" maskUnits="userSpaceOnUse" x="2049" y="637" width="336" height="820">
<path d="M2214.67 639.885L2211.44 639.318C2136.64 626.276 2067.37 681.943 2064 757.859C2059.95 848.906 2054.35 962.005 2049.03 1025.76C2049.81 1026.93 2231.88 1153.99 2227.04 1262.21C2223.78 1334.96 2149.65 1409.05 2149.65 1409.05L2171.36 1456.08C2171.36 1456.08 2269.13 1450.44 2325.86 1378.36C2370.62 1321.51 2386.01 1247.82 2384.5 1144.88C2383.69 1090.21 2341.09 864.99 2316.64 739.849C2306.63 688.604 2266.07 648.865 2214.67 639.885Z" fill="white"/>
</mask>
<g mask="url(#mask10_433_10998)">
<path d="M2271.13 1252.17C2270.04 1252.17 2269.04 1251.58 2268.51 1250.63C2267.98 1249.68 2268.01 1248.52 2268.58 1247.59C2278.97 1230.68 2285.09 1214.62 2286.76 1199.87C2302.27 1062.67 2244.56 644.62 2243.97 640.417C2243.75 638.771 2244.89 637.255 2246.53 637.026C2248.18 636.797 2249.69 637.943 2249.92 639.588C2250.51 643.802 2308.31 1062.6 2292.72 1200.55C2290.95 1216.18 2284.55 1233.07 2273.69 1250.74C2273.15 1251.63 2272.18 1252.17 2271.13 1252.17V1252.17Z" fill="white"/>
</g>
</g>
<path d="M2221.81 1351.1C2186.14 1351.1 2157.11 1322.06 2157.11 1286.36C2157.11 1250.67 2186.14 1221.62 2221.81 1221.62C2257.48 1221.62 2286.5 1250.67 2286.5 1286.36C2286.5 1322.06 2257.48 1351.1 2221.81 1351.1ZM2221.81 1227.63C2189.45 1227.63 2163.12 1253.98 2163.12 1286.36C2163.12 1318.75 2189.45 1345.09 2221.81 1345.09C2254.17 1345.09 2280.5 1318.75 2280.5 1286.36C2280.5 1253.98 2254.17 1227.63 2221.81 1227.63Z" fill="white"/>
<path d="M2251.75 617.516C2254.84 637.417 2240.04 647.125 2240.04 647.125C2240.04 647.125 2214.05 646.458 2173.59 650.823C2138.36 654.625 2112.64 664.594 2112.64 664.594C2112.64 664.594 2098.41 659.943 2095.44 641.484C2091.45 616.667 2123.54 591.13 2166.7 584.505C2209.86 577.891 2247.89 592.677 2251.75 617.516Z" fill="#232323"/>
<mask id="mask11_433_10998" style="mask-type:luminance" maskUnits="userSpaceOnUse" x="1987" y="241" width="295" height="387">
<path d="M1987.17 241H2281.83V628H1987.17V241Z" fill="white"/>
</mask>
<g mask="url(#mask11_433_10998)">
<path d="M2100.27 626.787L2237.44 611.859C2263.43 609.026 2282.77 586.484 2281.61 560.344C2277.77 473.755 2271.88 310.417 2263.58 289.844C2252.06 261.25 2240.93 270.99 2237.56 284.135C2234.69 295.349 2224.16 360.948 2224.16 360.948C2224.16 360.948 2195.83 261.042 2168.02 243.953C2152.48 234.396 2148.23 249.474 2150.76 268.927C2152.81 284.813 2170.84 360.594 2172.75 373.703C2149.95 351.141 2076.66 312.208 2036.89 321.094C2019.71 324.943 2029.4 345.365 2045.52 355.505C2064.67 367.01 2118.77 399.953 2133.55 413.672C2096.47 403.755 2041.81 420.729 2011.67 445.094C1994.04 459.354 1978.34 489.089 2007.96 479.01C2026.51 471.047 2050.47 459.87 2067.67 464.948C2099.67 475.76 2099.91 507.661 2088.55 523.01C2076.48 537.984 2044.98 548.688 2021.15 517.964C1991.55 483.016 1982.99 489.224 1989.78 527.26C2005.77 618.193 2059.91 631.188 2100.27 626.792V626.787Z" fill="#042628"/>
</g>
<mask id="mask12_433_10998" style="mask-type:luminance" maskUnits="userSpaceOnUse" x="2045" y="397" width="96" height="231">
<path d="M2045.83 397.333H2140.5V628H2045.83V397.333Z" fill="white"/>
</mask>
<g mask="url(#mask12_433_10998)">
<mask id="mask13_433_10998" style="mask-type:luminance" maskUnits="userSpaceOnUse" x="1987" y="241" width="295" height="387">
<path d="M2100.27 626.787L2237.44 611.859C2263.43 609.026 2282.77 586.484 2281.61 560.344C2277.77 473.755 2271.87 310.417 2263.58 289.844C2252.06 261.25 2240.93 270.99 2237.56 284.135C2234.69 295.349 2224.16 360.948 2224.16 360.948C2224.16 360.948 2195.83 261.042 2168.02 243.953C2152.48 234.396 2148.23 249.474 2150.75 268.927C2152.81 284.813 2170.84 360.594 2172.75 373.703C2149.95 351.141 2076.66 312.208 2036.89 321.094C2019.71 324.943 2029.4 345.365 2045.52 355.505C2064.67 367.01 2118.77 399.953 2133.55 413.672C2096.47 403.755 2041.81 420.729 2011.67 445.094C1994.04 459.354 1978.34 489.089 2007.96 479.01C2026.51 471.047 2050.47 459.87 2067.67 464.948C2099.67 475.76 2099.91 507.661 2088.55 523.01C2076.48 537.984 2044.98 548.688 2021.15 517.964C1991.55 483.016 1982.99 489.224 1989.78 527.26C2005.77 618.193 2059.91 631.188 2100.27 626.792V626.787Z" fill="white"/>
</mask>
<g mask="url(#mask13_433_10998)">
<path d="M2091.28 484.307C2090.63 484.307 2089.99 484.276 2089.37 484.203C2087.74 484.016 2086.56 482.536 2086.74 480.896C2086.92 479.255 2088.39 478.068 2090.03 478.234C2090.49 478.286 2090.96 478.307 2091.45 478.307C2105.9 478.313 2130.59 456.177 2133.56 435.724C2135.9 419.599 2124.18 408.729 2099.67 404.286C2098.05 403.984 2096.98 402.427 2097.28 400.802C2097.57 399.182 2099.12 398.099 2100.74 398.38C2138.3 405.177 2141.15 425.24 2139.5 436.589C2136.04 460.443 2108.65 484.307 2091.28 484.307ZM2056.47 639.063C2054.95 639.057 2053.67 637.917 2053.5 636.406C2053.32 634.896 2054.3 633.49 2055.78 633.135C2078.2 627.839 2089.81 616.458 2090.27 599.307C2090.96 573.333 2064.88 541.083 2048.75 536.349C2047.2 535.854 2046.32 534.203 2046.78 532.635C2047.24 531.063 2048.87 530.151 2050.45 530.583C2068.27 535.818 2097.05 570.177 2096.27 599.469C2095.9 613.37 2088.81 631.505 2057.16 638.984C2056.93 639.037 2056.7 639.063 2056.47 639.063Z" fill="white"/>
</g>
</g>
<mask id="mask14_433_10998" style="mask-type:luminance" maskUnits="userSpaceOnUse" x="2132" y="334" width="97" height="100">
<path d="M2132.5 334.667H2228.5V433.333H2132.5V334.667Z" fill="white"/>
</mask>
<g mask="url(#mask14_433_10998)">
<mask id="mask15_433_10998" style="mask-type:luminance" maskUnits="userSpaceOnUse" x="1987" y="241" width="295" height="387">
<path d="M2100.27 626.787L2237.44 611.859C2263.43 609.026 2282.77 586.484 2281.61 560.344C2277.77 473.755 2271.88 310.417 2263.58 289.844C2252.06 261.25 2240.93 270.99 2237.56 284.135C2234.69 295.349 2224.16 360.948 2224.16 360.948C2224.16 360.948 2195.83 261.042 2168.02 243.953C2152.48 234.396 2148.23 249.474 2150.76 268.927C2152.81 284.813 2170.84 360.594 2172.75 373.703C2149.95 351.141 2076.66 312.208 2036.89 321.094C2019.71 324.943 2029.4 345.365 2045.52 355.505C2064.67 367.01 2118.77 399.953 2133.55 413.672C2096.47 403.755 2041.81 420.729 2011.67 445.094C1994.04 459.354 1978.34 489.089 2007.96 479.01C2026.51 471.047 2050.47 459.87 2067.67 464.948C2099.67 475.76 2099.91 507.661 2088.55 523.01C2076.48 537.984 2044.98 548.688 2021.15 517.964C1991.55 483.016 1982.99 489.224 1989.78 527.26C2005.77 618.193 2059.91 631.188 2100.27 626.792V626.787Z" fill="white"/>
</mask>
<g mask="url(#mask15_433_10998)">
<path d="M2149.26 432.609C2143.07 432.609 2137.56 430.464 2133.55 426.255C2132.41 425.057 2132.45 423.156 2133.66 422.01C2134.85 420.865 2136.76 420.911 2137.9 422.115C2144.05 428.583 2154.03 427.099 2161.31 423.552C2172.18 418.26 2182.93 406.031 2180.84 391.682C2180.67 390.615 2181.09 389.536 2181.94 388.859C2182.79 388.188 2183.93 388.021 2184.93 388.427C2185.94 388.828 2186.64 389.745 2186.78 390.818C2189.3 408.156 2176.71 422.74 2163.94 428.953C2158.91 431.401 2153.89 432.609 2149.25 432.609H2149.26ZM2224.96 399.115C2223.34 399.109 2222.02 397.833 2221.96 396.219L2219.85 338.052C2219.81 336.979 2220.34 335.964 2221.26 335.391C2222.16 334.818 2223.31 334.776 2224.26 335.281C2225.21 335.786 2225.81 336.76 2225.85 337.833L2227.96 396C2227.99 396.818 2227.69 397.609 2227.12 398.193C2226.55 398.781 2225.77 399.115 2224.96 399.115Z" fill="white"/>
</g>
</g>
<mask id="mask16_433_10998" style="mask-type:luminance" maskUnits="userSpaceOnUse" x="2164" y="360" width="117" height="52">
<path d="M2164.5 360H2280.5V412H2164.5V360Z" fill="white"/>
</mask>
<g mask="url(#mask16_433_10998)">
<mask id="mask17_433_10998" style="mask-type:luminance" maskUnits="userSpaceOnUse" x="1987" y="241" width="295" height="387">
<path d="M2100.27 626.787L2237.44 611.859C2263.43 609.026 2282.77 586.484 2281.61 560.344C2277.77 473.755 2271.88 310.417 2263.58 289.844C2252.06 261.25 2240.93 270.99 2237.56 284.135C2234.69 295.349 2224.16 360.948 2224.16 360.948C2224.16 360.948 2195.83 261.042 2168.02 243.953C2152.48 234.396 2148.23 249.474 2150.76 268.927C2152.81 284.813 2170.84 360.594 2172.75 373.703C2149.95 351.141 2076.66 312.208 2036.89 321.094C2019.71 324.943 2029.4 345.365 2045.52 355.505C2064.67 367.01 2118.77 399.953 2133.55 413.672C2096.47 403.755 2041.81 420.729 2011.67 445.094C1994.04 459.354 1978.34 489.089 2007.96 479.01C2026.51 471.047 2050.47 459.87 2067.67 464.948C2099.67 475.76 2099.91 507.661 2088.55 523.01C2076.48 537.984 2044.98 548.688 2021.15 517.964C1991.55 483.016 1982.99 489.224 1989.78 527.26C2005.77 618.193 2059.91 631.188 2100.27 626.792V626.787Z" fill="white"/>
</mask>
<g mask="url(#mask17_433_10998)">
<path d="M2247.18 410.776C2246.21 410.776 2245.27 410.734 2244.33 410.651C2232.07 409.557 2222.6 401.828 2221.82 392.276C2221.69 390.625 2222.92 389.177 2224.57 389.042C2225.36 388.974 2226.15 389.224 2226.76 389.74C2227.36 390.255 2227.74 390.995 2227.8 391.786C2228.33 398.312 2235.67 403.849 2244.86 404.667C2255.55 405.62 2268.72 399.932 2273.71 381.104C2273.98 380.057 2274.79 379.24 2275.83 378.953C2276.87 378.667 2277.98 378.964 2278.74 379.724C2279.51 380.49 2279.8 381.604 2279.51 382.646C2273.99 403.474 2259.69 410.776 2247.18 410.776ZM2184.59 397.094C2183.18 397.089 2181.96 396.109 2181.66 394.729C2178.27 379.271 2166.33 366.448 2166.21 366.323C2165.1 365.109 2165.16 363.234 2166.35 362.109C2167.55 360.979 2169.43 361.021 2170.57 362.198C2171.1 362.766 2183.77 376.318 2187.53 393.443C2187.72 394.333 2187.5 395.26 2186.93 395.969C2186.36 396.682 2185.5 397.094 2184.59 397.094Z" fill="white"/>
</g>
</g>
<mask id="mask18_433_10998" style="mask-type:luminance" maskUnits="userSpaceOnUse" x="2161" y="390" width="71" height="197">
<path d="M2161.83 390.667H2231.17V586.667H2161.83V390.667Z" fill="white"/>
</mask>
<g mask="url(#mask18_433_10998)">
<mask id="mask19_433_10998" style="mask-type:luminance" maskUnits="userSpaceOnUse" x="1987" y="241" width="295" height="387">
<path d="M2100.27 626.787L2237.44 611.859C2263.43 609.026 2282.77 586.484 2281.61 560.344C2277.77 473.755 2271.88 310.417 2263.58 289.844C2252.06 261.25 2240.93 270.99 2237.56 284.135C2234.69 295.349 2224.16 360.948 2224.16 360.948C2224.16 360.948 2195.83 261.042 2168.02 243.953C2152.48 234.396 2148.23 249.474 2150.76 268.927C2152.81 284.813 2170.84 360.594 2172.75 373.703C2149.95 351.141 2076.66 312.208 2036.89 321.094C2019.71 324.943 2029.4 345.365 2045.52 355.505C2064.67 367.01 2118.77 399.953 2133.55 413.672C2096.47 403.755 2041.81 420.729 2011.67 445.094C1994.04 459.354 1978.34 489.089 2007.96 479.01C2026.51 471.047 2050.47 459.87 2067.67 464.948C2099.67 475.76 2099.91 507.661 2088.55 523.01C2076.48 537.984 2044.98 548.688 2021.15 517.964C1991.55 483.016 1982.99 489.224 1989.78 527.26C2005.77 618.193 2059.91 631.188 2100.27 626.792V626.787Z" fill="white"/>
</mask>
<g mask="url(#mask19_433_10998)">
<path d="M2204.97 411.328C2194.81 411.328 2184.37 406.432 2181.67 394.766C2181.3 393.151 2182.3 391.536 2183.92 391.161C2185.53 390.786 2187.15 391.792 2187.52 393.406C2189.7 402.807 2199.25 406.089 2207.75 405.172C2214.62 404.427 2222.06 400.677 2222.14 394.198C2222.15 393.401 2222.47 392.635 2223.04 392.078C2223.61 391.521 2224.38 391.219 2225.18 391.234C2226.83 391.255 2228.16 392.615 2228.14 394.276C2228.03 402.964 2219.91 409.896 2208.4 411.141C2207.27 411.266 2206.12 411.328 2204.97 411.328ZM2169.33 585.87C2168.06 585.87 2166.93 585.068 2166.5 583.87C2160.24 566.245 2162.85 537.646 2173.13 511.005C2184.81 480.729 2204.33 458.12 2226.68 448.969C2228.21 448.339 2229.96 449.073 2230.59 450.609C2231.22 452.146 2230.48 453.896 2228.95 454.526C2208.12 463.057 2189.82 484.432 2178.72 513.172C2168.93 538.547 2166.35 565.51 2172.16 581.859C2172.49 582.781 2172.35 583.802 2171.79 584.599C2171.22 585.396 2170.31 585.87 2169.33 585.87Z" fill="white"/>
</g>
</g>
<path d="M449.583 1748.45L1292.71 1888.15C1297.95 1889.02 1302.7 1885.65 1303.12 1880.78L1360.61 1215.4C1361 1210.9 1357.52 1206.75 1352.68 1205.95L588.99 1079.42C584.156 1078.61 579.646 1081.44 578.719 1085.85L441.797 1738.07C440.792 1742.84 444.354 1747.59 449.583 1748.45Z" fill="#042628"/>
<path d="M441.797 1738.07C440.792 1742.84 444.354 1747.59 449.583 1748.45L1282.88 1886.52C1161.85 1864.93 513.901 1726.02 579.813 1083.35C579.849 1083.02 579.344 1082.93 579.276 1083.24L441.797 1738.07Z" fill="#042628"/>
<path d="M1204.29 1218.58C1195.59 1217.15 1187.59 1223.24 1186.81 1231.92C1183.9 1263.99 1176.03 1340.04 1160.69 1420.36C1142.99 1512.98 1147.78 1587.71 1150.77 1616.22C1151.52 1623.45 1157.3 1629.23 1164.58 1630.03L1382.82 1653.88C1392.73 1654.96 1400.88 1646.55 1399.37 1636.78C1395.67 1612.76 1390.36 1569.71 1391.85 1527.64C1393.99 1467.1 1406.48 1313.98 1410.41 1266.66C1411.07 1258.69 1407.44 1245.86 1399.45 1244.56L1204.29 1218.58Z" fill="white"/>
<path d="M1384.55 1656.97C1383.87 1656.97 1383.19 1656.94 1382.5 1656.86L1164.26 1633.02C1155.61 1632.07 1148.68 1625.14 1147.78 1616.54C1144.84 1588.44 1139.93 1513.02 1157.74 1419.79C1173.23 1338.67 1181.14 1261.19 1183.82 1231.65C1184.27 1226.65 1186.7 1222.22 1190.65 1219.16C1194.6 1216.09 1199.73 1214.8 1204.73 1215.6L1399.84 1241.58C1409.82 1243.21 1414.17 1257.59 1413.4 1266.91C1409.59 1312.78 1396.99 1467.15 1394.84 1527.74C1393.34 1570.21 1398.9 1613.99 1402.34 1636.31C1403.2 1641.86 1401.47 1647.36 1397.61 1651.4C1394.18 1655 1389.5 1656.97 1384.55 1656.97ZM1201.74 1221.37C1199.05 1221.37 1196.47 1222.24 1194.33 1223.9C1191.72 1225.91 1190.08 1228.91 1189.8 1232.19C1187.11 1261.82 1179.18 1339.54 1163.63 1420.92C1145.97 1513.36 1150.84 1588.08 1153.75 1615.91C1154.36 1621.72 1159.05 1626.4 1164.91 1627.04L1383.15 1650.89C1386.98 1651.31 1390.67 1649.98 1393.28 1647.25C1395.84 1644.57 1396.98 1640.92 1396.41 1637.23C1392.93 1614.7 1387.33 1570.49 1388.85 1527.53C1390.99 1466.8 1403.6 1312.31 1407.42 1266.41C1407.99 1259.45 1404.7 1248.46 1398.96 1247.52L1203.9 1221.55L1203.81 1221.54C1203.12 1221.43 1202.43 1221.37 1201.74 1221.37Z" fill="#232323"/>
<path d="M1209.35 1315.2L1211.99 1296.51C1212.5 1292.89 1215.87 1290.43 1219.52 1290.99L1370.3 1314.51C1373.95 1315.07 1376.5 1318.46 1375.99 1322.07L1373.35 1340.77C1372.84 1344.38 1369.47 1346.84 1365.82 1346.28L1215.04 1322.77C1211.39 1322.2 1208.84 1318.81 1209.35 1315.2Z" fill="#042628"/>
<path d="M1327.75 1396.5C1327.58 1396.5 1327.42 1396.49 1327.26 1396.46L1215.38 1378.06C1213.74 1377.79 1212.63 1376.24 1212.9 1374.61C1213.17 1372.97 1214.71 1371.86 1216.35 1372.13L1328.23 1390.54C1329.77 1390.79 1330.86 1392.18 1330.74 1393.74C1330.61 1395.3 1329.31 1396.5 1327.75 1396.5ZM1351.01 1437.54C1350.84 1437.54 1350.69 1437.52 1350.53 1437.49L1210.83 1415.11C1209.19 1414.85 1208.08 1413.31 1208.34 1411.68C1208.6 1410.04 1210.14 1408.92 1211.78 1409.19L1351.48 1431.57C1353.11 1431.83 1354.23 1433.37 1353.96 1435.01C1353.73 1436.46 1352.48 1437.53 1351.01 1437.54ZM1350.59 1475.82C1350.43 1475.82 1350.27 1475.8 1350.1 1475.78L1208.41 1452.8C1206.77 1452.54 1205.66 1450.99 1205.92 1449.35C1206.19 1447.72 1207.73 1446.61 1209.36 1446.87L1351.06 1469.85C1352.61 1470.09 1353.7 1471.49 1353.58 1473.05C1353.45 1474.61 1352.15 1475.82 1350.59 1475.82ZM1320.03 1512.35C1319.89 1512.35 1319.74 1512.34 1319.59 1512.32L1205.07 1495.55C1203.43 1495.31 1202.3 1493.78 1202.54 1492.14C1202.78 1490.5 1204.3 1489.36 1205.94 1489.6L1320.46 1506.38C1322.02 1506.6 1323.14 1507.99 1323.03 1509.56C1322.91 1511.13 1321.6 1512.35 1320.03 1512.35ZM1327.96 1611.06C1323.94 1611.06 1320.11 1609.19 1317.67 1605.95L1292.26 1572.29C1291.49 1571.3 1291.32 1569.96 1291.81 1568.8C1292.29 1567.64 1293.36 1566.82 1294.61 1566.67C1295.86 1566.53 1297.1 1567.06 1297.85 1568.07L1323.26 1601.73C1324.79 1603.77 1327.14 1604.23 1328.82 1603.98C1329.73 1603.85 1331.95 1603.29 1332.85 1600.9L1353.07 1547.02C1353.39 1546.15 1354.05 1545.44 1354.9 1545.05C1355.74 1544.67 1356.71 1544.64 1357.57 1544.96C1359.39 1545.65 1360.3 1547.67 1359.62 1549.48L1339.41 1603.36C1337.87 1607.45 1334.29 1610.27 1329.83 1610.92C1329.2 1611.01 1328.58 1611.06 1327.96 1611.06ZM1330.73 1264.95C1330.57 1264.95 1330.4 1264.93 1330.23 1264.91L1280.65 1256.68C1279.05 1256.37 1277.99 1254.84 1278.26 1253.24C1278.52 1251.63 1280.02 1250.53 1281.63 1250.76L1331.21 1258.98C1332.75 1259.24 1333.83 1260.64 1333.71 1262.19C1333.58 1263.74 1332.29 1264.94 1330.73 1264.95ZM1076.49 1217.2C1080.08 1217.77 1083.53 1216.22 1084.37 1213.65C1091.9 1188.98 1097.09 1163.24 1099.82 1136.59C1105.94 1075.4 1096.34 1026.45 1070.5 993.162C1052.94 970.521 1028.21 955.953 997.214 950.141L996.964 950.099L996.719 950.063C965.443 945.885 937.146 951.958 912.922 967.896C877.292 991.339 851.76 1034.66 836.995 1094.46C830.62 1120.53 826.885 1146.51 825.719 1172.19C825.656 1175.01 828.656 1177.64 832.422 1178.07C836.187 1178.49 839.307 1176.55 839.391 1173.73C839.427 1172.38 844.51 1029.02 922.901 977.922C943.719 964.365 967.849 959.146 994.427 962.557C994.687 962.589 994.948 962.63 995.208 962.682C1021.5 967.734 1042.57 980.198 1057.7 999.526C1114.7 1072.33 1071.34 1209.56 1070.93 1210.85C1070.06 1213.54 1072.35 1216.35 1076.06 1217.12C1076.2 1217.15 1076.35 1217.17 1076.49 1217.2Z" fill="#232323"/>
<path d="M1107.38 1807.77C1107.37 1807.77 1107.36 1807.76 1107.35 1807.75C1098.49 1802.82 1088.58 1797.55 1077.46 1791.94C1077.62 1791.97 1077.78 1792.02 1077.94 1792.05H1077.95C1163.83 1811.88 1216.8 1789.1 1117.07 1758.65C1008.6 1725.52 955.245 1675.34 998.443 1678.73C1058.58 1683.44 1075.82 1665.04 952.823 1611.35C875.536 1577.61 790.906 1531.46 790.906 1531.46L790.76 1531.52C727.015 1495.79 638.989 1444.99 558.281 1393.45C529.62 1375.15 496.354 1367.07 466.786 1357.12C409.479 1337.84 348.375 1332.67 288.599 1341.7C277.448 1343.39 266.307 1345.16 255.187 1347.01C134.693 1367.11 149.297 1563.81 163.667 1607.9C254.838 1712.01 483.505 1784.51 646.896 1825.28C810.286 1866.05 647.021 1825.31 647.25 1825.36C661.651 1828.96 676.078 1832.44 690.526 1835.81C800.844 1862.06 1082.19 1926.55 1082.19 1901.51C1082.19 1898.17 1078.83 1895.89 1072.87 1891.55V1891.54C1117.51 1898.89 1154 1888.57 1155.3 1877.18C1155.7 1873.84 1153.06 1870.41 1146.71 1867.31C1179.4 1869.13 1186.15 1851.66 1107.37 1807.77H1107.38Z" fill="white"/>
<path d="M1288.52 301.781C1288.52 334.094 1262.34 360.292 1230.05 360.292C1197.76 360.292 1171.58 334.094 1171.58 301.781C1171.58 269.464 1197.76 243.266 1230.05 243.266C1262.34 243.266 1288.52 269.464 1288.52 301.781Z" fill="#232323"/>
<path d="M1304.42 392.224L1286.3 397.932L1283.42 398.833L1257.66 406.943L1211.26 421.537L1114.16 452.099C1114.16 452.099 1079.4 477.646 1055.57 502.854C1032.03 527.792 1010.8 551.974 1010.8 551.974L1010.79 551.964C1007.56 539.766 1002.08 527.958 995.646 517.109L995.625 517.047C995.625 517.047 1058.78 428.266 1169.24 369.813C1238.67 333.083 1278.54 334.005 1279.28 334.026H1279.29L1304.42 392.224Z" fill="#4CAF7A"/>
<path d="M1102.52 460.755C1114.97 458.646 1223.3 448.635 1346.09 391.922C1397.66 368.104 1391.61 344.094 1319.55 354.021C1265.71 357.938 1164.5 407.604 1102.52 460.755Z" fill="#4CAF7A"/>
<mask id="mask20_433_10998" style="mask-type:luminance" maskUnits="userSpaceOnUse" x="1100" y="346" width="224" height="123">
<path d="M1100.5 346.667H1323.17V468H1100.5V346.667Z" fill="white"/>
</mask>
<g mask="url(#mask20_433_10998)">
<mask id="mask21_433_10998" style="mask-type:luminance" maskUnits="userSpaceOnUse" x="998" y="333" width="382" height="223">
<path d="M1319.55 354.021C1310.88 354.651 1300.97 356.484 1290.21 359.307L1279.11 333.604C1279.11 333.604 1239.32 332.734 1169.24 369.818C1058.78 428.266 998.359 515.24 998.359 515.24L1014.15 555.344C1014.15 555.344 1032.02 527.792 1055.58 502.86C1070.9 486.636 1090.74 470.292 1102.95 460.688C1117.23 458.432 1224.57 448.047 1346.09 391.922C1397.66 368.104 1391.61 344.094 1319.55 354.021Z" fill="white"/>
</mask>
<g mask="url(#mask21_433_10998)">
<path d="M1104.38 467.38C1103.13 467.38 1102.01 466.604 1101.57 465.432C1101.13 464.261 1101.46 462.938 1102.41 462.115C1166.82 405.886 1268.01 356.755 1318.53 347.823C1320.17 347.537 1321.72 348.625 1322.01 350.261C1322.3 351.896 1321.21 353.453 1319.58 353.74C1269.83 362.531 1170.02 411.063 1106.35 466.641C1105.81 467.115 1105.1 467.38 1104.38 467.38Z" fill="white"/>
</g>
</g>
<path d="M1062.82 1910.19C1042.2 1910.19 1001.02 1905.41 916.62 1888.78C833.557 1872.42 738.88 1850.4 689.833 1838.72C675.375 1835.35 660.938 1831.87 646.526 1828.28L646.167 1828.19C577.208 1812.51 474.01 1785.14 374.339 1743.85C274.802 1702.63 203.161 1657.55 161.411 1609.87C160.391 1608.7 159.375 1607.53 158.365 1606.35C157.302 1605.08 157.458 1603.2 158.708 1602.13C159.964 1601.06 161.849 1601.2 162.927 1602.45C163.917 1603.61 164.917 1604.77 165.927 1605.91C207.063 1652.89 277.953 1697.43 376.63 1738.3C475.917 1779.42 578.766 1806.7 647.563 1822.35L647.667 1822.38L647.974 1822.45C662.359 1826.04 676.771 1829.51 691.208 1832.88C742.01 1844.97 839.802 1867.69 924.099 1884.13C970.021 1893.07 1006.52 1899.1 1032.57 1902.04C1076.39 1906.99 1079.1 1901.74 1079.2 1901.52C1079.2 1899.86 1076.31 1897.76 1071.93 1894.57L1071.11 1893.97C1069.98 1893.15 1069.56 1891.67 1070.1 1890.38C1070.64 1889.09 1071.99 1888.35 1073.36 1888.57C1108.46 1894.35 1138.58 1889.01 1149.1 1881.06C1151.04 1879.6 1152.18 1878.1 1152.32 1876.83C1152.57 1874.76 1150.05 1872.27 1145.4 1870.01C1144.12 1869.38 1143.45 1867.93 1143.81 1866.55C1144.17 1865.17 1145.45 1864.23 1146.88 1864.3C1160.23 1865.05 1165.84 1862.4 1166.63 1859.66C1167.28 1857.44 1167.37 1844.63 1105.96 1810.41L1105.89 1810.37C1096.51 1805.15 1086.49 1799.85 1076.11 1794.62C1074.77 1793.94 1074.13 1792.38 1074.62 1790.95C1075.11 1789.53 1076.58 1788.69 1078.06 1788.99C1078.18 1789.02 1078.3 1789.05 1078.42 1789.08L1078.48 1789.09C1078.53 1789.1 1078.58 1789.11 1078.63 1789.12C1133.14 1801.71 1166.34 1795.6 1168.12 1788.93C1169.11 1785.23 1159.53 1774.75 1116.19 1761.52C1077.86 1749.81 1042.28 1734.62 1016.01 1718.74C1001.85 1710.19 978.443 1694.16 980.583 1682.84C981.641 1677.27 987.724 1674.88 998.682 1675.73C1028.75 1678.09 1040.62 1674.13 1041.65 1670.03C1042.27 1667.53 1040.87 1653.06 951.625 1614.1C878.641 1582.23 798.135 1538.79 790.12 1534.45C789.833 1534.39 789.552 1534.28 789.297 1534.14C728.464 1500.04 638.729 1448.39 556.667 1395.98C530 1378.95 497.036 1365.86 466.234 1360.07C464.609 1359.77 463.536 1358.2 463.839 1356.57C464.146 1354.94 465.714 1353.86 467.344 1354.17C499.333 1360.18 532.203 1373.23 559.896 1390.91C641.547 1443.06 730.839 1494.47 791.589 1528.53C791.849 1528.59 792.104 1528.69 792.344 1528.82C793.188 1529.28 877.75 1575.29 954.026 1608.59C987.099 1623.03 1011.78 1635.68 1027.36 1646.19C1042.79 1656.58 1049.18 1664.62 1047.47 1671.48C1045.18 1680.66 1028.61 1684.1 998.208 1681.72C990.521 1681.12 986.776 1682.41 986.479 1683.96C985.802 1687.54 993.932 1698.39 1019.1 1713.59C1044.97 1729.22 1080.07 1744.2 1117.94 1755.77C1157.98 1767.99 1176.81 1779.67 1173.92 1790.48C1170.66 1802.69 1138.66 1805.83 1097.61 1799.02C1101.42 1801.05 1105.14 1803.08 1108.77 1805.09L1108.84 1805.14C1154.45 1830.55 1175.83 1849.45 1172.4 1861.33C1171.3 1865.13 1167.41 1869.36 1155.86 1870.26C1158.12 1872.95 1158.52 1875.51 1158.29 1877.53C1157.94 1880.51 1156.07 1883.31 1152.72 1885.84C1142.06 1893.91 1115.41 1899.45 1082.97 1895.94C1084.4 1897.61 1085.2 1899.36 1085.2 1901.5C1085.2 1902.86 1084.76 1904.84 1082.64 1906.52C1080.19 1908.45 1075.23 1910.19 1062.82 1910.19V1910.19Z" fill="#232323"/>
<path d="M1146.72 1870.31C1146.62 1870.31 1146.53 1870.31 1146.43 1870.3C1098.08 1865.65 1020.19 1835.75 982.76 1821.37C981.245 1820.76 980.505 1819.04 981.088 1817.52C981.672 1815.99 983.37 1815.21 984.906 1815.77C1022.09 1830.04 1099.47 1859.75 1147 1864.32C1148.59 1864.47 1149.78 1865.85 1149.71 1867.45C1149.63 1869.05 1148.32 1870.31 1146.72 1870.31V1870.31ZM1072.92 1894.58C1072.68 1894.58 1072.44 1894.55 1072.2 1894.49C1032.76 1884.74 989.312 1869.9 965.974 1861.92C964.401 1861.38 963.568 1859.67 964.104 1858.1C964.641 1856.54 966.344 1855.7 967.911 1856.23C991.167 1864.18 1034.45 1878.97 1073.64 1888.66C1075.11 1889.03 1076.08 1890.43 1075.9 1891.94C1075.72 1893.45 1074.44 1894.58 1072.92 1894.58ZM1077.46 1794.94C1077.16 1794.94 1076.85 1794.9 1076.54 1794.8C1053.16 1787.26 1030.39 1779.06 1009.27 1771.32C1007.74 1770.73 1006.98 1769.03 1007.54 1767.49C1008.1 1765.95 1009.79 1765.15 1011.33 1765.68C1032.4 1773.4 1055.1 1781.57 1078.39 1789.08C1079.79 1789.53 1080.66 1790.94 1080.43 1792.4C1080.2 1793.86 1078.94 1794.94 1077.46 1794.94Z" fill="#232323"/>
</svg>
