<svg width="2501" height="2500" viewBox="0 0 2501 2500" fill="none" xmlns="http://www.w3.org/2000/svg">
<path d="M2225.51 957.474C2222.38 904.328 2217.37 853.641 2210.61 799.656C2210.01 794.859 2205.63 791.463 2200.82 792.068C2196.23 792.651 2192.89 796.713 2193.19 801.338C2210.9 1067.76 2219.52 1428.8 1986.66 1562.56L1982.59 1564.86C1950.87 1581.7 1914.56 1594.06 1862.45 1599.41C1725.34 1613.86 1596 1568.62 1595.92 1568.6C1591.3 1567.14 1586.38 1569.69 1584.91 1574.31C1583.57 1578.54 1585.61 1583.11 1589.66 1584.94C1613.76 1595.71 1638.62 1604.68 1664.04 1611.77L1593.07 2081.94C1592.35 2086.72 1595.65 2091.18 1600.43 2091.9C1605.04 2092.59 1609.39 2089.55 1610.31 2084.97L1703.47 1621.53C1797.57 1641.65 1908.95 1643.35 1994.47 1599.28L2089.15 2083.24C2090.08 2087.99 2094.68 2091.08 2099.42 2090.15C2104.01 2089.25 2107.08 2084.9 2106.4 2080.28L2031.3 1576.76C2215.19 1448.64 2238.53 1180.69 2225.51 957.474Z" fill="#232323"/>
<mask id="mask0_433_11377" style="mask-type:luminance" maskUnits="userSpaceOnUse" x="1978" y="2067" width="132" height="27">
<path d="M1978.5 2067H2109.5V2094H1978.5V2067Z" fill="white"/>
</mask>
<g mask="url(#mask0_433_11377)">
<path d="M2109.5 2080.5C2109.5 2087.96 2080.18 2094 2044 2094C2007.82 2094 1978.5 2087.96 1978.5 2080.5C1978.5 2073.04 2007.82 2067 2044 2067C2080.18 2067 2109.5 2073.04 2109.5 2080.5Z" fill="#232323"/>
</g>
<mask id="mask1_433_11377" style="mask-type:luminance" maskUnits="userSpaceOnUse" x="582" y="894" width="383" height="209">
<path d="M582.5 894.667H964.5V1102.67H582.5V894.667Z" fill="white"/>
</mask>
<g mask="url(#mask1_433_11377)">
<path d="M649.406 1100.61C663.698 1101.48 679.036 1102.19 687.703 1102.02C688.427 1102.01 689.151 1101.98 689.875 1101.95C690.786 1101.91 691.698 1101.85 692.609 1101.8C692.776 1101.79 692.938 1101.78 693.104 1101.77C731.052 1099.71 769.094 1091.72 804.182 1081.31L804.62 1081.18C805.458 1080.93 806.286 1080.68 807.12 1080.43C824.078 1075.32 840.313 1069.64 855.479 1063.83C918.99 1039.47 963.682 1012.54 963.682 1012.54C929.307 986.536 896.479 958.547 865.375 928.708C841.438 932.943 817.214 935.312 792.917 935.792C792.797 935.797 792.667 935.792 792.547 935.797C792.401 935.802 792.25 935.802 792.099 935.807L791.214 935.823C766.531 936.265 722.125 933.536 674.13 923.562C643.651 917.229 611.734 907.989 582.5 894.776L649.406 1100.61Z" fill="#4CAF7A"/>
</g>
<path d="M1101.91 914.964C1099.75 917.229 1097.55 919.453 1095.31 921.636C1094.3 922.615 1093.28 923.589 1092.24 924.578C1092.23 924.589 1092.22 924.589 1092.22 924.604C1062.14 952.896 1017.28 982.344 959.088 1015.1C959.073 1015.11 959.047 1015.11 959.026 1015.13C957.667 1015.9 956.302 1016.67 954.937 1017.43L954.906 1017.45C948.542 1021.01 864.146 929.787 868.312 928.453C903.224 917.224 961.552 888.782 984.656 867.813C1009.79 844.985 1017.53 850.74 1006.34 872.709C981.364 921.688 1028.29 884.938 1073.55 860.787C1110.42 841.12 1097.69 864.313 1094 868.625C1094.14 868.521 1094.3 868.417 1094.45 868.308C1097.62 866.026 1101.02 864.058 1104.58 862.443C1114.1 858.282 1121.58 859.604 1109.94 880.823C1109.93 880.865 1109.9 880.896 1109.87 880.938C1112.61 878.641 1115.04 877.641 1116.88 877.776C1123.44 878.287 1122.61 893.183 1101.91 914.964Z" fill="white"/>
<mask id="mask2_433_11377" style="mask-type:luminance" maskUnits="userSpaceOnUse" x="864" y="850" width="260" height="172">
<path d="M864.5 850H1123.5V1021.33H864.5V850Z" fill="white"/>
</mask>
<g mask="url(#mask2_433_11377)">
<path d="M954.463 1020.55C952.766 1020.55 950.875 1019.53 948.687 1018.02C938.786 1011.18 917.01 989.214 899.927 970.932C890.672 961.031 882.13 951.511 875.875 944.136C864.786 931.068 864.984 929.74 865.213 928.203C865.385 926.99 866.234 925.984 867.401 925.615C910.958 911.599 964.172 882.37 982.651 865.604C997.255 852.333 1006.78 847.729 1011.74 851.531C1015.91 854.719 1014.99 862.297 1008.99 874.063C1000.3 891.12 1002.64 893.615 1002.66 893.636C1002.73 893.703 1004.53 895.219 1015.35 890.115C1023.09 886.464 1033.18 880.531 1043.86 874.255C1053.05 868.854 1062.54 863.276 1072.15 858.151C1088.16 849.615 1096.95 847.875 1100.67 852.516C1102.43 854.703 1102.39 857.656 1101.58 860.557C1102.17 860.271 1102.76 859.995 1103.35 859.724C1109.89 856.865 1114.49 856.865 1117.08 859.698C1119.69 862.552 1119.47 867.323 1116.26 874.787C1116.54 874.776 1116.82 874.781 1117.1 874.802C1119.76 875.005 1121.85 876.609 1122.84 879.198C1125.84 887.021 1118.47 901.87 1104.07 917.021C1101.89 919.318 1099.66 921.568 1097.39 923.776C1096.53 924.604 1095.66 925.438 1094.78 926.276L1094.3 926.734L1094.26 926.776C1066 953.365 1023.51 982.261 960.552 1017.7L960.437 1017.76C959.135 1018.49 957.823 1019.23 956.505 1019.97C955.896 1020.35 955.187 1020.56 954.463 1020.55ZM872.385 930.255C876.864 936.552 891.713 953.682 910.516 973.464C935.271 999.505 950.213 1012.7 954.193 1014.43C955.323 1013.79 956.443 1013.17 957.557 1012.53V1012.54C957.599 1012.51 957.641 1012.49 957.687 1012.46C1020.16 977.292 1062.26 948.688 1090.15 922.453L1090.18 922.422L1090.67 921.958C1091.53 921.13 1092.38 920.318 1093.22 919.5C1095.44 917.344 1097.61 915.146 1099.74 912.906C1115.13 896.729 1118.66 884.958 1117.27 881.339C1117.06 880.787 1116.86 880.771 1116.64 880.755C1115.81 880.688 1114.07 881.307 1111.79 883.224C1110.68 884.162 1109.05 884.162 1107.94 883.219C1106.83 882.271 1106.56 880.667 1107.31 879.412L1107.33 879.386C1114.5 866.302 1112.7 863.745 1112.68 863.724C1112.47 863.5 1110.61 863.063 1105.77 865.177C1102.4 866.708 1099.19 868.573 1096.18 870.734L1095.74 871.042C1094.52 871.927 1092.82 871.755 1091.8 870.646C1090.77 869.531 1090.74 867.828 1091.73 866.682C1094.35 863.615 1096.92 857.375 1096.02 856.25C1095.99 856.224 1092.93 853.833 1074.95 863.417C1065.46 868.484 1056.02 874.031 1046.89 879.401C1019.35 895.583 1004.7 903.761 998.562 897.984C994.557 894.203 996.083 886.24 1003.68 871.349C1009.06 860.776 1008.54 856.761 1008.1 856.261C1008.09 856.255 1003.46 854.755 986.656 870.021C964.364 890.261 908.995 917.927 872.385 930.255ZM1107.27 879.505L1107.24 879.552C1107.25 879.537 1107.26 879.521 1107.27 879.505Z" fill="#232323"/>
</g>
<path d="M963.682 1016.02C963.682 1016.02 918.99 1039.47 855.479 1063.83L792.917 935.792C818.177 935.224 849.573 928.719 874.469 924.396C924.193 972.36 963.682 1012.53 963.682 1012.53V1016.02Z" fill="#232323"/>
<path d="M898.552 1012.48C898.552 1019.14 893.161 1024.54 886.51 1024.54C879.865 1024.54 874.469 1019.14 874.469 1012.48C874.469 1005.83 879.865 1000.43 886.51 1000.43C893.161 1000.43 898.552 1005.83 898.552 1012.48Z" fill="#042628"/>
<path d="M830.886 935.516C860.63 1005.11 881.057 1080.09 877.547 1164.25L759.354 1186.02C753.969 1090.52 737.771 1006.47 711.87 932.708C760.5 938.844 804.99 938.047 829.557 935.651L830.438 935.563C830.589 935.547 830.734 935.537 830.886 935.516Z" fill="white"/>
<mask id="mask3_433_11377" style="mask-type:luminance" maskUnits="userSpaceOnUse" x="708" y="929" width="174" height="260">
<path d="M708.5 929.333H881.833V1189H708.5V929.333Z" fill="white"/>
</mask>
<g mask="url(#mask3_433_11377)">
<path d="M759.354 1189C757.771 1189 756.464 1187.77 756.375 1186.18C751.125 1093.11 735.208 1008.17 709.052 933.698C708.714 932.724 708.896 931.636 709.547 930.833C710.198 930.026 711.219 929.62 712.245 929.745C759.537 935.714 803.703 935.177 829.266 932.682L830.505 932.557C831.828 932.386 833.104 933.115 833.63 934.344C868.745 1016.51 883.651 1089.61 880.526 1164.38C880.469 1165.77 879.453 1166.94 878.083 1167.19L759.896 1188.95C759.714 1188.98 759.537 1189 759.354 1189ZM716.26 936.25C741.349 1009.25 756.776 1092.04 762.135 1182.47L874.656 1161.75C877.307 1089.33 862.771 1018.33 829 938.703C803.87 941.078 761.719 941.599 716.26 936.25Z" fill="#232323"/>
</g>
<path d="M757.724 1153.95L878.292 1132.78Z" fill="white"/>
<path d="M1040.07 919.198C1038.67 919.198 1037.46 918.229 1037.16 916.87C1036.85 915.505 1037.53 914.109 1038.79 913.515C1063.09 902.041 1080.45 886.771 1091.85 866.828C1092.67 865.396 1094.49 864.901 1095.93 865.718C1097.35 866.536 1097.85 868.359 1097.03 869.791C1085 890.833 1066.78 906.901 1041.34 918.916C1040.94 919.099 1040.51 919.198 1040.07 919.198ZM1056.77 933.995C1055.4 933.995 1054.2 933.057 1053.88 931.724C1053.55 930.385 1054.17 929 1055.39 928.364C1055.73 928.182 1085.36 912.39 1108.51 877.198C1109.09 876.297 1110.11 875.776 1111.18 875.838C1112.26 875.896 1113.21 876.526 1113.69 877.484C1114.17 878.448 1114.09 879.588 1113.49 880.479C1089.43 917.062 1059.42 932.995 1058.15 933.656C1057.72 933.88 1057.25 933.995 1056.77 933.995ZM757.724 1156.94C756.177 1156.93 754.885 1155.75 754.755 1154.21C754.62 1152.67 755.688 1151.28 757.208 1151.01L875.792 1130.19C876.573 1130.05 877.375 1130.23 878.021 1130.69C878.667 1131.14 879.109 1131.83 879.245 1132.61C879.531 1134.24 878.448 1135.79 876.823 1136.07L758.24 1156.89C758.068 1156.92 757.896 1156.94 757.724 1156.94Z" fill="#232323"/>
<path d="M1076.9 1212.46C1076.9 1219.39 1071.25 1225 1064.28 1225C1057.3 1225 1051.65 1219.39 1051.65 1212.46C1051.65 1205.54 1057.3 1199.92 1064.28 1199.92C1071.25 1199.92 1076.9 1205.54 1076.9 1212.46Z" fill="white"/>
<path d="M1064.28 1227.37C1055.99 1227.37 1049.26 1220.68 1049.26 1212.46C1049.26 1204.24 1055.99 1197.55 1064.28 1197.55C1072.55 1197.55 1079.29 1204.24 1079.29 1212.46C1079.29 1220.68 1072.55 1227.37 1064.28 1227.37ZM1064.28 1202.29C1058.63 1202.29 1054.04 1206.85 1054.04 1212.46C1054.04 1218.07 1058.63 1222.63 1064.28 1222.63C1069.92 1222.63 1074.52 1218.07 1074.52 1212.46C1074.52 1206.85 1069.92 1202.29 1064.28 1202.29Z" fill="#232323"/>
<path d="M1056.82 1221.09C1036.1 1236.79 1038.54 1248 1047.54 1251.64C1049.32 1252.35 1051.24 1252.64 1053.16 1252.63L1173.01 1252.41C1177.84 1252.4 1183.49 1248.91 1185.01 1244.35C1190.7 1227.18 1174.2 1202.38 1139.56 1197.97C1120.23 1195.52 1084.61 1200.02 1056.82 1221.09Z" fill="#232323"/>
<mask id="mask4_433_11377" style="mask-type:luminance" maskUnits="userSpaceOnUse" x="1038" y="1195" width="151" height="60">
<path d="M1038.5 1195H1188.5V1255H1038.5V1195Z" fill="white"/>
</mask>
<g mask="url(#mask4_433_11377)">
<path d="M1053.12 1255C1050.75 1255 1048.57 1254.6 1046.65 1253.83C1042.04 1251.97 1039.18 1248.58 1038.6 1244.29C1037.92 1239.17 1040.27 1230.65 1055.37 1219.2C1082.01 1199.01 1117.84 1192.82 1139.86 1195.63C1159.05 1198.07 1174.8 1206.94 1183.07 1219.98C1188.31 1228.22 1189.83 1237.37 1187.28 1245.09C1185.51 1250.42 1179.11 1254.77 1173.02 1254.78L1053.16 1255H1053.12ZM1129.01 1199.72C1108.12 1199.72 1080.02 1206.48 1058.27 1222.97C1048.05 1230.71 1042.61 1238.26 1043.34 1243.66C1043.78 1246.91 1046.35 1248.59 1048.44 1249.44C1049.8 1249.98 1051.41 1250.27 1053.16 1250.26L1173.01 1250.04C1177.06 1250.03 1181.61 1247.02 1182.74 1243.6C1184.86 1237.23 1183.51 1229.55 1179.04 1222.51C1171.52 1210.67 1157.02 1202.58 1139.26 1200.32C1136.11 1199.93 1132.67 1199.72 1129.01 1199.72Z" fill="#232323"/>
</g>
<path d="M1223.26 831.068H857.74C861.021 732.943 941.594 654.406 1040.49 654.406C1137.22 654.365 1217.23 729.698 1223.03 826.266C1223.13 827.859 1223.2 829.464 1223.26 831.068Z" fill="#4CAF7A"/>
<mask id="mask5_433_11377" style="mask-type:luminance" maskUnits="userSpaceOnUse" x="809" y="825" width="463" height="40">
<path d="M809.5 825.333H1271.5V865H809.5V825.333Z" fill="white"/>
</mask>
<g mask="url(#mask5_433_11377)">
<path d="M828.865 826.266H1252.14C1262.83 826.266 1271.5 834.938 1271.5 845.635C1271.5 856.328 1262.83 865 1252.14 865H828.865C818.172 865 809.5 856.328 809.5 845.635C809.5 834.938 818.172 826.266 828.865 826.266Z" fill="#232323"/>
</g>
<path d="M1062.1 637.604C1062.1 649.531 1052.43 659.203 1040.5 659.203C1028.57 659.203 1018.9 649.531 1018.9 637.604C1018.9 625.672 1028.57 616 1040.5 616C1052.43 616 1062.1 625.672 1062.1 637.604Z" fill="#4CAF7A"/>
<path d="M1405.92 452.708C1406.6 452.537 1407.38 452.49 1408.28 452.339L1357.22 556.198C1326.24 561.313 1308.68 571.615 1300.73 584.807C1311.24 563.234 1349.71 484.573 1350.89 482.328C1360.38 466.578 1375.36 458.073 1405.92 452.708Z" fill="#232323"/>
<mask id="mask6_433_11377" style="mask-type:luminance" maskUnits="userSpaceOnUse" x="1297" y="450" width="115" height="138">
<path d="M1297.83 450H1411.17V588H1297.83V450Z" fill="white"/>
</mask>
<g mask="url(#mask6_433_11377)">
<path d="M1300.72 587.146C1299.92 587.146 1299.18 586.729 1298.76 586.047C1298.33 585.359 1298.29 584.505 1298.65 583.781C1308.17 564.25 1347.62 483.562 1348.84 481.234C1348.86 481.193 1348.89 481.156 1348.91 481.115C1358.97 464.417 1374.82 455.807 1405.45 450.417C1405.96 450.297 1406.47 450.229 1406.97 450.167C1407.26 450.125 1407.57 450.088 1407.9 450.031C1408.75 449.891 1409.62 450.24 1410.14 450.948C1410.66 451.651 1410.74 452.588 1410.35 453.375L1359.3 557.234C1358.97 557.911 1358.34 558.38 1357.6 558.505C1329.37 563.161 1310.91 572.417 1302.71 586.021C1302.29 586.719 1301.54 587.146 1300.72 587.146ZM1352.91 483.474C1351.53 486.161 1324.84 540.719 1309.86 571.391C1320.33 563.312 1335.66 557.516 1355.67 554.088L1404.19 455.391C1376.44 460.526 1361.97 468.49 1352.91 483.474Z" fill="#232323"/>
</g>
<path d="M1396.75 712.661C1337.73 691.12 1273.9 639.088 1298.07 590.172C1312.68 560.562 1341.96 500.682 1349.81 484.693C1332.14 524.542 1393.24 585.495 1448.18 608.276C1448.06 608.375 1397.29 712.818 1396.76 712.661H1396.75Z" fill="white"/>
<mask id="mask7_433_11377" style="mask-type:luminance" maskUnits="userSpaceOnUse" x="1290" y="481" width="161" height="234">
<path d="M1290.5 481.333H1450.5V715H1290.5V481.333Z" fill="white"/>
</mask>
<g mask="url(#mask7_433_11377)">
<path d="M1396.93 715.042C1396.65 715.036 1396.38 714.995 1396.11 714.911C1396.06 714.896 1396.01 714.88 1395.96 714.859C1355.89 700.234 1309.07 669.417 1294.81 633.531C1288.67 618.078 1289.07 603.141 1295.99 589.13C1306.51 567.823 1324.79 530.505 1336.88 505.812C1341.65 496.068 1345.53 488.141 1347.73 483.661C1348.28 482.49 1349.66 481.99 1350.82 482.536C1351.98 483.088 1352.47 484.479 1351.93 485.646C1347.67 495.26 1348.09 506.641 1353.18 519.474C1365.87 551.463 1407.09 588.713 1449.06 606.115C1449.68 606.37 1450.15 606.875 1450.37 607.505C1450.59 608.135 1450.53 608.828 1450.21 609.411C1449.89 610.036 1446.48 617.031 1442.17 625.854C1435.03 640.474 1424.24 662.578 1415.26 680.87C1410.32 690.927 1406.45 698.766 1403.74 704.182C1402.58 706.531 1401.4 708.87 1400.2 711.208C1398.86 713.807 1398.22 715.042 1396.93 715.042ZM1344.39 501.042L1341.04 507.88C1328.94 532.578 1310.67 569.896 1300.15 591.213C1293.84 603.979 1293.49 617.63 1299.12 631.792C1312.63 665.792 1357.03 695.26 1395.71 709.786C1400.83 699.953 1426.54 647.281 1438.01 623.786C1441.81 615.99 1443.86 611.776 1445.02 609.469C1402.8 591.25 1361.74 553.656 1348.86 521.203C1346.05 514.099 1344.56 507.365 1344.39 501.042Z" fill="#232323"/>
</g>
<path d="M1310.02 614.542C1313.73 611.156 1318.31 608.062 1323.3 605.229L1312.03 600.875C1310.53 600.307 1309.67 598.568 1310.36 596.948C1310.93 595.432 1312.66 594.568 1314.27 595.255L1330.69 601.583C1344.01 595.729 1358.06 593.172 1364.42 598.026C1366.81 599.891 1370.11 604.276 1365.48 613.385C1362.02 620.469 1361.57 626.01 1364.12 628.552C1368.23 632.448 1382.18 631.219 1409.02 615.854C1410.42 615.073 1412.26 615.557 1413.03 616.953C1413.8 618.354 1413.31 620.208 1412.02 621.109C1407.48 623.76 1403.21 625.984 1399.06 627.885L1398.95 627.984L1411.18 632.75C1411.82 633.026 1412.44 633.521 1412.83 634.219C1413.48 635.724 1412.9 637.458 1411.5 638.24C1410.81 638.63 1409.93 638.557 1409.17 638.385L1391.56 631.63C1391.46 631.51 1391.46 631.51 1391.24 631.495C1376.12 637.651 1365.45 638.135 1360.01 632.906C1355.17 628.396 1355.27 620.49 1360.17 610.729C1361.51 607.937 1362.8 604.365 1360.7 602.859C1354.45 598.125 1328.44 605.974 1314.08 619.099C1312.89 620.12 1311.01 620.083 1310 618.885C1308.79 617.453 1308.83 615.562 1310.02 614.542Z" fill="#232323"/>
<path d="M1366.15 1708.47C1366.15 1708.47 1190.17 1838.51 1163.66 2012.74C1150.6 2098.98 1087.76 2084.44 1087.76 2084.44L998.984 1960.65C1070.6 1585.74 1260.91 1451.61 1331.65 1396.98C1506.53 1292.46 1588.48 1492.23 1366.15 1708.47Z" fill="white"/>
<path d="M1098.02 2087.79C1091.76 2087.79 1087.61 2086.87 1087.21 2086.78C1086.65 2086.65 1086.15 2086.31 1085.81 2085.84L997.042 1962.04C996.656 1961.51 996.51 1960.84 996.635 1960.2C1065.9 1597.59 1245.57 1459.93 1322.29 1401.15C1325.06 1399.02 1327.7 1397 1330.19 1395.08C1330.26 1395.02 1330.34 1394.97 1330.42 1394.92C1363.41 1375.2 1395.22 1365.22 1422.42 1366.04C1448.23 1366.81 1469.47 1377.1 1483.82 1395.78C1506.24 1424.97 1509.48 1472.03 1492.7 1524.87C1473.51 1585.31 1430.32 1649.4 1367.81 1710.19C1367.73 1710.26 1367.66 1710.33 1367.57 1710.4C1367.13 1710.72 1323.17 1743.43 1276.57 1796.93C1249.23 1828.31 1226.35 1860.6 1208.55 1892.91C1186.33 1933.22 1172.03 1973.66 1166.03 2013.1C1161.39 2043.75 1150.04 2065.41 1132.3 2077.46C1119.77 2085.97 1106.81 2087.79 1098.02 2087.79ZM1089.15 2082.27C1093.33 2082.98 1112.21 2085.34 1129.67 2073.45C1146.23 2062.17 1156.86 2041.62 1161.3 2012.38C1167.38 1972.36 1181.88 1931.36 1204.39 1890.54C1222.36 1857.93 1245.46 1825.34 1273.04 1793.69C1318.69 1741.3 1361.85 1708.69 1364.59 1706.64C1407.77 1664.62 1464.21 1598.77 1488.14 1523.42C1504.44 1472.09 1501.48 1426.63 1480.02 1398.69C1466.57 1381.19 1446.61 1371.56 1422.28 1370.82C1396.03 1370.03 1365.16 1379.77 1333 1398.96C1330.54 1400.86 1327.94 1402.85 1325.2 1404.95C1248.98 1463.35 1070.6 1600.02 1001.54 1960.09L1089.15 2082.27Z" fill="#232323"/>
<path d="M1097.11 2088.73C1082.79 2064.83 1050.34 1998.11 999.182 1960.65C905.344 1958.11 831.974 2023.86 820.865 2088.73H1097.11Z" fill="#042628"/>
<mask id="mask8_433_11377" style="mask-type:luminance" maskUnits="userSpaceOnUse" x="956" y="1960" width="112" height="130">
<path d="M956.5 1960H1067.17V2089.33H956.5V1960Z" fill="white"/>
</mask>
<g mask="url(#mask8_433_11377)">
<mask id="mask9_433_11377" style="mask-type:luminance" maskUnits="userSpaceOnUse" x="820" y="1960" width="278" height="129">
<path d="M1097.11 2088.73C1082.79 2064.83 1050.34 1998.11 999.182 1960.65C905.344 1958.11 831.974 2023.86 820.865 2088.73H1097.11Z" fill="white"/>
</mask>
<g mask="url(#mask9_433_11377)">
<path d="M1063.61 2091.13C1062.73 2091.13 1061.92 2090.65 1061.51 2089.88C1042.26 2054.44 1008.71 2003.58 958.208 1962.6C957.182 1961.77 957.026 1960.26 957.859 1959.23C958.693 1958.2 960.203 1958.04 961.229 1958.88C1012.33 2000.36 1046.26 2051.77 1065.71 2087.59C1066.12 2088.33 1066.1 2089.23 1065.67 2089.96C1065.24 2090.69 1064.46 2091.13 1063.61 2091.13Z" fill="white"/>
</g>
</g>
<mask id="mask10_433_11377" style="mask-type:luminance" maskUnits="userSpaceOnUse" x="819" y="2082" width="365" height="12">
<path d="M819.5 2082.67H1183.17V2093H819.5V2082.67Z" fill="white"/>
</mask>
<g mask="url(#mask10_433_11377)">
<path d="M824.37 2093C821.646 2093 819.5 2090.76 819.5 2088.13C819.5 2085.49 821.646 2083.24 824.37 2083.24L1177.4 2082.76C1180.13 2082.76 1182.28 2084.9 1182.28 2087.64C1182.28 2090.36 1180.13 2092.51 1177.4 2092.51L824.37 2093Z" fill="#232323"/>
</g>
<path d="M1629.31 2088.73C1614.98 2064.83 1570.55 1998.2 1519.4 1960.65C1446.02 1958.01 1364.07 2023.77 1353.06 2088.73H1629.31Z" fill="#042628"/>
<mask id="mask11_433_11377" style="mask-type:luminance" maskUnits="userSpaceOnUse" x="1477" y="1960" width="113" height="130">
<path d="M1477.83 1960H1589.83V2089.33H1477.83V1960Z" fill="white"/>
</mask>
<g mask="url(#mask11_433_11377)">
<mask id="mask12_433_11377" style="mask-type:luminance" maskUnits="userSpaceOnUse" x="1353" y="1960" width="277" height="129">
<path d="M1629.31 2088.73C1614.98 2064.83 1570.55 1998.2 1519.4 1960.65C1446.02 1958.01 1364.07 2023.77 1353.06 2088.73H1629.31Z" fill="white"/>
</mask>
<g mask="url(#mask12_433_11377)">
<path d="M1587.41 2088.55C1586.61 2088.56 1585.86 2088.16 1585.42 2087.5C1557.73 2046.5 1528.78 2006.21 1479.32 1964.08C1478.66 1963.53 1478.35 1962.67 1478.5 1961.82C1478.66 1960.97 1479.25 1960.27 1480.06 1959.98C1480.87 1959.7 1481.78 1959.87 1482.43 1960.43C1532.34 2002.95 1561.51 2043.53 1589.39 2084.82C1589.88 2085.55 1589.93 2086.5 1589.52 2087.28C1589.1 2088.06 1588.29 2088.55 1587.41 2088.55Z" fill="white"/>
</g>
</g>
<mask id="mask13_433_11377" style="mask-type:luminance" maskUnits="userSpaceOnUse" x="1351" y="1309" width="489" height="784">
<path d="M1351.17 1309.33H1839.17V2093H1351.17V1309.33Z" fill="white"/>
</mask>
<g mask="url(#mask13_433_11377)">
<path d="M1708.84 2092.51H1356.59C1353.87 2092.51 1351.72 2090.36 1351.72 2087.64C1351.72 2084.9 1353.87 2082.76 1356.59 2082.76H1708.94C1711.67 2082.76 1713.82 2084.9 1713.82 2087.64C1713.82 2090.36 1711.57 2092.51 1708.84 2092.51ZM1811.48 1675.03C1776.6 1675.03 1729.93 1611.09 1676.5 1490.11C1641.5 1410.84 1614.15 1330.67 1607.07 1309.43C1631.96 1323.47 1658.43 1344.79 1685.85 1372.85C1712.39 1400.02 1738.87 1432.77 1762.45 1467.55C1785.28 1501.21 1804.41 1535.31 1817.8 1566.16C1831.59 1597.93 1838.58 1624.74 1838.02 1643.69C1837.58 1658.49 1832.59 1668.17 1823.18 1672.46C1819.44 1674.17 1815.5 1675.03 1811.48 1675.03Z" fill="#232323"/>
</g>
<path d="M1811.48 1677.43C1793.32 1677.43 1772.3 1661.25 1749.02 1629.35C1726.1 1597.96 1700.97 1551.44 1674.32 1491.07C1639.47 1412.17 1612.3 1332.67 1604.79 1310.18C1604.48 1309.24 1604.78 1308.21 1605.54 1307.57C1606.31 1306.94 1607.38 1306.85 1608.24 1307.34C1633.33 1321.5 1660.02 1342.98 1687.56 1371.18C1714.2 1398.45 1740.78 1431.31 1764.44 1466.2C1787.34 1499.99 1806.55 1534.22 1819.99 1565.21C1833.92 1597.3 1840.98 1624.46 1840.41 1643.76C1839.95 1659.55 1834.48 1669.94 1824.17 1674.64C1820.12 1676.49 1815.85 1677.43 1811.48 1677.43ZM1611.37 1314.71C1620.97 1343.1 1646.57 1416.38 1678.7 1489.14C1705.21 1549.19 1730.18 1595.41 1752.89 1626.53C1775.22 1657.12 1794.93 1672.64 1811.48 1672.64C1815.16 1672.64 1818.76 1671.84 1822.19 1670.28C1830.7 1666.4 1835.22 1657.43 1835.62 1643.62C1836.17 1625.02 1829.25 1598.56 1815.6 1567.11C1802.27 1536.4 1783.21 1502.44 1760.47 1468.9C1736.97 1434.22 1710.58 1401.59 1684.14 1374.53C1658.91 1348.7 1634.46 1328.6 1611.37 1314.71Z" fill="#232323"/>
<path d="M1835.13 1614.04C1766.14 1617.78 1657.3 1600.11 1595.04 1580.96C1624.85 1663.79 1687.51 1926.5 1700.27 2012.74C1713.04 2098.98 1624.36 2084.44 1624.36 2084.44C1584.71 2043.28 1547.58 1999.67 1513.47 1953.72C1467.46 1886.76 1407.77 1788.43 1366.15 1708.47C1329.97 1638.97 1256.39 1480.8 1331.65 1396.98C1415.55 1327.52 1530.16 1304.69 1598.47 1298.74C1741.9 1397.76 1832.71 1554.92 1837.78 1614.04H1835.13Z" fill="white"/>
<path d="M1638.18 2087.77C1629.95 2087.77 1624.29 2086.86 1623.97 2086.81C1623.47 2086.72 1623 2086.48 1622.64 2086.1C1582.49 2044.44 1545.12 2000.38 1511.55 1955.15C1511.54 1955.13 1511.52 1955.1 1511.5 1955.08C1462.92 1884.38 1403.66 1785.72 1364.02 1709.57C1334.45 1652.78 1315.08 1603.4 1304.77 1558.63C1288.33 1487.16 1296.77 1432.23 1329.87 1395.38C1329.95 1395.29 1330.03 1395.21 1330.12 1395.13C1422.01 1319.06 1548.25 1300.71 1598.26 1296.35C1598.82 1296.3 1599.37 1296.45 1599.83 1296.77C1663.51 1340.73 1724.65 1402.24 1771.97 1469.98C1810.65 1525.33 1837.42 1581.8 1840.16 1613.83C1840.22 1614.5 1839.99 1615.16 1839.54 1615.66C1839.09 1616.15 1838.45 1616.43 1837.78 1616.43H1835.19C1767.05 1620.11 1661.08 1603.02 1598.87 1584.62C1629.11 1671.65 1690.16 1928.05 1702.64 2012.39C1706.46 2038.17 1701.74 2057.8 1688.62 2070.71C1679.07 2080.12 1664.84 2085.88 1647.47 2087.37C1644.14 2087.66 1641.01 2087.77 1638.18 2087.77ZM1625.52 2082.19C1631.1 2082.92 1665.71 2086.57 1685.27 2067.29C1697.23 2055.5 1701.48 2037.27 1697.9 2013.09C1685.22 1927.43 1622.35 1663.93 1592.78 1581.78C1592.47 1580.92 1592.67 1579.97 1593.3 1579.31C1593.93 1578.66 1594.87 1578.41 1595.74 1578.67C1651.3 1595.76 1746.36 1612.15 1815.25 1612.15C1822.12 1612.15 1828.72 1611.98 1835 1611.65C1835.04 1611.64 1835.08 1611.64 1835.11 1611.64C1831.27 1579.97 1805.23 1525.95 1768.05 1472.72C1721.21 1405.7 1660.79 1344.81 1597.82 1301.2C1547.7 1305.65 1423.63 1324.02 1333.31 1398.71C1301.42 1434.34 1293.39 1487.78 1309.44 1557.56C1319.65 1601.93 1338.9 1650.93 1368.27 1707.36C1407.82 1783.34 1466.95 1881.78 1515.42 1952.33C1548.71 1997.16 1585.74 2040.85 1625.52 2082.19Z" fill="#232323"/>
<path d="M1595.04 1580.96C1586.56 1554.74 1570.93 1520.06 1564.73 1507.81Z" fill="white"/>
<path d="M1595.03 1583.36C1594 1583.36 1593.07 1582.69 1592.76 1581.7C1584.42 1555.92 1569 1521.56 1562.59 1508.89C1562.2 1508.13 1562.25 1507.21 1562.71 1506.49C1563.18 1505.77 1564 1505.35 1564.86 1505.4C1565.72 1505.45 1566.48 1505.96 1566.86 1506.73C1573.33 1519.51 1588.9 1554.19 1597.31 1580.23C1597.55 1580.96 1597.42 1581.76 1596.97 1582.38C1596.52 1582.99 1595.8 1583.36 1595.03 1583.36Z" fill="#232323"/>
<path d="M2136.33 1389.17C2096.18 1493.46 2001.57 1600.18 1825.79 1674.52C1880.35 1624.96 1750.76 1410.64 1595.43 1298.74C1797.62 1261.08 2070.66 1320.79 2136.33 1389.17Z" fill="#4CAF7A"/>
<path d="M1960.44 1555.7C1960.44 1560.39 1956.64 1564.18 1951.96 1564.18C1947.28 1564.18 1943.48 1560.39 1943.48 1555.7C1943.48 1551.01 1947.28 1547.21 1951.96 1547.21C1956.64 1547.21 1960.44 1551.01 1960.44 1555.7Z" fill="white"/>
<path d="M1813.2 1464.48C1813.2 1469.17 1809.41 1472.97 1804.73 1472.97C1800.05 1472.97 1796.25 1469.17 1796.25 1464.48C1796.25 1459.8 1800.05 1456 1804.73 1456C1809.41 1456 1813.2 1459.8 1813.2 1464.48Z" fill="white"/>
<path d="M1721.61 1333.57C1721.61 1338.26 1717.81 1342.05 1713.14 1342.05C1708.45 1342.05 1704.66 1338.26 1704.66 1333.57C1704.66 1328.88 1708.45 1325.08 1713.14 1325.08C1717.81 1325.08 1721.61 1328.88 1721.61 1333.57Z" fill="white"/>
<path d="M1922.63 1365.76C1922.63 1370.45 1918.84 1374.24 1914.16 1374.24C1909.47 1374.24 1905.68 1370.45 1905.68 1365.76C1905.68 1361.07 1909.47 1357.27 1914.16 1357.27C1918.84 1357.27 1922.63 1361.07 1922.63 1365.76Z" fill="white"/>
<path d="M2072.2 1423.22C2072.2 1427.91 2068.41 1431.71 2063.72 1431.71C2059.05 1431.71 2055.25 1427.91 2055.25 1423.22C2055.25 1418.53 2059.05 1414.73 2063.72 1414.73C2068.41 1414.73 2072.2 1418.53 2072.2 1423.22Z" fill="white"/>
<path d="M2134.57 1389.17C2130.36 1387.37 2073.1 1360.05 2009.26 1343.22C1853.52 1299.92 1712.14 1315.01 1652.82 1275.42C1591.82 1237.47 1553.43 1165.77 1545.34 1077.68C1537.54 989.901 1561.97 881.474 1593.08 826.969C1622.36 774.203 1645.98 762.401 1649.21 759.167C1649.51 759.016 1650.79 758.115 1650.96 757.995C1652.63 757.021 1653.5 756.531 1653.5 756.531C1653.5 756.531 1653.6 756.141 1653.79 755.458C1653.79 755.359 1653.79 755.266 1653.89 755.167C1653.98 754.974 1653.98 754.677 1654.08 754.385C1654.08 754.193 1654.18 754.094 1654.28 753.901C1654.28 753.802 1654.38 753.703 1654.38 753.604C1654.44 753.469 1661.21 728.573 1674.35 713.219C1676.01 711.172 1760.88 657.026 1794.1 653.125C1844.67 679.307 2039.26 721.698 2124.14 987.151C2197.71 1216.21 2135.83 1385.85 2134.57 1389.17Z" fill="white"/>
<mask id="mask14_433_11377" style="mask-type:luminance" maskUnits="userSpaceOnUse" x="1540" y="650" width="623" height="742">
<path d="M1540.5 650.667H2162.5V1392H1540.5V650.667Z" fill="white"/>
</mask>
<g mask="url(#mask14_433_11377)">
<path d="M2134.57 1391.61C2134.09 1391.61 2133.65 1391.47 2133.28 1391.22C2132.84 1391.03 2132.16 1390.72 2131.26 1390.31C2077.87 1365.94 2035.11 1352.52 2008.65 1345.54C1935.1 1325.09 1865.82 1317.8 1804.7 1311.37C1736.83 1304.23 1683.22 1298.59 1651.49 1277.42C1620.94 1258.42 1595.91 1231.18 1577.13 1196.49C1558.52 1162.12 1547.02 1122.22 1542.95 1077.9C1534.87 986.937 1561.04 878.281 1591.01 825.776C1616.31 780.177 1637.29 764.974 1645.18 759.255C1646.26 758.474 1647.19 757.802 1647.52 757.474C1647.7 757.291 1647.91 757.14 1648.14 757.021C1648.55 756.755 1648.95 756.484 1649.34 756.203L1649.64 756C1649.67 755.979 1649.71 755.953 1649.75 755.932C1650.31 755.599 1650.87 755.276 1651.44 754.948C1651.48 754.692 1651.55 754.453 1651.66 754.229C1651.68 754.13 1651.7 754.031 1651.72 753.932C1651.78 753.588 1651.89 753.26 1652.06 752.958L1652.09 752.875L1652.1 752.864L1652.15 752.698C1653.93 746.573 1660.68 725.495 1672.53 711.661C1673.81 710.073 1697.21 695.182 1721.22 681.776C1744.51 668.776 1776.01 652.838 1793.83 650.745C1794.3 650.687 1794.79 650.776 1795.21 650.995C1801.98 654.505 1811.71 658.442 1822.97 663C1860.52 678.192 1917.24 701.151 1974.7 749.489C2043.65 807.505 2094.7 887.219 2126.42 986.422C2199.92 1215.25 2138.8 1384.64 2136.85 1389.91C2136.54 1390.89 2135.64 1391.61 2134.57 1391.61H2134.57ZM1650.66 761.093C1650.06 761.635 1649.21 762.255 1647.99 763.135C1640.33 768.687 1619.98 783.432 1595.18 828.13C1565.56 880.015 1539.72 987.448 1547.72 1077.47C1551.73 1121.14 1563.05 1160.42 1581.34 1194.21C1599.72 1228.16 1624.19 1254.79 1654.08 1273.39C1684.9 1293.95 1737.99 1299.54 1805.2 1306.61C1866.51 1313.06 1935.99 1320.36 2009.9 1340.92C2048.06 1350.97 2090.7 1366.54 2133.18 1385.92C2140.52 1364.49 2190.87 1202.75 2121.86 987.885C2048.85 759.583 1895.08 697.349 1821.18 667.442C1809.71 662.802 1800.57 659.104 1793.67 655.593C1761.76 659.958 1680.87 710.76 1676.1 714.859C1664.9 728.026 1658.46 748.166 1656.74 754.041L1656.71 754.156C1656.67 754.338 1656.61 754.5 1656.56 754.63C1656.52 754.75 1656.47 754.859 1656.42 754.968L1656.39 755.026C1656.38 755.067 1656.37 755.104 1656.35 755.146L1656.35 755.203C1656.31 755.406 1656.26 755.729 1656.1 756.078L1656.09 756.12C1655.92 756.734 1655.83 757.093 1655.82 757.114C1655.66 757.755 1655.24 758.302 1654.66 758.625C1654.65 758.635 1653.81 759.099 1652.25 760.015L1652.07 760.14C1651.36 760.635 1650.95 760.916 1650.66 761.093ZM1676.21 714.724L1676.12 714.833C1676.16 714.797 1676.19 714.76 1676.21 714.724Z" fill="#232323"/>
</g>
<path d="M1665.67 822.38C1665.13 822.385 1664.59 822.198 1664.17 821.854C1656.14 815.385 1650.81 804.927 1648.77 791.609C1647.04 780.292 1647.85 767.239 1650.99 755.797C1651.34 754.521 1652.66 753.771 1653.94 754.125C1655.21 754.474 1655.96 755.792 1655.61 757.068C1649.82 778.125 1651.94 805.859 1667.17 818.12C1667.96 818.76 1668.27 819.823 1667.93 820.781C1667.59 821.739 1666.69 822.385 1665.67 822.38Z" fill="#232323"/>
<path d="M1758.54 1098.85C1723.46 1093.09 1677.96 1086.56 1629.43 1082.27C1606.34 915.057 1659.44 819.552 1659.44 819.552C1664.61 787.943 1691.89 766.578 1691.89 766.578C1691.89 766.677 1702.42 791.75 1707.29 804.432C1703.88 817.99 1696.18 828.135 1690.23 830.672C1680.49 916.521 1750.16 1079.54 1758.54 1098.85Z" fill="#042628"/>
<path d="M1693.33 835.151C1662.82 835.151 1656.03 824.01 1649.99 814.109C1649.46 813.24 1648.93 812.37 1648.39 811.521C1647.68 810.406 1648.01 808.922 1649.13 808.214C1650.24 807.505 1651.72 807.833 1652.43 808.948C1652.99 809.833 1653.54 810.724 1654.08 811.615C1660.09 821.474 1666.31 831.672 1699.27 830.224C1700.59 830.167 1701.71 831.193 1701.77 832.516C1701.82 833.833 1700.8 834.953 1699.47 835.01C1697.33 835.104 1695.28 835.151 1693.33 835.151Z" fill="white"/>
<path d="M1729.16 826.86C1728.54 826.86 1727.92 826.792 1727.29 826.662C1715.23 824.162 1702.43 803.974 1689.25 766.672C1688.82 765.427 1689.48 764.073 1690.72 763.63C1691.96 763.193 1693.32 763.839 1693.77 765.073C1706 799.688 1718.25 819.891 1728.26 821.974C1739.46 824.297 1752.69 781.641 1759.8 758.724C1761.41 753.542 1762.92 748.651 1764.28 744.589C1771.89 721.75 1786.94 685.203 1804.31 657.36C1804.76 656.625 1805.57 656.193 1806.43 656.219C1807.29 656.245 1808.06 656.735 1808.46 657.49C1808.87 658.25 1808.83 659.167 1808.38 659.891C1791.23 687.38 1776.35 723.516 1768.82 746.104C1767.48 750.115 1765.97 754.985 1764.38 760.141C1753.07 796.61 1742.56 826.86 1729.16 826.86Z" fill="#232323"/>
<path d="M1706.31 1277.37C1670.81 1290.92 1631.9 1299.69 1594.35 1298.64C1440.69 1294.55 1372.19 1133.19 1351.82 998.172C1351.82 997.667 1339.21 901.365 1328.82 870.182C1325.31 856.115 1307.07 815.234 1299.49 790.578C1293.31 771.177 1278.72 752.552 1298.74 747.667C1294.42 729.719 1304.15 723.833 1312.82 722.359C1310.87 704.37 1328.2 699.198 1338.67 700.927C1340.91 692.526 1348.99 687.266 1357.37 687.266H1357.96C1361.79 687.266 1364.5 687.609 1367.99 689.708C1373.2 692.833 1377.92 697.766 1380.95 703.854C1381.64 704.948 1386.36 714.578 1387.87 717.901C1388.89 719.943 1390.35 723.734 1390.8 724.63C1400.44 695.557 1406.14 689.115 1415.55 673.417C1415.55 673.307 1415.46 673.5 1416.23 672.344C1426.66 656.536 1439.12 643.073 1438.54 680.344C1437.67 738.385 1447.12 771.75 1462.42 815.26C1485.77 881.687 1573.19 1039.69 1586.36 1079.24C1608.02 1134.82 1706.27 1277.3 1706.31 1277.37Z" fill="white"/>
<path d="M1600.3 1301.12C1598.28 1301.12 1596.28 1301.09 1594.29 1301.04C1557.4 1300.05 1523.4 1289.94 1493.22 1270.98C1466.16 1253.98 1441.9 1229.71 1421.11 1198.84C1402.7 1171.5 1386.99 1139.01 1374.43 1102.28C1363.35 1069.89 1354.95 1034.98 1349.45 998.531C1349.44 998.474 1349.44 998.422 1349.43 998.365C1349.26 996.802 1336.86 901.911 1326.55 870.937C1326.53 870.88 1326.52 870.823 1326.5 870.76C1324.81 863.979 1319.41 850.312 1313.7 835.849C1307.78 820.859 1301.07 803.87 1297.2 791.281C1295.81 786.891 1293.94 782.495 1292.15 778.245C1287.82 768.042 1284.09 759.224 1287.43 752.578C1288.95 749.547 1291.74 747.38 1295.93 745.984C1294.57 738.745 1295.37 732.807 1298.35 728.307C1300.9 724.448 1304.99 721.755 1310.29 720.443C1310.1 714.167 1312.17 708.823 1316.33 704.88C1321.98 699.536 1330.41 697.776 1337 698.312C1340.08 690.302 1348.16 684.87 1357.37 684.87H1357.97C1362.27 684.875 1365.34 685.318 1369.23 687.651C1375.02 691.13 1379.93 696.474 1383.06 702.698C1384.03 704.365 1388.64 713.797 1390.04 716.87C1390.2 717.198 1390.37 717.557 1390.55 717.943C1397.58 697.896 1402.7 689.646 1409.05 679.432C1410.49 677.115 1411.92 674.786 1413.33 672.448C1413.45 672.172 1413.6 671.953 1413.7 671.797C1413.8 671.661 1413.96 671.427 1414.23 671.016C1423.01 657.719 1428.89 652.703 1433.9 654.25C1439.03 655.833 1441.2 663.891 1440.94 680.38C1440.04 739.63 1450.21 773.328 1464.68 814.464C1477.47 850.859 1509.74 915.198 1538.22 971.958C1562.04 1019.43 1582.61 1060.44 1588.61 1078.43C1609.58 1132.18 1704.17 1270.03 1708.19 1275.87C1708.3 1276.03 1708.35 1276.11 1708.35 1276.11C1708.72 1276.72 1708.81 1277.47 1708.58 1278.14C1708.35 1278.82 1707.83 1279.36 1707.17 1279.61C1670.16 1293.73 1633.36 1301.12 1600.3 1301.12ZM1354.19 997.818C1365.85 1075.16 1391.04 1145.6 1425.09 1196.17C1468.58 1260.74 1525.55 1294.41 1594.42 1296.24C1627.54 1297.17 1664.89 1290.24 1702.61 1276.21C1686.92 1253.31 1604.05 1131.24 1584.13 1080.11C1584.11 1080.07 1584.1 1080.04 1584.09 1080C1578.22 1062.36 1556.71 1019.49 1533.94 974.109C1505.4 917.219 1473.05 852.734 1460.16 816.057C1445.53 774.448 1435.24 740.354 1436.15 680.307C1436.45 661.036 1433.15 659.036 1432.49 658.833C1431.61 658.562 1428.01 658.833 1418.23 673.661C1418.06 673.906 1417.9 674.156 1417.73 674.401C1417.69 674.484 1417.65 674.568 1417.6 674.646C1416.01 677.302 1414.54 679.672 1413.11 681.958C1406.08 693.286 1401 701.469 1393.07 725.385C1392.77 726.307 1391.93 726.948 1390.97 727.021C1390 727.089 1389.09 726.568 1388.65 725.703C1388.45 725.286 1388.16 724.589 1387.66 723.391C1387.06 721.932 1386.31 720.12 1385.73 718.969C1385.72 718.943 1385.7 718.917 1385.69 718.891C1384.07 715.323 1379.46 705.99 1378.92 705.12C1378.88 705.057 1378.84 704.99 1378.81 704.922C1376.09 699.464 1371.81 694.792 1366.76 691.76C1363.79 689.974 1361.56 689.661 1357.96 689.661H1357.37C1349.58 689.661 1342.84 694.547 1340.98 701.542C1340.66 702.734 1339.49 703.49 1338.28 703.286C1332.82 702.391 1324.66 703.594 1319.62 708.359C1316.07 711.729 1314.58 716.349 1315.2 722.099C1315.34 723.359 1314.47 724.51 1313.22 724.719C1309.74 725.312 1305.04 726.87 1302.34 730.948C1299.83 734.75 1299.41 740.187 1301.07 747.104C1301.37 748.391 1300.59 749.682 1299.31 749.995C1295.3 750.969 1292.82 752.521 1291.71 754.724C1289.36 759.396 1292.86 767.646 1296.56 776.38C1298.4 780.729 1300.3 785.224 1301.78 789.849C1305.6 802.281 1312.27 819.182 1318.16 834.089C1324.15 849.276 1329.33 862.396 1331.12 869.51C1341.24 899.99 1353.4 991.385 1354.18 997.818H1354.19Z" fill="#232323"/>
<path d="M1700.27 1279.62C1470.8 1362.05 1376.37 1160.99 1351.72 998.172C1351.72 997.979 1351.72 997.786 1351.62 997.688C1351.43 996.323 1351.23 995.052 1351.04 993.688C1397.91 989.88 1487.95 954.37 1514.74 929.984C1542.12 985.104 1571.74 1042.66 1586.07 1079.34C1589.87 1089.09 1596.01 1101.39 1603.51 1115.24C1630.02 1165.77 1675.91 1240.5 1700.27 1279.62Z" fill="white"/>
<path d="M1600.27 1301.12C1562.55 1301.12 1528.07 1291.89 1497.12 1273.42C1456.34 1249.1 1422.27 1209.18 1395.85 1154.77C1374.14 1110.07 1358.06 1056.05 1349.35 998.531C1349.35 998.49 1349.34 998.443 1349.34 998.396C1349.3 998.276 1349.27 998.151 1349.26 998.026C1349.16 997.344 1349.06 996.693 1348.96 996.036C1348.86 995.375 1348.77 994.714 1348.67 994.026C1348.58 993.37 1348.76 992.708 1349.17 992.193C1349.58 991.677 1350.19 991.354 1350.85 991.297C1396.64 987.583 1486.12 952.797 1513.13 928.214C1513.69 927.703 1514.45 927.49 1515.19 927.63C1515.92 927.766 1516.55 928.245 1516.89 928.917C1521.67 938.526 1526.46 948.13 1531.26 957.729C1554.49 1004.18 1576.43 1048.06 1588.3 1078.47C1591.72 1087.23 1597.38 1098.89 1605.62 1114.1C1630.32 1161.2 1671.83 1229.42 1702.3 1278.35C1702.69 1278.97 1702.77 1279.72 1702.53 1280.41C1702.3 1281.09 1701.76 1281.63 1701.08 1281.88C1665.36 1294.71 1631.68 1301.12 1600.27 1301.12ZM1354.11 997.979C1362.76 1054.96 1378.68 1108.45 1400.16 1152.67C1426.17 1206.23 1459.61 1245.47 1499.57 1269.31C1554.35 1301.98 1620.65 1305.03 1696.66 1278.36C1666.31 1229.55 1625.72 1162.75 1601.39 1116.35C1593.07 1100.99 1587.32 1089.16 1583.84 1080.21C1572.04 1050 1550.15 1006.22 1526.98 959.87C1522.64 951.198 1518.28 942.479 1513.97 933.818C1484.45 958.276 1399.69 991.161 1353.78 995.839C1353.83 996.224 1353.89 996.609 1353.95 997C1354.08 997.38 1354.11 997.734 1354.11 997.979Z" fill="#232323"/>
<path d="M1363.6 1059.8C1362.36 1059.8 1361.32 1058.85 1361.22 1057.61C1361.11 1056.37 1361.97 1055.26 1363.2 1055.05C1435.57 1042.5 1503.08 1017.85 1543.78 989.104C1544.86 988.349 1546.35 988.61 1547.11 989.688C1547.87 990.761 1547.61 992.25 1546.55 993.016C1523.8 1009.08 1494.17 1023.44 1458.49 1035.71C1421.22 1048.52 1386.54 1055.86 1364.02 1059.77C1363.88 1059.79 1363.74 1059.8 1363.6 1059.8ZM1379.49 1013.88C1375.6 1013.88 1372.38 1017.1 1372.38 1021C1372.38 1024.91 1375.6 1028.13 1379.49 1028.13C1383.39 1028.13 1386.61 1024.91 1386.61 1021C1386.61 1017.1 1383.39 1013.88 1379.49 1013.88ZM1384.46 818.922C1383.2 818.922 1382.16 817.943 1382.07 816.683C1380.65 794.5 1381.02 769.787 1381.36 757.026C1381.39 755.703 1382.49 754.662 1383.82 754.698C1385.14 754.735 1386.18 755.834 1386.15 757.157C1385.81 769.834 1385.44 794.38 1386.85 816.375C1386.9 817.037 1386.66 817.683 1386.21 818.167C1385.76 818.651 1385.13 818.922 1384.46 818.922Z" fill="#232323"/>
<path d="M1340.01 797.87C1338.17 801.557 1329.93 805.328 1300.46 781.328C1271.66 757.88 1296.39 736.443 1313.46 752.87C1326.01 764.927 1343.95 789.979 1340.01 797.87Z" fill="white"/>
<path d="M1334.7 802.979C1327.1 802.979 1315.09 796.333 1298.94 783.182C1284.77 771.646 1284.2 761.76 1285.12 756.896C1286.15 751.453 1289.96 747.182 1295.32 745.474C1301.86 743.385 1309.27 745.505 1315.13 751.146C1321.76 757.526 1329.54 767.14 1334.94 775.651C1341.94 786.672 1344.37 794.505 1342.16 798.937C1341.18 800.89 1339.35 802.245 1337.01 802.745C1336.29 802.901 1335.52 802.979 1334.7 802.979ZM1300.41 749.479C1299.17 749.479 1297.95 749.661 1296.77 750.036C1293.13 751.203 1290.53 754.099 1289.83 757.786C1288.6 764.281 1293.02 772.187 1301.97 779.469C1324.69 797.969 1333.34 798.635 1336 798.062C1336.92 797.864 1337.55 797.437 1337.87 796.797C1340.34 791.849 1327.91 770.083 1311.81 754.599C1308.34 751.265 1304.28 749.479 1300.41 749.479Z" fill="#232323"/>
<path d="M1360.1 789.625C1357.48 794.104 1346.83 798.146 1311.84 765.578C1277.65 733.755 1310.46 708.916 1330.53 730.948C1345.26 747.125 1365.7 780.052 1360.1 789.625Z" fill="white"/>
<path d="M1354.01 795.016C1344.68 795.016 1329.96 785.719 1310.2 767.328C1293.61 751.885 1293.69 739.693 1295.22 733.797C1296.91 727.276 1301.88 722.401 1308.52 720.755C1316.68 718.734 1325.57 721.943 1332.3 729.333C1346.29 744.698 1368.88 779.359 1362.17 790.833C1360.88 793.036 1358.63 794.474 1355.83 794.885C1355.25 794.974 1354.64 795.016 1354.01 795.016ZM1313.4 724.958C1312.14 724.958 1310.89 725.104 1309.67 725.406C1304.77 726.62 1301.1 730.208 1299.86 735C1297.72 743.276 1302.68 753.781 1313.47 763.823C1339.67 788.203 1350.82 790.781 1355.14 790.146C1356.5 789.943 1357.48 789.359 1358.03 788.411C1361.72 782.109 1348.19 753.896 1328.76 732.562C1324.28 727.646 1318.75 724.958 1313.4 724.958Z" fill="#232323"/>
<path d="M1379.94 777.552C1376.8 782.365 1364.79 786.26 1327.84 748.302C1291.73 711.213 1329.41 685.516 1350.42 710.995C1365.84 729.703 1386.66 767.266 1379.94 777.552Z" fill="white"/>
<path d="M1373.63 782.948C1363.41 782.948 1347.44 771.865 1326.12 749.974C1308.69 732.068 1309.44 718.682 1311.43 712.297C1313.63 705.26 1319.32 700.203 1326.66 698.766C1335.71 696.995 1345.28 700.995 1352.27 709.474C1366.87 727.193 1389.94 766.635 1381.95 778.865C1380.45 781.161 1377.94 782.594 1374.91 782.885C1374.49 782.927 1374.07 782.948 1373.63 782.948ZM1330.92 703.146C1329.8 703.146 1328.68 703.255 1327.58 703.469C1321.99 704.562 1317.67 708.396 1316 713.729C1313.15 722.859 1318.09 734.854 1329.55 746.63C1357.29 775.125 1369.59 778.589 1374.44 778.115C1376.05 777.964 1377.22 777.328 1377.94 776.24C1380.39 772.484 1377.92 762.109 1371.33 748.474C1365.4 736.208 1356.46 722.094 1348.57 712.521C1343.6 706.495 1337.2 703.146 1330.92 703.146Z" fill="#232323"/>
<path d="M1403.56 762.344C1400.38 767.146 1386.61 770.417 1349.93 729.734C1314.09 689.984 1353.87 663.557 1374.69 690.698C1389.98 710.62 1410.34 752.088 1403.56 762.344Z" fill="white"/>
<path d="M1397.43 767.505C1386.52 767.505 1369.52 755.036 1348.15 731.333C1335.45 717.25 1330.47 702.651 1334.49 691.281C1337.11 683.88 1343.3 678.724 1351.05 677.495C1360.28 676.031 1369.83 680.417 1376.59 689.234C1384.48 699.51 1393.51 715.193 1399.6 729.187C1404.81 741.151 1410.07 756.844 1405.56 763.667C1404.71 764.948 1402.66 767.151 1398.45 767.464C1398.11 767.49 1397.78 767.505 1397.43 767.505ZM1354.56 682.01C1353.64 682.01 1352.72 682.078 1351.8 682.224C1345.81 683.177 1341.03 687.161 1339.01 692.88C1335.59 702.542 1340.22 715.391 1351.71 728.125C1361.36 738.839 1385.23 763.651 1398.09 762.687C1399.7 762.568 1400.93 761.974 1401.56 761.021C1406.94 752.885 1389.28 713.641 1372.79 692.151C1367.81 685.661 1361.16 682.01 1354.56 682.01ZM1525.66 424.458C1537.06 416.651 1551.38 414.797 1564.44 419.479C1571.84 374.802 1629.53 374.604 1641.71 406.115C1676.89 370.802 1730.96 408.167 1719.76 446.213C1715.67 460.161 1710.21 485.427 1719.18 506.99C1701.24 518.302 1671.33 573.812 1671.33 573.812C1671.33 573.812 1593.38 492.161 1558.98 493.719C1504.71 496.255 1501.69 441.625 1525.66 424.458Z" fill="#232323"/>
<path d="M1605.83 388.792C1620.44 388.792 1632.77 396.271 1637.24 407.844C1637.82 409.359 1639.14 410.474 1640.72 410.807C1642.31 411.141 1643.96 410.646 1645.1 409.495C1653.41 401.161 1663.45 396.755 1674.15 396.755C1687.41 396.755 1700.77 403.589 1708.99 414.594C1715.97 423.927 1718.16 434.672 1715.16 444.859C1708.35 468.073 1707.77 488.854 1713.41 505.276C1698.2 517.75 1677.98 552.151 1670.26 565.865C1663.16 558.714 1648.53 544.339 1631.84 530.109C1599.79 502.766 1575.61 488.906 1559.97 488.906C1559.56 488.906 1559.17 488.911 1558.76 488.932C1557.62 488.984 1556.48 489.016 1555.38 489.016C1544.97 489.016 1536.32 486.677 1529.68 482.063C1524.06 478.161 1519.96 472.589 1517.83 465.948C1515.67 459.229 1515.58 451.667 1517.59 444.651C1519.57 437.755 1523.41 431.979 1528.41 428.38C1534.78 424.026 1542.2 421.729 1549.88 421.729C1554.29 421.729 1558.67 422.495 1562.82 423.99C1564.16 424.469 1565.64 424.333 1566.86 423.609C1568.09 422.891 1568.93 421.667 1569.17 420.266C1573.02 397.031 1591.32 388.792 1605.83 388.792ZM1605.83 384C1587.43 384 1568.47 395.141 1564.44 419.479C1559.77 417.802 1554.84 416.938 1549.88 416.938C1541.34 416.938 1532.91 419.495 1525.66 424.458C1502.23 441.24 1504.58 493.807 1555.38 493.807C1556.55 493.807 1557.76 493.776 1558.98 493.719C1559.31 493.703 1559.64 493.698 1559.97 493.698C1594.85 493.698 1671.33 573.813 1671.33 573.813C1671.33 573.813 1701.24 518.302 1719.17 506.99C1710.21 485.427 1715.67 460.161 1719.76 446.214C1727.8 418.911 1702.23 391.964 1674.15 391.964C1663.09 391.964 1651.65 396.141 1641.71 406.115C1636.17 391.771 1621.19 384 1605.83 384Z" fill="#232323"/>
<path d="M1525.76 628.344C1526.15 640.344 1533.84 651.953 1547.09 657.609C1581.59 672.245 1623.19 657.417 1623.19 657.417C1623.19 657.417 1661.39 686.391 1691.79 766.578C1691.79 766.578 1730.19 717.021 1794.2 653.026C1794.2 653.026 1755.91 631.078 1727.94 590.203C1750.55 584.542 1773.45 558.396 1764.39 527.963C1759.22 510.594 1738.95 500.646 1720.93 505.62C1702.51 510.693 1691.89 527.474 1679.22 544.739C1664.9 564.25 1658.37 550.104 1649.8 532.156C1644.24 520.646 1637.91 507.672 1628.16 501.135C1606.05 486.401 1558.98 493.62 1558.98 493.62C1558.98 493.62 1559.47 499.766 1559.47 507.672C1559.56 518.01 1558.79 531.276 1555.28 536.838C1549.14 546.594 1541.83 545.713 1542.22 551.667C1542.52 556.739 1548.85 562.302 1552.35 564.641C1553.62 599.469 1524.78 600.443 1525.76 628.344Z" fill="white"/>
<path d="M1691.79 768.974C1690.8 768.974 1689.91 768.359 1689.55 767.427C1674.01 726.411 1656.39 699.203 1644.35 683.594C1633.71 669.797 1625.44 662.401 1622.71 660.109C1618.01 661.641 1601.52 666.505 1581.98 666.51C1570.51 666.51 1557.98 664.833 1546.16 659.818C1532.54 654 1523.8 641.969 1523.36 628.422C1522.87 614.318 1529.64 606.464 1536.19 598.875C1543.11 590.849 1550.27 582.562 1549.99 565.906C1547.2 563.859 1540.19 558.109 1539.83 551.807C1539.54 547.401 1542.4 545.443 1545.17 543.552C1547.56 541.917 1550.54 539.88 1553.26 535.562C1555.81 531.51 1557.2 521.349 1557.07 507.693C1557.07 499.964 1556.6 493.875 1556.59 493.812C1556.49 492.562 1557.38 491.448 1558.62 491.255C1560.58 490.953 1606.86 484.068 1629.49 499.141C1639.89 506.115 1646.58 519.979 1651.95 531.115L1652.2 531.635C1657.03 541.734 1661.58 551.266 1666.49 551.729C1669.36 552 1673 549.172 1677.29 543.323C1678.48 541.703 1679.66 540.083 1680.82 538.479C1692.13 522.875 1702.8 508.13 1720.29 503.312C1739.96 497.885 1761.21 508.859 1766.68 527.281C1771.7 544.141 1766.98 557.812 1762.14 566.312C1755.44 578.068 1744.03 587.5 1731.82 591.568C1758.94 629.76 1795.03 650.74 1795.4 650.948C1796.04 651.323 1796.48 651.974 1796.58 652.714C1796.68 653.453 1796.43 654.193 1795.9 654.724C1732.73 717.865 1694.07 767.552 1693.69 768.047C1693.23 768.635 1692.54 768.974 1691.79 768.974ZM1623.19 655.021C1623.72 655.021 1624.22 655.193 1624.64 655.505C1626.2 656.687 1662.5 684.854 1692.52 761.802C1702.11 749.802 1737.48 706.552 1790.36 653.484C1781.13 647.646 1749.68 626.214 1725.97 591.552C1725.53 590.906 1725.43 590.083 1725.7 589.354C1725.98 588.62 1726.6 588.068 1727.36 587.875C1739.57 584.823 1751.3 575.646 1757.97 563.937C1762.35 556.245 1766.63 543.885 1762.09 528.646C1757.42 512.943 1738.48 503.26 1721.56 507.932C1705.69 512.302 1695.96 525.734 1684.7 541.286C1683.53 542.901 1682.35 544.526 1681.16 546.156C1675.64 553.667 1670.84 556.953 1666.04 556.5C1658.43 555.781 1653.54 545.547 1647.88 533.698L1647.64 533.187C1642.52 522.583 1636.14 509.37 1626.83 503.125C1608.39 490.844 1570.92 494.536 1561.52 495.698C1561.67 498.203 1561.86 502.552 1561.86 507.672C1561.96 518.094 1561.25 531.859 1557.3 538.115C1554.06 543.276 1550.48 545.724 1547.87 547.51C1545.09 549.406 1544.51 549.958 1544.61 551.51C1544.83 555.365 1550.29 560.385 1553.68 562.646C1554.32 563.073 1554.72 563.786 1554.75 564.552C1555.45 583.88 1547.15 593.505 1539.82 602C1533.33 609.526 1527.72 616.026 1528.15 628.26V628.266C1528.53 639.932 1536.15 650.328 1548.03 655.406C1581.23 669.49 1621.98 655.302 1622.39 655.156C1622.65 655.068 1622.93 655.021 1623.19 655.021Z" fill="#232323"/>
<mask id="mask15_433_11377" style="mask-type:luminance" maskUnits="userSpaceOnUse" x="1557" y="412" width="35" height="27">
<path d="M1557.83 412H1591.17V438.667H1557.83V412Z" fill="white"/>
</mask>
<g mask="url(#mask15_433_11377)">
<mask id="mask16_433_11377" style="mask-type:luminance" maskUnits="userSpaceOnUse" x="1511" y="383" width="211" height="191">
<path d="M1525.66 424.458C1537.06 416.651 1551.38 414.797 1564.44 419.479C1571.84 374.802 1629.53 374.604 1641.71 406.115C1676.89 370.802 1730.96 408.167 1719.76 446.213C1715.67 460.161 1710.21 485.427 1719.18 506.99C1701.25 518.302 1671.33 573.812 1671.33 573.812C1671.33 573.812 1593.38 492.161 1558.98 493.719C1504.71 496.255 1501.69 441.625 1525.66 424.458Z" fill="white"/>
</mask>
<g mask="url(#mask16_433_11377)">
<path d="M1587.83 438.557C1586.97 438.557 1586.18 438.104 1585.75 437.359C1582.03 430.906 1576.07 423.526 1560.06 417.724C1558.82 417.271 1558.18 415.896 1558.63 414.651C1559.08 413.411 1560.45 412.766 1561.69 413.219C1575.58 418.255 1584.02 424.755 1589.9 434.969C1590.33 435.708 1590.33 436.62 1589.9 437.359C1589.47 438.104 1588.68 438.557 1587.83 438.557Z" fill="white"/>
</g>
</g>
<path d="M1710.72 594.979C1706.18 594.979 1701.35 594.396 1696.84 592.714C1696.03 592.422 1695.44 591.714 1695.29 590.865C1695.15 590.016 1695.47 589.151 1696.14 588.604C1696.8 588.057 1697.71 587.912 1698.52 588.224C1709.43 592.302 1723.05 588.943 1727.52 587.839C1728.35 587.62 1729.24 587.87 1729.84 588.49C1730.44 589.109 1730.66 590.005 1730.42 590.833C1730.18 591.656 1729.51 592.292 1728.67 592.49C1725.61 593.245 1718.59 594.979 1710.72 594.979ZM1663.64 625.714C1650.87 647.953 1623.1 657.516 1623.1 657.516C1623.1 657.516 1632.26 664.443 1645.22 680.927C1645.6 680.635 1646.09 680.438 1646.48 680.146C1675.71 661.807 1669.67 628.344 1663.64 625.714Z" fill="#232323"/>
<path d="M1645.22 683.323C1644.51 683.323 1643.81 683.01 1643.33 682.406C1630.71 666.349 1621.74 659.495 1621.65 659.427C1620.95 658.891 1620.59 658.01 1620.73 657.141C1620.87 656.266 1621.48 655.537 1622.32 655.25C1622.58 655.156 1649.4 645.693 1661.56 624.521C1662.16 623.458 1663.47 623.026 1664.59 623.516C1668.57 625.25 1670.48 632.589 1670.91 638.344C1671.4 644.901 1671.18 667.432 1647.83 682.13C1647.54 682.339 1647.25 682.5 1647.02 682.63C1646.89 682.698 1646.77 682.76 1646.66 682.844C1646.24 683.156 1645.73 683.323 1645.22 683.323ZM1627.71 658.271C1631.31 661.495 1637.74 667.76 1645.77 677.766C1666.08 664.672 1666.52 644.953 1666.17 639.182C1665.89 634.693 1664.9 631.516 1663.99 629.698C1653.35 645.927 1635.52 654.927 1627.71 658.271ZM1611.79 515.375C1594.08 505.87 1590.48 505.693 1584.22 503.182L1583.34 502.792C1580.52 501.62 1579.15 498.302 1580.32 495.474C1581.62 492.87 1584.59 490.87 1587.24 489.719C1600.6 483.323 1621.66 492.635 1624.95 513.037C1625.46 516.26 1622.2 518.641 1620.08 518.109C1619.34 517.896 1617.18 518.75 1611.79 515.375ZM1603.42 532.547C1598.15 531.083 1585.29 527.766 1573.69 520.839C1572.04 519.865 1569.99 520.448 1569.02 522.01C1556.23 544.031 1597.91 542.224 1604.29 535.375C1604.97 534.693 1604.88 533.521 1604.09 532.938C1603.9 532.74 1603.61 532.547 1603.42 532.547ZM1566.88 592.151C1578.44 596.547 1592.39 587.573 1591.23 574.302V574.203C1591.03 571.781 1594.38 570.87 1595.42 573.229C1600.48 586.729 1587.38 602.984 1570.19 598.885C1568.11 598.38 1566.18 597.417 1564.54 596.057C1562.62 594.521 1564.39 591.287 1566.78 592.349L1566.88 592.151ZM1703.6 565.776C1702.85 565.776 1702.15 565.427 1701.69 564.839C1701.24 564.25 1701.09 563.479 1701.28 562.76C1705 548.802 1712.79 529.88 1737.35 526.74C1738.65 526.589 1739.83 527.516 1740 528.813C1740.17 530.115 1739.26 531.307 1737.96 531.49C1716.5 534.234 1709.56 550.302 1705.91 563.995C1705.63 565.042 1704.68 565.771 1703.6 565.776Z" fill="#232323"/>
<path d="M2003.21 1318.35C1896.61 1354.73 1773.65 1326.54 1672.11 1290.64C1538.7 1244.18 1458.85 1178.19 1315.57 1245.77C1293.16 1256.3 1289.66 1246.35 1304.46 1230.35C1316.45 1217.57 1348.02 1195.33 1348.02 1195.33C1324.83 1205.28 1302.52 1217.28 1281.47 1231.23C1252.62 1250.26 1262.66 1214.16 1287.41 1197.09C1286.83 1197.48 1276.79 1203.33 1265.29 1210.74C1234.02 1230.84 1249.12 1199.62 1257.59 1191.92C1225.83 1213.09 1245.61 1144.9 1352.8 1107.05C1350.17 1104.8 1332.62 1090.17 1325.03 1076.61C1307.09 1045 1357.47 1079.15 1417.3 1087.24H1417.2C1531.06 1063.48 1713.58 1088.15 1827.43 1111.73C1739.54 949.495 1740.22 768.823 1818.86 730.781C1868.36 706.875 1970.67 733.312 2061.09 910.182C2151.52 1087.05 2150.84 1268.01 2003.21 1318.35Z" fill="white"/>
<path d="M1893.52 1337.67C1874.84 1337.67 1855.48 1336.44 1835.47 1333.98C1785.94 1327.89 1732.25 1314.45 1671.31 1292.9C1643.67 1283.28 1618.56 1272.91 1594.27 1262.89C1502.09 1224.84 1429.29 1194.78 1316.59 1247.93C1302.09 1254.76 1296.48 1252.68 1294.33 1249.74C1291.18 1245.43 1294.15 1237.97 1302.71 1228.73C1308.49 1222.56 1318.58 1214.35 1327.65 1207.39C1312.1 1215.11 1297.08 1223.76 1282.79 1233.23C1270.24 1241.51 1265.01 1239.4 1262.84 1236.18C1259.32 1230.96 1263.04 1220.27 1270.52 1210.25C1269.21 1211.08 1267.9 1211.92 1266.59 1212.76C1259.39 1217.39 1249.36 1222.92 1245.29 1217.61C1242.2 1213.58 1245.52 1204.95 1249.72 1198.15C1247.63 1198.52 1245.85 1198.27 1244.4 1197.4C1243.11 1196.62 1241.02 1194.62 1241.5 1189.94C1243.17 1173.54 1276.17 1132.61 1348.13 1106.18C1336.33 1095.84 1327.45 1085.83 1322.94 1077.78C1318.73 1070.36 1317.9 1066.01 1320.18 1063.23C1324.08 1058.48 1334.72 1062.03 1354.04 1068.45C1370.65 1073.97 1393.37 1081.53 1417.16 1084.8C1468.58 1074.15 1537.67 1072.31 1622.52 1079.34C1706.52 1086.31 1782.33 1100.09 1822.91 1108.35C1793.88 1053.65 1773.58 994.672 1764.13 937.469C1754.96 882.042 1756.69 830.49 1768.99 792.307C1779.01 761.255 1795.89 739.229 1817.81 728.62C1831.29 722.115 1847.65 719.641 1865.13 721.474C1884.81 723.536 1905.24 730.823 1925.86 743.135C1975.33 772.693 2022.83 830.078 2063.23 909.089C2092.62 966.573 2112.51 1025.07 2120.73 1078.26C2129.4 1134.19 2125.53 1182.93 2109.25 1223.14C2090.06 1270.55 2054.64 1303.34 2003.99 1320.61C1970.71 1331.97 1933.72 1337.67 1893.52 1337.67ZM1433.02 1214.48C1443.22 1214.48 1453.43 1215.15 1463.72 1216.47C1508.2 1222.17 1548.94 1238.99 1596.1 1258.45C1620.33 1268.45 1645.38 1278.8 1672.9 1288.38C1733.52 1309.81 1786.88 1323.17 1836.06 1329.22C1898.42 1336.9 1954.4 1332.48 2002.44 1316.08C2051.72 1299.28 2086.16 1267.4 2104.81 1221.34C2120.77 1181.95 2124.53 1134.06 2116.01 1078.99C2107.85 1026.3 2088.13 968.302 2058.96 911.271C2018.98 833.057 1972.1 776.339 1923.4 747.245C1903.39 735.292 1883.62 728.224 1864.63 726.234C1848.04 724.5 1832.57 726.818 1819.9 732.932C1799.18 742.958 1783.16 764 1773.56 793.776C1761.48 831.245 1759.81 882 1768.85 936.687C1778.48 994.953 1799.47 1055.08 1829.54 1110.58C1829.98 1111.41 1829.91 1112.41 1829.35 1113.16C1828.8 1113.9 1827.86 1114.26 1826.95 1114.07C1699.32 1087.65 1524.99 1067.33 1418.09 1089.51C1417.84 1089.59 1417.58 1089.64 1417.3 1089.64H1417.2C1417.01 1089.64 1416.81 1089.61 1416.63 1089.57C1392.36 1086.24 1369.35 1078.59 1352.53 1072.99C1344.28 1070.25 1337.15 1067.88 1331.9 1066.68C1325.07 1065.11 1323.98 1066.15 1323.89 1066.27C1323.87 1066.29 1322.77 1067.78 1327.11 1075.43C1331.71 1083.62 1341.26 1094.1 1354.01 1104.93L1354.35 1105.22C1355.01 1105.78 1355.31 1106.64 1355.15 1107.48C1354.99 1108.32 1354.4 1109.02 1353.59 1109.3C1312.43 1123.84 1286.67 1142.02 1272.3 1154.71C1255.3 1169.73 1246.97 1183.47 1246.27 1190.42C1246.11 1191.9 1246.34 1192.97 1246.88 1193.29C1247.72 1193.8 1250.65 1193.67 1256.27 1189.92C1257.31 1189.22 1258.71 1189.45 1259.49 1190.44C1260.26 1191.43 1260.14 1192.84 1259.21 1193.69C1253.57 1198.81 1247.15 1212.16 1249.09 1214.69C1249.11 1214.72 1251.3 1216.89 1264 1208.73C1273.05 1202.89 1281.13 1198.06 1284.57 1196.01C1285.41 1195.5 1285.94 1195.18 1286.09 1195.09C1287.19 1194.37 1288.67 1194.67 1289.4 1195.76C1290.13 1196.84 1289.85 1198.31 1288.77 1199.06C1272.52 1210.27 1263.96 1229.28 1266.81 1233.5C1267.86 1235.06 1272.4 1234.34 1280.15 1229.23C1301.11 1215.33 1323.64 1203.19 1347.08 1193.13C1348.2 1192.65 1349.52 1193.09 1350.11 1194.16C1350.71 1195.23 1350.41 1196.58 1349.4 1197.29C1349.09 1197.51 1317.89 1219.54 1306.21 1231.99C1298.52 1240.31 1297.21 1245.56 1298.2 1246.91C1299.03 1248.04 1303.51 1248.79 1314.56 1243.6C1356.16 1223.98 1394.5 1214.48 1433.02 1214.48Z" fill="#232323"/>
<path d="M1352.8 1109.44C1351.64 1109.44 1350.65 1108.62 1350.44 1107.48C1350.23 1106.35 1350.85 1105.22 1351.93 1104.81C1374.05 1096.28 1398.3 1088.84 1416.8 1084.9C1418.1 1084.62 1419.37 1085.45 1419.65 1086.74C1419.92 1088.04 1419.09 1089.31 1417.8 1089.58C1399.53 1093.47 1375.55 1100.84 1353.66 1109.28C1353.38 1109.39 1353.09 1109.44 1352.8 1109.44ZM1257.3 1194.6C1256.31 1194.6 1255.42 1193.99 1255.06 1193.06C1254.71 1192.12 1254.97 1191.07 1255.72 1190.41L1256.82 1189.44C1273.68 1174.58 1294.67 1156.09 1323.25 1139.81C1323.99 1139.38 1324.92 1139.37 1325.66 1139.81C1326.41 1140.24 1326.86 1141.04 1326.85 1141.91C1326.85 1142.77 1326.37 1143.56 1325.62 1143.98C1297.46 1160.01 1276.68 1178.32 1259.98 1193.04L1258.89 1194.01C1258.43 1194.41 1257.86 1194.6 1257.3 1194.6ZM1281.36 1203.84C1280.33 1203.84 1279.41 1203.18 1279.09 1202.19C1278.77 1201.21 1279.11 1200.13 1279.95 1199.52C1295.6 1188.04 1323.62 1169.65 1334.47 1163.73C1335.63 1163.14 1337.05 1163.57 1337.68 1164.72C1338.3 1165.86 1337.9 1167.29 1336.77 1167.94C1326.06 1173.78 1298.31 1191.99 1282.78 1203.38C1282.37 1203.68 1281.87 1203.84 1281.36 1203.84Z" fill="#232323"/>
<path d="M2003.21 1318.35C1888.92 1357.37 1755.62 1322.15 1650.29 1282.74C1657.69 1216.7 1648.24 1139.82 1629.23 1082.36C1695.79 1088.41 1761.95 1098.27 1827.43 1111.73C1739.54 949.495 1740.22 768.823 1818.86 730.776C1868.36 706.875 1970.67 733.312 2061.09 910.182C2151.52 1087.05 2150.84 1268.01 2003.21 1318.35Z" fill="white"/>
<path d="M1744.61 1315.76C1743.94 1315.76 1743.29 1315.47 1742.83 1314.96C1742.38 1314.46 1742.16 1313.78 1742.23 1313.1C1749.76 1244.32 1741.96 1162.49 1721.38 1094.21C1720.99 1092.95 1721.71 1091.61 1722.98 1091.23C1724.24 1090.84 1725.58 1091.56 1725.96 1092.83C1746.73 1161.69 1754.59 1244.23 1746.99 1313.62C1746.86 1314.84 1745.84 1315.76 1744.61 1315.76ZM1901.86 1139.42C1901.52 1139.42 1901.17 1139.34 1900.83 1139.19C1872.67 1125.85 1846.91 1118.85 1825.43 1113.76C1824.14 1113.45 1823.34 1112.16 1823.65 1110.87C1823.95 1109.59 1825.24 1108.79 1826.53 1109.1C1848.26 1114.24 1874.32 1121.33 1902.89 1134.85C1903.9 1135.33 1904.44 1136.45 1904.2 1137.55C1903.95 1138.64 1902.98 1139.42 1901.86 1139.42Z" fill="#232323"/>
<path d="M1702.32 1257.18C1702.32 1261.11 1699.13 1264.3 1695.2 1264.3C1691.28 1264.3 1688.09 1261.11 1688.09 1257.18C1688.09 1253.25 1691.28 1250.06 1695.2 1250.06C1699.13 1250.06 1702.32 1253.25 1702.32 1257.18Z" fill="#232323"/>
<path d="M1893.49 1337.67C1871 1337.67 1847.49 1335.89 1823.04 1332.33C1771.18 1324.77 1714.4 1309.29 1649.44 1284.98C1648.42 1284.6 1647.78 1283.56 1647.9 1282.47C1651.43 1250.97 1651.22 1215.4 1647.28 1179.59C1643.51 1145.25 1636.48 1111.89 1626.96 1083.11C1626.71 1082.35 1626.86 1081.51 1627.36 1080.87C1627.86 1080.24 1628.65 1079.91 1629.45 1079.98C1693.72 1085.82 1758.78 1095.36 1822.91 1108.36C1793.88 1053.66 1773.58 994.677 1764.12 937.469C1754.96 882.042 1756.69 830.49 1768.99 792.307C1779.01 761.255 1795.89 739.229 1817.81 728.62C1831.29 722.115 1847.65 719.641 1865.12 721.474C1884.81 723.531 1905.25 730.823 1925.86 743.135C1975.33 772.687 2022.83 830.078 2063.23 909.089C2092.62 966.573 2112.51 1025.07 2120.74 1078.26C2129.4 1134.19 2125.53 1182.93 2109.26 1223.14C2090.06 1270.55 2054.64 1303.34 2003.99 1320.61C1970.72 1331.97 1933.73 1337.67 1893.49 1337.67ZM1652.87 1281.15C1716.77 1304.95 1772.68 1320.15 1823.73 1327.58C1891.18 1337.41 1951.3 1333.54 2002.44 1316.08C2051.72 1299.28 2086.16 1267.4 2104.81 1221.34C2120.76 1181.95 2124.53 1134.06 2116.01 1078.99C2107.85 1026.3 2088.12 968.302 2058.96 911.271C2018.97 833.057 1972.1 776.339 1923.4 747.245C1903.39 735.292 1883.62 728.224 1864.62 726.234C1848.04 724.5 1832.57 726.818 1819.9 732.932C1799.18 742.958 1783.16 764 1773.56 793.776C1761.48 831.245 1759.81 882 1768.85 936.687C1778.48 994.953 1799.47 1055.08 1829.54 1110.59C1829.98 1111.41 1829.91 1112.41 1829.35 1113.16C1828.8 1113.9 1827.86 1114.26 1826.95 1114.07C1762.58 1100.84 1697.22 1091.09 1632.64 1085.08C1641.69 1113.36 1648.38 1145.77 1652.04 1179.07C1655.94 1214.52 1656.22 1249.77 1652.87 1281.15ZM1609.55 1266.84C1594.35 1260.69 1580.03 1254.65 1566.68 1249.08C1558.98 1245.86 1551.48 1242.84 1544.27 1240.21C1548.07 1208.89 1548.17 1172.41 1544.56 1136.9C1544.17 1132.8 1543.68 1128.8 1543.2 1124.7C1541.83 1113.87 1540.08 1103.14 1537.93 1092.8L1555.57 1089.19L1600.49 1080.02L1605.07 1079.05C1605.17 1079.44 1605.27 1079.92 1605.36 1080.31C1606.05 1083.83 1606.73 1087.34 1607.31 1090.85C1607.41 1091.44 1607.51 1091.92 1607.6 1092.51C1609.17 1101.74 1610.54 1111.02 1611.7 1120.31C1612.19 1124.02 1612.57 1127.72 1612.96 1131.43C1617.54 1178.55 1616.37 1226.55 1609.55 1266.84Z" fill="#232323"/>
<path d="M1633.91 1098.65C1634.71 1121.47 1608.85 1140.92 1576.15 1142.07C1543.45 1143.22 1516.29 1125.65 1515.48 1102.82C1514.68 1079.98 1540.54 1060.54 1573.24 1059.39C1605.94 1058.24 1633.1 1075.81 1633.91 1098.65Z" fill="#232323"/>
<path d="M1576.23 1146.85C1590.16 1146.36 1602.93 1142.75 1613.35 1137.09C1613.16 1135.33 1613.06 1133.58 1612.86 1131.82C1602.83 1137.68 1590.06 1141.48 1576.03 1141.97C1564.54 1142.36 1553.72 1140.51 1544.46 1136.99C1544.66 1138.75 1544.85 1140.51 1544.95 1142.36C1553.43 1145.29 1562.88 1146.94 1572.92 1146.94C1574.08 1146.94 1575.16 1146.94 1576.23 1146.85Z" fill="white"/>
<path d="M1631.88 1092.25C1632.57 1111.85 1607.4 1128.65 1575.67 1129.76C1543.94 1130.88 1517.66 1115.9 1516.96 1096.3C1516.27 1076.7 1541.44 1059.9 1573.17 1058.78C1604.9 1057.67 1631.19 1072.65 1631.88 1092.25Z" fill="white"/>
<path d="M1572.3 1132.22C1557.78 1132.22 1544.09 1128.95 1533.45 1122.88C1521.62 1116.13 1514.9 1106.72 1514.54 1096.38C1514.18 1086.04 1520.22 1076.18 1531.55 1068.62C1542.53 1061.29 1557.28 1056.95 1573.06 1056.4C1588.85 1055.84 1603.85 1059.14 1615.32 1065.67C1627.16 1072.42 1633.88 1081.83 1634.24 1092.17C1634.6 1102.52 1628.56 1112.37 1617.22 1119.94C1606.24 1127.26 1591.51 1131.6 1575.72 1132.16C1574.57 1132.2 1573.43 1132.22 1572.3 1132.22ZM1576.49 1061.12C1575.41 1061.12 1574.32 1061.15 1573.23 1061.18C1542.86 1062.25 1518.69 1077.96 1519.33 1096.21C1519.63 1104.83 1525.49 1112.82 1535.83 1118.72C1546.54 1124.82 1560.64 1127.9 1575.55 1127.37C1605.91 1126.3 1630.09 1110.59 1629.45 1092.34C1629.15 1083.72 1623.29 1075.73 1612.95 1069.83C1603.03 1064.18 1590.19 1061.12 1576.49 1061.12Z" fill="#232323"/>
<path d="M1574.37 1114.66C1573.73 1114.66 1573.1 1114.41 1572.65 1113.95C1572.19 1113.49 1571.93 1112.86 1571.94 1112.21L1572.04 1090.17C1572.04 1089.48 1572.33 1088.9 1572.82 1088.41C1573.3 1087.93 1573.89 1087.73 1574.57 1087.73L1608.87 1088.51C1610.23 1088.51 1611.31 1089.58 1611.31 1090.95C1611.31 1092.31 1610.23 1093.39 1608.87 1093.39H1608.77L1576.91 1092.7V1112.21C1576.81 1113.58 1575.74 1114.66 1574.37 1114.66Z" fill="#232323"/>
<path d="M601.281 929.026L463.531 1229.22C458.083 1241.1 466.771 1254.62 479.849 1254.62H667.927C674.109 1254.62 679.12 1249.61 679.12 1243.44C679.12 1237.27 674.109 1232.26 667.927 1232.26H494.792C492.573 1232.26 491.088 1229.97 492.005 1227.94L608.755 970.265L601.281 929.026Z" fill="white"/>
<mask id="mask17_433_11377" style="mask-type:luminance" maskUnits="userSpaceOnUse" x="459" y="925" width="223" height="332">
<path d="M459.5 925.333H681.5V1257H459.5V925.333Z" fill="white"/>
</mask>
<g mask="url(#mask17_433_11377)">
<path d="M667.927 1257H479.849C472.922 1257.02 466.469 1253.49 462.74 1247.66C458.984 1241.84 458.469 1234.52 461.37 1228.23L599.115 928.031C599.552 927.089 600.547 926.537 601.578 926.667C602.609 926.797 603.437 927.578 603.62 928.599L611.099 969.839C611.182 970.313 611.125 970.802 610.922 971.245L494.172 1228.92C494.073 1229.13 494.094 1229.38 494.224 1229.57C494.344 1229.77 494.562 1229.89 494.792 1229.88H667.927C675.411 1229.88 681.5 1235.96 681.5 1243.44C681.5 1250.92 675.411 1257 667.927 1257ZM600.286 936.896L465.698 1230.21C463.479 1235.05 463.87 1240.61 466.75 1245.09C469.625 1249.57 474.521 1252.24 479.849 1252.24H667.927C672.786 1252.24 676.74 1248.3 676.74 1243.44C676.74 1238.59 672.786 1234.64 667.927 1234.64H494.792C492.943 1234.64 491.219 1233.7 490.224 1232.15C489.213 1230.6 489.073 1228.64 489.838 1226.96L606.281 969.959L600.286 936.896Z" fill="#232323"/>
</g>
<path d="M656.62 1154.35L649.542 1155.79C640.448 1157.65 631.578 1151.78 629.729 1142.7L518.484 596.948C516.63 587.865 522.5 579.005 531.589 577.156L538.667 575.719C547.76 573.87 556.63 579.729 558.479 588.812L669.729 1134.57C671.578 1143.65 665.708 1152.51 656.62 1154.35Z" fill="white"/>
<mask id="mask18_433_11377" style="mask-type:luminance" maskUnits="userSpaceOnUse" x="515" y="573" width="158" height="586">
<path d="M515.167 573H672.5V1158.67H515.167V573Z" fill="white"/>
</mask>
<g mask="url(#mask18_433_11377)">
<path d="M646.151 1158.52C642.427 1158.52 638.781 1157.43 635.61 1155.33C631.354 1152.54 628.401 1148.16 627.396 1143.18L516.151 597.422C514.042 587.073 520.755 576.938 531.115 574.828L538.193 573.391C548.557 571.281 558.703 577.99 560.813 588.339L672.057 1134.09C674.167 1144.44 667.453 1154.58 657.094 1156.68L650.016 1158.13C648.745 1158.39 647.448 1158.52 646.151 1158.52ZM542.026 577.755C541.073 577.755 540.11 577.854 539.146 578.047L532.068 579.49C524.276 581.073 519.229 588.693 520.813 596.474L632.063 1142.22C632.813 1145.97 635.037 1149.26 638.235 1151.36C641.417 1153.48 645.318 1154.23 649.068 1153.46L656.141 1152.03C663.932 1150.44 668.979 1142.82 667.396 1135.04L556.146 589.287C554.755 582.469 548.735 577.755 542.026 577.755Z" fill="#232323"/>
</g>
<path d="M424.354 2072.84L534.313 1284.97L587.432 1293.29L451.667 2077.11C450.38 2084.55 443.365 2089.58 435.912 2088.42C428.453 2087.25 423.313 2080.32 424.354 2072.84Z" fill="white"/>
<mask id="mask19_433_11377" style="mask-type:luminance" maskUnits="userSpaceOnUse" x="420" y="1281" width="172" height="810">
<path d="M420.5 1281.33H591.167V2091H420.5V1281.33Z" fill="white"/>
</mask>
<g mask="url(#mask19_433_11377)">
<path d="M438.026 2090.99C437.203 2090.99 436.375 2090.93 435.537 2090.8C426.839 2089.44 420.75 2081.23 421.964 2072.51L531.922 1284.64C532.011 1284 532.354 1283.42 532.875 1283.04C533.391 1282.65 534.047 1282.49 534.682 1282.59L587.807 1290.9C588.448 1291 589.021 1291.35 589.396 1291.88C589.771 1292.41 589.922 1293.06 589.813 1293.7L454.047 2077.53C452.688 2085.38 445.771 2090.99 438.026 2090.99ZM426.745 2073.18C425.891 2079.31 430.167 2085.07 436.281 2086.03C442.396 2086.98 448.229 2082.8 449.287 2076.7L584.636 1295.3L536.365 1287.74L426.745 2073.18Z" fill="#232323"/>
</g>
<path d="M1296.9 2072.84L1186.94 1284.97L1133.82 1293.29L1269.59 2077.11C1270.87 2084.55 1277.89 2089.58 1285.34 2088.42C1292.8 2087.25 1297.94 2080.32 1296.9 2072.84Z" fill="white"/>
<mask id="mask20_433_11377" style="mask-type:luminance" maskUnits="userSpaceOnUse" x="1131" y="1281" width="170" height="810">
<path d="M1131.17 1281.33H1300.5V2091H1131.17V1281.33Z" fill="white"/>
</mask>
<g mask="url(#mask20_433_11377)">
<path d="M1283.23 2090.99C1275.48 2090.99 1268.57 2085.38 1267.21 2077.53L1131.44 1293.7C1131.33 1293.06 1131.48 1292.41 1131.86 1291.88C1132.23 1291.35 1132.81 1291 1133.45 1290.9L1186.57 1282.59C1187.21 1282.49 1187.86 1282.65 1188.38 1283.04C1188.9 1283.42 1189.24 1284 1189.33 1284.64L1299.29 2072.51C1300.51 2081.23 1294.42 2089.44 1285.72 2090.8C1284.89 2090.93 1284.05 2090.99 1283.23 2090.99ZM1136.62 1295.3L1271.97 2076.7C1273.02 2082.8 1278.86 2086.98 1284.97 2086.03C1291.08 2085.07 1295.36 2079.31 1294.51 2073.18L1184.89 1287.74L1136.62 1295.3Z" fill="#232323"/>
</g>
<mask id="mask21_433_11377" style="mask-type:luminance" maskUnits="userSpaceOnUse" x="334" y="1253" width="1060" height="57">
<path d="M334.5 1253H1393.5V1309.33H334.5V1253Z" fill="white"/>
</mask>
<g mask="url(#mask21_433_11377)">
<path d="M1370.85 1308.07H357.151C344.641 1308.07 334.5 1297.92 334.5 1285.41V1275.66C334.5 1263.15 344.641 1253 357.151 1253H1370.85C1383.36 1253 1393.5 1263.15 1393.5 1275.66V1285.41C1393.5 1297.92 1383.36 1308.07 1370.85 1308.07Z" fill="#4CAF7A"/>
</g>
</svg>
