<svg width="2098" height="2500" viewBox="0 0 2098 2500" fill="none" xmlns="http://www.w3.org/2000/svg">
<path d="M1557.8 756.021C1452.46 917.256 1323.04 1071.7 1392.65 1136.18C1405.27 1147.87 1427.85 1141.26 1432.07 1140.42C1539.78 1118.87 1556.2 792.662 1557.8 756.021Z" fill="#232323"/>
<path d="M1829.67 1162.76C1758.61 1239.62 1575.16 1191.59 1439.78 1093.71C1430.37 1086.9 1421.21 1079.87 1412.38 1072.62C1399.37 1061.95 1386.88 1050.67 1374.91 1038.89C1225.62 891.953 1159.12 669.015 1218.42 617.166C1264.92 576.526 1384.87 644.427 1442.21 676.89C1687.94 815.989 1898.75 1088.05 1829.67 1162.76Z" fill="white"/>
<path d="M1722.99 1203.87C1703.04 1203.87 1681.36 1201.54 1658.22 1196.81C1586.35 1182.13 1506.07 1145.47 1437.96 1096.23C1428.38 1089.31 1419.11 1082.18 1410.41 1075.03C1397.59 1064.52 1384.92 1053.1 1372.73 1041.11C1304.42 973.875 1262.33 900.651 1239.05 851.057C1208.94 786.921 1192.45 723.609 1193.82 677.354C1194.67 648.604 1202.47 626.979 1216.37 614.828C1264.55 572.723 1385.57 641.25 1443.73 674.182C1539.62 728.463 1635.57 805.807 1713.91 891.979C1788.48 974.01 1836.15 1052.45 1844.69 1107.19C1848.58 1132.12 1844.29 1151.53 1831.96 1164.87C1808.14 1190.62 1770.49 1203.87 1722.99 1203.87ZM1258.14 607.703C1242.06 607.703 1229.47 611.635 1220.47 619.51C1207.9 630.494 1200.83 650.562 1200.04 677.536C1198.7 722.848 1214.97 785.13 1244.68 848.416C1267.74 897.546 1309.44 970.088 1377.09 1036.68C1389.14 1048.54 1401.68 1059.83 1414.35 1070.22C1422.96 1077.29 1432.13 1084.34 1441.6 1091.19C1509.02 1139.93 1588.43 1176.21 1659.47 1190.72C1735.47 1206.24 1795.11 1195.56 1827.39 1160.65C1838.37 1148.77 1842.12 1131.1 1838.54 1108.15C1830.18 1054.58 1783.08 977.317 1709.3 896.161C1631.39 810.468 1535.99 733.557 1440.67 679.593C1411.7 663.192 1367.91 638.401 1325.17 622.526C1298.55 612.645 1276.16 607.703 1258.14 607.703Z" fill="#232323"/>
<path d="M457.089 2024.03C351.99 2223.42 318.573 2407.46 383.063 2462.29C400.813 2477.38 426.198 2482.78 449.719 2471.82C512.151 2442.72 506.193 2260.88 457.089 2024.03Z" fill="#232323"/>
<path d="M494.74 2276.86C413.318 2265.64 283.38 2239.19 203.328 2219.63L210.76 2099.09C210.76 2099.09 248.156 2019.22 273.188 2005.17C315.974 2008.59 363.818 2010.38 410.448 2011.69C446.161 2012.7 480.01 2013.72 512.51 2014.56C515.094 2041.8 518.286 2069.58 517.703 2101.57C516.458 2169.34 506.625 2228.55 494.74 2276.86Z" fill="white"/>
<path d="M494.74 2279.97C494.6 2279.97 494.459 2279.96 494.313 2279.94C412.142 2268.62 281.459 2241.92 202.589 2222.65C201.126 2222.29 200.131 2220.94 200.225 2219.44L207.657 2098.9C207.678 2098.51 207.777 2098.12 207.944 2097.77C209.485 2094.47 246.058 2016.84 271.662 2002.46C272.204 2002.16 272.813 2002.02 273.438 2002.07C318.423 2005.67 367.985 2007.38 410.532 2008.58C422.069 2008.91 433.407 2009.23 444.569 2009.56C468.235 2010.24 490.589 2010.89 512.589 2011.45C514.168 2011.49 515.459 2012.7 515.61 2014.27C515.912 2017.45 516.22 2020.65 516.532 2023.86C518.892 2048.12 521.329 2073.21 520.813 2101.62C519.73 2160.63 511.975 2219.84 497.761 2277.6C497.418 2279.01 496.152 2279.97 494.74 2279.97ZM206.595 2217.22C284.652 2236.19 411.152 2262.01 492.386 2273.4C506.063 2216.94 513.537 2159.12 514.589 2101.51C515.105 2073.45 512.683 2048.55 510.345 2024.46C510.121 2022.17 509.897 2019.88 509.678 2017.6C488.553 2017.05 467.074 2016.43 444.392 2015.78C433.23 2015.45 421.892 2015.12 410.36 2014.8C368.037 2013.6 318.782 2011.91 273.918 2008.35C251.079 2022.36 217.095 2093.02 213.829 2099.88L206.595 2217.22Z" fill="#232323"/>
<path d="M341.641 2249.95C290.906 2239.81 240.224 2228.76 203.328 2219.63L210.76 2099.09L276.25 2004.43C290.047 2005.23 303.849 2006.03 317.651 2006.87C331.484 2007.7 345.312 2008.56 359.135 2009.45C353.302 2089.62 347.469 2169.79 341.641 2249.95Z" fill="#042628"/>
<path d="M308.328 2006.32L293.438 2240.04C298.344 2241.07 303.286 2242.12 308.26 2243.15L323.292 2007.19C321.411 2007.08 319.531 2006.98 317.651 2006.87C314.547 2006.69 311.432 2006.5 308.328 2006.32Z" fill="white"/>
<path d="M494.74 2279.97C494.6 2279.97 494.459 2279.96 494.313 2279.94C412.142 2268.62 281.459 2241.92 202.589 2222.65C201.126 2222.29 200.131 2220.94 200.225 2219.44L207.657 2098.9C207.678 2098.51 207.777 2098.12 207.944 2097.77C209.485 2094.47 246.058 2016.84 271.662 2002.46C272.204 2002.16 272.813 2002.02 273.438 2002.07C318.423 2005.67 367.985 2007.38 410.532 2008.58C422.069 2008.91 433.407 2009.23 444.569 2009.56C468.235 2010.24 490.589 2010.89 512.589 2011.45C514.168 2011.49 515.459 2012.7 515.61 2014.27C515.912 2017.45 516.22 2020.65 516.532 2023.86C518.892 2048.12 521.329 2073.21 520.813 2101.62C519.73 2160.63 511.975 2219.84 497.761 2277.6C497.418 2279.01 496.152 2279.97 494.74 2279.97ZM206.595 2217.22C284.652 2236.19 411.152 2262.01 492.386 2273.4C506.063 2216.94 513.537 2159.12 514.589 2101.51C515.105 2073.45 512.683 2048.55 510.345 2024.46C510.121 2022.17 509.897 2019.88 509.678 2017.6C488.553 2017.05 467.074 2016.43 444.392 2015.78C433.23 2015.45 421.892 2015.12 410.36 2014.8C368.037 2013.6 318.782 2011.91 273.918 2008.35C251.079 2022.36 217.095 2093.02 213.829 2099.88L206.595 2217.22Z" fill="#232323"/>
<path d="M52.4187 2496.33C36.6062 2483.09 14.6791 2455.36 9.52805 2397.31C0.0332642 2290.33 4.81972 1967.78 4.81972 1967.78C39.8874 1973.97 62.726 1978 82.9291 1981.24C82.8301 1981.11 82.6999 1980.97 82.5854 1980.84C146.924 1989.21 243.653 2001.18 294.887 2007.98C292.049 2046.44 257.46 2063.26 246.132 2094.57C236.127 2123.32 228.408 2180.54 223.304 2224.19C208.71 2338.78 149.434 2447.47 53.0281 2496.08C52.7572 2496.21 52.6374 2496.23 52.4187 2496.33Z" fill="white"/>
<path d="M52.433 2499.42C51.7039 2499.42 50.9799 2499.18 50.4174 2498.71C19.1518 2472.53 9.24031 2429.27 6.42781 2397.59C-2.97323 2291.67 1.65698 1970.96 1.70906 1967.73C1.71948 1966.82 2.13094 1965.96 2.83406 1965.38C3.53719 1964.8 4.45906 1964.56 5.3601 1964.71C40.8497 1970.98 62.2976 1974.76 81.657 1977.89C82.0736 1977.75 82.5268 1977.69 82.9851 1977.76C112.787 1981.64 149.751 1986.31 185.496 1990.83C227.813 1996.19 267.782 2001.25 295.292 2004.9C296.928 2005.12 298.11 2006.57 297.985 2008.21C296.256 2031.69 283.277 2047.34 270.725 2062.47C261.902 2073.1 253.574 2083.14 249.053 2095.64C241.365 2117.71 233.949 2159.9 226.391 2224.55C218.897 2283.4 199.923 2339.38 171.506 2386.48C141.261 2436.64 100.772 2475.49 54.4226 2498.86C54.0945 2499.02 53.9174 2499.08 53.7403 2499.15C53.3289 2499.33 52.8809 2499.42 52.433 2499.42ZM7.87573 1971.48C7.39135 2007.48 3.7976 2297.56 12.6257 2397.04C17.3757 2450.63 36.8184 2478.52 52.907 2492.65C97.6414 2469.78 136.808 2431.97 166.183 2383.27C194.152 2336.9 212.834 2281.76 220.214 2223.8C227.824 2158.72 235.339 2116.1 243.193 2093.55C248.094 2080.01 257.162 2069.07 265.938 2058.5C277.839 2044.15 289.115 2030.56 291.501 2010.67C264.147 2007.06 225.522 2002.17 184.719 1997.01C149.683 1992.57 113.485 1988 83.9955 1984.16C83.5111 1984.34 82.9747 1984.4 82.4382 1984.31C63.2247 1981.23 42.3184 1977.56 7.87573 1971.48Z" fill="#232323"/>
<path d="M74.0355 2484.63C8.2855 2392.45 42.7595 2284.1 64.9261 2230.67C84.0459 2184.61 59.322 2169.39 71.2334 2131.81C81.1709 2100.44 103.619 2090.6 108.254 2050.64C111.03 2026.64 95.697 1995.67 82.9261 1981.24C82.8272 1981.11 82.7022 1980.97 82.5876 1980.84C115.77 1985.11 150.364 1989.55 181.77 1993.57C225.728 1999.19 294.884 2007.87 294.89 2007.98C292.051 2046.44 257.463 2063.26 246.129 2094.57C245.759 2095.6 245.39 2096.64 245.051 2097.69C236.296 2124.4 228.02 2182.56 223.306 2224.19C217.509 2275.35 200.468 2320.9 190.332 2343.88C188.499 2348.06 186.858 2351.56 185.447 2354.39C182.983 2359.36 180.463 2364.15 177.931 2368.81C177.077 2370.35 176.239 2371.86 175.395 2373.36C174.072 2375.69 172.733 2377.99 171.379 2380.25C170.968 2380.95 170.567 2381.64 170.155 2382.32C161.431 2396.89 151.676 2410.81 140.963 2423.98C140.077 2425.08 139.181 2426.15 138.286 2427.21C137.973 2427.6 137.661 2427.99 137.332 2428.36C137.004 2428.73 136.707 2429.11 136.395 2429.48C136.296 2429.58 136.213 2429.69 136.124 2429.79C135.952 2429.98 135.796 2430.17 135.629 2430.36C135.572 2430.43 135.515 2430.49 135.457 2430.56C135.244 2430.82 135.03 2431.07 134.817 2431.31C134.207 2432.03 133.588 2432.73 132.963 2433.42C132.749 2433.68 132.52 2433.94 132.296 2434.19C131.838 2434.7 131.369 2435.23 130.884 2435.76C130.697 2435.97 130.499 2436.18 130.301 2436.4C129.687 2437.08 129.088 2437.75 128.478 2438.42C128.421 2438.48 128.364 2438.55 128.306 2438.61L127.666 2439.29C127.437 2439.53 127.223 2439.78 126.994 2440.02C126.582 2440.48 126.14 2440.93 125.713 2441.38C125.499 2441.63 125.275 2441.86 125.03 2442.1C124.942 2442.2 124.843 2442.31 124.744 2442.41C124.645 2442.51 124.546 2442.64 124.431 2442.75C123.775 2443.42 123.134 2444.09 122.494 2444.74C121.593 2445.67 120.713 2446.56 119.832 2447.45L119.322 2447.98C119.108 2448.19 118.905 2448.39 118.681 2448.61C118.213 2449.09 117.723 2449.54 117.254 2450.01C116.687 2450.6 116.114 2451.15 115.546 2451.68L114.692 2452.49C114.551 2452.63 114.421 2452.76 114.291 2452.89C113.864 2453.29 113.452 2453.69 113.041 2454.07C112.739 2454.34 112.452 2454.61 112.171 2454.88C111.645 2455.38 111.103 2455.88 110.577 2456.35C110.166 2456.73 109.765 2457.1 109.348 2457.48C108.082 2458.64 106.817 2459.77 105.572 2460.85C104.989 2461.36 104.405 2461.89 103.838 2462.37C102.869 2463.21 101.916 2464.03 100.957 2464.82C100.176 2465.48 99.4053 2466.12 98.6345 2466.76L97.4834 2467.7C97.1136 2468.01 96.7282 2468.31 96.3428 2468.61C95.5876 2469.22 94.848 2469.82 94.098 2470.4C92.5459 2471.64 91.0199 2472.81 89.5095 2473.93C88.999 2474.32 88.5147 2474.69 88.0147 2475.04C84.9053 2477.35 81.947 2479.43 79.1397 2481.31C78.572 2481.69 78.0147 2482.08 77.4574 2482.43C76.4886 2483.08 75.5355 2483.7 74.598 2484.3C74.3949 2484.41 74.223 2484.52 74.0355 2484.63Z" fill="#232323"/>
<path d="M211.893 2137.34C210.867 2136.7 210.184 2135.63 210.028 2134.44C205.2 2098.31 197.965 2089.02 183.559 2070.51C179.684 2065.53 175.299 2059.89 170.361 2052.95C146.585 2019.53 148.872 1992.97 148.981 1991.86C149.195 1989.63 151.179 1988 153.413 1988.21C155.643 1988.43 157.278 1990.41 157.064 1992.65C157.028 1993.03 155.148 2017.57 176.976 2048.25C181.809 2055.04 186.143 2060.61 189.965 2065.53C204.794 2084.57 212.955 2095.06 218.075 2133.37C218.372 2135.59 216.814 2137.63 214.59 2137.92C213.653 2138.05 212.705 2137.84 211.903 2137.34H211.893Z" fill="white"/>
<path d="M72.2451 2487.51C71.8076 2487.23 71.443 2486.86 71.1722 2486.43C42.1253 2445.63 29.3285 2397.34 33.1358 2342.89C35.6097 2307.41 45.2608 2269.22 61.7972 2229.38C72.3076 2204.06 69.9743 2187.64 67.7087 2171.75C65.9847 2159.6 64.1983 2147.04 68.7035 2131.58C72.943 2117.03 79.792 2107.79 86.417 2098.84C94.6722 2087.7 102.469 2077.17 105.625 2056.54C111.032 2021.22 83.3858 1984.61 83.1045 1984.24C81.9691 1982.77 82.2503 1980.64 83.7347 1979.51C85.2191 1978.38 87.3441 1978.66 88.4795 1980.14C89.693 1981.72 118.146 2019.43 112.313 2057.57C108.901 2079.85 100.235 2091.55 91.8545 2102.87C85.2972 2111.72 79.0993 2120.08 75.1983 2133.47C71.0993 2147.53 72.7087 2158.83 74.4118 2170.8C76.6878 2186.8 79.266 2204.94 68.0472 2231.97C51.792 2271.15 42.3128 2308.62 39.8858 2343.36C36.1826 2396.28 48.6097 2443.16 76.7972 2482.68C77.8858 2484.19 77.542 2486.31 76.0264 2487.4C74.9066 2488.2 73.4118 2488.24 72.2451 2487.51Z" fill="#232323"/>
<path d="M41.5479 2092.44C31.0636 2085.85 23.7615 2069.55 23.6573 2049.97C23.5948 2038.07 26.2823 2026.82 31.225 2018.29C36.4907 2009.18 43.7354 2004.15 51.6157 2004.11C59.4907 2004.07 66.7875 2009.04 72.1521 2018.09C77.1834 2026.58 79.9854 2037.81 80.0532 2049.71C80.1157 2061.61 77.4282 2072.87 72.4907 2081.4C67.2198 2090.5 59.9802 2095.54 52.1 2095.57C48.3552 2095.56 44.6938 2094.47 41.5479 2092.44ZM58.5271 2012.97C56.4802 2011.63 54.0896 2010.9 51.6469 2010.88C46.2667 2010.91 41.0948 2014.74 37.074 2021.68C32.725 2029.19 30.3604 2039.23 30.4177 2049.95C30.5323 2071.08 40.4386 2088.88 52.0584 2088.82C57.4334 2088.8 62.6104 2084.96 66.6313 2078.02C70.9802 2070.51 73.3396 2060.47 73.2823 2049.75C73.225 2039.03 70.7563 2029.01 66.3292 2021.54C64.4386 2018.11 61.7667 2015.18 58.5271 2012.97Z" fill="#232323"/>
<path d="M54.1094 2499.29C54.0729 2499.31 54.0365 2499.33 54 2499.35C54.0313 2499.33 54.0729 2499.31 54.1094 2499.29Z" fill="#5B2448"/>
<path d="M213.984 2297.44C211.89 2296.13 210.348 2294.09 209.65 2291.72C192.796 2234.63 144.531 2210.51 144.046 2210.28C138.994 2207.84 136.88 2201.78 139.317 2196.73C141.749 2191.69 147.817 2189.57 152.864 2192.01C155.176 2193.13 209.63 2220 229.119 2285.99C230.702 2291.36 227.635 2297.01 222.26 2298.59C219.463 2299.41 216.452 2298.99 213.984 2297.44Z" fill="#042628"/>
<path d="M193.434 2347.44C191.179 2346.03 189.57 2343.79 188.96 2341.2C175.012 2282.67 126.507 2257.73 126.017 2257.49C121.007 2254.97 118.981 2248.88 121.491 2243.87C124.007 2238.86 130.101 2236.84 135.111 2239.36C137.45 2240.54 192.585 2268.88 208.7 2336.52C209.997 2341.96 206.632 2347.43 201.179 2348.73C198.533 2349.35 195.741 2348.9 193.434 2347.44Z" fill="#042628"/>
<path d="M169.463 2393.53C167.176 2392.1 165.557 2389.81 164.963 2387.17C153.166 2334.86 111.958 2312.11 111.541 2311.88C106.624 2309.19 104.812 2303.03 107.494 2298.12C110.14 2293.27 116.176 2291.43 121.078 2293.99C123.109 2295.05 170.843 2321.03 184.76 2382.72C185.994 2388.19 182.562 2393.62 177.093 2394.84C174.479 2395.43 171.734 2394.96 169.463 2393.53Z" fill="#042628"/>
<path d="M1238.08 2286.42C1235.93 2315.43 1226.69 2343.41 1211.46 2368.2C1082.23 2578.55 776.008 2439.91 426.148 2477.4C551.695 2458.43 408.393 2243.11 455.221 2009.84C499.763 2010.32 545.794 2012.17 592.596 2011.17C620.128 2010.58 636.169 2009.3 660.612 2007.99C663.393 2007.85 666.289 2007.69 669.326 2007.55C669.372 2007.55 669.414 2007.54 669.456 2007.54C633.924 1948.08 562.138 1853.81 527.331 1702.26C467.768 1442.92 550.534 1374.55 574.451 1320.92C734.435 1342.27 894.424 1363.6 1054.42 1384.94C1046.3 1447.05 1067.4 1634.47 1094.48 1705.06C1150.95 1906.82 1248.95 2138.87 1238.08 2286.42Z" fill="#4CAF7A"/>
<path d="M645.2 1706.23C643.617 1706.19 642.185 1705.12 641.763 1703.52C641.257 1701.58 642.419 1699.59 644.356 1699.09C667.893 1692.94 726.57 1672.03 762.971 1610.69C791.455 1562.7 791.169 1514.8 788.466 1490.53C788.242 1488.54 789.674 1486.74 791.664 1486.52C793.659 1486.29 795.45 1487.73 795.669 1489.73C798.476 1514.9 798.768 1564.58 769.205 1614.4C751.966 1643.44 727.919 1667.07 697.726 1684.61C681.299 1694.16 663.481 1701.59 646.19 1706.11C645.856 1706.19 645.528 1706.23 645.2 1706.23Z" fill="white"/>
<path d="M706.677 2063.74C706.042 2064.21 705.292 2064.44 704.552 2064.45C703.438 2064.46 702.328 2063.96 701.609 2063L660.609 2007.99C663.396 2007.85 666.286 2007.69 669.328 2007.55L707.417 2058.66C708.62 2060.27 708.286 2062.54 706.677 2063.74Z" fill="white"/>
<path d="M1847.38 2030.86C1631.47 1949.6 1455.76 1937.24 1408.32 2009.74C1395.27 2029.69 1393.02 2056.17 1407.15 2078.65C1444.68 2138.33 1613.13 2111 1847.38 2030.86Z" fill="#232323"/>
<path d="M1885.68 1992.67C1884.94 1997.46 1884.07 2002.59 1883.14 2008L1883.14 2008.01C1876.8 2044.89 1866.44 2095.02 1855.16 2145.08C1843.82 2195.56 1831.58 2245.97 1821.58 2282.64L1701.25 2272.36C1701.25 2272.36 1622.04 2234.75 1608.58 2209.39C1609.83 2179.29 1610.03 2146.61 1610.18 2121.24C1610.23 2114.98 1610.24 2108.86 1610.22 2102.91C1610.23 2099.13 1610.21 2095.42 1610.17 2091.76C1609.89 2047.73 1608.33 2013.33 1606.96 1990.99C1605.8 1971.9 1604.76 1961.59 1604.76 1961.59C1604.76 1961.59 1794.37 1961.83 1885.68 1992.67Z" fill="white"/>
<path d="M1821.58 2285.75C1821.5 2285.75 1821.41 2285.75 1821.32 2285.74L1700.99 2275.46C1700.62 2275.43 1700.26 2275.33 1699.92 2275.17C1696.65 2273.62 1619.62 2236.82 1605.83 2210.85C1605.58 2210.36 1605.45 2209.82 1605.48 2209.27C1606.72 2179.41 1606.91 2147.42 1607.07 2121.72L1607.07 2121.22C1607.12 2114.94 1607.13 2108.78 1607.11 2102.92C1607.12 2099.14 1607.1 2095.43 1607.06 2091.79C1606.78 2047.1 1605.16 2012.41 1603.86 1991.18C1602.72 1972.39 1601.68 1962.01 1601.67 1961.91C1601.58 1961.03 1601.87 1960.16 1602.46 1959.51C1603.05 1958.85 1603.89 1958.48 1604.76 1958.48H1604.77C1605.24 1958.48 1652.94 1958.59 1711.19 1962.46C1765.04 1966.05 1839.19 1973.68 1886.68 1989.71C1888.12 1990.2 1888.99 1991.65 1888.76 1993.14C1888.1 1997.41 1887.31 2002.15 1886.21 2008.53C1886.2 2008.59 1886.19 2008.65 1886.17 2008.71C1880.15 2043.71 1870.22 2092.38 1858.2 2145.77C1846.53 2197.72 1834.28 2247.91 1824.58 2283.46C1824.22 2284.82 1822.98 2285.75 1821.58 2285.75ZM1702.08 2269.31L1819.26 2279.32C1828.82 2244.03 1840.75 2195.06 1852.13 2144.4C1864.15 2091.03 1874.07 2042.4 1880.07 2007.48C1880.08 2007.42 1880.09 2007.36 1880.11 2007.3C1880.97 2002.31 1881.63 1998.33 1882.2 1994.79C1844.94 1982.68 1785.77 1973.67 1710.77 1968.67C1661.65 1965.41 1620.08 1964.83 1608.17 1964.73C1608.57 1969.25 1609.3 1978.14 1610.07 1990.8C1611.38 2012.11 1613 2046.93 1613.29 2091.74C1613.32 2095.4 1613.33 2099.12 1613.33 2102.91C1613.35 2108.78 1613.33 2114.96 1613.3 2121.26L1613.29 2121.76C1613.14 2147.26 1612.94 2178.93 1611.73 2208.65C1625.08 2231.79 1695.41 2266.09 1702.08 2269.31Z" fill="#232323"/>
<path d="M1855.16 2145.08C1843.83 2195.57 1831.58 2245.97 1821.58 2282.64L1701.26 2272.37L1608.17 2204.65C1609.42 2174.54 1610.03 2146.62 1610.19 2121.24L1855.16 2145.08Z" fill="#042628"/>
<path d="M1609.29 2172.5L1844.12 2193.04C1845.27 2188.16 1846.42 2183.24 1847.57 2178.3L1609.67 2157.48C1609.56 2162.42 1609.44 2167.42 1609.29 2172.5Z" fill="white"/>
<path d="M1821.58 2285.75C1821.5 2285.75 1821.41 2285.75 1821.32 2285.74L1700.99 2275.46C1700.62 2275.43 1700.26 2275.33 1699.92 2275.17C1696.65 2273.62 1619.62 2236.82 1605.83 2210.85C1605.58 2210.36 1605.45 2209.82 1605.48 2209.27C1606.72 2179.41 1606.91 2147.42 1607.07 2121.72L1607.07 2121.22C1607.12 2114.94 1607.13 2108.78 1607.11 2102.92C1607.12 2099.14 1607.1 2095.43 1607.06 2091.79C1606.78 2047.1 1605.16 2012.41 1603.86 1991.18C1602.72 1972.39 1601.68 1962.01 1601.67 1961.91C1601.58 1961.03 1601.87 1960.16 1602.46 1959.51C1603.05 1958.85 1603.89 1958.48 1604.76 1958.48H1604.77C1605.24 1958.48 1652.94 1958.59 1711.19 1962.46C1765.04 1966.05 1839.19 1973.68 1886.68 1989.71C1888.12 1990.2 1888.99 1991.65 1888.76 1993.14C1888.1 1997.41 1887.31 2002.15 1886.21 2008.53C1886.2 2008.59 1886.19 2008.65 1886.17 2008.71C1880.15 2043.71 1870.22 2092.38 1858.2 2145.77C1846.53 2197.72 1834.28 2247.91 1824.58 2283.46C1824.22 2284.82 1822.98 2285.75 1821.58 2285.75ZM1702.08 2269.31L1819.26 2279.32C1828.82 2244.03 1840.75 2195.06 1852.13 2144.4C1864.15 2091.03 1874.07 2042.4 1880.07 2007.48C1880.08 2007.42 1880.09 2007.36 1880.11 2007.3C1880.97 2002.31 1881.63 1998.33 1882.2 1994.79C1844.94 1982.68 1785.77 1973.67 1710.77 1968.67C1661.65 1965.41 1620.08 1964.83 1608.17 1964.73C1608.57 1969.25 1609.3 1978.14 1610.07 1990.8C1611.38 2012.11 1613 2046.93 1613.29 2091.74C1613.32 2095.4 1613.33 2099.12 1613.33 2102.91C1613.35 2108.78 1613.33 2114.96 1613.3 2121.26L1613.29 2121.76C1613.14 2147.26 1612.94 2178.93 1611.73 2208.65C1625.08 2231.79 1695.41 2266.09 1702.08 2269.31Z" fill="#232323"/>
<path d="M2094.64 2440.05C2081.03 2455.54 2052.8 2476.81 1994.64 2480.59C1887.46 2487.55 1565.11 2475.15 1565.11 2475.15C1572.14 2440.24 1576.7 2417.5 1580.41 2397.38C1580.28 2397.48 1580.14 2397.6 1580.01 2397.71C1589.9 2333.59 1601.34 2237.17 1609.35 2186.11C1647.73 2189.86 1666.53 2224.83 1697.57 2236.9C1726.07 2247.58 1783.1 2256.65 1826.61 2262.78C1940.82 2280.08 2048.09 2341.9 2094.41 2439.44C2094.53 2439.71 2094.55 2439.83 2094.64 2440.05Z" fill="white"/>
<path d="M1899.35 2485.8C1763.08 2485.8 1567.5 2478.35 1564.99 2478.26C1564.08 2478.22 1563.23 2477.79 1562.67 2477.07C1562.1 2476.35 1561.88 2475.43 1562.06 2474.54C1569.17 2439.19 1573.45 2417.84 1577.03 2398.57C1576.9 2398.15 1576.86 2397.69 1576.93 2397.23C1582.02 2364.25 1587.48 2323.03 1592.76 2283.16C1597.71 2245.76 1602.39 2210.43 1606.28 2185.62C1606.53 2183.99 1608 2182.85 1609.65 2183.01C1633.22 2185.31 1649.53 2198.78 1665.31 2211.8C1676.17 2220.76 1686.42 2229.22 1698.7 2234C1720.59 2242.2 1762.59 2250.61 1827.05 2259.7C1885.7 2268.58 1941.21 2288.87 1987.64 2318.4C2037.06 2349.82 2074.95 2391.21 2097.21 2438.1C2097.36 2438.43 2097.43 2438.61 2097.49 2438.79C2097.93 2439.88 2097.75 2441.22 2096.98 2442.1C2070.06 2472.74 2026.58 2481.63 1994.84 2483.69C1971.5 2485.21 1937.77 2485.8 1899.35 2485.8ZM1568.88 2472.18C1604.86 2473.52 1894.77 2483.96 1994.43 2477.48C2048.12 2474 2076.46 2455.22 2090.97 2439.47C2069.16 2394.21 2032.29 2354.16 1984.3 2323.65C1938.6 2294.59 1883.92 2274.61 1826.15 2265.86C1761.27 2256.71 1718.84 2248.19 1696.48 2239.81C1683.23 2234.66 1672.11 2225.48 1661.34 2216.59C1646.97 2204.73 1632.14 2192.48 1611.96 2189.56C1608.18 2214.1 1603.68 2248.08 1598.92 2283.97C1593.74 2323.15 1588.37 2363.64 1583.36 2396.37C1583.53 2396.87 1583.57 2397.41 1583.47 2397.94C1579.94 2417.07 1575.78 2437.88 1568.88 2472.18Z" fill="#232323"/>
<path d="M2083.46 2418.16C1989.75 2481.71 1882.24 2444.69 1829.36 2421.27C1783.75 2401.06 1767.95 2425.42 1730.67 2412.62C1699.54 2401.95 1690.23 2379.27 1650.4 2373.7C1626.47 2370.35 1595.15 2384.95 1580.41 2397.38C1580.28 2397.47 1580.14 2397.6 1580.01 2397.71C1585.06 2364.64 1590.32 2330.16 1595.08 2298.85C1601.74 2255.04 1609.24 2186.11 1609.35 2186.11C1647.73 2189.85 1666.54 2224.83 1697.58 2236.9C1698.59 2237.29 1699.62 2237.69 1700.67 2238.05C1727.16 2247.44 1785.11 2257.08 1826.62 2262.78C1877.63 2269.79 1922.75 2287.9 1945.49 2298.57C1949.63 2300.5 1953.09 2302.23 1955.88 2303.7C1960.79 2306.28 1965.53 2308.92 1970.12 2311.56C1971.64 2312.45 1973.13 2313.32 1974.61 2314.2C1976.91 2315.58 1979.17 2316.97 1981.41 2318.38C1982.1 2318.81 1982.77 2319.22 1983.44 2319.65C1997.8 2328.72 2011.49 2338.8 2024.4 2349.82C2025.48 2350.73 2026.53 2351.65 2027.58 2352.57C2027.96 2352.89 2028.33 2353.21 2028.69 2353.55C2029.05 2353.89 2029.43 2354.2 2029.79 2354.52C2029.89 2354.62 2030 2354.71 2030.1 2354.79C2030.28 2354.97 2030.48 2355.13 2030.66 2355.31C2030.73 2355.36 2030.78 2355.42 2030.85 2355.48C2031.1 2355.7 2031.35 2355.92 2031.59 2356.14C2032.29 2356.77 2032.97 2357.4 2033.65 2358.04C2033.9 2358.26 2034.16 2358.5 2034.41 2358.73C2034.91 2359.2 2035.42 2359.68 2035.94 2360.18C2036.15 2360.36 2036.36 2360.57 2036.57 2360.78C2037.24 2361.4 2037.89 2362.02 2038.54 2362.65C2038.6 2362.7 2038.67 2362.76 2038.73 2362.82L2039.39 2363.47C2039.63 2363.71 2039.87 2363.93 2040.1 2364.16C2040.55 2364.59 2040.99 2365.04 2041.44 2365.47C2041.68 2365.7 2041.9 2365.93 2042.14 2366.18C2042.24 2366.27 2042.35 2366.37 2042.45 2366.47C2042.54 2366.57 2042.66 2366.68 2042.78 2366.79C2043.43 2367.46 2044.09 2368.12 2044.72 2368.78C2045.63 2369.7 2046.5 2370.6 2047.37 2371.49L2047.88 2372.02C2048.09 2372.24 2048.28 2372.45 2048.49 2372.68C2048.97 2373.16 2049.41 2373.66 2049.87 2374.14C2050.43 2374.72 2050.98 2375.3 2051.49 2375.89L2052.28 2376.76C2052.42 2376.91 2052.54 2377.04 2052.67 2377.17C2053.06 2377.6 2053.45 2378.03 2053.83 2378.45C2054.09 2378.76 2054.35 2379.05 2054.61 2379.34C2055.1 2379.88 2055.59 2380.43 2056.04 2380.97C2056.41 2381.39 2056.78 2381.8 2057.14 2382.22C2058.27 2383.51 2059.37 2384.81 2060.42 2386.07C2060.92 2386.67 2061.43 2387.27 2061.9 2387.84C2062.72 2388.83 2063.51 2389.81 2064.28 2390.78C2064.92 2391.58 2065.54 2392.36 2066.16 2393.15L2067.08 2394.32C2067.38 2394.7 2067.67 2395.09 2067.96 2395.48C2068.55 2396.26 2069.14 2397.01 2069.71 2397.78C2070.9 2399.35 2072.04 2400.91 2073.13 2402.44C2073.5 2402.96 2073.86 2403.46 2074.2 2403.96C2076.43 2407.12 2078.44 2410.14 2080.25 2412.98C2080.62 2413.56 2081 2414.12 2081.34 2414.69C2081.97 2415.67 2082.55 2416.65 2083.13 2417.6C2083.24 2417.8 2083.35 2417.97 2083.46 2418.16Z" fill="#232323"/>
<path d="M1739.52 2272.14C1738.85 2273.15 1737.77 2273.8 1736.57 2273.94C1700.35 2277.91 1690.88 2284.92 1672.03 2298.89C1666.97 2302.64 1661.22 2306.89 1654.17 2311.66C1620.2 2334.65 1593.7 2331.73 1592.6 2331.59C1590.37 2331.33 1588.78 2329.31 1589.05 2327.08C1589.32 2324.85 1591.34 2323.27 1593.57 2323.54C1593.95 2323.58 1618.44 2326.04 1649.63 2304.94C1656.54 2300.27 1662.2 2296.07 1667.2 2292.36C1686.6 2277.99 1697.28 2270.08 1735.69 2265.86C1737.92 2265.62 1739.92 2267.22 1740.16 2269.45C1740.27 2270.4 1740.04 2271.34 1739.52 2272.13V2272.14Z" fill="white"/>
<path d="M2086.29 2420.02C2086.01 2420.45 2085.63 2420.8 2085.19 2421.07C2043.71 2449.14 1995.13 2460.79 1940.78 2455.7C1905.38 2452.39 1867.42 2441.84 1827.98 2424.37C1802.92 2413.26 1786.45 2415.2 1770.51 2417.09C1758.32 2418.53 1745.72 2420.02 1730.38 2415.15C1715.93 2410.57 1706.85 2403.5 1698.07 2396.67C1687.12 2388.15 1676.78 2380.11 1656.23 2376.46C1621.05 2370.23 1583.8 2397 1583.42 2397.27C1581.92 2398.37 1579.8 2398.04 1578.7 2396.53C1577.6 2395.02 1577.93 2392.91 1579.44 2391.81C1581.06 2390.63 1619.42 2363.07 1657.41 2369.81C1679.62 2373.75 1691.1 2382.68 1702.22 2391.33C1710.92 2398.09 1719.13 2404.49 1732.42 2408.7C1746.38 2413.13 1757.72 2411.79 1769.72 2410.38C1785.78 2408.48 1803.97 2406.32 1830.73 2418.18C1869.51 2435.36 1906.75 2445.71 1941.42 2448.96C1994.23 2453.92 2041.39 2442.61 2081.57 2415.36C2083.11 2414.3 2085.21 2414.69 2086.27 2416.24C2087.04 2417.38 2087.05 2418.87 2086.29 2420.02Z" fill="#232323"/>
<path d="M1690.61 2441.37C1683.77 2451.7 1667.3 2458.61 1647.73 2458.26C1635.83 2458.04 1624.64 2455.08 1616.23 2449.94C1607.25 2444.46 1602.39 2437.1 1602.54 2429.22C1602.68 2421.34 1607.82 2414.17 1617 2409.02C1625.61 2404.19 1636.9 2401.66 1648.8 2401.87C1660.7 2402.09 1671.89 2405.04 1680.3 2410.18C1689.27 2415.67 1694.13 2423.02 1693.99 2430.9C1693.89 2434.64 1692.72 2438.28 1690.61 2441.37ZM1611.56 2422.52C1610.17 2424.54 1609.39 2426.91 1609.31 2429.35C1609.21 2434.73 1612.92 2439.99 1619.77 2444.18C1627.17 2448.7 1637.15 2451.3 1647.87 2451.49C1668.99 2451.89 1687.02 2442.4 1687.24 2430.78C1687.34 2425.41 1683.63 2420.14 1676.78 2415.96C1669.38 2411.43 1659.4 2408.83 1648.68 2408.64C1637.96 2408.45 1627.89 2410.68 1620.31 2414.92C1616.84 2416.73 1613.84 2419.33 1611.56 2422.52Z" fill="#232323"/>
<path d="M2097.64 2438.43C2097.66 2438.46 2097.68 2438.5 2097.69 2438.54C2097.68 2438.51 2097.66 2438.46 2097.64 2438.43Z" fill="#5B2448"/>
<path d="M1899.62 2273.83C1898.26 2275.89 1896.19 2277.38 1893.81 2278.02C1836.33 2293.53 1811.08 2341.2 1810.83 2341.69C1808.28 2346.68 1802.16 2348.65 1797.18 2346.09C1792.19 2343.54 1790.22 2337.43 1792.78 2332.44C1793.95 2330.16 1822.1 2276.35 1888.54 2258.43C1893.95 2256.97 1899.51 2260.17 1900.97 2265.58C1901.72 2268.4 1901.23 2271.4 1899.62 2273.83Z" fill="#042628"/>
<path d="M1949.13 2295.56C1947.66 2297.78 1945.38 2299.33 1942.78 2299.89C1883.93 2312.44 1857.86 2360.34 1857.61 2360.83C1854.98 2365.78 1848.83 2367.66 1843.89 2365.03C1838.94 2362.4 1837.06 2356.26 1839.69 2351.31C1840.93 2349 1870.56 2294.55 1938.56 2280.04C1944.04 2278.86 1949.43 2282.36 1950.59 2287.84C1951.16 2290.51 1950.63 2293.29 1949.13 2295.56Z" fill="#042628"/>
<path d="M1994.64 2320.61C1993.15 2322.86 1990.82 2324.43 1988.17 2324.95C1935.59 2335.51 1911.88 2376.17 1911.64 2376.58C1908.84 2381.44 1902.63 2383.1 1897.78 2380.3C1893 2377.54 1891.31 2371.46 1893.97 2366.63C1895.09 2364.63 1922.18 2317.51 1984.19 2305.06C1989.68 2303.96 1995.03 2307.52 1996.13 2313.01C1996.65 2315.64 1996.12 2318.37 1994.64 2320.61Z" fill="#042628"/>
<path d="M1932.21 1769.83C1911.01 1880.7 1893.75 1980.02 1875.6 2065.34C1735.35 2069.95 1436.89 1939.29 1400 2026.59C1419.76 1971.99 1439.26 1915.85 1458.4 1858.17C1478.85 1796.56 1497.91 1736.09 1515.69 1676.88C1515.5 1676.93 1515.32 1676.98 1515.13 1677.04C1512.33 1677.82 1509.55 1678.6 1506.79 1679.38C1439.91 1698.25 1382.93 1715.96 1338.03 1730.54C1222.88 1767.93 1157.89 1794.2 1131.94 1805.05C1130.03 1805.84 1128.33 1806.56 1126.85 1807.19C1126.31 1807.41 1125.77 1807.65 1125.24 1807.87C1103.57 1817.02 1085.74 1824.99 1073.36 1830.61C1058.87 1750.47 1045.71 1670.13 1033.9 1589.61C1021.07 1502.19 1009.8 1414.53 1000.12 1326.64C1101.29 1299.23 1747.39 1105.26 1935.24 1344.65C1991.86 1421.6 1980.53 1517.16 1932.21 1769.83Z" fill="#4CAF7A"/>
<path d="M1549.77 792.943C1547.95 795.469 1545.46 798.933 1542.53 803.068C1542.53 803.068 1538.11 809.537 1533.61 815.729C1493.23 871.255 1331.11 1086.88 1395.63 1134.62C1339.32 1091.9 1299.23 1054.19 1263.52 1011.38C1261.19 1008.6 1258.89 1005.79 1256.6 1002.97C1241.94 984.844 1227.9 965.729 1213.63 944.891C1138.12 834.594 1057.17 712.167 1098.11 607.271C1104.88 589.912 1119.58 551.563 1155.71 534.021C1253.98 486.302 1420.59 635.771 1492.46 700.25C1503.92 710.531 1515.04 719.401 1525.36 727.334C1528.65 729.865 1531.85 732.292 1534.96 734.646C1537.5 744.334 1540.02 754.099 1542.52 763.938C1544.99 773.656 1547.41 783.328 1549.77 792.943Z" fill="white"/>
<path d="M1395.63 1137.73C1394.98 1137.73 1394.34 1137.53 1393.78 1137.12C1393.53 1136.93 1393.28 1136.74 1393.04 1136.55C1338.02 1094.75 1297.31 1056.73 1261.13 1013.37C1259.06 1010.9 1256.85 1008.22 1254.19 1004.93C1240.06 987.458 1225.95 968.39 1211.07 946.645C1169.57 886.026 1133.27 831.291 1109.34 775.276C1081.16 709.296 1076.54 653.974 1095.21 606.14L1095.4 605.672C1102.55 587.323 1117.45 549.14 1154.35 531.218C1197.58 510.229 1258.57 524.088 1335.64 572.422C1398.78 612.026 1458.72 665.802 1494.54 697.927C1506.85 708.979 1518.49 718.13 1527.26 724.864C1530.36 727.26 1533.4 729.562 1536.35 731.796L1536.84 732.166C1537.39 732.588 1537.79 733.182 1537.97 733.854C1540.52 743.562 1543.06 753.421 1545.54 763.166C1547.97 772.776 1550.42 782.541 1552.79 792.198C1553.01 793.083 1552.83 794.02 1552.3 794.76C1550.48 797.281 1547.99 800.744 1545.06 804.869C1545.05 804.885 1540.6 811.395 1536.12 817.557C1534.36 819.984 1532.37 822.708 1530.17 825.713C1506.68 857.859 1457.79 924.75 1423.19 988.312C1403.96 1023.63 1391.61 1053.38 1386.5 1076.73C1380.68 1103.28 1384.17 1121.74 1396.85 1131.64C1397.07 1131.8 1397.29 1131.97 1397.51 1132.14C1398.87 1133.17 1399.15 1135.11 1398.12 1136.48C1397.51 1137.3 1396.58 1137.73 1395.63 1137.73ZM1198.53 527.869C1183.74 527.869 1169.8 530.635 1157.07 536.817C1122.35 553.677 1108.06 590.323 1101.19 607.937L1101.01 608.401C1082.96 654.645 1087.55 708.432 1115.06 772.833C1138.76 828.328 1174.89 882.791 1216.2 943.13C1230.99 964.739 1245 983.677 1259.02 1001.02C1261.67 1004.28 1263.85 1006.94 1265.9 1009.39C1298.14 1048.02 1334.02 1082.39 1380.6 1119.07C1376.59 1107.79 1376.52 1093.19 1380.42 1075.4C1385.66 1051.47 1398.21 1021.18 1417.72 985.338C1452.53 921.411 1501.57 854.302 1525.15 822.047C1527.34 819.047 1529.33 816.323 1531.09 813.901C1535.52 807.817 1539.91 801.38 1539.95 801.317C1542.49 797.739 1544.69 794.682 1546.41 792.291C1544.15 783.104 1541.82 773.833 1539.5 764.703C1537.12 755.317 1534.67 745.828 1532.22 736.474C1529.37 734.317 1526.45 732.099 1523.46 729.796C1514.61 722.994 1502.85 713.755 1490.39 702.562C1428.85 647.359 1295.65 527.869 1198.53 527.869Z" fill="#232323"/>
<path d="M1322.62 1252.27C1185.15 1283.09 992.839 1455.55 889.245 1502.96C864.958 1514.07 836.557 1525.99 800.849 1534.83C748.51 1547.78 703.182 1549.05 671.964 1547.84C658.349 1521.38 644.786 1492.35 631.938 1460.79C623.714 1440.58 616.432 1420.95 609.995 1402.06C598.141 1417.76 584.458 1438.78 572.479 1465.14C560.651 1491.18 553.849 1515.02 549.802 1534.12C526.615 1529.3 503.422 1524.48 480.234 1519.66C482.635 1411.97 492.161 1320.02 502.422 1247.77C517.375 1142.41 540.88 1028.24 575.885 923.078C576.13 922.328 576.38 921.578 576.641 920.833C577.344 918.687 578.068 916.547 578.797 914.406C579.062 913.641 579.328 912.865 579.599 912.094C634.042 753.182 715.323 616.521 833.828 564.703C860.922 554.797 894.224 544.38 928.401 544.74C930.359 544.755 932.307 544.812 934.271 544.901C934.422 544.906 934.578 544.917 934.734 544.922C935.276 544.995 935.828 545.057 936.37 545.13C938.411 545.401 940.448 545.667 942.484 545.927C1026.49 556.896 1110.48 567.828 1194.48 578.781C1226.01 668.536 1262.26 757.141 1285.82 875.604C1312.48 1009.63 1318.62 1147.75 1322.62 1252.27Z" fill="white"/>
<path d="M690.247 1551.31C684.122 1551.31 677.992 1551.19 671.846 1550.95C670.726 1550.91 669.716 1550.26 669.2 1549.27C654.591 1520.88 641.08 1491.5 629.059 1461.96C621.908 1444.4 615.163 1426.49 608.976 1408.66C595.851 1426.7 584.538 1446.11 575.309 1466.43C565.377 1488.29 557.82 1511.29 552.846 1534.77C552.492 1536.44 550.846 1537.52 549.169 1537.17L479.601 1522.7C478.132 1522.4 477.091 1521.09 477.122 1519.59C479.153 1428.44 486.627 1336.84 499.341 1247.33C516.434 1126.87 541.195 1017.45 572.934 922.099C573.179 921.339 573.434 920.573 573.7 919.808C574.393 917.703 575.122 915.552 575.856 913.401C576.117 912.63 576.387 911.844 576.658 911.068C606.023 825.37 640.835 753.157 680.132 696.469C724.976 631.766 776.268 586.479 832.585 561.854C832.643 561.828 832.7 561.802 832.762 561.781C860.58 551.61 893.705 541.266 928.434 541.63C930.309 541.646 932.268 541.698 934.408 541.792L934.877 541.813C934.966 541.818 935.054 541.828 935.143 541.839L936.783 542.047C938.815 542.318 940.846 542.584 942.877 542.844C999.023 550.172 1055.16 557.485 1111.29 564.797L1194.89 575.693C1196.05 575.844 1197.03 576.641 1197.42 577.745C1203.07 593.834 1209 610.235 1214.73 626.089C1241.65 700.552 1269.49 777.552 1288.87 875C1316.65 1014.63 1322.34 1163.31 1325.73 1252.15C1325.79 1253.65 1324.77 1254.97 1323.3 1255.3C1238.73 1274.26 1133.1 1347.32 1039.89 1411.78C983.486 1450.79 930.205 1487.63 890.538 1505.78C866.861 1516.61 837.773 1528.9 801.596 1537.84C765.44 1546.79 728.064 1551.31 690.247 1551.31ZM673.903 1544.8C716.783 1546.29 759.236 1541.92 800.106 1531.81C835.783 1522.98 864.533 1510.84 887.955 1500.13C927.122 1482.21 980.179 1445.51 1036.36 1406.66C1129.11 1342.52 1234.11 1269.9 1319.42 1249.82C1310.33 1014.71 1293.09 928.068 1282.77 876.214C1263.48 779.229 1235.72 702.453 1208.88 628.209C1203.36 612.927 1197.65 597.151 1192.18 581.615L1110.49 570.969C1054.36 563.657 998.221 556.344 942.085 549.016C940.049 548.755 938.012 548.485 935.971 548.219L934.117 548.005C932.07 547.917 930.19 547.865 928.382 547.854C894.7 547.495 862.262 557.625 834.992 567.594C779.783 591.755 729.403 636.308 685.247 700.011C646.278 756.235 611.726 827.927 582.544 913.104C582.273 913.88 582.007 914.646 581.747 915.406C581.018 917.542 580.299 919.667 579.596 921.802C579.325 922.584 579.085 923.313 578.846 924.047C547.221 1019.06 522.544 1128.11 505.502 1248.2C492.945 1336.63 485.512 1427.09 483.403 1517.14L547.419 1530.45C552.481 1507.58 559.955 1485.19 569.648 1463.85C579.877 1441.34 592.617 1419.92 607.512 1400.18C608.21 1399.26 609.356 1398.8 610.492 1398.98C611.627 1399.16 612.57 1399.96 612.945 1401.05C619.611 1420.62 626.971 1440.32 634.825 1459.61C646.549 1488.43 659.695 1517.07 673.903 1544.8Z" fill="#232323"/>
<path d="M1131.94 1805.05C1130.03 1805.84 1128.34 1806.56 1126.85 1807.19C1126.31 1807.41 1125.77 1807.65 1125.24 1807.87C1097.94 1721.01 1065.21 1601.62 1049.74 1518.34C1049.39 1516.37 1050.68 1514.47 1052.65 1514.11C1054.62 1513.75 1056.51 1515.05 1056.88 1517.02C1072.24 1599.8 1104.78 1718.52 1131.94 1805.05Z" fill="white"/>
<path d="M610.19 1402.05C619.294 1426.82 629.404 1452.5 640.643 1478.92C650.893 1503 661.336 1529.01 671.826 1550.84C669.831 1551.33 653.456 1544.56 644.273 1541.42C635.581 1527.59 626.565 1508.36 618.164 1489.8C607.247 1465.65 599.94 1443.17 594.961 1423.81C597.685 1418.59 601.221 1412.89 605.841 1407.13C607.289 1405.32 608.742 1403.64 610.19 1402.05Z" fill="#232323"/>
<path d="M1245.86 189.594C1245.69 189.631 1245.53 189.662 1245.35 189.698C1245.34 189.698 1245.32 189.709 1245.31 189.714C1232.71 192.407 1219.81 197.12 1206.88 202.969C1195.43 208.146 1183.94 214.224 1172.58 220.584C1172.57 220.584 1172.56 220.584 1172.56 220.599C1172.34 220.714 1172.12 220.828 1171.91 220.964C1160.71 227.235 1149.65 233.776 1138.86 240.006C1133.67 243.058 1127.47 246.844 1120.78 251.016C1119.98 251.511 1119.19 252.011 1118.38 252.526C1117.58 253.011 1116.79 253.511 1115.99 254.021C1115.48 254.334 1114.98 254.651 1114.48 254.969C1109.13 258.344 1103.58 261.881 1098.07 265.433C1097.83 265.594 1097.58 265.745 1097.34 265.907C1079.24 277.573 1061.68 289.256 1053.07 295.297H1053.06C1050.64 296.964 1049.32 297.886 1049.32 297.886C1049.32 297.886 1049.32 297.875 1049.31 297.87C1049.3 297.834 1049.28 297.792 1049.26 297.745C1049.24 297.724 1049.22 297.703 1049.22 297.672C1049.08 297.391 1048.91 297.052 1048.69 296.667C1048.65 296.573 1048.59 296.469 1048.54 296.37C1048.07 295.511 1047.47 294.448 1046.73 293.193C1046.58 292.938 1046.42 292.672 1046.26 292.401C1046.16 292.229 1046.05 292.052 1045.94 291.875C1045.73 291.526 1045.52 291.157 1045.29 290.776C1045.05 290.401 1044.82 290.011 1044.57 289.604C1044.27 289.104 1043.95 288.589 1043.62 288.052C1043.42 287.735 1043.22 287.407 1043.02 287.073C1042.84 286.797 1042.67 286.516 1042.49 286.229C1041.96 285.386 1041.41 284.5 1040.83 283.584V283.578C1040.21 282.599 1039.57 281.594 1038.9 280.552C1038.56 280.032 1038.22 279.506 1037.88 278.959C1036.91 277.443 1035.88 275.87 1034.82 274.25C1034.77 274.188 1034.73 274.115 1034.69 274.047C1024.08 257.938 1009.55 237.287 996.948 222.912C996.943 222.896 996.927 222.891 996.922 222.886C995.136 220.844 993.391 218.933 991.693 217.183V217.177C991.292 216.761 990.896 216.36 990.5 215.964C990.313 215.771 990.11 215.568 989.917 215.381C989.531 214.985 989.146 214.61 988.761 214.256C988.089 213.594 987.422 212.979 986.771 212.391C985.391 211.157 984.078 210.063 982.823 209.136C982.464 208.865 982.115 208.62 981.766 208.381C981.417 208.141 981.078 207.927 980.745 207.714C980.412 207.506 980.078 207.308 979.755 207.136C979.432 206.953 979.12 206.787 978.807 206.641C978.906 204.62 978.99 202.292 979.047 199.714C979.672 172.224 977.917 116.459 973.115 97.9847C955.49 38.3597 1040.37 -20.3278 1095.59 35.0368C1115.07 -16.3382 1207.39 -11.182 1216.87 55.8493C1304.85 23.7764 1343.58 167.865 1245.86 189.594Z" fill="#232323"/>
<path d="M1240.68 219.844V219.838C1241.8 210.448 1243.48 200.448 1245.88 189.875C1072.7 127.583 1062.42 299.979 1020.18 252.057L1012.57 242.026C1003.8 228.901 994.38 211.521 979.156 199.786C884.859 140.791 838.208 304.656 968.223 321.151C967.442 321 970.848 321.542 973.296 321.734C978.614 380.443 954.609 481.515 927.036 544.239C954.322 589.14 1014.42 632.479 1087.13 602.234C1105.44 595.318 1131.79 564.604 1133.54 539.14C1126.26 509.64 1122.35 477.547 1127.74 447.776L1128.46 443.427C1164.36 458.458 1230.99 462.661 1255.3 421.338C1280.98 372.724 1225.16 295.14 1240.68 219.844Z" fill="white"/>
<path d="M1038.9 615.375C989.382 615.38 947.72 584.266 924.382 545.854C923.855 544.99 923.783 543.917 924.194 542.99C950.147 483.938 974.887 384.433 970.408 324.558C969.621 324.464 968.902 324.365 968.397 324.297C968.303 324.287 968.215 324.271 968.142 324.261C968.038 324.261 967.939 324.25 967.835 324.24C907.355 316.568 891.449 279.479 887.413 263.896C880.517 237.224 889.647 208.38 909.616 193.745C928.829 179.667 954.725 180.88 980.678 197.068C980.73 197.099 980.783 197.13 980.84 197.167C980.84 197.172 980.845 197.172 980.845 197.172C980.918 197.219 980.986 197.271 981.053 197.323C993.954 207.261 1002.65 220.86 1010.33 232.86C1011.99 235.448 1013.55 237.891 1015.11 240.219L1022.59 250.084C1027 255.058 1031.02 257.474 1034.89 257.474H1034.95C1042.92 257.417 1051.55 247.349 1062.46 234.599C1077.19 217.401 1095.52 196 1124.39 183.349C1158.53 168.386 1198.62 169.563 1246.93 186.943C1248.41 187.479 1249.27 189.026 1248.92 190.563C1246.67 200.448 1244.94 210.401 1243.77 220.136C1243.76 220.25 1243.75 220.36 1243.73 220.469C1236.29 256.531 1245.8 294.156 1254.19 327.354C1263.23 363.094 1271.75 396.849 1258.05 422.787C1258.03 422.828 1258.01 422.87 1257.99 422.912C1233.62 464.339 1169.31 462.318 1130.9 447.74L1130.81 448.287C1126.18 473.875 1128.12 504.182 1136.56 538.396C1136.64 538.709 1136.67 539.031 1136.65 539.354C1134.84 565.62 1108.52 597.479 1088.24 605.141C1071.22 612.219 1054.66 615.375 1038.9 615.375ZM930.543 543.995C945.34 567.735 967.423 587.578 991.35 598.589C1021.3 612.375 1054.01 612.641 1085.94 599.36C1102.25 593.198 1128.4 564.026 1130.4 539.406C1121.85 504.531 1119.93 473.521 1124.68 447.224L1125.4 442.917C1125.56 441.979 1126.13 441.162 1126.96 440.703C1127.8 440.245 1128.79 440.188 1129.67 440.558C1148.96 448.636 1174.36 452.412 1195.95 450.417C1214.57 448.693 1239.51 441.99 1252.58 419.823C1265.12 396.005 1257.26 364.896 1248.16 328.88C1239.62 295.078 1229.94 256.771 1237.6 219.354C1238.69 210.308 1240.25 201.078 1242.25 191.886C1138.33 155.573 1095.57 205.511 1067.19 238.646C1055.25 252.599 1045.8 263.62 1035 263.698C1029.19 263.74 1023.57 260.604 1017.85 254.115C1017.8 254.058 1017.75 253.995 1017.7 253.938L1010.1 243.906C1010.05 243.86 1010.02 243.808 1009.99 243.755C1008.38 241.354 1006.78 238.854 1005.09 236.214C997.715 224.683 989.355 211.62 977.382 202.344C944.97 182.125 923.324 191.417 913.298 198.761C895.329 211.927 887.163 238.073 893.439 262.339C901.288 292.688 928.694 313 968.621 318.068V318.078C968.814 318.084 969.017 318.104 969.23 318.136C970.225 318.266 972.085 318.521 973.543 318.636C975.053 318.75 976.262 319.943 976.397 321.453C981.835 381.505 956.939 483.209 930.543 543.995Z" fill="#232323"/>
<path d="M1106.83 213.73C1110.27 195.501 1126.72 181.037 1144.85 178.537C1156.73 175.412 1189.83 190.12 1174.33 202.152C1167.52 207.443 1154.94 207.787 1145.56 211.599C1138.83 213.792 1130.28 217.969 1123.28 220.745C1117.36 224.053 1104.95 222.803 1106.83 213.73Z" fill="#232323"/>
<path d="M1173.24 245.063V245.099C1173.34 248.985 1172.26 253.224 1169.79 256.276C1167.81 258.745 1164.91 260.443 1161.01 260.547C1154.93 261.474 1147.88 260.823 1141.1 259.224C1141.03 259.209 1140.95 259.188 1140.88 259.167C1140.56 259.105 1140.25 259.021 1139.94 258.943C1139.55 258.849 1139.17 258.745 1138.79 258.646C1131.89 256.787 1125.44 254.011 1120.79 251.021H1120.78C1120.78 251.021 1120.78 251.021 1120.78 251.016C1101.89 237.328 1126.1 241.917 1138.86 240C1146.99 239.245 1156.23 237.86 1165.4 235.25C1168.46 234.558 1170.72 236.318 1172.01 239.183C1172.76 240.86 1173.18 242.901 1173.24 245.063Z" fill="#232323"/>
<path d="M1233.14 250.298C1231.61 254.012 1228.22 257.152 1224.02 259.262C1223.99 259.277 1223.97 259.288 1223.95 259.298C1218.86 261.845 1212.6 262.881 1207.04 261.605C1207 261.6 1206.96 261.585 1206.93 261.579C1205.24 261.178 1203.62 260.569 1202.12 259.73C1202.07 259.694 1202.02 259.663 1201.97 259.631C1199.13 257.996 1196.72 255.496 1195.11 251.986C1195.11 251.975 1195.11 251.975 1195.11 251.97C1193.86 248.809 1194.03 243.559 1196.24 240.772C1196.28 240.736 1196.3 240.699 1196.34 240.658C1197.55 239.22 1199.35 238.501 1201.83 239.194C1216.56 243.871 1222.46 245.71 1230.96 246.225C1231.05 246.23 1231.14 246.246 1231.23 246.267C1231.4 246.298 1231.57 246.35 1231.73 246.423C1231.89 246.486 1232.04 246.569 1232.18 246.663C1232.32 246.756 1232.46 246.855 1232.58 246.98C1232.7 247.09 1232.82 247.22 1232.91 247.35C1232.92 247.355 1232.91 247.355 1232.91 247.355C1233.01 247.496 1233.1 247.631 1233.17 247.788C1233.25 247.939 1233.31 248.1 1233.35 248.262C1233.38 248.335 1233.4 248.418 1233.41 248.496C1233.53 249.074 1233.45 249.704 1233.14 250.298Z" fill="#232323"/>
<path d="M990.022 321.818C990.236 326.292 977.814 324.74 973.303 324.667C973.23 323.276 972.923 320.562 972.84 318.531C977.121 319.052 981.777 319.234 986.751 318.932C988.434 318.812 989.908 320.151 990.022 321.818Z" fill="#232323"/>
<path d="M1245.88 189.876C1243.98 199.876 1242.31 209.897 1240.86 219.949C1240.8 219.912 1240.74 219.876 1240.68 219.845V219.839C1230.17 212.917 1211.58 212.522 1206.88 202.975C1199.47 183.923 1235.11 181.329 1245.86 189.595C1245.66 189.626 1245.47 189.657 1245.27 189.699C1245.47 189.761 1245.68 189.808 1245.88 189.876Z" fill="#232323"/>
<path d="M1110.05 432.527C1093.35 424.225 1078.37 413.585 1065.73 401.809C1050.21 443.465 1082.49 493.689 1126.54 500.824C1123.68 482.908 1130.22 440.829 1130.22 440.829C1124.56 438.475 1116.61 435.882 1110.05 432.527ZM1125.94 497.553C1125.77 495.944 1125.62 494.319 1125.51 492.689C1125.64 494.345 1125.79 495.97 1125.94 497.553Z" fill="#232323"/>
<path d="M1193.82 337.119C1193.72 337.39 1193.61 337.635 1193.43 337.874C1193.43 337.874 1193.43 337.88 1193.42 337.88C1188.41 344.463 1180.28 348.072 1172.08 347.411C1156.17 346.635 1140.11 330.187 1144.76 313.916C1145.44 312.234 1149.03 312.963 1149.1 314.765C1149.92 333.817 1173.98 347.166 1189.45 334.385L1189.73 334.01C1190.73 333.119 1192.26 333.322 1193.11 334.307C1193.78 335.041 1194.15 336.114 1193.82 337.119Z" fill="#232323"/>
<path d="M1216.79 55.4062C1190.99 68.0365 1189.25 89.2135 1181.92 89.9896C1174.68 88 1183.86 76.125 1194.39 63.7448C1200.77 57.0573 1207.8 51.9635 1215.3 48.5469C1215.89 50.75 1216.38 53.0365 1216.79 55.4062Z" fill="white"/>
<path d="M988.694 279.172C987.11 279.172 985.756 277.968 985.605 276.359C982.912 248.541 966.043 228.489 940.485 222.729C938.808 222.349 937.756 220.682 938.136 219.01C938.511 217.333 940.178 216.281 941.855 216.656C956.423 219.942 968.761 227.588 977.537 238.765C985.506 248.916 990.433 261.708 991.793 275.76C991.959 277.474 990.709 278.989 988.996 279.156C988.897 279.166 988.798 279.172 988.694 279.172Z" fill="#232323"/>
<path d="M1197.43 535.839L1137.78 543.068L1136.81 529.698C1136.3 522.724 1141.54 516.667 1148.51 516.162L1182.93 510.766C1189.9 510.261 1195.95 515.5 1196.46 522.474L1197.43 535.839Z" fill="#232323"/>
<path d="M554.505 899.682C340.823 840.38 196.994 775.156 198.921 713.349C199.755 686.614 219.573 671.901 237.713 664.239C328.276 626 432.437 734 554.505 899.682Z" fill="#232323"/>
<path d="M574.466 1102.57C550.19 1108.75 376.716 1153.1 302.539 1067.04C189.419 935.792 230.029 720.427 458.513 554.812C487.701 566.885 587.93 612.578 638.805 722.651C694.294 842.708 668.878 991.349 574.466 1102.57Z" fill="white"/>
<path d="M449.536 1122.58C420.52 1122.58 394.427 1119.27 371.864 1112.71C341.692 1103.93 317.572 1089.25 300.182 1069.07C276.484 1041.58 259.338 1010.35 249.213 976.256C239.114 942.251 236.203 906.068 240.557 868.719C246.864 814.641 267.88 760.396 303.015 707.495C340.26 651.423 391.963 599.209 456.682 552.292C457.557 551.662 458.697 551.527 459.697 551.938C488.666 563.923 517.265 580.37 542.411 599.506C586.333 632.943 619.713 673.933 641.63 721.344C669.098 780.782 677.494 848.245 665.916 916.443C654.359 984.49 623.557 1049.55 576.838 1104.59C576.416 1105.08 575.859 1105.43 575.234 1105.59L575.078 1105.63C523.661 1118.71 482.442 1122.03 456.921 1122.52C454.442 1122.56 451.979 1122.58 449.536 1122.58ZM458.921 558.355C395.463 604.563 344.76 655.891 308.197 710.938C273.609 763.016 252.932 816.344 246.734 869.438C242.479 905.949 245.317 941.292 255.177 974.485C265.046 1007.73 281.776 1038.19 304.895 1065.01C335.369 1100.37 386.468 1117.63 456.802 1116.3C481.859 1115.82 522.265 1112.57 572.734 1099.8C618.369 1045.78 648.463 982.032 659.781 915.402C671.151 848.449 662.921 782.245 635.979 723.959C614.494 677.475 581.744 637.271 538.64 604.459C514.385 585.995 486.854 570.079 458.921 558.355Z" fill="#232323"/>
<path d="M942.385 579.449C913.474 723.147 726.802 805.147 590.146 885.788C549.453 849.428 506.656 804.736 463.266 764.814C461.443 763.142 459.63 761.48 457.802 759.814C375.74 685.189 291.797 629.584 216.234 681.527C247.552 646.1 687.797 355.584 881.755 473.824C914.323 493.689 936.031 531.246 941.635 558.86C942.172 561.48 942.557 564.001 942.797 566.407C943.276 571.282 943.151 575.689 942.385 579.449Z" fill="white"/>
<path d="M590.147 888.895C589.402 888.895 588.663 888.63 588.074 888.104C566.059 868.437 543.923 846.812 520.48 823.916C501.121 805 481.095 785.442 461.158 767.104C459.34 765.427 457.533 763.77 455.71 762.109C406.111 717.005 368.387 690.473 333.397 676.083C289.72 658.114 251.97 660.734 217.996 684.088C216.699 684.979 214.944 684.76 213.902 683.583C212.861 682.406 212.861 680.64 213.902 679.463C228.751 662.666 345.626 580.786 486.725 517.213C610.585 461.406 779.944 408.114 883.371 471.166C917.59 492.036 939.142 530.932 944.684 558.239C945.23 560.916 945.637 563.562 945.892 566.098C946.408 571.348 946.251 576.046 945.434 580.062C934.319 635.302 899.215 686.354 838.121 736.135C784.668 779.687 719.382 816.291 656.241 851.687C633.658 864.354 612.324 876.312 591.73 888.463C591.241 888.755 590.694 888.895 590.147 888.895ZM279.418 658.062C297.173 658.062 315.892 662.156 335.767 670.328C371.454 685.005 409.736 711.895 459.897 757.51C461.736 759.182 463.548 760.843 465.371 762.526C485.376 780.927 505.434 800.52 524.829 819.468C547.616 841.723 569.173 862.781 590.533 881.953C610.574 870.161 631.298 858.541 653.199 846.265C716.111 810.994 781.158 774.526 834.194 731.312C894.126 682.479 928.517 632.604 939.335 578.833C939.335 578.833 939.335 578.828 939.335 578.822C940.033 575.416 940.158 571.343 939.699 566.713C939.47 564.39 939.095 561.958 938.59 559.484C933.303 533.453 912.757 496.375 880.137 476.479C779.022 414.838 611.777 467.692 489.283 522.885C378.965 572.588 283.793 633.26 241.048 664.958C253.35 660.359 266.116 658.062 279.418 658.062Z" fill="#232323"/>
<path d="M1403.03 696.855C1314.57 720.912 1226.12 744.965 1137.67 769.022C1128.36 765.423 1110.25 756.756 1098.37 737.631C1098.35 737.59 1098.32 737.543 1098.29 737.496C1094.11 730.746 1091.9 722.965 1091.68 715.027L1087.08 550.36C1086.83 541.329 1093.33 533.527 1102.26 532.152L1383.47 488.85C1391.31 487.642 1399.36 488.423 1406.74 491.308C1406.8 491.329 1406.86 491.35 1406.91 491.376C1427.28 499.386 1438.92 514.892 1444.2 523.225L1418.21 678.647C1418.46 687.678 1411.95 695.48 1403.03 696.855Z" fill="#232323"/>
<path d="M1436.83 724.891L1146.39 769.615C1135.73 771.256 1126.05 763.183 1125.75 752.407L1120.89 578.396C1120.64 569.365 1127.14 561.563 1136.07 560.188L1426.52 515.464C1437.18 513.824 1446.85 521.896 1447.16 532.673L1452.02 706.683C1452.27 715.714 1445.76 723.516 1436.83 724.891Z" fill="white"/>
<path d="M1143.66 772.937C1138.77 772.937 1134 771.229 1130.19 768.057C1125.56 764.192 1122.81 758.52 1122.64 752.494L1117.78 578.484C1117.48 567.911 1125.14 558.724 1135.6 557.114L1426.05 512.385C1432.01 511.468 1438.08 513.156 1442.72 517.02C1447.35 520.88 1450.1 526.552 1450.27 532.583L1455.13 706.593C1455.42 717.166 1447.76 726.354 1437.31 727.963L1146.86 772.692C1145.79 772.854 1144.73 772.937 1143.66 772.937ZM1429.25 518.364C1428.5 518.364 1427.75 518.421 1427 518.536L1136.54 563.26C1129.18 564.395 1123.79 570.864 1124 578.307L1128.86 752.323C1128.98 756.567 1130.91 760.557 1134.18 763.276C1137.44 766 1141.72 767.187 1145.91 766.541L1436.36 721.817C1443.73 720.682 1449.12 714.213 1448.91 706.765L1444.05 532.755C1443.93 528.51 1441.99 524.515 1438.73 521.796C1436.05 519.562 1432.69 518.364 1429.25 518.364Z" fill="#232323"/>
<path d="M1350.86 640.048C1350.86 675.209 1322.35 703.714 1287.19 703.714C1252.03 703.714 1223.53 675.209 1223.53 640.048C1223.53 604.886 1252.03 576.381 1287.19 576.381C1322.35 576.381 1350.86 604.886 1350.86 640.048Z" fill="#232323"/>
<path d="M1305.06 578.906L1350.6 593.516L1311.7 714.76L1266.16 700.146L1305.06 578.906Z" fill="#232323"/>
<path d="M1341 594.677C1371.12 604.339 1387.38 637.589 1377.32 668.943C1367.26 700.297 1334.69 717.881 1304.57 708.219C1274.46 698.558 1258.2 665.308 1268.26 633.954C1278.32 602.599 1310.89 585.016 1341 594.677Z" fill="white"/>
<path d="M1331.83 699.5C1328.2 699.735 1324.64 699.573 1321.2 699.068C1318.6 698.688 1316.08 698.11 1313.64 697.334C1310.41 696.329 1307.32 694.995 1304.42 693.381C1302.28 692.172 1300.22 690.823 1298.3 689.323C1288.17 681.454 1281.37 669.662 1280.51 656.141C1278.84 630.469 1299.13 608.25 1325.8 606.532C1333.48 606.032 1340.85 607.287 1347.49 609.933C1349.8 610.849 1352.02 611.933 1354.12 613.167C1357 614.86 1359.7 616.834 1362.15 619.058C1364.02 620.771 1365.77 622.62 1367.34 624.599C1372.95 631.652 1376.52 640.329 1377.14 649.881C1378.8 675.553 1358.51 697.766 1331.83 699.5Z" fill="#042628"/>
<path d="M1268.28 633.375C1257.19 666.766 1275.33 702.964 1308.73 714.052C1342.12 725.151 1378.31 707.006 1389.41 673.61C1400.51 640.214 1382.37 604.016 1348.96 592.927C1315.57 581.834 1279.37 599.98 1268.28 633.375ZM1346.65 599.891C1376.21 609.703 1392.27 641.745 1382.45 671.297C1372.63 700.855 1340.59 716.912 1311.04 707.099C1281.48 697.276 1265.42 665.245 1275.25 635.683C1285.06 606.125 1317.1 590.068 1346.65 599.891Z" fill="#232323"/>
<path d="M1354.12 613.168L1304.42 693.382C1302.28 692.178 1300.23 690.824 1298.3 689.324L1347.5 609.934C1349.8 610.855 1352.02 611.934 1354.12 613.168Z" fill="white"/>
<path d="M1367.34 624.605L1321.2 699.069C1318.61 698.694 1316.08 698.111 1313.64 697.34L1362.15 619.059C1364.02 620.772 1365.77 622.621 1367.34 624.605Z" fill="white"/>
<path d="M1643.08 1071.77C1592.12 1020.79 1582.71 952.329 1569.6 898.158C1555.9 841.501 1553.6 791.835 1528.53 716.908C1520.64 693.335 1510.65 667.48 1497.79 639.887C1496.76 637.678 1495.71 635.46 1494.64 633.236C1494.63 633.204 1494.62 633.168 1494.6 633.137C1494.59 633.105 1494.58 633.085 1494.55 633.053C1488.86 621.142 1482.62 608.918 1475.78 596.434C1474.62 594.309 1473.43 592.184 1472.24 590.038C1471.58 588.866 1470.92 587.689 1470.25 586.512C1469.02 584.335 1467.76 582.147 1466.5 579.96C1462.77 573.533 1458.88 567.027 1454.82 560.48C1453.68 558.626 1452.52 556.777 1451.35 554.918C1451.01 554.376 1450.66 553.829 1450.33 553.288C1448.99 551.189 1447.64 549.079 1446.27 546.965C1440.67 538.303 1434.76 529.543 1428.55 520.704C1428.55 520.689 1428.53 520.673 1428.52 520.663C1428.93 520.335 1429.34 520.017 1429.76 519.71C1432.11 517.777 1434.5 515.949 1436.95 514.215C1437.28 514.105 1437.61 514.001 1437.93 513.892C1438.13 513.824 1438.31 513.767 1438.5 513.699C1460.6 506.371 1482.71 499.038 1504.8 491.704C1508.1 490.616 1511.38 489.522 1514.67 488.428C1516.68 487.762 1518.71 487.095 1520.71 486.434C1523.57 485.48 1526.42 484.538 1529.27 483.59C1529.38 483.553 1529.49 483.522 1529.6 483.48C1610.95 526.298 1742.67 665.746 1820.25 797.293C1886.96 910.418 1911.98 1032.6 1864.48 1122.16C1839.11 1170.01 1791.63 1197.76 1737.59 1199.75" fill="white"/>
<path d="M1737.58 1202.85C1735.91 1202.85 1734.53 1201.53 1734.48 1199.85C1734.41 1198.14 1735.75 1196.7 1737.47 1196.64C1763.73 1195.67 1788.87 1188.35 1810.17 1175.49C1831.84 1162.4 1849.66 1143.45 1861.73 1120.69C1884.27 1078.2 1891.13 1027.18 1882.12 969.037C1873.77 915.172 1851.46 856.329 1817.57 798.87C1780.65 736.277 1729.69 668.928 1674.06 609.235C1620.89 552.183 1568.23 507.667 1529.31 486.849C1526.77 487.693 1524.24 488.532 1521.69 489.381C1519.68 490.047 1517.66 490.714 1515.66 491.381L1505.78 494.657C1483.68 501.99 1461.58 509.323 1439.48 516.646L1438.37 517.016C1436.47 518.381 1434.59 519.808 1432.76 521.277C1438.35 529.297 1443.77 537.36 1448.88 545.277C1450.25 547.386 1451.61 549.506 1452.95 551.615L1454.51 554.094C1455.5 555.683 1456.49 557.261 1457.47 558.844C1461.38 565.152 1465.32 571.73 1469.18 578.396C1470.46 580.594 1471.72 582.792 1472.96 584.98C1473.62 586.146 1474.29 587.334 1474.95 588.516C1476.15 590.667 1477.34 592.803 1478.51 594.938C1485.13 607.042 1491.48 619.412 1497.36 631.704C1497.37 631.714 1497.37 631.725 1497.38 631.735C1497.41 631.803 1497.44 631.876 1497.48 631.943C1498.54 634.157 1499.58 636.365 1500.61 638.558C1512.34 663.73 1522.73 689.756 1531.48 715.912C1547.66 764.292 1554.34 801.813 1560.79 838.094C1564.37 858.24 1567.75 877.271 1572.63 897.422C1574.36 904.579 1575.99 911.849 1577.73 919.547C1588.95 969.417 1601.67 1025.94 1645.27 1069.57C1646.49 1070.79 1646.49 1072.76 1645.27 1073.97C1644.06 1075.18 1642.09 1075.18 1640.87 1073.97C1596 1029.07 1583.06 971.61 1571.66 920.917C1569.93 913.245 1568.3 905.995 1566.58 898.886C1561.66 878.553 1558.26 859.428 1554.66 839.183C1548.25 803.12 1541.62 765.834 1525.58 717.886C1516.9 691.954 1506.6 666.146 1494.97 641.193C1493.94 639.006 1492.9 636.792 1491.84 634.579C1491.83 634.553 1491.81 634.532 1491.8 634.506C1491.79 634.485 1491.78 634.459 1491.77 634.438C1491.76 634.422 1491.75 634.407 1491.75 634.391C1485.91 622.198 1479.62 609.928 1473.04 597.922C1471.89 595.803 1470.72 593.688 1469.52 591.553C1468.87 590.391 1468.21 589.225 1467.54 588.053C1466.31 585.87 1465.06 583.693 1463.8 581.516C1459.97 574.902 1456.06 568.376 1452.17 562.115C1451.21 560.537 1450.23 558.969 1449.24 557.396L1447.69 554.933C1446.37 552.86 1445.02 550.761 1443.66 548.657C1438.1 540.047 1432.18 531.266 1426.06 522.558C1425.67 522.058 1425.45 521.454 1425.41 520.808C1425.37 519.808 1425.8 518.844 1426.59 518.224C1427 517.896 1427.41 517.568 1427.84 517.256C1430.19 515.318 1432.66 513.443 1435.15 511.672C1435.4 511.495 1435.67 511.36 1435.97 511.261L1437.48 510.756C1459.62 503.417 1481.73 496.084 1503.83 488.751L1513.69 485.474C1515.71 484.803 1517.73 484.136 1519.74 483.474C1522.58 482.527 1525.43 481.579 1528.29 480.636C1528.3 480.631 1528.39 480.599 1528.49 480.568C1529.31 480.266 1530.26 480.318 1531.04 480.724C1571.25 501.886 1623.66 546.021 1678.61 604.99C1734.54 665.006 1785.79 732.735 1822.93 795.709C1857.21 853.839 1879.8 913.443 1888.26 968.079C1897.48 1027.58 1890.4 1079.91 1867.23 1123.61C1854.63 1147.37 1836.01 1167.15 1813.39 1180.81C1791.18 1194.22 1765.01 1201.84 1737.69 1202.85C1737.66 1202.85 1737.62 1202.85 1737.58 1202.85Z" fill="#232323"/>
<path d="M1491.01 519.01C1466.03 518.927 1441.12 515.494 1417.25 508.375C1207.53 432.52 1467.63 434.838 1546.53 493.317" fill="white"/>
<path d="M1491.01 522.121C1491.01 522.121 1491 522.121 1490.99 522.121C1465.13 522.038 1440.02 518.413 1416.35 511.355C1416.3 511.34 1416.24 511.324 1416.19 511.303C1362.01 491.704 1335.19 476.142 1334.2 463.72C1333.97 460.85 1334.94 456.741 1340.88 453.449C1354.64 445.819 1392.84 445.204 1435.94 451.923C1484.19 459.444 1525.18 473.621 1548.38 490.819C1549.76 491.84 1550.05 493.788 1549.03 495.168C1548.01 496.548 1546.06 496.84 1544.68 495.819C1522.58 479.444 1481.58 465.329 1434.98 458.069C1393.8 451.652 1356.34 451.991 1343.89 458.892C1340.22 460.928 1340.35 462.658 1340.4 463.225C1340.67 466.621 1347.08 479.678 1418.22 505.418C1441.29 512.288 1465.78 515.814 1491.02 515.897C1492.74 515.902 1494.13 517.303 1494.12 519.022C1494.11 520.736 1492.72 522.121 1491.01 522.121Z" fill="#232323"/>
<path d="M1502.53 521.255C1484.59 538.729 1403.92 609.567 1386.5 592.453C1372.83 579.015 1421.58 518.343 1448.6 506.703C1470.4 494.64 1490.84 488.869 1511.85 491.14" fill="white"/>
<path d="M1393.99 598.183C1389.92 598.183 1386.7 597.011 1384.32 594.672C1381.33 591.735 1380.37 587.308 1381.45 581.521C1385.75 558.526 1423.19 514.375 1447.24 503.907C1470.87 490.854 1491.51 485.813 1512.19 488.047C1513.9 488.235 1515.13 489.766 1514.94 491.474C1514.76 493.183 1513.22 494.417 1511.52 494.235C1492.14 492.141 1472.63 496.969 1450.12 509.422C1450.03 509.474 1449.93 509.516 1449.84 509.558C1428.1 518.922 1391.44 561.964 1387.56 582.662C1387.1 585.157 1386.91 588.495 1388.68 590.235C1391.49 592.995 1402.37 596.287 1442.5 567.302C1465.86 550.438 1490.39 528.74 1500.36 519.026C1501.59 517.828 1503.56 517.854 1504.76 519.084C1505.96 520.318 1505.93 522.287 1504.7 523.485C1494.6 533.323 1469.77 555.282 1446.14 572.344C1422.21 589.625 1404.98 598.183 1393.99 598.183Z" fill="#232323"/>
<path d="M1503.93 576.365C1480.15 596.954 1449.15 616.704 1427.04 627.162C1401.92 639.047 1389.4 634.912 1415.68 593.193C1415.68 593.193 1415.68 593.193 1415.69 593.193C1424.08 580.631 1432.44 568.443 1441.9 556.761C1457.41 537.62 1470.66 524.782 1491.01 519.011C1501.76 515.964 1525.16 518.745 1532.79 519.011" fill="white"/>
<path d="M1408.18 636.099C1404.69 636.099 1402.08 635.068 1400.26 633.016C1396.91 629.24 1394.59 620.828 1413.05 591.537C1413.1 591.459 1413.15 591.38 1413.21 591.308C1420.72 580.058 1429.56 567.047 1439.48 554.802C1455.75 534.724 1469.25 521.943 1490.16 516.016C1499.11 513.479 1515.37 514.677 1526.13 515.464C1528.91 515.667 1531.31 515.844 1532.9 515.901C1534.62 515.964 1535.96 517.401 1535.9 519.12C1535.84 520.839 1534.39 522.177 1532.68 522.12C1530.97 522.058 1528.51 521.88 1525.67 521.672C1515.98 520.959 1499.75 519.766 1491.85 522C1472.54 527.479 1459.8 539.61 1444.32 558.714C1434.51 570.818 1425.73 583.75 1418.28 594.922C1418.25 594.953 1418.23 594.979 1418.21 595.011C1401.1 622.224 1404.13 628.005 1404.92 628.891C1405.47 629.511 1409.07 632.224 1425.71 624.349C1445.51 614.979 1476.74 595.782 1501.89 574.011C1503.19 572.886 1505.16 573.026 1506.28 574.328C1507.4 575.625 1507.26 577.589 1505.96 578.714C1483.8 597.896 1452.62 618.5 1428.37 629.974C1419.72 634.068 1413.08 636.099 1408.18 636.099Z" fill="#232323"/>
<path d="M1543.32 590.892C1528.77 606.73 1506.26 624.845 1487.28 638.313C1473.74 647.907 1459.91 656.798 1448.25 662.808C1422.38 676.142 1407.17 675.334 1429.5 636.735C1440.75 618.095 1464.18 585.319 1481.55 570.303C1493.46 560.006 1513.71 536.652 1559.05 549.313" fill="white"/>
<path d="M1425.59 673.719C1422.3 673.719 1419.81 672.787 1418.04 670.927C1412.91 665.547 1415.61 654.516 1426.81 635.172C1437.39 617.636 1461.03 583.927 1479.52 567.948C1480.53 567.078 1481.59 566.11 1482.73 565.084C1495.47 553.563 1516.79 534.281 1559.89 546.313C1561.55 546.776 1562.51 548.495 1562.05 550.146C1561.59 551.802 1559.87 552.771 1558.22 552.308C1518.42 541.198 1498.69 559.037 1486.91 569.698C1485.73 570.761 1484.63 571.755 1483.59 572.656C1466.6 587.339 1443.29 619.906 1432.16 638.339C1419.01 661.073 1421.84 665.901 1422.55 666.636C1423.18 667.302 1427.31 670.094 1446.82 660.042C1457.43 654.573 1470.79 646.183 1485.48 635.776C1507.77 619.959 1528.53 602.391 1541.03 588.787C1542.19 587.521 1544.16 587.438 1545.42 588.599C1546.69 589.761 1546.77 591.729 1545.61 592.995C1532.84 606.901 1511.7 624.792 1489.08 640.849C1474.16 651.427 1460.53 659.974 1449.67 665.573C1439.09 671.026 1431.19 673.719 1425.59 673.719Z" fill="#232323"/>
<path d="M1543.95 1539.5C1541.01 1565.86 1536.6 1592.34 1530.83 1618.21C1526.43 1637.95 1521.18 1657.64 1515.13 1677.04C1512.33 1677.82 1509.55 1678.6 1506.79 1679.38C1513.38 1658.72 1519.06 1637.71 1523.76 1616.63C1529.46 1591.02 1533.83 1564.8 1536.74 1538.71C1536.96 1536.71 1538.76 1535.28 1540.75 1535.5C1542.74 1535.72 1544.17 1537.52 1543.95 1539.5Z" fill="white"/>
<path d="M1071.24 846.536C1068.77 847.594 1066.05 848.036 1063.11 847.859C1059.75 847.656 1056.09 846.641 1052.16 844.818C1050.34 843.974 1049.55 841.823 1050.4 840.005C1051.24 838.188 1053.39 837.396 1055.21 838.24C1060.62 840.75 1065.05 841.302 1068.39 839.87C1074.99 837.047 1082.22 824.458 1079.15 780.547C1076.77 746.38 1068.32 697.682 1054.05 635.63C1053.66 633.927 1053.28 632.219 1052.87 630.5C1053.47 630.406 1054.07 630.312 1054.68 630.203C1055.87 630 1057.06 629.776 1058.24 629.521C1058.83 629.406 1059.43 629.271 1060.01 629.141C1061.35 634.948 1062.65 640.641 1063.9 646.224V646.234C1076.57 702.865 1084.13 747.802 1086.38 780.042C1089.13 819.255 1084.17 841.005 1071.24 846.536Z" fill="#232323"/>
<path d="M1068.61 756.427C1068.61 760.63 1065.2 764.036 1061 764.036C1056.79 764.036 1053.38 760.63 1053.38 756.427C1053.38 752.219 1056.79 748.812 1061 748.812C1065.2 748.812 1068.61 752.219 1068.61 756.427Z" fill="#232323"/>
<path d="M1068.71 797.783C1068.71 801.986 1065.3 805.397 1061.1 805.397C1056.89 805.397 1053.48 801.986 1053.48 797.783C1053.48 793.579 1056.89 790.168 1061.1 790.168C1065.3 790.168 1068.71 793.579 1068.71 797.783Z" fill="#232323"/>
<path d="M410.111 1117.25C655.98 1157.77 866.111 897.542 951.668 804.672C954.835 801.235 960.366 795.12 968.152 787.042C983.361 771.271 1023.76 730.886 1084.28 688.646C1087.25 686.573 1089.63 684.948 1090.76 684.172C1090.04 652.021 1089.92 619.855 1088.58 587.725C1086.91 547.537 1061.78 497.553 1026.77 519.761C922.611 580.813 831.793 619.563 766.423 644.183C575.611 716.047 470.319 715.146 351.277 828.834" fill="white"/>
<path d="M461.929 1124.58C444.294 1124.58 426.841 1123.16 409.606 1120.32C407.908 1120.04 406.763 1118.44 407.044 1116.75C407.32 1115.05 408.924 1113.9 410.617 1114.18C462.888 1122.8 517.304 1118.06 572.361 1100.11C619.289 1084.82 667.893 1059.51 716.83 1024.89C805.992 961.813 878.856 880.802 927.07 827.198C935.101 818.266 942.69 809.834 949.382 802.568L951.153 800.641C954.434 797.063 959.393 791.651 965.914 784.886C989.341 760.589 1028.58 723.729 1082.5 686.094C1084.56 684.662 1086.34 683.433 1087.62 682.558C1087.39 672.375 1087.23 662.063 1087.06 652.068C1086.73 631.011 1086.37 609.24 1085.48 587.86C1084.06 553.672 1068.43 527.453 1054.46 520.141C1046.28 515.865 1037.53 516.62 1028.43 522.391C1028.4 522.412 1028.37 522.427 1028.34 522.448C944.669 571.49 856.919 613.433 767.523 647.099C710.627 668.526 660.908 683.62 617.039 696.938C512.226 728.761 436.502 751.755 353.429 831.084C352.19 832.271 350.221 832.224 349.033 830.985C347.846 829.74 347.893 827.771 349.132 826.584C433.273 746.229 509.596 723.058 615.231 690.99C659.007 677.698 708.622 662.63 765.33 641.276C854.382 607.74 941.794 565.964 1025.15 517.104C1036.09 510.188 1047.22 509.328 1057.34 514.625C1069.5 520.99 1077.37 534.459 1081.84 544.63C1087.59 557.755 1091.09 573.016 1091.7 587.599C1092.59 609.058 1092.94 630.87 1093.29 651.969C1093.46 662.505 1093.63 673.396 1093.88 684.099C1093.9 685.151 1093.39 686.146 1092.52 686.74C1091.39 687.511 1089.02 689.136 1086.06 691.198C1032.55 728.542 993.627 765.104 970.398 789.203C963.929 795.912 959.002 801.287 955.737 804.844L953.96 806.781C947.289 814.021 939.716 822.443 931.7 831.36C883.299 885.172 810.153 966.49 720.424 1029.97C670.981 1064.95 621.815 1090.54 574.294 1106.03C536.403 1118.38 498.783 1124.58 461.929 1124.58Z" fill="#232323"/>
<path d="M1078.15 552.272C1086.34 549.892 1115.16 540.787 1122.98 537.631C1122.99 537.626 1123 537.626 1123.02 537.61C1126.85 536.064 1130.62 534.439 1134.32 532.746C1176.4 513.543 1207.94 486.564 1203.74 476.324C1198.38 463.23 1135.15 478.933 1125.83 480.647C1088.42 487.527 1051.33 504.131 1026.73 519.715" fill="white"/>
<path d="M1078.15 555.385C1076.8 555.385 1075.56 554.5 1075.16 553.14C1074.68 551.495 1075.63 549.765 1077.28 549.286C1085.58 546.875 1113.83 537.943 1121.69 534.797C1121.75 534.771 1121.8 534.745 1121.86 534.724C1125.6 533.219 1129.36 531.599 1133.03 529.916C1178.97 508.948 1203.41 483.708 1200.87 477.5C1200.51 476.63 1197.5 472.437 1173.24 475.172C1158.28 476.859 1141.42 480.5 1132.36 482.458C1129.6 483.052 1127.61 483.479 1126.39 483.703C1093.73 489.713 1057.1 504.156 1028.4 522.338C1026.95 523.26 1025.03 522.828 1024.11 521.375C1023.19 519.927 1023.62 518.005 1025.07 517.083C1054.41 498.495 1091.87 483.729 1125.26 477.583C1126.39 477.38 1128.44 476.937 1131.04 476.375C1180.69 465.656 1202.59 465.302 1206.62 475.14C1212.4 489.265 1174.57 517.791 1135.62 535.573C1131.9 537.276 1128.1 538.916 1124.31 540.443C1124.26 540.463 1124.21 540.484 1124.16 540.505C1124.15 540.51 1124.15 540.51 1124.14 540.515C1116.3 543.682 1087.44 552.812 1079.02 555.26C1078.73 555.344 1078.43 555.385 1078.15 555.385Z" fill="#232323"/>
<path d="M1073.98 564.911C1099.7 579.869 1139.59 596.447 1168.53 604.151C1168.78 604.213 1169.02 604.281 1169.27 604.349C1174.63 605.744 1179.6 606.843 1184.01 607.562C1194.41 609.239 1201.76 608.817 1203.95 605.406C1209.61 596.562 1181.32 566.349 1153.81 550.536C1143.86 544.822 1133.35 540.604 1122.98 537.63C1122.88 537.599 1122.78 537.572 1122.68 537.546C1122.67 537.541 1122.66 537.536 1122.65 537.536C1105.81 532.75 1089.34 531.218 1076.22 531.822H1076.19" fill="white"/>
<path d="M1194.22 611.636C1191.2 611.636 1187.64 611.298 1183.52 610.631C1179.14 609.923 1174.08 608.819 1168.48 607.36L1167.72 607.152C1138.56 599.397 1098.48 582.756 1072.42 567.6C1070.94 566.735 1070.43 564.829 1071.3 563.345C1072.16 561.86 1074.06 561.355 1075.55 562.22C1101.19 577.136 1140.63 593.506 1169.33 601.142L1170.08 601.345C1175.46 602.751 1180.33 603.813 1184.51 604.491C1198.9 606.813 1201.12 604.053 1201.33 603.73C1201.64 603.241 1201.65 602.256 1201.34 601.027C1198.26 588.407 1171.97 564.563 1152.26 553.235C1143.12 547.98 1132.97 543.735 1122.12 540.621L1121.94 540.569C1121.91 540.563 1121.89 540.558 1121.87 540.553C1121.84 540.548 1121.82 540.537 1121.8 540.532C1106.79 536.267 1090.66 534.277 1076.37 534.938C1076.28 534.938 1076.2 534.938 1076.12 534.938C1074.4 534.881 1073.04 533.444 1073.1 531.725C1073.15 530.053 1074.51 528.73 1076.17 528.72C1091.09 528.043 1107.89 530.11 1123.48 534.543C1123.64 534.584 1123.79 534.626 1123.93 534.673C1135.18 537.897 1145.78 542.34 1155.36 547.84C1179.34 561.626 1204.15 586.277 1207.39 599.548C1208.13 602.553 1207.85 605.09 1206.57 607.084C1204.62 610.136 1200.61 611.636 1194.22 611.636Z" fill="#232323"/>
<path d="M1074.95 605.657C1100.32 620.308 1246.29 679.079 1168.53 604.152C1168.53 604.152 1168.53 604.152 1168.53 604.152C1166.75 602.532 1164.9 600.933 1163.01 599.35H1163C1138.54 578.907 1093.62 558.183 1064.8 562.084" fill="white"/>
<path d="M1180.24 644.511C1172.07 644.511 1158.3 642.141 1134.75 634.167C1110.66 626.011 1083.57 614.235 1073.38 608.35C1071.9 607.495 1071.39 605.589 1072.25 604.105C1073.11 602.615 1075.01 602.105 1076.5 602.964C1085.12 607.938 1110.85 619.506 1136.74 628.277C1170.28 639.631 1185.11 639.771 1187.61 636.443C1188.31 635.516 1190.56 629.725 1166.49 606.506C1166.47 606.49 1166.45 606.469 1166.43 606.448C1164.84 605.006 1163.11 603.495 1161.13 601.839C1161.09 601.808 1161.05 601.771 1161 601.735C1129.5 575.402 1086.75 562.251 1065.22 565.167C1063.53 565.396 1061.95 564.204 1061.72 562.501C1061.49 560.803 1062.69 559.235 1064.39 559.006C1093.68 555.037 1139.3 575.547 1164.87 596.86C1164.92 596.891 1164.96 596.928 1165 596.964C1167.05 598.678 1168.85 600.24 1170.5 601.74C1170.57 601.797 1170.63 601.855 1170.69 601.912C1191.02 621.495 1197.77 633.303 1192.58 640.188C1191.53 641.589 1189.33 644.511 1180.24 644.511Z" fill="#232323"/>
<path d="M1034.69 636.761C1088.83 668.667 1245.26 718.61 1150.65 637.641C1129.1 619.704 1079.35 597.646 1050.06 597.006" fill="white"/>
<path d="M1165.88 684.615C1154.72 684.615 1138.32 681.287 1116.78 674.647C1086.73 665.371 1053.1 651.219 1033.11 639.438C1031.62 638.568 1031.13 636.662 1032 635.178C1032.88 633.699 1034.79 633.204 1036.26 634.079C1055.88 645.641 1088.98 659.553 1118.61 668.699C1156.84 680.496 1173.85 679.844 1176.81 675.704C1177.67 674.506 1180.34 667.147 1148.62 640.001C1127.56 622.469 1078.84 600.746 1049.99 600.11C1048.27 600.074 1046.91 598.652 1046.95 596.933C1046.98 595.214 1048.42 593.855 1050.12 593.891C1080.18 594.553 1130.78 617.058 1152.64 635.251C1186.42 664.157 1185.5 674.246 1181.87 679.318C1179.35 682.85 1174 684.615 1165.88 684.615Z" fill="#232323"/>
<path d="M1197.18 301.068C1196.09 301.068 1195.08 300.381 1194.72 299.292C1194.27 297.933 1195 296.464 1196.36 296.016C1202.56 293.948 1209.01 289.782 1208.53 284.276C1208.3 281.563 1205.85 277.474 1203.26 273.146C1198.06 264.453 1191.58 253.631 1195.85 242.907C1196.39 241.578 1197.89 240.927 1199.22 241.459C1200.55 241.99 1201.2 243.495 1200.67 244.828C1197.34 253.172 1202.85 262.365 1207.71 270.485C1210.74 275.547 1213.36 279.922 1213.7 283.834C1214.32 291.058 1208.45 297.448 1198 300.933C1197.73 301.021 1197.45 301.068 1197.18 301.068Z" fill="#232323"/>
<path d="M1003.73 716.708C1002.78 716.708 1001.84 716.276 1001.23 715.458C1000.21 714.083 1000.49 712.135 1001.86 711.104C1010.09 704.958 1036.56 681.463 1031.59 637.104C1031.41 635.396 1032.64 633.859 1034.34 633.666C1036.05 633.474 1037.59 634.703 1037.78 636.411C1041.38 668.567 1029.34 698.354 1005.59 716.088C1005.03 716.505 1004.38 716.708 1003.73 716.708Z" fill="#232323"/>
<path d="M1580.78 647.906C1580.59 647.906 1580.39 647.885 1580.2 647.849C1567.36 645.442 1555.61 637.479 1547.95 626C1540.59 614.958 1537.79 601.927 1540.27 590.244C1540.63 588.562 1542.28 587.489 1543.96 587.849C1545.64 588.203 1546.71 589.859 1546.36 591.536C1544.22 601.593 1546.69 612.896 1553.13 622.552C1559.86 632.64 1570.14 639.635 1581.35 641.734C1583.04 642.052 1584.15 643.677 1583.83 645.364C1583.55 646.859 1582.24 647.906 1580.78 647.906Z" fill="#232323"/>
</svg>
