<svg width="2500" height="1376" viewBox="0 0 2500 1376" fill="none" xmlns="http://www.w3.org/2000/svg">
<g clip-path="url(#clip0_433_51293)">
<path d="M1562.74 867.027C1472 947.402 1274.96 1314.26 1372.18 1314.39C1444.78 1314.48 1562.74 1175.55 1562.74 867.027Z" fill="#232323"/>
<path d="M2239.27 624.418C2302.94 548.115 2198.37 593.798 2156.67 614.381C2104.79 639.996 2050.86 665.891 1962.55 710.944C1962.55 710.944 1962.55 710.944 1962.55 710.938C1899.28 743.266 1721.74 822.287 1585.83 898.121C1556.99 858.121 1479.39 752.735 1447.67 715.136C1392.76 650.053 1268.78 534.136 1146.83 555.397C1101.49 563.298 1063.89 868.365 1063.89 868.365C1063.89 868.365 1186.04 1130.84 1378.57 1250.44C1540.67 1351.13 1667.2 1291.99 1776.71 1204.7C1959.64 1058.9 2079.04 932.079 2121.03 896.022C2157.35 864.834 2215.62 823.834 2215.62 823.834L2242.68 690.475L2176.83 696.131C2176.83 696.131 2190.41 682.97 2239.27 624.418Z" fill="white"/>
<path d="M1545.34 1306.87C1489.79 1306.87 1434.18 1289.2 1376.68 1253.49C1332.49 1226.04 1288.37 1188.78 1245.55 1142.73C1211.34 1105.94 1177.86 1063.5 1146.06 1016.57C1091.92 936.688 1060.94 870.542 1060.64 869.881C1060.35 869.272 1060.24 868.595 1060.33 867.928C1060.42 867.167 1069.92 790.652 1084.84 714.162C1093.61 669.157 1102.53 632.933 1111.34 606.501C1123.06 571.329 1134.14 553.969 1146.21 551.865C1200.68 542.371 1260.6 558.527 1324.34 599.881C1383.52 638.282 1428.72 687.126 1450.41 712.824C1482.54 750.912 1559.6 855.709 1586.86 893.438C1679.99 841.657 1791.61 788.74 1873.33 749.996C1909.78 732.714 1941.25 717.792 1960.91 707.746C2028.05 673.506 2075.26 650.355 2116.91 629.928C2130.05 623.485 2142.62 617.318 2155.08 611.167C2164.91 606.318 2190.26 594.167 2213.43 586.131C2240.07 576.891 2255.09 575.917 2260.72 583.068C2266.59 590.527 2260.65 604.397 2242.02 626.714C2210.9 664.016 2194.11 682.886 2185.95 691.751L2242.37 686.902C2243.5 686.808 2244.6 687.246 2245.35 688.089C2246.1 688.933 2246.41 690.079 2246.19 691.188L2219.14 824.548C2218.96 825.449 2218.44 826.24 2217.69 826.766C2217.11 827.178 2159.14 868.027 2123.36 898.746C2111.86 908.621 2094.02 925.834 2071.41 947.636C2011.62 1005.3 1911.56 1101.81 1778.94 1207.51C1712.78 1260.25 1655.3 1290.14 1598.06 1301.58C1580.46 1305.1 1562.9 1306.86 1545.34 1306.87ZM1067.58 867.777C1071.51 876.037 1101.7 938.344 1152.07 1012.65C1241.95 1145.24 1325.88 1213.49 1380.46 1247.39C1454.52 1293.4 1525.24 1308.82 1596.66 1294.55C1652.73 1283.33 1709.23 1253.9 1774.47 1201.9C1906.82 1096.41 2006.74 1000.05 2066.44 942.469C2089.12 920.589 2107.04 903.313 2118.7 893.303C2151.9 864.787 2203.96 827.704 2212.4 821.725L2238.21 694.459L2177.15 699.704C2175.63 699.818 2174.2 699.001 2173.57 697.621C2172.95 696.24 2173.25 694.61 2174.34 693.558C2174.47 693.428 2188.49 679.673 2236.52 622.121C2258.4 595.902 2256.26 588.996 2255.08 587.501C2253.89 585.985 2247.54 581.891 2215.78 592.907C2192.99 600.808 2167.96 612.808 2158.26 617.6C2145.8 623.751 2133.23 629.917 2120.09 636.355C2078.46 656.772 2031.27 679.912 1964.18 714.136C1944.43 724.225 1912.92 739.167 1876.44 756.464C1793.98 795.553 1681.06 849.089 1587.57 901.251C1585.98 902.136 1583.98 901.693 1582.92 900.219C1557.54 865.011 1477.69 756.287 1444.93 717.449C1427.68 697.001 1381.02 645.204 1320.43 605.897C1258.27 565.558 1200.07 549.756 1147.45 558.928C1137.77 560.615 1117.69 583.199 1091.89 715.501C1077.95 786.938 1068.76 858.412 1067.58 867.777Z" fill="#232323"/>
<path d="M2079.94 740.599C2077.43 740.599 2075.1 740.427 2072.97 740.068C2071.01 739.745 2069.7 737.896 2070.02 735.943C2070.35 733.99 2072.21 732.667 2074.15 732.995C2099.19 737.188 2156.99 711.875 2181.77 680.255C2182.99 678.693 2185.24 678.422 2186.8 679.641C2188.36 680.865 2188.63 683.12 2187.42 684.677C2175.54 699.844 2155.13 715 2131.44 726.271C2112.06 735.49 2093.47 740.599 2079.94 740.599Z" fill="#232323"/>
<path d="M2498.81 513.397C2496.43 481.616 2481.44 452.111 2457.18 431.449L2456.25 430.679C2405.45 388.043 2329.7 394.668 2287.07 445.47C2266.86 469.559 2256.89 500.606 2259.33 531.955C2260.71 550.444 2266.39 568.356 2275.9 584.267C2275.93 584.304 2275.96 584.345 2275.97 584.387C2279.69 590.595 2283.97 596.444 2288.75 601.866C2290.37 603.726 2292.06 605.522 2293.81 607.272C2296.09 609.569 2298.47 611.778 2300.95 613.908L2301.86 614.679C2352.67 657.314 2428.43 650.689 2471.06 599.882C2491.28 575.798 2501.24 544.746 2498.81 513.397ZM2317.33 596.257L2316.6 595.647C2276.3 561.153 2271.6 500.517 2306.09 460.22C2322.66 440.866 2346.24 428.887 2371.64 426.918C2396.72 424.903 2421.57 432.871 2440.8 449.095L2441.53 449.715C2481.82 484.226 2486.5 544.861 2451.99 585.147C2417.73 625.132 2357.67 630.09 2317.33 596.257Z" fill="#232323"/>
<path d="M2284.28 592.256C2287.63 597.48 2291.34 602.475 2295.37 607.199L2257.41 636.584C2257.08 636.829 2256.73 637.053 2256.38 637.256C2251.91 639.787 2246.23 638.219 2243.69 633.751C2241.64 630.12 2242.25 625.558 2245.19 622.6C2245.49 622.292 2245.82 622.006 2246.17 621.745L2284.28 592.256Z" fill="#232323"/>
<path d="M2111.14 742.569C2104.82 734.064 2106.58 722.043 2115.08 715.72C2115.34 715.522 2115.61 715.335 2115.88 715.153L2246.49 611.955C2248.85 610.351 2252.06 610.892 2253.76 613.179L2266.47 630.272C2268.18 632.559 2267.77 635.783 2265.56 637.585L2138.75 745.908C2130.58 752.658 2118.49 751.502 2111.74 743.33C2111.53 743.08 2111.33 742.83 2111.14 742.569Z" fill="#232323"/>
<path d="M2288.15 692.074C2298.1 666.772 2269.29 651.804 2207.84 664.163C2160.69 673.642 2085.69 705.377 2163.66 716.179C2173.05 717.475 2182.81 716.59 2193.4 717.574C2155.94 724.642 2118.38 741.96 2118.44 754.272C2118.46 758.543 2123.01 762.21 2133.66 764.637C2145.33 767.298 2165.24 770.715 2176.19 771.981C2174.87 772.205 2173.64 772.418 2172.52 772.606C2129.28 779.85 2068.56 806.241 2129.24 817.673C2138.52 819.423 2142.73 820.293 2152.3 820.892C2147.41 822.017 2134.87 825.137 2131.5 825.866C2107.56 831.059 2089.64 844.106 2106.42 852.522C2131.33 865.022 2188.39 864.059 2217.47 848.694C2232.86 840.564 2238.14 823.96 2219.79 814.918C2224.48 813.736 2229.05 812.96 2233.14 811.449C2257.35 802.517 2269.73 776.121 2254.2 764.543C2254.05 764.434 2263.01 760.699 2268.65 755.616C2283.92 741.887 2284.81 719.793 2259.57 713.705C2271.72 710.278 2283.8 703.147 2288.15 692.074Z" fill="white"/>
<path d="M2154.57 864.651C2135.25 864.651 2116.8 861.74 2104.81 855.724C2097.05 851.823 2095.92 847.026 2096.34 843.688C2097.24 836.589 2108.22 827.24 2130.74 822.359C2131.19 822.26 2131.81 822.12 2132.55 821.943C2131.78 821.802 2130.98 821.651 2130.14 821.49L2128.58 821.198C2116.29 818.88 2099.96 814.583 2100.07 804.057C2100.14 796.833 2108.68 789.547 2125.43 782.401C2134.27 778.635 2144.83 775.182 2155.49 772.516C2147.28 771.115 2138.93 769.516 2132.86 768.13C2120.95 765.417 2114.88 760.755 2114.85 754.286C2114.79 741.609 2141 728.49 2167.95 720.229C2166.35 720.109 2164.76 719.948 2163.16 719.729C2138.27 716.281 2126.55 710.495 2126.27 701.521C2126.03 693.552 2135.44 685.49 2155.04 676.88C2170.16 670.229 2189.64 664.161 2207.12 660.646C2247.61 652.5 2277.36 655.63 2288.75 669.224C2294.2 675.724 2295.14 684.078 2291.49 693.385C2288.18 701.813 2280.52 708.958 2269.93 713.75C2276.44 717.234 2280.75 722.365 2282.36 728.719C2284.83 738.458 2280.49 749.786 2271.05 758.281C2267.75 761.25 2263.47 763.766 2260.28 765.453C2263.86 769.922 2265.31 775.625 2264.39 781.979C2262.43 795.516 2250.09 809.016 2234.37 814.813C2232.49 815.505 2230.58 816.042 2228.61 816.526C2232.72 820.276 2234.95 824.828 2235.02 829.818C2235.14 838.177 2229.06 846.625 2219.14 851.865C2203.23 860.271 2178.25 864.651 2154.57 864.651ZM2246.92 663.292C2236.93 663.292 2224.34 664.5 2208.54 667.677C2191.78 671.047 2172.39 677.089 2157.93 683.443C2139.7 691.453 2133.35 698.068 2133.45 701.302C2133.48 702.49 2135.13 708.604 2164.15 712.62C2169 713.292 2174.01 713.354 2179.32 713.422C2183.94 713.479 2188.72 713.536 2193.73 714C2195.51 714.167 2196.89 715.62 2196.98 717.406C2197.06 719.193 2195.82 720.766 2194.06 721.099C2152.22 728.99 2121.99 746.38 2122.03 754.25C2122.04 756.214 2125.31 759.052 2134.46 761.135C2145.89 763.745 2165.58 767.141 2176.6 768.411C2178.37 768.62 2179.72 770.094 2179.77 771.875C2179.82 773.661 2178.56 775.208 2176.8 775.51C2175.48 775.74 2174.23 775.953 2173.11 776.141C2157.94 778.682 2141.17 783.49 2128.24 789C2112.79 795.594 2107.27 801.271 2107.24 804.13C2107.22 806.776 2113.14 810.984 2129.91 814.146L2131.47 814.443C2139.63 815.984 2143.73 816.755 2152.53 817.307C2154.31 817.417 2155.73 818.818 2155.88 820.594C2156.02 822.365 2154.85 823.979 2153.11 824.38C2150.91 824.885 2147.18 825.797 2143.42 826.708C2138.66 827.865 2134.16 828.958 2132.27 829.365C2115.2 833.068 2104.02 840.151 2103.46 844.583C2103.21 846.573 2106.22 848.401 2108.03 849.312C2132.62 861.651 2189.02 859.667 2215.8 845.521C2223.2 841.609 2227.94 835.484 2227.86 829.917C2227.77 824.062 2222.57 820.276 2218.21 818.135C2216.86 817.469 2216.07 816.036 2216.23 814.536C2216.38 813.047 2217.46 811.807 2218.91 811.438C2220.4 811.063 2221.87 810.729 2223.32 810.401C2226.39 809.703 2229.3 809.042 2231.9 808.083C2245.26 803.156 2255.7 792 2257.3 780.953C2257.87 776.99 2257.43 771.422 2252.06 767.411C2251.05 766.667 2250.51 765.448 2250.63 764.203C2250.82 762.161 2252.28 761.443 2253.7 760.75C2256.03 759.609 2262.22 756.583 2266.26 752.948C2273.72 746.24 2277.22 737.63 2275.41 730.479C2273.78 724.026 2268.01 719.427 2258.73 717.188C2257.14 716.807 2256.01 715.401 2255.99 713.771C2255.96 712.141 2257.03 710.693 2258.6 710.255C2264.87 708.479 2279.99 703.036 2284.82 690.76C2287.49 683.953 2286.97 678.26 2283.26 673.833C2280.71 670.797 2271.87 663.292 2246.92 663.292Z" fill="#232323"/>
<path d="M2192.47 721.429C2190.73 721.429 2189.21 720.158 2188.93 718.387C2188.63 716.434 2189.97 714.601 2191.93 714.293L2192.86 714.153C2215.96 710.569 2242.13 706.517 2267.6 712.059C2269.53 712.481 2270.76 714.392 2270.34 716.325C2269.92 718.257 2268 719.486 2266.07 719.064C2241.91 713.809 2216.44 717.752 2193.96 721.236L2193.02 721.382C2192.84 721.413 2192.66 721.429 2192.47 721.429Z" fill="#232323"/>
<path d="M2255.5 765.605C2242.25 752.24 2203.26 767.756 2163.18 774.407L2255.5 765.605Z" fill="white"/>
<path d="M2163.18 777.991C2161.46 777.996 2159.94 776.746 2159.64 774.991C2159.32 773.038 2160.64 771.194 2162.6 770.866C2173.88 768.996 2184.99 766.433 2195.74 763.954C2224.47 757.329 2247.17 752.1 2258.05 763.085C2259.44 764.491 2259.43 766.762 2258.02 768.157C2256.61 769.553 2254.34 769.538 2252.95 768.131C2244.88 759.98 2221.8 765.308 2197.35 770.944C2186.5 773.449 2175.27 776.038 2163.77 777.944C2163.57 777.975 2163.37 777.991 2163.18 777.991Z" fill="#232323"/>
<path d="M2229.77 823.626C2211.73 797.465 2159.75 820.402 2123.6 827.923L2229.77 823.626Z" fill="white"/>
<path d="M2123.6 831.511C2121.94 831.511 2120.45 830.345 2120.09 828.652C2119.69 826.715 2120.94 824.813 2122.87 824.412C2130.63 822.798 2139.07 820.48 2148 818.027C2180.42 809.121 2217.17 799.027 2232.72 821.59C2233.85 823.22 2233.44 825.454 2231.81 826.579C2230.18 827.704 2227.94 827.293 2226.82 825.662C2214.16 807.293 2180.02 816.668 2149.9 824.944C2140.86 827.428 2132.32 829.772 2124.33 831.433C2124.09 831.485 2123.84 831.511 2123.6 831.511Z" fill="#232323"/>
<path d="M420.687 1079.63C310.499 1026.47 100.598 907.303 51.2334 965.553C-13.5791 1042.03 420.687 1079.63 420.687 1079.63Z" fill="#232323"/>
<path d="M1372.19 1314.38H518.594L554.208 1158.71C554.208 1158.71 514.312 1134.75 456.823 1103.21C350.797 1045.05 184.906 961.111 99.0104 954.163C77.1458 952.397 60.4583 955.611 51.25 965.522C52.9635 963.345 191.682 785.689 361.953 655.751C422.276 609.715 486.542 569.668 550.094 545.543C640.401 511.246 729.224 509.105 803.104 567.574L1063.67 574.069C1166.94 492.033 1404.01 574.533 1600.07 889.048C1537.84 943.491 1274.96 1289.64 1372.19 1314.38Z" fill="#4CAF7A"/>
<mask id="mask0_433_51293" style="mask-type:luminance" maskUnits="userSpaceOnUse" x="797" y="558" width="283" height="224">
<path d="M797.832 558.668H1079.17V781.335H797.832V558.668Z" fill="white"/>
</mask>
<g mask="url(#mask0_433_51293)">
<mask id="mask1_433_51293" style="mask-type:luminance" maskUnits="userSpaceOnUse" x="51" y="521" width="1512" height="794">
<path d="M1063.66 574.063C1169.79 501.251 1401.31 509.142 1562.74 867.032C1500.52 921.475 1274.96 1289.63 1372.18 1314.39H518.592L554.206 1158.7C554.206 1158.7 116.05 895.548 51.2324 965.548C51.2324 965.548 529.576 351.095 803.102 567.579L1063.66 574.063Z" fill="white"/>
</mask>
<g mask="url(#mask1_433_51293)">
<path d="M1030.4 780.214C1028.98 780.214 1027.55 780.089 1026.12 779.834C1001.76 775.516 974.992 735.188 946.482 659.912C943.956 682.099 936.18 707.193 924.763 729C908.758 759.578 889.034 777.526 870.643 778.245C870.242 778.261 869.836 778.266 869.43 778.266C841.549 778.271 807.044 740.438 798.081 563.693C797.982 561.714 799.503 560.026 801.482 559.927C803.456 559.818 805.143 561.349 805.242 563.328C809.013 637.672 817.706 693.323 831.081 728.735C838.414 748.151 850.997 771.094 869.487 771.094C869.779 771.094 870.065 771.089 870.362 771.078C885.883 770.469 903.841 753.5 918.404 725.672C932.497 698.75 940.831 666.771 940.159 642.214C940.112 640.453 941.352 638.917 943.081 638.594C944.815 638.271 946.529 639.25 947.122 640.912C963.935 687.823 996.716 767.339 1027.37 772.771C1034.36 774.011 1040.67 771.136 1046.65 763.969C1073.19 732.157 1080.16 628.776 1059.52 573.256C1058.83 571.401 1059.78 569.339 1061.63 568.646C1063.49 567.948 1065.55 568.901 1066.24 570.761C1076.24 597.646 1080.61 637.688 1077.92 677.875C1075.16 719.193 1065.77 752.25 1052.16 768.568C1045.76 776.245 1038.3 780.214 1030.4 780.214Z" fill="white"/>
</g>
</g>
<mask id="mask2_433_51293" style="mask-type:luminance" maskUnits="userSpaceOnUse" x="924" y="760" width="16" height="16">
<path d="M924.5 760H939.167V776H924.5V760Z" fill="white"/>
</mask>
<g mask="url(#mask2_433_51293)">
<mask id="mask3_433_51293" style="mask-type:luminance" maskUnits="userSpaceOnUse" x="51" y="521" width="1512" height="794">
<path d="M1063.66 574.063C1169.8 501.251 1401.31 509.142 1562.74 867.032C1500.52 921.475 1274.96 1289.63 1372.18 1314.39H518.594L554.208 1158.7C554.208 1158.7 116.052 895.548 51.2344 965.548C51.2344 965.548 529.578 351.095 803.104 567.579L1063.66 574.063Z" fill="white"/>
</mask>
<g mask="url(#mask3_433_51293)">
<path d="M938.963 768.495C938.963 772.475 935.739 775.699 931.76 775.699C927.781 775.699 924.557 772.475 924.557 768.495C924.557 764.516 927.781 761.287 931.76 761.287C935.739 761.287 938.963 764.516 938.963 768.495Z" fill="white"/>
</g>
</g>
<mask id="mask4_433_51293" style="mask-type:luminance" maskUnits="userSpaceOnUse" x="928" y="858" width="17" height="17">
<path d="M928.5 858.668H944.5V874.668H928.5V858.668Z" fill="white"/>
</mask>
<g mask="url(#mask4_433_51293)">
<mask id="mask5_433_51293" style="mask-type:luminance" maskUnits="userSpaceOnUse" x="51" y="521" width="1512" height="794">
<path d="M1063.66 574.063C1169.8 501.251 1401.31 509.142 1562.74 867.032C1500.52 921.475 1274.96 1289.63 1372.18 1314.39H518.594L554.208 1158.7C554.208 1158.7 116.052 895.548 51.2344 965.548C51.2344 965.548 529.578 351.095 803.104 567.579L1063.66 574.063Z" fill="white"/>
</mask>
<g mask="url(#mask5_433_51293)">
<path d="M943.749 866.464C943.749 870.443 940.525 873.667 936.546 873.667C932.567 873.667 929.338 870.443 929.338 866.464C929.338 862.485 932.567 859.256 936.546 859.256C940.525 859.256 943.749 862.485 943.749 866.464Z" fill="white"/>
</g>
</g>
<mask id="mask6_433_51293" style="mask-type:luminance" maskUnits="userSpaceOnUse" x="909" y="637" width="60" height="306">
<path d="M909.832 637.334H968.499V942.667H909.832V637.334Z" fill="white"/>
</mask>
<g mask="url(#mask6_433_51293)">
<mask id="mask7_433_51293" style="mask-type:luminance" maskUnits="userSpaceOnUse" x="51" y="521" width="1512" height="794">
<path d="M1063.66 574.063C1169.79 501.251 1401.31 509.142 1562.74 867.032C1500.52 921.475 1274.96 1289.63 1372.18 1314.39H518.592L554.206 1158.7C554.206 1158.7 116.05 895.548 51.2324 965.548C51.2324 965.548 529.576 351.095 803.102 567.579L1063.66 574.063Z" fill="white"/>
</mask>
<g mask="url(#mask7_433_51293)">
<path d="M913.494 941.877C911.723 941.877 910.181 940.559 909.942 938.757C909.681 936.793 911.061 934.991 913.025 934.736C913.437 934.679 954.223 928.835 959.187 895.726C966.239 848.726 940.452 644.627 940.192 642.57C939.942 640.606 941.332 638.809 943.296 638.564C945.259 638.314 947.056 639.7 947.306 641.668C948.379 650.101 973.478 848.809 966.28 896.788C960.509 935.273 914.431 941.783 913.968 941.846C913.806 941.866 913.65 941.877 913.494 941.877Z" fill="white"/>
</g>
</g>
<mask id="mask8_433_51293" style="mask-type:luminance" maskUnits="userSpaceOnUse" x="545" y="945" width="143" height="195">
<path d="M545.832 945.334H687.165V1140H545.832V945.334Z" fill="white"/>
</mask>
<g mask="url(#mask8_433_51293)">
<mask id="mask9_433_51293" style="mask-type:luminance" maskUnits="userSpaceOnUse" x="51" y="521" width="1512" height="794">
<path d="M1063.66 574.063C1169.79 501.251 1401.31 509.142 1562.74 867.032C1500.52 921.475 1274.96 1289.63 1372.18 1314.39H518.592L554.206 1158.7C554.206 1158.7 116.05 895.548 51.2324 965.548C51.2324 965.548 529.576 351.095 803.102 567.579L1063.66 574.063Z" fill="white"/>
</mask>
<g mask="url(#mask9_433_51293)">
<path d="M549.669 1139.6C548.747 1139.6 547.831 1139.25 547.133 1138.55C545.732 1137.15 545.732 1134.88 547.133 1133.48C547.956 1132.66 630.268 1049.72 679.966 947.772C680.836 945.991 682.982 945.246 684.763 946.121C686.539 946.991 687.279 949.136 686.414 950.918C636.174 1053.97 553.039 1137.72 552.201 1138.55C551.503 1139.25 550.586 1139.6 549.669 1139.6Z" fill="white"/>
</g>
</g>
<mask id="mask10_433_51293" style="mask-type:luminance" maskUnits="userSpaceOnUse" x="1196" y="968" width="170" height="342">
<path d="M1196.5 968H1365.83V1309.33H1196.5V968Z" fill="white"/>
</mask>
<g mask="url(#mask10_433_51293)">
<mask id="mask11_433_51293" style="mask-type:luminance" maskUnits="userSpaceOnUse" x="51" y="521" width="1512" height="794">
<path d="M1063.66 574.063C1169.8 501.251 1401.31 509.142 1562.74 867.032C1500.52 921.475 1274.96 1289.63 1372.18 1314.39H518.594L554.208 1158.7C554.208 1158.7 116.052 895.548 51.2344 965.548C51.2344 965.548 529.578 351.095 803.104 567.579L1063.66 574.063Z" fill="white"/>
</mask>
<g mask="url(#mask11_433_51293)">
<path d="M1361.17 1308.13C1360.3 1308.13 1359.43 1307.81 1358.74 1307.18C1276.91 1231.94 1212.16 1064.92 1196.88 973.271C1196.56 971.318 1197.88 969.469 1199.83 969.141C1201.78 968.808 1203.63 970.136 1203.96 972.089C1219.07 1062.72 1282.94 1227.75 1363.59 1301.9C1365.05 1303.24 1365.15 1305.51 1363.81 1306.96C1363.1 1307.73 1362.13 1308.13 1361.17 1308.13Z" fill="white"/>
</g>
</g>
<path d="M1064.13 23.9226C1046.81 18.7611 1022.08 20.8497 1002.36 36.7403C967.571 -27.468 879.342 2.60488 877.374 57.1049C805.118 21.7143 742.165 107.266 779.316 159.469C792.952 178.631 817.363 219.516 814.978 257.089C848.374 264.897 920.457 328.443 920.457 328.443C920.457 328.443 1027.93 169.516 1077.09 143.318C1138.45 110.615 1109.82 37.532 1064.13 23.9226Z" fill="#232323"/>
<mask id="mask12_433_51293" style="mask-type:luminance" maskUnits="userSpaceOnUse" x="973" y="17" width="52" height="63">
<path d="M973.832 17.334H1024.5V80.0007H973.832V17.334Z" fill="white"/>
</mask>
<g mask="url(#mask12_433_51293)">
<mask id="mask13_433_51293" style="mask-type:luminance" maskUnits="userSpaceOnUse" x="768" y="0" width="345" height="329">
<path d="M1064.13 23.9226C1046.81 18.7611 1022.08 20.8497 1002.36 36.7403C967.571 -27.468 879.342 2.60488 877.374 57.1049C805.118 21.7143 742.165 107.266 779.316 159.469C792.952 178.631 817.363 219.516 814.978 257.089C848.374 264.897 920.457 328.443 920.457 328.443C920.457 328.443 1027.93 169.516 1077.09 143.318C1138.45 110.615 1109.82 37.532 1064.13 23.9226Z" fill="white"/>
</mask>
<g mask="url(#mask13_433_51293)">
<path d="M977.696 79.3083C977.555 79.3083 977.414 79.3031 977.274 79.2875C975.305 79.0583 973.899 77.2771 974.128 75.3083C978.821 34.9073 1017.1 18.501 1018.73 17.8239C1020.56 17.0583 1022.66 17.9229 1023.42 19.751C1024.19 21.5791 1023.32 23.6781 1021.49 24.4385C1021.1 24.6052 985.451 39.9958 981.248 76.1364C981.039 77.9646 979.487 79.3083 977.696 79.3083Z" fill="white"/>
</g>
</g>
<path d="M1171.62 339.808C1177.34 358.303 1171.72 380.141 1154.41 395.678C1109.36 436.131 1038.17 435.532 1038.17 435.532C1038.17 435.532 1050.7 528.688 1063.66 574.063C1063.66 574.063 935.328 733.511 803.099 567.579C803.099 567.579 841.797 481.485 858.771 385.949C821.333 389.199 756.547 363.709 754.448 312.469C753.25 283.24 777.964 253.62 808.974 255.506C839.094 257.334 853.62 271.834 881.984 291.542C908.313 309.834 911.589 295.527 919.5 264.516C926.516 236.995 940.771 211.079 952.292 195.964C978.339 161.787 1037.16 147.975 1077.09 143.318C1080.87 159.219 1086.67 186.271 1102.71 230.6C1120.84 280.699 1158.27 296.646 1171.62 339.808Z" fill="white"/>
<mask id="mask14_433_51293" style="mask-type:luminance" maskUnits="userSpaceOnUse" x="749" y="138" width="429" height="451">
<path d="M749.832 138.668H1177.83V588.001H749.832V138.668Z" fill="white"/>
</mask>
<g mask="url(#mask14_433_51293)">
<mask id="mask15_433_51293" style="mask-type:luminance" maskUnits="userSpaceOnUse" x="747" y="137" width="433" height="509">
<path d="M1043.34 440.46C1043.34 440.46 1112.73 441.549 1157.79 401.096C1175.09 385.559 1182.86 358.856 1177.24 340.335C1163.66 295.538 1125.25 278.898 1107.12 228.799C1091.07 184.476 1084.65 153.2 1080.86 137.299C1040.94 141.955 974.005 155.439 947.958 189.622C936.432 204.731 918.63 232.778 911.609 260.299C903.697 291.304 909.296 303.184 882.973 284.898C854.604 265.189 837.27 250.747 807.156 248.913C776.14 247.028 747.275 279.023 747.307 313.351C747.359 364.637 814.697 394.252 852.13 391.002C837.244 474.788 811.713 536.83 804.171 554.382L800.197 563.887C913.817 712.502 1023.31 619.278 1056.36 582.96C1061.94 576.841 1066.09 572.794 1066.92 571.96L1043.34 440.46Z" fill="white"/>
</mask>
<g mask="url(#mask15_433_51293)">
<path d="M1066.82 587.69C1065.35 587.69 1063.96 586.768 1063.44 585.294C1049.47 545.747 1035.21 440.476 1034.61 436.013C1034.47 434.981 1034.79 433.945 1035.48 433.164C1036.16 432.393 1037.14 431.95 1038.17 431.95H1038.27C1040.8 431.95 1109.15 431.497 1152.02 393.013C1167.61 379.007 1173.81 359.023 1168.19 340.867C1161.81 320.242 1149.61 305.877 1136.69 290.679C1122.94 274.502 1108.73 257.773 1099.34 231.825C1084.66 191.257 1078.4 164.601 1074.66 148.669C1074.55 148.195 1074.44 147.726 1074.33 147.268C1045.17 150.955 982.047 162.841 955.146 198.143C944.24 212.445 930.063 237.627 922.974 265.408L922.693 266.502C917.719 286.023 914.432 298.919 905.146 302.382C898.917 304.705 891.141 302.273 879.943 294.492C875.177 291.179 870.865 288.065 866.693 285.049C846.292 270.299 832.807 260.549 808.76 259.086C796.224 258.336 783.995 263.143 774.297 272.658C763.526 283.216 757.448 298.044 758.031 312.325C758.708 328.836 766.198 343.492 780.292 355.893C802.885 375.778 836.719 384.263 858.458 382.377C859.568 382.278 860.662 382.711 861.417 383.533C862.172 384.356 862.495 385.481 862.302 386.58C845.448 481.455 806.76 568.19 806.375 569.054L804.906 572.315C804.094 574.122 801.969 574.929 800.167 574.117C798.359 573.304 797.552 571.179 798.365 569.372L799.833 566.112C800.208 565.268 837.339 482.002 854.427 389.783C831.865 390.382 799.115 382.007 775.552 361.278C760.151 347.726 751.615 330.898 750.865 312.622C750.198 296.341 757.083 279.492 769.276 267.533C780.443 256.586 794.63 251.033 809.198 251.929C835.323 253.518 850.245 264.304 870.901 279.237C875.042 282.231 879.328 285.33 884.037 288.601C892.859 294.731 898.948 297.039 902.641 295.664C908.406 293.513 911.484 281.44 915.745 264.731L916.026 263.638C923.375 234.815 938.109 208.658 949.443 193.794C979.026 154.971 1048.28 143.07 1076.67 139.757C1078.47 139.544 1080.16 140.721 1080.58 142.492C1080.92 143.914 1081.27 145.424 1081.65 147.033C1085.59 163.83 1091.54 189.211 1106.08 229.382C1115.04 254.117 1128.82 270.341 1142.16 286.033C1155.57 301.815 1168.23 316.721 1175.05 338.752C1181.51 359.617 1174.52 382.45 1156.81 398.351C1116.99 434.106 1058.39 438.523 1042.28 439.054C1045.07 459.033 1057.99 548.33 1070.21 582.908C1070.87 584.778 1069.89 586.825 1068.02 587.487C1067.63 587.622 1067.22 587.69 1066.82 587.69Z" fill="#232323"/>
</g>
</g>
<path d="M952.099 218.484C949.141 185.031 985.12 158.489 1009.75 172.307C1014.2 174.807 1015.78 180.442 1013.28 184.896C1011.65 187.812 1006.65 191.192 1003.56 193.854C1001.14 195.755 991.818 203.989 989.537 206.057C984.297 210.776 974.255 221.838 974.823 221.213C971.448 224.922 968.464 228.25 963.761 229.646C958.5 231.208 954.948 229.213 953.495 225.838C952.854 224.359 952.214 220.099 952.099 218.484Z" fill="#232323"/>
<path d="M973.894 246.611C982.004 242.933 1001.65 234.558 1018.51 220.699C1020.88 218.746 1024.37 219.105 1026.3 221.491C1031.27 227.626 1037.56 238.949 1024.86 246.923C1009.26 256.715 980.775 257.423 973.228 251.361C971.603 250.058 971.999 247.47 973.894 246.611Z" fill="#232323"/>
<path d="M1086.3 203.902C1077.92 206.907 1071.4 207.678 1055.21 209.262C1052.15 209.558 1049.9 212.194 1050.17 215.251C1050.87 223.121 1056.36 230.006 1068.96 228.621C1082.98 227.074 1089.31 215.048 1090.08 206.85C1090.28 204.777 1088.25 203.199 1086.3 203.902Z" fill="#232323"/>
<mask id="mask16_433_51293" style="mask-type:luminance" maskUnits="userSpaceOnUse" x="831" y="373" width="58" height="18">
<path d="M831.166 373.334H888.499V390.667H831.166V373.334Z" fill="white"/>
</mask>
<g mask="url(#mask16_433_51293)">
<mask id="mask17_433_51293" style="mask-type:luminance" maskUnits="userSpaceOnUse" x="754" y="143" width="420" height="503">
<path d="M1171.62 339.808C1177.34 358.303 1171.72 380.141 1154.41 395.678C1109.36 436.131 1038.17 435.532 1038.17 435.532C1038.17 435.532 1050.7 528.688 1063.66 574.063C1063.66 574.063 935.328 739.99 803.099 567.579C803.099 567.579 841.797 481.485 858.771 385.949C821.333 389.199 756.547 363.709 754.448 312.469C753.25 283.24 777.964 253.62 808.974 255.506C839.094 257.334 853.62 271.834 881.984 291.542C908.313 309.834 911.589 295.527 919.5 264.516C926.516 236.995 940.771 211.079 952.292 195.964C978.339 161.787 1037.16 147.975 1077.09 143.318C1080.87 159.219 1086.67 186.271 1102.71 230.6C1120.84 280.699 1158.27 296.646 1171.62 339.808Z" fill="white"/>
</mask>
<g mask="url(#mask17_433_51293)">
<path d="M846.672 390.1C839.344 390.1 834.693 389.095 834.266 389.001C832.333 388.563 831.12 386.647 831.552 384.714C831.985 382.782 833.901 381.569 835.833 382.001C836.057 382.053 858.104 386.699 882.844 374.095C884.61 373.194 886.766 373.892 887.667 375.662C888.568 377.428 887.865 379.584 886.099 380.485C870.656 388.355 856.333 390.1 846.672 390.1Z" fill="#232323"/>
</g>
</g>
<mask id="mask18_433_51293" style="mask-type:luminance" maskUnits="userSpaceOnUse" x="1040" y="142" width="73" height="35">
<path d="M1040.5 142.668H1112.5V176.001H1040.5V142.668Z" fill="white"/>
</mask>
<g mask="url(#mask18_433_51293)">
<mask id="mask19_433_51293" style="mask-type:luminance" maskUnits="userSpaceOnUse" x="754" y="143" width="420" height="503">
<path d="M1171.62 339.808C1177.34 358.303 1171.72 380.141 1154.41 395.678C1109.36 436.131 1038.17 435.532 1038.17 435.532C1038.17 435.532 1050.7 528.688 1063.66 574.063C1063.66 574.063 935.328 739.99 803.099 567.579C803.099 567.579 841.797 481.485 858.771 385.949C821.333 389.199 756.547 363.709 754.448 312.469C753.25 283.24 777.964 253.62 808.974 255.506C839.094 257.334 853.62 271.834 881.984 291.542C908.313 309.834 911.589 295.527 919.5 264.516C926.516 236.995 940.771 211.079 952.292 195.964C978.339 161.787 1037.16 147.975 1077.09 143.318C1080.87 159.219 1086.67 186.271 1102.71 230.6C1120.84 280.699 1158.27 296.646 1171.62 339.808Z" fill="white"/>
</mask>
<g mask="url(#mask19_433_51293)">
<path d="M1109.66 162.376C1093.59 135.798 1050.78 137.21 1041.53 162.33C1039.94 166.658 1042.16 171.46 1046.49 173.054C1049.83 174.288 1053.77 173.038 1075.22 173.663C1081.57 173.835 1094.89 175.533 1094.23 175.449C1098.72 176.022 1102.73 176.554 1106.78 174.757C1111.31 172.741 1112.58 169.288 1111.6 166.116C1111.27 165.033 1109.55 162.194 1109.66 162.376Z" fill="#232323"/>
</g>
</g>
<mask id="mask20_433_51293" style="mask-type:luminance" maskUnits="userSpaceOnUse" x="960" y="413" width="109" height="75">
<path d="M960.5 413.334H1068.5V488.001H960.5V413.334Z" fill="white"/>
</mask>
<g mask="url(#mask20_433_51293)">
<mask id="mask21_433_51293" style="mask-type:luminance" maskUnits="userSpaceOnUse" x="754" y="143" width="420" height="503">
<path d="M1171.62 339.808C1177.34 358.303 1171.72 380.141 1154.41 395.678C1109.36 436.131 1038.17 435.532 1038.17 435.532C1038.17 435.532 1050.7 528.688 1063.66 574.063C1063.66 574.063 935.328 739.99 803.099 567.579C803.099 567.579 841.797 481.485 858.771 385.949C821.333 389.199 756.547 363.709 754.448 312.469C753.25 283.24 777.964 253.62 808.974 255.506C839.094 257.334 853.62 271.834 881.984 291.542C908.313 309.834 911.589 295.527 919.5 264.516C926.516 236.995 940.771 211.079 952.292 195.964C978.339 161.787 1037.16 147.975 1077.09 143.318C1080.87 159.219 1086.67 186.271 1102.71 230.6C1120.84 280.699 1158.27 296.646 1171.62 339.808Z" fill="white"/>
</mask>
<g mask="url(#mask21_433_51293)">
<path d="M1038.17 435.531C1038.17 435.531 991.34 431.922 963.407 413.688C955.626 420.995 967.511 482.505 1043.08 487.781C1101.08 491.828 1038.17 435.531 1038.17 435.531Z" fill="#232323"/>
</g>
</g>
<mask id="mask22_433_51293" style="mask-type:luminance" maskUnits="userSpaceOnUse" x="956" y="409" width="117" height="83">
<path d="M956.5 409.334H1072.5V492.001H956.5V409.334Z" fill="white"/>
</mask>
<g mask="url(#mask22_433_51293)">
<mask id="mask23_433_51293" style="mask-type:luminance" maskUnits="userSpaceOnUse" x="754" y="143" width="420" height="503">
<path d="M1171.62 339.808C1177.34 358.303 1171.72 380.141 1154.41 395.678C1109.36 436.131 1038.17 435.532 1038.17 435.532C1038.17 435.532 1050.7 528.688 1063.66 574.063C1063.66 574.063 935.328 739.99 803.099 567.579C803.099 567.579 841.797 481.485 858.771 385.949C821.333 389.199 756.547 363.709 754.448 312.469C753.25 283.24 777.964 253.62 808.974 255.506C839.094 257.334 853.62 271.834 881.984 291.542C908.313 309.834 911.589 295.527 919.5 264.516C926.516 236.995 940.771 211.079 952.292 195.964C978.339 161.787 1037.16 147.975 1077.09 143.318C1080.87 159.219 1086.67 186.271 1102.71 230.6C1120.84 280.699 1158.27 296.646 1171.62 339.808Z" fill="white"/>
</mask>
<g mask="url(#mask23_433_51293)">
<path d="M1048.68 491.574C1046.85 491.574 1044.9 491.501 1042.83 491.36C1019.95 489.761 1000.76 483.037 985.786 471.376C974.327 462.449 965.499 450.464 960.926 437.615C956.692 425.73 956.702 415.063 960.952 411.074C962.156 409.943 963.984 409.782 965.364 410.688C992.187 428.193 1037.98 431.923 1038.44 431.959C1039.22 432.022 1039.97 432.334 1040.56 432.86C1046.69 438.35 1076.94 466.522 1070.24 482.371C1067.63 488.542 1060.56 491.574 1048.68 491.574ZM965.067 418.928C964.656 422.381 965.124 428.855 968.416 437.162C973.546 450.089 991.109 480.558 1043.33 484.204C1054.83 485.006 1062.04 483.365 1063.63 479.579C1067.04 471.537 1050.18 451.324 1036.66 439.001C1033.23 438.683 1023.11 437.594 1010.53 434.959C991.921 431.063 976.661 425.678 965.067 418.928Z" fill="#232323"/>
</g>
</g>
<path d="M1093.06 308.292C1091.49 311.214 1089.18 313.667 1086.61 315.652C1084.02 317.62 1081.14 319.146 1078.11 320.23C1072.08 322.407 1065.51 323.094 1058.93 321.714C1055.71 320.985 1052.67 319.803 1049.8 318.219C1046.97 316.589 1044.32 314.605 1042.1 312.209C1037.62 307.49 1034.63 301.245 1034.3 294.782C1034.22 293.308 1035.35 292.047 1036.83 291.975C1038.09 291.907 1039.2 292.735 1039.54 293.902L1039.56 293.98C1040.98 298.969 1043.82 303.344 1047.54 306.73C1049.42 308.391 1051.47 309.87 1053.72 310.99C1055.93 312.157 1058.33 313.016 1060.75 313.558C1065.48 314.626 1070.8 314.277 1075.74 312.938C1080.68 311.563 1085.33 309.089 1088.65 305.329L1088.7 305.261C1089.68 304.157 1091.37 304.047 1092.47 305.021C1093.43 305.86 1093.64 307.225 1093.06 308.292Z" fill="#232323"/>
<path d="M865.546 337.87C864.302 337.87 863.093 337.224 862.432 336.068C851.609 317.203 837.109 305.964 819.323 302.667C806.125 300.224 796.13 303.24 796.031 303.271C794.14 303.849 792.125 302.797 791.541 300.906C790.958 299.011 792.015 297.005 793.906 296.417C794.385 296.271 805.708 292.854 820.63 295.615C834.349 298.156 853.812 306.62 868.656 332.5C869.64 334.219 869.046 336.412 867.328 337.396C866.765 337.714 866.151 337.87 865.546 337.87Z" fill="#232323"/>
<path d="M1075.21 272.073C1074.34 272.073 1073.46 271.756 1072.78 271.115C1071.32 269.766 1071.24 267.495 1072.59 266.047C1078.29 259.922 1080.88 255.448 1080.53 252.36C1080.13 248.928 1075.87 245.834 1068.91 241.146C1060.84 235.719 1055.3 229.735 1052.42 223.36C1050.11 218.282 1050.41 214.735 1050.45 214.349C1050.66 212.376 1052.44 210.938 1054.4 211.157C1056.34 211.365 1057.76 213.094 1057.59 215.037C1057.58 215.349 1057.36 224.724 1072.91 235.193C1080.39 240.23 1086.85 244.579 1087.65 251.537C1088.28 256.98 1085.25 262.964 1077.84 270.928C1077.13 271.688 1076.18 272.073 1075.21 272.073Z" fill="#232323"/>
<path d="M646.547 1326.78C646.547 1337.8 655.484 1346.74 666.505 1346.74L1145.03 1346.62L1169.32 1346.61C1173.21 1333.23 1177.33 1319.92 1182.1 1306.84L666.5 1306.83C655.479 1306.83 646.547 1315.77 646.547 1326.78Z" fill="#232323"/>
<path d="M666.499 1350.32C660.213 1350.32 654.301 1347.88 649.859 1343.43C645.411 1338.99 642.963 1333.07 642.963 1326.78C642.963 1313.81 653.52 1303.25 666.499 1303.25L1182.1 1303.25C1183.28 1303.25 1184.37 1303.82 1185.04 1304.78C1185.71 1305.74 1185.87 1306.97 1185.47 1308.07C1181.34 1319.39 1177.43 1331.59 1172.77 1347.61C1172.32 1349.14 1170.92 1350.19 1169.32 1350.2L1145.03 1350.21L666.505 1350.32C666.499 1350.32 666.499 1350.32 666.499 1350.32ZM666.499 1310.42C657.473 1310.42 650.135 1317.76 650.135 1326.78C650.135 1331.16 651.838 1335.27 654.932 1338.36C658.02 1341.45 662.13 1343.15 666.499 1343.15H666.505L1145.03 1343.04L1166.63 1343.03C1170.37 1330.28 1173.66 1319.94 1177.01 1310.42L666.499 1310.42Z" fill="#232323"/>
<path d="M1144.97 1346.73H1748.3L1896.02 951.911C1902.95 933.385 1889.25 913.641 1869.48 913.641H1354.72C1326.02 913.641 1300.35 931.448 1290.3 958.312L1144.97 1346.73Z" fill="white"/>
<path d="M1748.3 1350.32H1144.97C1143.8 1350.32 1142.7 1349.75 1142.03 1348.78C1141.35 1347.81 1141.2 1346.58 1141.61 1345.48L1286.94 957.058C1297.46 928.943 1324.7 910.053 1354.71 910.053H1869.47C1879.94 910.053 1889.75 915.188 1895.71 923.787C1901.68 932.386 1903.05 943.37 1899.38 953.167L1751.66 1347.99C1751.14 1349.39 1749.8 1350.32 1748.3 1350.32ZM1150.14 1343.15H1745.81L1892.66 950.657C1895.55 942.943 1894.51 934.641 1889.82 927.87C1885.12 921.105 1877.71 917.225 1869.47 917.225H1354.71C1327.67 917.225 1303.14 934.245 1293.66 959.574L1150.14 1343.15Z" fill="#232323"/>
<path d="M1083.06 1331.28C1083.05 1331.28 1083.05 1331.28 1083.04 1331.28L1040.54 1331.12C1037.89 1331.11 1035.76 1328.97 1035.77 1326.33C1035.78 1323.69 1037.92 1321.56 1040.55 1321.56H1040.57L1083.07 1321.71C1085.71 1321.72 1087.85 1323.87 1087.84 1326.52C1087.83 1329.15 1085.69 1331.28 1083.06 1331.28Z" fill="white"/>
<path d="M1538.36 1179.08C1536.75 1179.08 1535.12 1178.94 1533.47 1178.66C1524.18 1177.08 1516.07 1171.97 1510.61 1164.28C1505.17 1156.58 1503.04 1147.23 1504.62 1137.94C1508.62 1114.53 1528.61 1100.45 1552.17 1104.48C1566.14 1106.86 1577.65 1114.15 1584.57 1124.99C1591.72 1136.2 1593.46 1150.44 1589.46 1165.07C1588.94 1166.99 1586.96 1168.11 1585.06 1167.59C1583.15 1167.07 1582.03 1165.1 1582.55 1163.19C1586 1150.53 1584.57 1138.33 1578.52 1128.84C1572.71 1119.73 1562.92 1113.59 1550.96 1111.55C1531.19 1108.17 1515.05 1119.52 1511.7 1139.14C1509.09 1154.43 1519.4 1168.98 1534.68 1171.59C1546.53 1173.61 1557.8 1165.63 1559.81 1153.79C1561.36 1144.71 1555.24 1136.06 1546.16 1134.51C1539.28 1133.33 1532.74 1137.98 1531.57 1144.85C1530.69 1149.96 1534.14 1154.83 1539.25 1155.7C1541.2 1156.03 1543.2 1155.5 1544.73 1154.23C1546.25 1152.98 1548.51 1153.19 1549.78 1154.72C1551.04 1156.25 1550.82 1158.51 1549.29 1159.77C1546.15 1162.36 1542.05 1163.45 1538.04 1162.77C1529.04 1161.23 1522.96 1152.65 1524.49 1143.64C1526.34 1132.87 1536.59 1125.61 1547.37 1127.44C1560.34 1129.66 1569.1 1142.02 1566.88 1154.99C1564.48 1169.09 1552.2 1179.08 1538.36 1179.08Z" fill="#232323"/>
<path d="M905.062 1239.52C887.422 1223.27 855.948 1199.6 837.526 1187.33C893.422 1211.69 968.427 1226.21 888.614 1169.42C823.307 1123.55 680.244 1085.86 595.635 1071.37C566.489 1066.37 536.14 1063.01 505.5 1060.28C507.901 1057.75 510.291 1055.18 512.666 1052.53C794.968 738.333 752.797 555.828 701.906 541.167C464.38 472.719 189.625 806.338 58.9579 1013.49C53.6402 1021.84 38.0881 1047.55 24.8902 1081.86C6.12977 1130.67 -7.87023 1196.89 19.1089 1255.46C56.3277 1336.26 128.338 1371.94 251.005 1371.94C398.854 1371.95 580.958 1323.31 711.005 1317.65C751.343 1315.89 784.26 1316.53 823.286 1321.52C867.047 1327.12 876.536 1320.97 857.724 1303.95C857.724 1303.95 878.39 1310.32 894.218 1313.93C917.526 1319.24 923.708 1304.37 908.593 1285.79C908.593 1285.79 983.349 1311.66 905.062 1239.52ZM857.536 1303.78C857.599 1303.84 857.651 1303.89 857.682 1303.91C857.63 1303.86 857.588 1303.82 857.536 1303.78Z" fill="white"/>
<path d="M251.067 1375.53C251.041 1375.53 251.025 1375.53 251.004 1375.53C126.14 1375.53 53.6191 1338.96 15.8482 1256.97C0.405512 1223.43 -11.1414 1165.61 21.5409 1080.57C34.6868 1046.4 49.968 1020.93 55.9316 1011.57C95.2857 949.179 201.567 791.095 337.994 671.283C400.385 616.491 461.036 576.908 518.265 553.637C584.275 526.793 646.395 521.439 702.895 537.72C717.682 541.981 730.005 557.83 736.702 581.199C743.978 606.58 750.671 663.153 713.739 756.871C677.76 848.163 611.01 948.444 515.333 1054.93C514.614 1055.73 513.88 1056.54 513.119 1057.37C545.952 1060.42 572.52 1063.77 596.239 1067.83C643.786 1075.98 701.426 1089.95 750.426 1105.2C793.848 1118.72 853.432 1140.32 890.671 1166.49C927.421 1192.63 929.156 1201.84 926.015 1207.4C920.135 1217.79 888.88 1210 863.176 1201.11C879.025 1212.85 896.161 1226.44 907.489 1236.88C945.64 1272.04 946.588 1283.15 943.145 1288.9C939.083 1295.72 926.572 1294.3 917.067 1292.01C921.051 1299.58 921.567 1306.47 918.369 1311.62C916.031 1315.38 909.682 1321.13 893.421 1317.43C885.296 1315.57 875.843 1312.98 868.557 1310.89C870.369 1313.99 871.166 1317.23 869.775 1320.25C866.426 1327.52 852.827 1328.92 822.827 1325.08C786.708 1320.46 754.353 1319.35 711.161 1321.23C653.51 1323.75 586.077 1334.65 514.682 1346.2C425.562 1360.62 333.406 1375.53 251.067 1375.53ZM636.744 535.705C599.963 535.705 561.234 543.908 520.963 560.283C464.478 583.252 404.51 622.413 342.723 676.673C207.004 795.866 101.182 953.267 61.9888 1015.41C56.1347 1024.6 41.1451 1049.58 28.2336 1083.15C-3.54761 1165.85 7.49926 1221.69 22.3638 1253.97C58.8013 1333.07 129.317 1368.36 251.004 1368.36H251.067C332.833 1368.36 424.692 1353.5 513.541 1339.12C585.145 1327.54 652.781 1316.6 710.848 1314.07C754.473 1312.16 787.187 1313.29 823.744 1317.97C859.708 1322.56 863.005 1317.81 863.26 1317.25C863.27 1317.23 864.135 1314.59 855.322 1306.61C855.301 1306.6 855.286 1306.58 855.27 1306.57C855.265 1306.56 855.26 1306.55 855.249 1306.55L855.145 1306.46C853.671 1305.14 853.541 1302.88 854.859 1301.4C856.025 1300.08 857.937 1299.83 859.39 1300.71C862.916 1301.79 881.01 1307.24 895.02 1310.44C903.593 1312.39 910.046 1311.42 912.275 1307.83C914.848 1303.69 912.369 1296.12 905.812 1288.06C904.801 1286.82 904.734 1285.06 905.656 1283.75C906.572 1282.43 908.249 1281.88 909.765 1282.41C922.307 1286.74 935.286 1288.08 936.994 1285.23C937.442 1284.48 940.301 1276.87 902.635 1242.16C885.369 1226.25 854.364 1202.87 835.536 1190.32C833.989 1189.29 833.489 1187.25 834.374 1185.62C835.265 1183.99 837.255 1183.3 838.958 1184.05C856.833 1191.83 876.9 1198.66 892.64 1202.3C916.359 1207.78 919.749 1203.92 919.77 1203.87C919.801 1203.82 921.958 1197.55 886.531 1172.35C850.598 1147.11 743.291 1100.31 595.025 1074.91C569.77 1070.58 541.223 1067.07 505.182 1063.86C503.812 1063.74 502.635 1062.84 502.145 1061.55C501.661 1060.27 501.952 1058.81 502.9 1057.82C505.52 1055.05 507.843 1052.54 509.999 1050.14C605.098 944.293 671.406 844.741 707.067 754.246C743.218 662.502 736.833 607.684 729.807 583.179C723.89 562.543 713.088 548.127 700.911 544.616C680.286 538.673 658.869 535.705 636.744 535.705Z" fill="#232323"/>
<mask id="mask24_433_51293" style="mask-type:luminance" maskUnits="userSpaceOnUse" x="761" y="1158" width="104" height="47">
<path d="M761.832 1158.67H864.499V1204H761.832V1158.67Z" fill="white"/>
</mask>
<g mask="url(#mask24_433_51293)">
<mask id="mask25_433_51293" style="mask-type:luminance" maskUnits="userSpaceOnUse" x="251" y="1071" width="690" height="301">
<path d="M905.062 1239.52C887.426 1223.26 871.15 1205.63 852.729 1193.36C892.484 1209.94 972.604 1219.56 892.781 1162.77C891.213 1161.66 889.65 1160.55 888.083 1159.47C846.109 1130.29 691.38 1099.48 528.484 1073.82C312.104 1039.75 251.01 1371.94 251.01 1371.94C251.01 1371.94 580.958 1323.32 711.01 1317.65C751.338 1315.89 773.926 1321.26 811.426 1333.15C874.343 1353.11 874.989 1318.07 863.031 1306.41C866.406 1307.91 947.15 1335.75 906.593 1287.1C906.598 1287.1 983.348 1311.66 905.062 1239.52Z" fill="white"/>
</mask>
<g mask="url(#mask25_433_51293)">
<path d="M860.119 1202.92C859.483 1202.92 858.843 1202.75 858.259 1202.39C817.28 1177.45 765.639 1166.14 765.124 1166.03C763.192 1165.61 761.957 1163.7 762.374 1161.77C762.791 1159.83 764.697 1158.6 766.634 1159.02C767.16 1159.13 819.952 1170.68 861.983 1196.27C863.676 1197.29 864.212 1199.5 863.186 1201.19C862.509 1202.3 861.327 1202.92 860.119 1202.92Z" fill="#232323"/>
</g>
</g>
<mask id="mask26_433_51293" style="mask-type:luminance" maskUnits="userSpaceOnUse" x="739" y="1194" width="178" height="100">
<path d="M739.166 1194.67H916.499V1293.33H739.166V1194.67Z" fill="white"/>
</mask>
<g mask="url(#mask26_433_51293)">
<mask id="mask27_433_51293" style="mask-type:luminance" maskUnits="userSpaceOnUse" x="251" y="1071" width="690" height="301">
<path d="M905.062 1239.52C887.426 1223.26 871.15 1205.63 852.729 1193.36C892.484 1209.94 972.604 1219.56 892.781 1162.77C891.213 1161.66 889.65 1160.55 888.083 1159.47C846.109 1130.29 691.38 1099.48 528.484 1073.82C312.104 1039.75 251.01 1371.94 251.01 1371.94C251.01 1371.94 580.958 1323.32 711.01 1317.65C751.338 1315.89 773.926 1321.26 811.426 1333.15C874.343 1353.11 874.989 1318.07 863.031 1306.41C866.406 1307.91 947.15 1335.75 906.593 1287.1C906.598 1287.1 983.348 1311.66 905.062 1239.52Z" fill="white"/>
</mask>
<g mask="url(#mask27_433_51293)">
<path d="M912.641 1292.99C911.771 1292.99 910.901 1292.67 910.208 1292.04C871.474 1256.28 796.25 1216.03 742.521 1202.31C740.604 1201.82 739.443 1199.87 739.932 1197.95C740.422 1196.03 742.37 1194.86 744.297 1195.36C799.922 1209.57 874.932 1249.72 915.078 1286.77C916.531 1288.11 916.62 1290.38 915.276 1291.84C914.573 1292.6 913.609 1292.99 912.641 1292.99Z" fill="#232323"/>
</g>
</g>
<mask id="mask28_433_51293" style="mask-type:luminance" maskUnits="userSpaceOnUse" x="729" y="1244" width="140" height="70">
<path d="M729.832 1244H868.499V1313.33H729.832V1244Z" fill="white"/>
</mask>
<g mask="url(#mask28_433_51293)">
<mask id="mask29_433_51293" style="mask-type:luminance" maskUnits="userSpaceOnUse" x="251" y="1071" width="690" height="301">
<path d="M905.062 1239.52C887.426 1223.26 871.15 1205.63 852.729 1193.35C892.484 1209.94 972.604 1219.56 892.781 1162.77C891.213 1161.66 889.65 1160.55 888.083 1159.46C846.109 1130.29 691.38 1099.48 528.484 1073.82C312.104 1039.74 251.01 1371.94 251.01 1371.94C251.01 1371.94 580.958 1323.32 711.01 1317.65C751.338 1315.89 773.926 1321.25 811.426 1333.15C874.343 1353.1 874.989 1318.07 863.031 1306.41C866.406 1307.91 947.15 1335.74 906.593 1287.1C906.598 1287.1 983.348 1311.66 905.062 1239.52Z" fill="white"/>
</mask>
<g mask="url(#mask29_433_51293)">
<path d="M864.676 1312.64C863.759 1312.64 862.843 1312.29 862.14 1311.59C838.442 1287.89 733.78 1251.37 732.723 1251C730.853 1250.35 729.864 1248.31 730.515 1246.44C731.16 1244.57 733.202 1243.57 735.077 1244.22C739.447 1245.74 842.353 1281.66 867.213 1306.51C868.614 1307.92 868.614 1310.19 867.213 1311.59C866.509 1312.29 865.593 1312.64 864.676 1312.64Z" fill="#232323"/>
</g>
</g>
<path d="M520.551 1061.71C516.749 1061.35 510.421 1060.78 505.457 1060.35C455.618 1056.14 404.895 1054.22 360.842 1052.61C267.223 1005.41 156.363 958.896 93.5977 953.828C158.191 852.146 253.613 739.755 360.759 650.969C420.686 601.308 479.478 564.323 544.118 544.349C594.707 528.709 662.056 510.823 712.728 532.073C771.863 556.87 802.858 747.505 520.551 1061.71Z" fill="#4CAF7A"/>
<path d="M888.609 1173.01C887.895 1173.01 887.176 1172.79 886.551 1172.35C820.932 1126.26 676.254 1088.82 595.02 1074.9C568.749 1070.41 539.353 1066.82 505.155 1063.93C454.291 1059.62 402.4 1057.72 360.708 1056.19C358.728 1056.12 357.182 1054.45 357.254 1052.47C357.327 1050.5 359.03 1048.96 360.968 1049.02C402.739 1050.55 454.723 1052.46 505.754 1056.78C540.161 1059.69 569.754 1063.3 596.234 1067.83C678.109 1081.86 824.083 1119.71 890.671 1166.48C892.291 1167.62 892.687 1169.85 891.546 1171.47C890.848 1172.47 889.739 1173.01 888.609 1173.01Z" fill="#232323"/>
</g>
<defs>
<clipPath id="clip0_433_51293">
<rect width="2499" height="1376" fill="white" transform="translate(0.5)"/>
</clipPath>
</defs>
</svg>
