<svg width="2152" height="2499" viewBox="0 0 2152 2499" fill="none" xmlns="http://www.w3.org/2000/svg">
<path d="M1533.15 1557.08C1528.77 1557.66 1533.15 1576.64 1492.49 1582.59C1472.73 1585.37 1454.94 1596.04 1443.16 1612.16C1431.35 1603.19 1419.46 1588.34 1392.88 1583.66C1356.45 1577.22 1357.4 1556.81 1352.03 1557.47C1345.01 1558.27 1351.08 1582.89 1390.73 1593.44C1403.32 1596.78 1426.37 1610.7 1433.62 1617.07C1439.98 1622.67 1442.28 1628 1448.96 1620.29C1457.24 1610.66 1465.79 1601.8 1495.83 1592.75C1539.59 1579.55 1539.4 1556.32 1533.15 1557.08Z" fill="#232323"/>
<path d="M434.531 2483.9L817.589 2484.86" stroke="#232323" stroke-width="27.6159" stroke-linecap="round" stroke-linejoin="round"/>
<path d="M627.266 13.8086C627.495 630.335 627.995 1864.38 628.224 2481.02" stroke="#232323" stroke-width="27.6159" stroke-linecap="round" stroke-linejoin="round"/>
<path d="M1692.09 450.142C1680.58 421.985 1617.03 413.397 1601.88 439.709C1576.83 483.162 1560.3 513.235 1549.76 544.074C1535.53 585.574 1681.74 596.199 1683.08 555.923C1684.46 514.845 1702.83 476.912 1692.09 450.142Z" stroke="#232323" stroke-width="8.62998" stroke-miterlimit="1"/>
<path d="M775.475 1066.67C775.09 1092.9 818.241 1140.39 844.131 1170.22C870.017 1200.07 1011.93 1350.5 1175.67 1410.64C1270.91 1445.66 1351.61 1427.55 1351.15 1400.93C1349.92 1333.51 1242.07 1334.66 1103.99 1282.03C965.908 1229.41 775.819 1040.28 775.475 1066.67Z" fill="#232323"/>
<path d="M780.231 1619.95C744.252 1646.57 697.383 1701.53 690.476 1730.41C683.575 1759.29 629.492 1857.9 674.945 1887.97C715.372 1890.08 758.56 1762.43 771.982 1724.96C785.409 1687.49 783.565 1647.25 780.231 1619.95ZM677.133 1549.95C621.669 1503.42 520.179 1658.76 557.268 1702.91C617.679 1774.79 728.45 1804.55 820.502 1823.23C870.367 1833.32 940.784 1704.56 896.716 1679.4C832.929 1642.96 745.711 1607.48 677.133 1549.95ZM734.664 1592.37C724.846 1655.23 648.669 1707.01 654.695 1773.48C658.528 1777.89 717.174 1800.33 722.159 1798.76C756.143 1747.48 778.044 1679.16 782.148 1618.99C772.789 1614.69 748.32 1600.54 734.664 1592.37ZM806.81 1632.18C791.237 1671.5 753.841 1765.7 738.732 1803.55C772.523 1815.56 818.086 1823.23 843.018 1826.11C881.679 1830.55 929.32 1702.87 898.633 1680.59C881.987 1668.5 838.685 1648.71 806.81 1632.18ZM826.487 1641.88C803.471 1694.51 779.961 1756.95 759.711 1809.08C763.862 1810.67 768.101 1812.03 772.403 1813.14C792.924 1760.9 814.596 1707.43 838.95 1648.48C835.846 1646.79 829.362 1643.69 826.487 1642V1641.88ZM856.445 1061.87C738.039 1067.63 576.945 1096.39 452.752 1183.65C387.929 1229.18 333.851 1292.16 328.554 1389.82C323.263 1487.47 353.565 1557.27 402.2 1627.62C450.836 1697.96 607.591 1865.42 674.216 1888.05C637.278 1844.33 700.679 1784.26 731.211 1737.7C753.268 1704.1 775.898 1665.16 780.231 1619.6C662.747 1543.39 630.872 1485.59 616.07 1457.93C590.523 1410.14 629.799 1400.13 675.289 1385.94C718.591 1372.44 855.56 1346.36 890.081 1338.91C984.706 1318.66 1170.08 1327.91 1159.3 1231.75C1146.76 1116.76 971.815 1056.27 856.445 1061.87Z" stroke="#232323" stroke-width="15.3422" stroke-linecap="round" stroke-linejoin="round"/>
<path d="M780.23 1619.95C744.25 1646.57 697.381 1701.53 690.474 1730.41C683.573 1759.29 629.49 1857.9 674.943 1887.97C715.37 1890.08 758.558 1762.43 771.98 1724.96C785.407 1687.49 783.563 1647.25 780.23 1619.95Z" fill="#232323"/>
<path d="M677.133 1549.94C621.669 1503.42 520.18 1658.76 557.268 1702.91C617.68 1774.79 728.45 1804.55 820.503 1823.23C870.367 1833.31 940.784 1704.56 896.716 1679.4C832.93 1642.96 745.711 1607.48 677.133 1549.94Z" fill="#232323"/>
<path d="M734.663 1592.37C724.846 1655.23 648.668 1707.01 654.694 1773.48C658.528 1777.89 717.174 1800.33 722.158 1798.76C756.142 1747.48 778.043 1679.16 782.148 1618.99C772.788 1614.69 748.319 1600.54 734.663 1592.37Z" fill="#232323"/>
<path d="M806.809 1632.18C791.236 1671.5 753.84 1765.7 738.73 1803.55C772.522 1815.56 818.085 1823.23 843.017 1826.11C881.678 1830.55 929.319 1702.87 898.632 1680.59C881.986 1668.5 838.684 1648.71 806.809 1632.18Z" fill="#232323"/>
<path d="M826.487 1642C803.471 1694.62 779.961 1757.06 759.711 1809.19C763.862 1810.79 768.102 1812.14 772.404 1813.26C792.924 1761.02 814.596 1707.55 838.951 1648.6C835.846 1646.79 829.362 1643.69 826.487 1642Z" fill="#232323"/>
<path d="M856.445 1061.87C738.039 1067.63 576.945 1096.39 452.752 1183.65C387.929 1229.18 333.851 1292.16 328.554 1389.82C323.263 1487.47 353.565 1557.27 402.2 1627.62C450.836 1697.96 607.591 1865.42 674.216 1888.05C637.278 1844.33 700.679 1784.26 731.211 1737.7C753.268 1704.1 775.898 1665.16 780.231 1619.6C662.747 1543.39 630.872 1485.59 616.07 1457.93C590.523 1410.14 629.799 1400.13 675.289 1385.94C718.591 1372.44 855.56 1346.36 890.08 1338.91C984.705 1318.66 1170.08 1327.91 1159.3 1231.75C1146.76 1116.76 971.815 1056.27 856.445 1061.87Z" fill="#232323"/>
<path d="M780.23 1619.95C744.25 1646.57 697.381 1701.53 690.474 1730.41C683.573 1759.29 629.49 1857.9 674.943 1887.97C715.37 1890.08 758.558 1762.43 771.98 1724.96C785.407 1687.49 783.563 1647.25 780.23 1619.95Z" fill="#232323"/>
<path d="M674.523 1551.83C619.101 1505.3 520.18 1658.76 557.268 1702.91C617.68 1774.79 728.45 1804.55 820.502 1823.23C870.367 1833.32 940.784 1704.56 896.716 1679.4C832.93 1642.96 743.101 1609.36 674.523 1551.83Z" fill="white"/>
<path d="M806.809 1632.18C791.236 1671.5 753.84 1765.7 738.73 1803.55C772.522 1815.56 818.085 1823.23 843.017 1826.11C881.678 1830.55 929.319 1702.87 898.632 1680.59C881.986 1668.5 838.684 1648.71 806.809 1632.18Z" fill="#042628"/>
<path d="M826.487 1642C803.471 1694.62 779.961 1757.06 759.711 1809.19C763.862 1810.79 768.102 1812.14 772.404 1813.26C792.924 1761.02 814.596 1707.55 838.951 1648.6C835.846 1646.79 829.362 1643.69 826.487 1642Z" fill="white"/>
<path d="M650.664 1876.39C658.102 1881.02 665.992 1884.87 674.216 1887.9C637.279 1844.17 700.68 1784.1 731.211 1737.54C753.268 1703.94 775.898 1665.01 780.232 1619.44L778.695 1618.48" stroke="#232323" stroke-width="15.3422" stroke-linecap="round" stroke-linejoin="round"/>
<path d="M856.445 1061.87C738.039 1067.63 576.945 1096.39 452.752 1183.65C387.929 1229.18 333.851 1292.16 328.554 1389.82C323.263 1487.47 353.565 1557.27 402.2 1627.62C450.836 1697.96 607.591 1865.42 674.216 1888.05C637.278 1844.33 700.679 1784.26 731.211 1737.7C753.268 1704.1 775.898 1665.16 780.231 1619.6C662.747 1543.39 630.872 1485.59 616.07 1457.93C590.523 1410.14 629.799 1400.13 675.289 1385.94C718.591 1372.44 855.56 1346.36 890.08 1338.91C984.705 1318.66 1170.08 1327.91 1159.3 1231.75C1146.76 1116.76 971.815 1056.27 856.445 1061.87Z" fill="#4CAF7A"/>
<path d="M616.951 1409.72C610.008 1419.07 597.045 1431.04 599.691 1457.89" stroke="#232323" stroke-width="5.75332" stroke-linecap="round" stroke-linejoin="round"/>
<path d="M1197.65 1347.66C1186.15 1398.48 1202.44 1456.97 1242.49 1476.65M616.799 2072.08C625.58 2107.48 643.835 2149.75 693.892 2196.74C743.944 2243.72 875.121 2294.92 879.762 2267.57C894.569 2179.9 808.46 2201.03 755.95 2143.27C727.835 2112.31 663.017 2058.62 616.799 2072.08ZM663.705 2018.84C629.418 2060.07 583.387 2124.55 569.007 2142.54C515.882 2208.97 618.179 2302.21 681.923 2254.96C755.028 2200.8 773.976 2178.02 801.783 2149.25C829.595 2120.48 710.845 1962.15 663.705 2018.84ZM596.121 2106.56C584.351 2122.17 572.726 2137.51 561.95 2151.67C519.491 2207.32 640.345 2281.54 681.194 2255.23C691.976 2248.25 707.585 2235.55 729.866 2217.56C695.845 2187.83 635.397 2137.97 596.121 2106.56ZM585.075 2121.67C583.887 2123.02 580.897 2127.19 579.21 2129.57C618.559 2166.16 671.262 2204.87 707.2 2235.9C710.366 2233.58 713.413 2231.12 716.33 2228.49C675.444 2194.08 625.58 2153.93 585.075 2121.67ZM822.382 1695.69C795.533 1781.65 707.814 1973.46 615.991 2071.04C644.069 2124.01 679.007 2159.26 737.809 2182.27C800.33 2206.9 880.455 2222.28 880.069 2267.54C907.762 2209.51 993.564 2006.22 1044.62 1893.19C1118.22 1730.56 852.528 1599.08 822.382 1695.69ZM868.408 1004.03C893.533 1094.09 891.424 1203.48 897.33 1295.92C908.835 1473.54 867.564 1575.91 822.116 1695.85C789.476 1782.53 983.861 2038.48 1045.23 1892.77C1115.38 1725.65 1265.66 1476.27 1315.4 1290.24C1332.63 1226 1318.86 1144.72 1297.99 1103.41C1271.83 1051.32 844.246 916.772 868.564 1004L868.408 1004.03Z" stroke="#232323" stroke-width="15.3422" stroke-linecap="round" stroke-linejoin="round"/>
<path d="M616.797 2072.08C625.578 2107.48 643.833 2149.75 693.891 2196.73C743.943 2243.72 875.12 2294.92 879.76 2267.57C894.568 2179.9 808.458 2201.03 755.948 2143.27C727.833 2112.31 663.016 2058.61 616.797 2072.08Z" fill="#232323"/>
<path d="M663.703 2018.84C629.417 2060.07 583.386 2124.55 569.005 2142.54C515.88 2208.97 618.177 2302.21 681.922 2254.96C755.026 2200.8 773.974 2178.02 801.782 2149.25C829.594 2120.48 710.844 1962.15 663.703 2018.84Z" fill="#232323"/>
<path d="M596.121 2106.56C584.351 2122.17 572.726 2137.51 561.95 2151.67C519.491 2207.32 640.345 2281.54 681.194 2255.23C691.976 2248.25 707.585 2235.55 729.866 2217.56C695.845 2187.83 635.397 2137.98 596.121 2106.56Z" fill="#232323"/>
<path d="M585.076 2121.67C583.888 2123.02 580.898 2127.19 579.211 2129.57C618.56 2166.16 671.263 2204.86 707.201 2235.9C710.367 2233.58 713.414 2231.11 716.331 2228.49C675.445 2194.08 625.581 2153.93 585.076 2121.67Z" fill="#232323"/>
<path d="M822.383 1695.7C795.534 1781.65 707.815 1973.47 615.992 2071.04C644.07 2124.01 679.008 2159.26 737.81 2182.27C800.331 2206.9 880.456 2222.28 880.07 2267.54C907.763 2209.51 993.565 2006.22 1044.62 1893.19C1118.22 1730.57 852.529 1599.08 822.383 1695.7Z" fill="#232323"/>
<path d="M868.565 1004C893.685 1094.05 891.575 1203.44 897.481 1295.88C908.992 1473.5 867.721 1575.88 822.268 1695.81C789.627 1782.5 984.013 2038.44 1045.38 1892.73C1115.53 1725.62 1265.81 1476.23 1315.56 1290.2C1332.78 1225.95 1319.01 1144.68 1298.14 1103.37C1271.83 1051.32 844.247 916.772 868.565 1004Z" fill="#232323"/>
<path d="M1197.8 1347.62C1186.3 1398.44 1202.6 1456.93 1242.64 1476.61Z" fill="#232323"/>
<path d="M1197.8 1347.62C1186.3 1398.44 1202.6 1456.93 1242.64 1476.61" stroke="white" stroke-width="5.75332" stroke-linecap="round" stroke-linejoin="round"/>
<path d="M838.219 1148.67L880.411 1319.81C880.411 1319.81 893.375 1240.72 905.344 1321.73C912.786 1372.17 929.318 1166.85 926.438 1164.93C923.563 1163.02 838.219 1148.67 838.219 1148.67Z" fill="#4CAF7A"/>
<path d="M616.797 2072.08C625.578 2107.48 643.833 2149.75 693.891 2196.73C743.943 2243.72 875.12 2294.92 879.76 2267.57C894.568 2179.9 808.458 2201.03 755.948 2143.27C727.833 2112.31 663.016 2058.61 616.797 2072.08Z" fill="#232323"/>
<path d="M663.703 2018.84C629.417 2060.07 583.386 2124.55 569.005 2142.54C515.88 2208.97 618.177 2302.21 681.922 2254.96C755.026 2200.8 773.974 2178.02 801.782 2149.25C829.594 2120.48 710.844 1962.15 663.703 2018.84Z" fill="white"/>
<path d="M596.121 2106.56C584.351 2122.17 572.726 2137.51 561.95 2151.67C519.491 2207.32 640.345 2281.54 681.194 2255.23C691.976 2248.25 707.585 2235.55 729.866 2217.56C695.845 2187.83 635.397 2137.98 596.121 2106.56Z" fill="#042628"/>
<path d="M585.076 2121.67C583.888 2123.02 580.898 2127.19 579.211 2129.57C618.56 2166.16 671.263 2204.86 707.201 2235.9C710.367 2233.58 713.414 2231.11 716.331 2228.49C675.445 2194.08 625.581 2153.93 585.076 2121.67Z" fill="white"/>
<path d="M822.383 1695.7C795.534 1781.65 707.815 1973.47 615.992 2071.04C644.07 2124.01 679.008 2159.26 737.81 2182.27C800.331 2206.9 880.456 2222.28 880.07 2267.54C907.763 2209.51 993.565 2006.22 1044.62 1893.19C1118.22 1730.57 852.529 1599.08 822.383 1695.7Z" fill="#4CAF7A" stroke="#232323" stroke-width="15.3422" stroke-linecap="round" stroke-linejoin="round"/>
<path d="M822.383 1695.7C795.534 1781.65 707.815 1973.47 615.992 2071.04C644.07 2124.01 679.008 2159.26 737.81 2182.27C800.331 2206.9 880.456 2222.28 880.07 2267.54C907.763 2209.51 993.565 2006.22 1044.62 1893.19C1118.22 1730.57 852.529 1599.08 822.383 1695.7Z" fill="#4CAF7A"/>
<path d="M868.565 1004C893.685 1094.05 891.575 1203.44 897.481 1295.88C908.992 1473.5 867.721 1575.88 822.268 1695.81C789.627 1782.5 984.013 2038.44 1045.38 1892.73C1115.53 1725.62 1265.81 1476.23 1315.56 1290.2C1332.78 1225.95 1319.01 1144.68 1298.14 1103.37C1271.83 1051.32 844.247 916.772 868.565 1004Z" fill="#4CAF7A"/>
<path d="M1197.8 1347.62C1186.3 1398.44 1202.6 1456.93 1242.64 1476.61" stroke="white" stroke-width="5.75332" stroke-linecap="round" stroke-linejoin="round"/>
<path d="M573.798 2135.37C535.944 2181.12 467.366 2266.7 434.762 2305.55C507.178 2350.39 605.215 2406 688.637 2452.72C713.913 2466.91 738.001 2473.36 770.6 2466.87C771.694 2454.76 772.017 2442.59 771.559 2430.43C759.095 2360.93 734.663 2302.17 669.23 2249.71C649.668 2233.98 625.121 2219.25 607.861 2199.58C594.783 2184.69 584.116 2151.63 573.798 2135.37Z" fill="white"/>
<path d="M571.267 2133.18C533.371 2178.98 467.366 2266.7 434.762 2305.55C507.178 2350.39 605.215 2406 688.637 2452.72C713.913 2466.91 738.001 2473.36 770.6 2466.87C771.694 2454.76 772.017 2442.59 771.559 2430.43C759.095 2360.93 734.663 2302.17 669.23 2249.71C649.668 2233.98 625.121 2219.25 607.861 2199.58C594.783 2184.69 581.548 2149.48 571.267 2133.18Z" stroke="#232323" stroke-width="5.75332" stroke-linecap="round" stroke-linejoin="round"/>
<path d="M508.594 2214.11C508.594 2214.11 525.625 2229.68 556.156 2227.92C579.167 2226.61 594.51 2222.08 619.865 2236.74" stroke="#232323" stroke-width="6.55879" stroke-linecap="round" stroke-linejoin="round"/>
<path d="M478.528 2285.72C483.97 2277.32 500.007 2278.05 514.351 2287.25C528.694 2296.46 535.981 2310.88 530.533 2319.28C525.09 2327.68 509.059 2326.95 494.71 2317.74C480.366 2308.54 473.116 2294.04 478.528 2285.72Z" stroke="#232323" stroke-width="5.44648" stroke-linecap="round" stroke-linejoin="round"/>
<path d="M713.333 2293.81C684.464 2283.79 652.75 2286.03 625.578 2300.03" stroke="#4CAF7A" stroke-width="16.3394" stroke-linecap="round" stroke-linejoin="round"/>
<path d="M734.855 2325.34C706.439 2315.4 675.189 2317.54 648.402 2331.28" stroke="#4CAF7A" stroke-width="16.3394" stroke-linecap="round" stroke-linejoin="round"/>
<path d="M754.375 2360.01C729.339 2350.57 701.531 2351.72 677.359 2363.19" stroke="#4CAF7A" stroke-width="16.3394" stroke-linecap="round" stroke-linejoin="round"/>
<path d="M471.121 2260.29C471.121 2260.29 500.043 2243.18 533.335 2272.33C557.309 2293.31 546.876 2322.19 570.616 2338.27C594.361 2354.33 612.043 2353.6 630.606 2373.86C649.168 2394.11 675.866 2451.88 770.257 2441.02" stroke="#232323" stroke-width="4.79443" stroke-linecap="round" stroke-linejoin="round"/>
<path d="M1407.15 615.876C1346.36 585.188 1307.42 617.141 1327.26 622.282C1394.61 639.615 1423.14 651.277 1453.83 705.168C1454.56 667.772 1442.17 633.595 1407.15 615.876Z" fill="#232323"/>
<path d="M1232.75 523.748C1235.58 545.993 1238.23 598.003 1246.21 642.649C1260.78 732.399 1199.42 816.784 1153.01 812.487C1106.59 808.191 1038.32 739.612 1077.67 633.06C1077.67 633.06 1105.44 571.691 1119.37 514.81C1133.29 457.93 1229.87 501.54 1232.75 523.748Z" fill="white" stroke="#232323" stroke-width="5.44648" stroke-miterlimit="1.14"/>
<path d="M1186.95 525.857C1169.2 549.101 1205.4 607.133 1240.27 599.805C1239.19 588.299 1236.43 561.45 1234.48 541.695C1233.71 533.987 1194.93 515.461 1186.95 525.857Z" fill="#232323"/>
<path d="M1334.27 324.604C1326.6 313.094 1102.49 312.443 1112.85 353.521C1116.68 368.594 1125.16 386.161 1121.51 407.911C1140.27 420.76 1176.51 477.182 1176.51 477.182C1176.51 477.182 1280.88 405.073 1317.43 400.74C1326.72 372.432 1349.61 347.922 1334.27 324.604Z" fill="#232323"/>
<path d="M1328.44 544.459C1327.1 558.401 1317.7 570.261 1304.43 574.755C1266.96 588.834 1228.56 573.646 1223.27 571.38C1163.44 546.068 1157.8 486.537 1124.7 497.776C1169.04 465.214 1170.73 455.589 1174.33 455.011C1179.39 454.36 1184.23 447.339 1191.32 437.558C1201.3 423.927 1213.74 412.287 1227.99 403.229C1252.27 388.427 1291.78 394.026 1317.48 400.74C1314.45 420.573 1312.72 440.589 1312.3 460.651C1311.38 495.86 1330.59 514.693 1328.44 544.459Z" fill="white" stroke="#232323" stroke-width="5.44648" stroke-miterlimit="1.14"/>
<path d="M1218.59 422.757L1219.21 420.799L1219.9 419.033C1220.4 417.929 1220.96 416.856 1221.58 415.815C1222.86 413.731 1224.38 411.815 1226.11 410.101C1229.73 406.44 1234.18 403.7 1239.07 402.122C1241.64 401.247 1244.31 400.731 1247.02 400.585C1249.75 400.466 1252.49 400.747 1255.15 401.429C1257.75 402.085 1260.21 403.19 1262.43 404.69C1264.63 406.143 1266.5 408.039 1267.92 410.252C1269.71 413.091 1268.87 416.846 1266.04 418.653C1265.5 419.007 1264.9 419.268 1264.28 419.419L1263.2 419.69C1261.02 420.263 1259.37 420.492 1257.56 420.841L1253.15 421.757C1250.46 422.372 1248.17 422.908 1245.48 423.559C1242.8 424.216 1240.15 425.059 1237.04 426.091L1232.17 427.778L1229.53 428.622C1227.48 429.419 1225.25 429.632 1223.08 429.236C1221.95 429.028 1220.89 428.554 1219.98 427.856C1218.77 426.867 1218.14 425.346 1218.29 423.794C1218.37 423.44 1218.47 423.096 1218.59 422.757Z" fill="#232323"/>
<path d="M1317.4 405.496C1308.19 401.163 1294.38 401.277 1287.29 408.371C1283.95 411.668 1282.38 417.694 1293.73 420.876C1301.67 423.137 1308.77 424.709 1314.67 429.621C1315.63 424.48 1315.86 419.225 1316.05 417.387C1316.24 415.543 1316.74 412.939 1316.9 410.788C1317.24 409.043 1317.41 407.272 1317.4 405.496Z" fill="#232323"/>
<path d="M1286.06 439.172C1286.06 439.172 1282.61 445.844 1290.82 457.698C1296.76 466.25 1299.68 470.891 1286.21 477.37" stroke="#232323" stroke-width="5.44648" stroke-linecap="round" stroke-linejoin="round"/>
<path d="M1267 436.527C1265.12 430.428 1253.23 439.86 1232.75 439.516C1214.3 439.246 1243.68 454.626 1260.02 452.365C1265.35 451.636 1270.14 446.881 1267 436.527Z" fill="#232323"/>
<path d="M1308.08 440.203C1297.99 440.932 1285.34 431.5 1283.3 439.286C1281.46 446.114 1287.14 449.911 1292.09 451.364C1304.97 455.125 1314.33 439.708 1308.08 440.203Z" fill="#232323"/>
<path d="M1256.3 484.734C1253.19 487.766 1251.27 499.271 1262.47 506.714C1277.31 516.531 1286.87 508.135 1288.09 505.641C1280.96 507.521 1270.49 510.01 1263.55 503.146C1258.68 498.281 1256.06 491.615 1256.3 484.734Z" fill="#232323" stroke="#232323" stroke-width="3.83555" stroke-linecap="round" stroke-linejoin="round"/>
<path d="M1127.46 406.606C1107.52 397.366 1074.11 407.028 1076.76 444.309C1078.83 473.345 1112.7 494.174 1124.89 498.007C1137.09 501.845 1157.53 497.397 1167.09 488.918C1174.75 482.132 1184.76 464.064 1169.96 454.397C1157.76 446.382 1149.48 416.851 1127.46 406.606Z" fill="white"/>
<path d="M1152.74 431.809C1146.33 421.986 1138.7 411.788 1127.5 406.606C1107.55 397.366 1074.15 407.028 1076.79 444.309C1078.87 473.345 1112.73 494.174 1124.93 498.007C1135.37 500.278 1146.25 499.34 1156.15 495.325" stroke="#232323" stroke-width="5.75332" stroke-linecap="round" stroke-linejoin="round"/>
<path d="M1106.02 429.465C1106.02 429.465 1135.83 431.616 1141.23 467.632" stroke="#232323" stroke-width="5.44648" stroke-miterlimit="2.84" stroke-linecap="round"/>
<path d="M1223.5 249.695C1191.4 249.695 1157.42 272.367 1159.37 298.445C1162.67 341.789 1285.14 343.82 1291.08 300.784C1293.5 283.107 1271.64 249.695 1223.5 249.695Z" fill="white" stroke="#232323" stroke-width="5.36977" stroke-miterlimit="10"/>
<path d="M1221.09 277.851C1163.56 277.851 1125.66 294.877 1102.46 308.534C1089.95 315.935 1091.18 319.081 1095.36 327.711C1104.29 345.971 1115.53 368.409 1123.66 385.247C1192.71 385.971 1260.4 385.971 1321.5 382.252C1329.98 368.101 1339.34 354.216 1350.23 336.497C1359.59 321.153 1364.12 317.315 1343.25 306.768C1305.62 286.982 1263.6 277.034 1221.09 277.851Z" fill="white" stroke="#232323" stroke-width="5.36977" stroke-miterlimit="10"/>
<path d="M1220.17 788.898C1233.9 860.086 1306.77 998.013 1395.33 1060.34C1523.9 1150.78 1534.87 1098.16 1533.91 1012.32C1532.61 897.253 1500.96 809.034 1469.63 735.351C1441.82 670.148 1406.27 606.596 1304.7 609.586" fill="white"/>
<path d="M1220.17 788.898C1233.9 860.086 1306.77 998.013 1395.33 1060.34C1523.9 1150.78 1534.87 1098.16 1533.91 1012.32C1532.61 897.253 1500.96 809.034 1469.63 735.351C1441.82 670.148 1406.27 606.596 1304.7 609.586" stroke="#232323" stroke-width="6.71221" stroke-miterlimit="1"/>
<path d="M1342.75 787.517C1388.78 937.944 1391.2 1146.02 1347.54 1397.37C1318.78 1364.77 1295.11 1400.09 1170.65 1362.35C1001.39 1311.07 860.893 1171.38 777.008 1068.51C796.185 932.001 878.763 836.882 911.253 758.137" fill="#232323"/>
<path d="M1342.75 787.517C1388.78 937.944 1391.2 1146.02 1347.54 1397.37C1318.78 1364.77 1295.11 1400.09 1170.65 1362.35C1001.39 1311.07 860.893 1171.38 777.008 1068.51C796.185 932.001 878.763 836.882 911.253 758.137" stroke="#232323" stroke-width="15.3422" stroke-linecap="round" stroke-linejoin="round"/>
<path d="M923.714 587.953C888.391 591.786 844.359 603.984 841.25 656.489C896.406 630.604 921.568 615.453 972.62 631.099C996.13 638.271 985.583 581.239 923.714 587.953Z" fill="#232323"/>
<path d="M1354.26 788.477C1400.28 938.904 1393.11 1149.86 1349.47 1401.09C1320.7 1368.49 1284.26 1313.52 1170.65 1250.04C1041.51 1177.9 896.716 1121.33 774.633 1067.86C789.013 926.898 876.961 832.43 909.294 753.648" fill="white"/>
<path d="M1354.26 788.477C1400.28 938.904 1393.11 1149.86 1349.47 1401.09C1320.7 1368.49 1284.26 1313.52 1170.65 1250.04C1041.51 1177.9 896.716 1121.33 774.633 1067.86C789.013 926.898 876.961 832.43 909.294 753.648" stroke="#232323" stroke-width="7.67109" stroke-linecap="round" stroke-linejoin="round"/>
<path d="M1342.75 787.517C1388.78 937.944 1391.2 1146.02 1347.54 1397.37C1318.78 1364.77 1295.11 1400.09 1170.65 1362.35C1001.39 1311.07 860.893 1171.38 777.008 1068.51C796.185 932.001 878.763 836.882 911.253 758.137" fill="white"/>
<path d="M999.315 610.466C958.507 653.731 916.007 738.461 945.617 790.007C980.138 849.882 1083.51 839.106 1152.51 841.559C1214.99 843.783 1321.81 836.612 1357.44 785.216C1379.76 753.112 1341.1 649.398 1292.01 647.403C1226.42 644.721 1172.38 757.674 1152.24 781.648C1139.31 745.211 1104.45 684.955 1068.59 643.07C1053.01 624.851 1015.73 593.018 999.315 610.466Z" fill="white"/>
<path d="M1024.86 612.037C969.934 596.698 913.096 609.313 845.705 644.37C768.377 684.646 673.523 774.167 642.762 879.261C612.002 984.354 629.111 1041.93 647.288 1053.7C687.486 1079.67 769.528 1036.29 813.559 997.167C857.591 958.042 926.481 855.25 939.752 801.896" fill="white"/>
<path d="M1024.86 612.037C969.934 596.698 913.096 609.313 845.705 644.37C768.377 684.646 673.523 774.167 642.762 879.261C612.002 984.354 629.111 1041.93 647.288 1053.7C687.486 1079.67 769.528 1036.29 813.559 997.167C857.591 958.042 926.481 855.25 939.752 801.896" stroke="#232323" stroke-width="5.75332" stroke-linecap="round" stroke-linejoin="round"/>
<path d="M720.125 752.609C771.063 803.354 823.682 892.802 811.833 996.438" stroke="#232323" stroke-width="5.75332" stroke-linecap="round" stroke-linejoin="round"/>
<path d="M673.758 507.407C665.738 507.407 646.331 511.24 640.461 514.464M667.31 479.48C655.425 476.402 643.055 475.62 630.873 477.183M665.05 454.167C653.472 450.631 641.508 448.49 629.42 447.803M581.972 421.563C589.029 417.386 605.753 410.594 614.998 410.823M643.342 411.745C617.066 404.688 586.42 417.808 574.529 426.131C544.154 447.417 515.576 481.287 504.993 510.053C490.8 548.829 564.139 612.537 602.685 577.172C619.524 561.834 643.571 554.391 667.545 540.964C682.118 532.797 675.941 515.573 674.024 507.136C679.279 498.547 674.024 486.422 667.425 479.714C672.743 471.756 671.904 461.183 665.394 454.167C670.42 436.678 651.701 414.011 643.342 411.745ZM595.394 379.375C588.878 393.922 584.201 409.23 581.472 424.943C579.17 436.87 612.467 433.032 615.764 421.334C620.326 405.266 606.175 355.172 595.394 379.375ZM668.003 507.636C656.956 508.094 653.159 544.724 663.706 541.428C678.738 537.094 692.982 530.386 705.899 521.558C737.045 499.964 685.264 506.907 668.003 507.636Z" stroke="#232323" stroke-width="11.5066" stroke-linecap="round" stroke-linejoin="round"/>
<path d="M643.342 411.747C617.066 404.69 586.42 417.81 574.529 426.133C544.154 447.419 515.576 481.289 504.993 510.055C490.8 548.831 564.139 612.539 602.685 577.174C619.524 561.836 643.571 554.393 667.545 540.966C682.118 532.799 675.941 515.575 674.024 507.138C679.279 498.549 674.024 486.424 667.425 479.716C672.743 471.758 671.904 461.185 665.394 454.169C670.42 436.68 651.701 414.013 643.342 411.747Z" fill="#232323"/>
<path d="M595.391 379.375C588.876 393.922 584.199 409.23 581.469 424.943C579.167 436.87 612.464 433.032 615.761 421.334C620.324 405.266 606.173 355.172 595.391 379.375Z" fill="#232323"/>
<path d="M668.001 507.635C656.955 508.094 653.158 544.724 663.705 541.427C678.736 537.094 692.981 530.385 705.897 521.557C737.043 499.964 685.262 506.906 668.001 507.635Z" fill="#232323"/>
<path d="M673.758 507.406C665.737 507.406 646.331 511.24 640.461 514.464Z" fill="#232323"/>
<path d="M667.422 479.482C655.536 476.404 643.167 475.623 630.984 477.185Z" fill="#232323"/>
<path d="M665.161 454.052C653.583 450.51 641.62 448.375 629.531 447.688Z" fill="#232323"/>
<path d="M582.086 421.448C589.143 417.271 605.867 410.48 615.112 410.709Z" fill="#232323"/>
<path d="M711.995 748.856C756.563 953.939 639.771 1058.46 655.839 1057.73C669.458 1057.08 716.943 1063.83 747.589 996.361C793.88 894.257 707.542 728.486 711.995 748.856Z" fill="#232323"/>
<path d="M521.675 479.83C471.43 544.268 452.638 679.585 477.336 808.575C500.352 929.549 594.591 1081.13 662.597 1054.43C788.018 1005.18 731.253 775.283 690.591 702.215C648.404 626.46 599.425 593.82 619.289 550.367C636.435 512.507 546.722 447.648 521.675 479.83Z" stroke="#232323" stroke-width="11.5066"/>
<path d="M711.995 748.856C756.563 953.939 639.771 1058.46 655.839 1057.73C669.458 1057.08 716.943 1063.83 747.589 996.361C793.88 894.257 707.542 728.486 711.995 748.856Z" fill="#232323"/>
<path d="M521.675 479.83C471.43 544.268 452.638 679.585 477.336 808.575C500.352 929.549 594.591 1081.13 662.597 1054.43C788.019 1005.18 731.253 775.283 690.591 702.216C648.404 626.46 599.425 593.82 619.289 550.367C636.435 512.507 546.722 447.648 521.675 479.83Z" fill="white"/>
<path d="M1027.28 646.445C1074.76 685.529 1115.99 742.336 1127 773.247C1127.98 775.471 1129.7 777.289 1131.87 778.388C1141.4 783.008 1152.06 784.727 1162.56 783.336C1170.42 782.414 1177.17 779.69 1179.55 774.669C1201.83 728.18 1263.93 678.32 1288.63 658.185C1191.48 700.602 1162.6 763.659 1152.74 779.846C1144.64 759.211 1116.68 694.852 1027.28 646.445Z" fill="#4CAF7A"/>
<path d="M1022.33 593.705C962.146 569.315 885.208 585.538 858.359 616.221C919.266 586.497 967.672 610.966 1014.2 637.315C1067.9 667.773 1122.05 717.632 1152.28 780.304C1140.42 693.049 1078.09 616.221 1022.33 593.705Z" fill="white" stroke="#232323" stroke-width="4.2191" stroke-linecap="round" stroke-linejoin="round"/>
<path d="M1307.27 606.174C1239.99 637.586 1181.04 711.419 1152.89 780.076C1187.18 727.95 1252.11 675.789 1298.64 651.242C1336.38 631.336 1394.53 608.82 1439.6 648.825C1420.49 600.878 1369.21 577.253 1307.27 606.174Z" fill="white" stroke="#232323" stroke-width="4.2191" stroke-linecap="round" stroke-linejoin="round"/>
<path d="M1131.1 782.836C1122.36 803.82 1136.59 822.956 1141.92 825.836C1148.54 827.617 1155.48 827.773 1162.17 826.294C1168.19 823.763 1180.7 801.555 1174.37 785.638C1158.68 791.815 1138.73 786.06 1131.1 782.836Z" fill="#4CAF7A"/>
<path d="M1124.08 787.633C1090.56 812.565 1061.33 847.81 1052.7 897.674C1042.81 954.784 1082.78 1019.72 1088.72 1015.5C1091.6 964.487 1096.39 937.716 1105.79 904.81C1113.68 878.487 1124.56 853.159 1138.24 829.326C1133.9 824.456 1121.47 813.523 1124.08 787.633Z" fill="#4CAF7A"/>
<path d="M1180.66 788.555C1181.66 800.56 1178.47 819.466 1166.31 829.326C1177.44 850.383 1192.82 877.232 1203.4 903.081C1216.1 933.997 1233.55 977.914 1236.16 995.133C1242.8 998.128 1259.98 933.461 1248.35 882.909C1237.89 837.419 1210.61 803.701 1180.66 788.555Z" fill="#4CAF7A"/>
<path d="M1561.76 1019.8C1529.31 1008.6 1502.23 1014.47 1496.29 1026.74C1478.22 1063.98 1564.83 1115.19 1590.53 1082.78C1601.04 1069.54 1595.17 1031.34 1561.76 1019.8Z" fill="#232323"/>
<path d="M1682.74 562.487C1685.15 519.299 1564.67 505.607 1549.03 545.914C1511.44 644.612 1484.33 746.982 1468.14 851.341C1459.2 913.555 1447.5 987.654 1456.2 1034.49C1462.57 1068.62 1497.75 1143.38 1568.55 1082.24C1669.62 994.945 1675.37 871.284 1681.39 795.612C1687.84 715.331 1678.4 641.112 1682.74 562.487Z" fill="#232323" stroke="#232323" stroke-width="11.5066" stroke-linecap="round" stroke-linejoin="round"/>
<path d="M1463.61 894.258C1449.45 978.221 1442.78 1069.35 1463.07 1098.92C1489.27 1137.05 1568.36 1118.83 1589.88 1081.43C1541.28 1097.35 1460.58 1006.14 1463.61 894.258Z" fill="#232323"/>
<path d="M1466.1 866.605C1457.78 922.335 1437.61 1025.9 1459.2 1091.67C1467.41 1116.68 1506.3 1123.81 1532.07 1118.52C1550.83 1114.69 1580.67 1096.05 1589.61 1081.43" fill="#232323"/>
<path d="M1466.1 866.605C1457.78 922.335 1437.61 1025.9 1459.2 1091.67C1467.41 1116.68 1506.3 1123.81 1532.07 1118.52C1550.83 1114.69 1580.67 1096.05 1589.61 1081.43" stroke="#232323" stroke-width="5.75332" stroke-linecap="round" stroke-linejoin="round"/>
<path d="M1561.76 1019.8C1529.31 1008.6 1502.23 1014.47 1496.29 1026.74C1478.22 1063.98 1564.83 1115.19 1590.53 1082.78C1601.04 1069.54 1595.17 1031.34 1561.76 1019.8Z" fill="#232323"/>
<path d="M1682.74 562.487C1685.15 519.299 1564.67 505.607 1549.03 545.914C1511.44 644.612 1484.33 746.982 1468.14 851.341C1459.2 913.555 1447.5 987.654 1456.2 1034.49C1462.57 1068.62 1497.75 1143.38 1568.55 1082.24C1669.62 994.945 1675.37 871.284 1681.39 795.612C1687.84 715.331 1678.4 641.112 1682.74 562.487Z" fill="white"/>
<path d="M1459.58 895.406C1445.43 979.328 1442.82 1069.35 1463.11 1098.92C1489.31 1137.05 1568.4 1118.83 1589.91 1081.43C1541.28 1097.35 1456.51 1007.26 1459.58 895.406Z" fill="white" stroke="#232323" stroke-width="5.75332" stroke-miterlimit="1"/>
<path d="M1462.92 867.219C1454.6 922.948 1437.61 1025.78 1459.08 1091.56C1467.29 1116.57 1506.18 1123.7 1531.96 1118.41C1550.72 1114.57 1580.55 1095.93 1589.49 1081.32" stroke="#232323" stroke-width="4.33417" stroke-linecap="round" stroke-linejoin="round"/>
<path d="M1692.09 450.142C1680.58 421.985 1617.03 413.397 1601.88 439.709C1576.83 483.162 1560.3 513.235 1549.76 544.074C1535.53 585.574 1681.74 596.199 1683.08 555.923C1684.46 514.845 1702.83 476.912 1692.09 450.142Z" fill="white"/>
<path d="M1545.19 379.378C1538.75 373.123 1525.82 380.68 1519.38 394.487C1513.81 406.456 1515.54 418.654 1523.71 420.842C1534.18 423.602 1541.24 410.331 1544.34 404.425C1547.45 398.519 1552.71 386.701 1545.19 379.378Z" fill="#232323"/>
<path d="M1741 451.909C1707.01 437.675 1598.77 403.847 1544.54 386.394C1536.87 383.977 1523.9 412.784 1528.85 416.008C1582.93 451.18 1666.2 504.222 1708.78 529.383C1725.92 511.399 1738.04 470.972 1741 451.909Z" fill="#232323"/>
<path d="M1563.45 523.248C1555.78 496.399 1556.28 450.066 1563.18 427.55C1577.29 381.524 1582.82 401.701 1586.57 420.607C1588.72 430.654 1591.41 440.581 1594.63 450.336C1599.33 463.461 1605.06 476.196 1611.78 488.42" stroke="#232323" stroke-width="10.893" stroke-linecap="round" stroke-linejoin="round"/>
<path d="M1905.42 489.839C1868.76 479.599 1748.17 444.771 1744.34 443.813C1736.66 442.047 1696.43 514.386 1704.75 537.782C1741.84 566.053 1817.51 620.974 1840.72 637.506C1875.86 617.141 1929.09 499.006 1905.42 489.839Z" fill="#042628"/>
<path d="M1766.42 453.246C1749.32 470.97 1724.58 523.095 1724.23 548.486" stroke="white" stroke-width="5.75332" stroke-linecap="round" stroke-linejoin="round"/>
<path d="M1911.91 486.617C1861.7 500.695 1815.71 573.685 1810.61 615.456C1815.82 620.055 1836.39 634.096 1838.92 637.664C1840.68 583.159 1897.56 501.31 1911.91 486.617Z" fill="#232323"/>
<path d="M2123.13 550.859C2069.05 536.208 1949.3 494.323 1911.94 486.578C1859.67 509.323 1819.32 617.87 1838.61 643.219C1884.87 677.474 1965.18 731.438 2015.62 767.609C2090.57 736.807 2143.65 578.823 2123.13 550.859Z" fill="#042628"/>
<path d="M2069.82 538.434C2016.89 555.199 1950.91 681.194 1977.57 736.809" stroke="white" stroke-width="5.75332" stroke-linecap="round" stroke-linejoin="round"/>
<path d="M1942.24 498.086C1889.51 528.773 1857.02 606.518 1862.73 656.8" stroke="white" stroke-width="5.75332" stroke-linecap="round" stroke-linejoin="round"/>
<path d="M2130.38 552.432C2156.84 565.323 2154.28 625.307 2124.66 685.911C2095.05 746.51 2049.45 785.635 2022.99 772.63C1996.52 759.63 1999.05 699.755 2028.7 639.114C2058.35 578.479 2103.95 539.51 2130.38 552.432Z" fill="white" stroke="#232323" stroke-width="3.83555" stroke-miterlimit="1"/>
<path d="M2124.78 567.086C2144.38 576.638 2139.24 627.534 2113.27 680.696C2087.31 733.857 2050.26 769.258 2030.85 759.826C2011.44 750.388 2016.42 699.378 2042.36 646.217C2068.28 593.055 2105.22 557.539 2124.78 567.086Z" fill="#232323"/>
<path d="M2104.61 582.314C2110.17 578.86 2115 577.788 2118.68 579.59C2126.35 583.428 2127.31 598.459 2122.52 619.288" stroke="white" stroke-width="5.75332" stroke-linecap="round" stroke-linejoin="round"/>
<path d="M2115.96 642.762C2114.23 647.71 2112.12 652.814 2110.17 658.105" stroke="white" stroke-width="5.75332" stroke-linecap="round" stroke-linejoin="round"/>
<path d="M1701.22 423.177C1700.8 416.078 1691.44 409.136 1677.98 413.781C1676.64 410.521 1668.54 397.516 1651.59 404.766C1637.7 389.958 1624.55 394.484 1616.11 402.656C1604.42 414.505 1596.82 429.792 1594.44 446.266C1592.83 463.563 1600.46 465.443 1619.68 440.323C1617.34 447.761 1612.93 467.823 1620.94 471.813C1627.96 475.302 1638.55 462.682 1645.26 456.469C1642.8 463.677 1637.59 476.375 1644.73 479.828C1651.13 482.932 1661.83 472.386 1668.97 467.016C1664.59 476.719 1664.59 483.625 1669.81 482.625C1688.45 478.792 1710.16 464.985 1719.02 447.724C1723.35 439.745 1725.15 424.443 1701.22 423.177Z" fill="white" stroke="#232323" stroke-width="4.37252" stroke-linecap="round" stroke-linejoin="round"/>
<path d="M1652.93 404.73C1647.14 406.111 1624.36 425.21 1617.15 445.996" stroke="#232323" stroke-width="3.79719" stroke-linecap="round" stroke-linejoin="round"/>
<path d="M1678.7 413.934C1665.28 420.84 1647.52 445.423 1643.61 461.725" stroke="#232323" stroke-width="3.79719" stroke-linecap="round" stroke-linejoin="round"/>
<path d="M1701.53 423.062C1692.7 429.62 1677.97 447.266 1667.39 471.427" stroke="#232323" stroke-width="3.79719" stroke-linecap="round" stroke-linejoin="round"/>
<path d="M1613.39 491.336C1625.12 511.627 1573.8 553.507 1564.71 527.237C1555.62 500.961 1555.93 451.216 1563.18 427.513C1577.29 381.487 1582.82 401.658 1586.57 420.57C1588.72 430.617 1591.41 440.539 1594.63 450.294C1599.69 464.487 1605.97 478.216 1613.39 491.336Z" fill="white"/>
<path d="M625.501 92.44C514.965 24.9348 409.486 10.591 282.913 142.299C205.663 222.846 130.178 297.565 1.07422 308.534C99.8034 346.508 233.126 369.289 339.449 278.159C428.012 202.252 526.777 182.805 626.345 322.034C627.267 273.862 624.658 174.289 625.501 92.44Z" fill="#042628"/>
<path d="M627.266 13.8086C627.266 366.027 627.609 919.767 627.802 1444.78" stroke="#232323" stroke-width="27.6159" stroke-linecap="round" stroke-linejoin="round"/>
<path d="M643.342 411.747C617.066 404.69 586.42 417.81 574.529 426.133C544.154 447.419 515.576 481.289 504.993 510.055C490.8 548.831 564.139 612.539 602.685 577.174C619.524 561.836 643.571 554.393 667.545 540.966C682.118 532.799 675.941 515.575 674.024 507.138C679.279 498.549 674.024 486.424 667.425 479.716C672.743 471.758 671.904 461.185 665.394 454.169C670.42 436.68 651.701 414.013 643.342 411.747Z" fill="white"/>
<path d="M595.391 379.375C588.876 393.922 584.199 409.23 581.469 424.943C579.167 436.87 612.464 433.032 615.761 421.334C620.324 405.266 606.173 355.172 595.391 379.375Z" fill="white"/>
<path d="M668.001 507.635C656.955 508.094 653.158 544.724 663.705 541.427C678.736 537.094 692.981 530.385 705.897 521.557C737.043 499.964 685.262 506.906 668.001 507.635Z" fill="white"/>
<path d="M678.399 504.836C665.357 506.206 652.581 509.445 640.461 514.466" stroke="#232323" stroke-width="4.2191" stroke-linecap="round" stroke-linejoin="round"/>
<path d="M668.766 479.6C656.427 476.48 643.62 475.657 630.984 477.183" stroke="#232323" stroke-width="4.2191" stroke-linecap="round" stroke-linejoin="round"/>
<path d="M667.422 453.937C655.073 450.422 642.359 448.328 629.531 447.688" stroke="#232323" stroke-width="4.2191" stroke-linecap="round" stroke-linejoin="round"/>
<path d="M580.125 420.34C586.38 415.392 621.974 403.465 641.995 409.137" stroke="#232323" stroke-width="4.2191" stroke-linecap="round" stroke-linejoin="round"/>
</svg>
