<svg width="2501" height="2000" viewBox="0 0 2501 2000" fill="none" xmlns="http://www.w3.org/2000/svg">
<mask id="mask0_433_69900" style="mask-type:luminance" maskUnits="userSpaceOnUse" x="1190" y="1570" width="342" height="28">
<path d="M1190.5 1570.67H1531.17V1598H1190.5V1570.67Z" fill="white"/>
</mask>
<g mask="url(#mask0_433_69900)">
<path d="M1190.5 1584.59C1190.5 1591.91 1196.47 1598 1203.78 1598H1517.96L1530.02 1571.3H1203.78C1196.47 1571.18 1190.5 1577.16 1190.5 1584.59Z" fill="#042628"/>
</g>
<mask id="mask1_433_69900" style="mask-type:luminance" maskUnits="userSpaceOnUse" x="1509" y="1561" width="25" height="37">
<path d="M1509.84 1561.33H1533.84V1598H1509.84V1561.33Z" fill="white"/>
</mask>
<g mask="url(#mask1_433_69900)">
<path d="M1516.75 1597.88L1528.93 1571.18L1533.19 1561.8L1532.95 1561.67L1528.68 1571.18H1522.23L1510.05 1597.88H1516.75Z" fill="white"/>
</g>
<mask id="mask2_433_69900" style="mask-type:luminance" maskUnits="userSpaceOnUse" x="1516" y="1219" width="568" height="379">
<path d="M1516.5 1219H2083.5V1598H1516.5V1219Z" fill="white"/>
</mask>
<g mask="url(#mask2_433_69900)">
<path d="M1516.74 1597.88H1919.71L2082.41 1236.55C2085.21 1230.34 2082.41 1222.9 2076.2 1220.1C2074.62 1219.36 2072.79 1219 2071.09 1219H1704.53C1694.05 1219 1684.55 1225.09 1680.29 1234.72L1533.07 1561.67L1528.8 1571.18L1516.74 1597.88Z" fill="#042628"/>
</g>
<path d="M1490.56 1584.71C1490.56 1587 1492.42 1588.86 1494.7 1588.86C1496.99 1588.86 1498.84 1587 1498.84 1584.71C1498.84 1582.42 1496.99 1580.57 1494.7 1580.57C1492.42 1580.57 1490.56 1582.42 1490.56 1584.71Z" fill="#232323"/>
<path d="M1475.34 1589.22C1478.02 1589.22 1480.21 1587.02 1480.21 1584.34C1480.21 1581.67 1478.02 1579.47 1475.34 1579.47L1446.97 1579.35C1444.29 1579.35 1442.09 1581.54 1442.09 1584.22C1442.09 1586.9 1444.29 1589.1 1446.97 1589.1L1475.34 1589.22Z" fill="#232323"/>
<path d="M1818.63 1444.52C1830.45 1444.52 1840.56 1435.99 1842.5 1424.29C1844.33 1413.44 1837.02 1403.07 1826.19 1401.12C1817.18 1399.54 1808.53 1405.63 1807.07 1414.78C1805.73 1422.33 1810.84 1429.53 1818.39 1430.87C1821.81 1431.48 1825.21 1430.5 1827.89 1428.31C1829.23 1427.21 1829.35 1425.26 1828.26 1424.04C1827.16 1422.82 1825.21 1422.58 1823.99 1423.68C1822.78 1424.78 1821.07 1425.14 1819.49 1424.9C1815.23 1424.16 1812.43 1420.14 1813.15 1415.87C1814.13 1410.15 1819.61 1406.24 1825.34 1407.22C1832.88 1408.56 1838 1415.75 1836.66 1423.31C1834.96 1433.18 1825.58 1439.89 1815.72 1438.18C1802.93 1435.99 1794.4 1423.92 1796.6 1411.12C1799.39 1394.78 1812.92 1385.28 1829.35 1388.08C1839.34 1389.79 1847.5 1394.91 1852.37 1402.58C1857.36 1410.51 1858.58 1420.75 1855.78 1431.23C1855.3 1432.82 1856.27 1434.53 1857.97 1435.01C1859.56 1435.5 1861.26 1434.53 1861.75 1432.82C1865.03 1420.5 1863.58 1408.68 1857.61 1399.29C1851.76 1390.15 1842.14 1384.06 1830.45 1382.1C1810.72 1378.69 1794.04 1390.51 1790.63 1410.15C1787.95 1426.23 1798.67 1441.47 1814.74 1444.28C1815.84 1444.4 1817.18 1444.52 1818.63 1444.52Z" fill="white"/>
<path d="M801.216 987.187C772.982 928.724 754.742 856.093 750.034 800.474C769.102 799.771 788.404 797.177 796.055 790.812C827.362 764.771 807.591 690.765 802.409 667.198C810.414 660.599 818.539 643.75 805.94 640.093C800.06 638.328 794.17 636.088 789.815 631.495C785.461 626.896 782.284 620.062 779.461 614.526C777.341 610.26 775.336 605.937 773.456 601.562C770.748 595.432 768.039 589.422 765.102 583.416C765.102 583.416 765.102 583.297 764.982 583.297C762.862 578.817 760.508 574.458 758.039 570.218C749.914 556.073 740.383 542.76 729.435 530.62C702.836 501.635 666.112 484.547 626.565 486.312C609.024 487.255 591.722 491.265 575.362 497.979C575.242 497.979 575.242 498.099 575.128 498.099C574.071 498.567 573.008 498.922 571.951 499.396C478.492 539.458 473.081 653.411 526.045 710.562C527.107 710.328 530.05 709.62 530.399 709.62C530.987 709.505 550.055 702.552 561.123 699.25C637.508 840.067 587.487 980.885 587.487 980.885L733.201 1050.65L801.216 987.187Z" fill="white"/>
<path d="M733.194 1053.64C732.757 1053.64 732.314 1053.55 731.903 1053.35L586.184 983.592C584.804 982.926 584.142 981.327 584.653 979.884C584.778 979.535 597.085 944.322 599.96 892.499C602.585 845.238 597.658 774.16 559.637 702.837C551.851 705.259 541.455 708.926 535.616 710.983C531.476 712.441 531.325 712.493 530.986 712.561C530.872 712.582 530.757 712.598 530.642 712.608C530.194 712.681 528.58 713.056 527.793 713.238L526.694 713.488C525.653 713.723 524.564 713.379 523.84 712.598C495.116 681.603 483.095 634.952 492.465 590.842C501.601 547.821 529.408 514.363 570.762 496.634C571.319 496.394 571.877 496.165 572.444 495.952C572.882 495.78 573.314 495.613 573.747 495.426C573.97 495.29 574.189 495.196 574.398 495.129C591.231 488.243 608.726 484.269 626.398 483.316C665.299 481.577 703.642 498.082 731.642 528.592C742.512 540.644 752.257 554.139 760.637 568.723C763.267 573.243 765.507 577.441 767.46 581.525C767.637 581.759 767.783 582.019 767.887 582.295C770.929 588.514 773.679 594.644 776.194 600.348C778.059 604.681 780.038 608.957 782.137 613.181C782.455 613.801 782.788 614.462 783.127 615.134C785.616 620.077 788.439 625.681 791.991 629.426C795.882 633.535 801.408 635.603 806.799 637.223C812.622 638.91 814.58 642.811 815.194 645.78C816.689 653.004 811.632 662.639 805.715 668.264C805.991 669.488 806.299 670.816 806.627 672.243C813.163 700.821 828.481 767.733 797.97 793.113C791.116 798.816 776.09 802.249 753.293 803.332C758.778 862.702 778.059 932.337 803.913 985.879C804.486 987.061 804.22 988.478 803.262 989.374L735.247 1052.84C734.689 1053.35 733.955 1053.64 733.194 1053.64ZM591.153 979.322L732.648 1047.06L797.554 986.499C771.429 931.665 752.116 860.717 747.038 800.728C746.97 799.91 747.236 799.103 747.783 798.488C748.325 797.874 749.095 797.509 749.918 797.478C772.476 796.639 788.179 793.457 794.132 788.504C821.809 765.483 807.069 701.082 800.773 673.587C800.283 671.441 799.84 669.514 799.476 667.842C799.231 666.743 799.627 665.603 800.497 664.884C805.543 660.723 810.392 652.186 809.319 646.999C809.054 645.717 808.33 643.91 805.101 642.973C798.887 641.108 792.491 638.681 787.632 633.556C783.476 629.17 780.439 623.144 777.762 617.832C777.429 617.17 777.101 616.519 776.778 615.884C774.632 611.566 772.601 607.186 770.694 602.749C768.231 597.176 765.538 591.17 762.575 585.098C762.455 584.936 762.351 584.764 762.262 584.577C760.33 580.499 758.101 576.295 755.439 571.728C747.267 557.499 737.767 544.348 727.2 532.629C700.424 503.446 663.783 487.655 626.689 489.311C609.731 490.223 592.898 494.045 576.694 500.67C576.507 500.785 576.314 500.868 576.137 500.931C575.632 501.15 575.127 501.348 574.622 501.54C574.132 501.733 573.648 501.92 573.163 502.134C533.616 519.092 507.054 551.03 498.33 592.092C489.486 633.723 500.497 677.665 527.075 707.249C528.59 706.905 529.325 706.743 529.773 706.676C530.335 706.488 531.934 705.926 533.616 705.332C540.116 703.04 552.205 698.78 560.257 696.379C561.616 695.973 563.075 696.577 563.752 697.821C603.549 771.186 608.658 844.478 605.939 893.045C603.439 937.65 594.038 970.217 591.153 979.322ZM530.601 712.613C530.533 712.613 530.465 712.618 530.392 712.618C530.439 712.618 530.512 712.618 530.601 712.613Z" fill="#232323"/>
<path d="M713.658 606.864C700.007 617.588 696.356 634.082 702.361 640.093C708.361 645.989 723.897 641.39 735.314 628.312C747.085 614.879 752.267 600.265 746.616 595.082C740.731 589.895 727.194 596.259 713.658 606.864ZM784.163 712.447C782.163 715.041 779.569 717.046 776.627 718.223C773.684 719.52 770.507 720.223 767.33 720.108C765.799 719.989 764.153 719.754 762.741 719.28C761.21 718.812 759.799 718.223 758.387 717.4C755.559 715.749 753.325 713.39 751.674 710.562L751.559 710.447C750.736 709.15 749.085 708.676 747.793 709.504C746.731 710.093 746.262 711.27 746.496 712.447C747.439 717.046 750.028 721.286 753.913 724.114C755.793 725.53 757.913 726.707 760.147 727.53C762.387 728.358 764.741 728.827 767.095 728.947C771.804 729.062 776.512 727.884 780.512 725.411C782.512 724.233 784.278 722.702 785.929 721.051C787.575 719.286 788.752 717.161 789.46 714.921C789.929 713.39 788.986 711.858 787.575 711.504C786.397 711.15 785.22 711.624 784.517 712.567L784.163 712.447ZM733.783 658.358C738.965 652.942 751.559 640.332 760.267 624.421C761.444 622.181 764.267 621.358 766.507 622.536C772.272 625.718 780.632 632.551 773.33 642.687C764.267 655.181 742.496 664.608 734.726 662.249C733.429 661.895 732.84 660.483 733.194 659.306C733.429 658.952 733.549 658.598 733.783 658.364V658.358Z" fill="#232323"/>
<path d="M702.125 491.62C659.047 471.349 721.427 385.683 746.38 389.099C767.333 391.808 754.151 516.011 702.125 491.62Z" fill="white"/>
<mask id="mask3_433_69900" style="mask-type:luminance" maskUnits="userSpaceOnUse" x="683" y="386" width="77" height="113">
<path d="M683.164 386H759.164V498.667H683.164V386Z" fill="white"/>
</mask>
<g mask="url(#mask3_433_69900)">
<path d="M715.13 497.77C710.531 497.77 705.745 496.629 700.854 494.333H700.849C685.719 487.213 680.776 471.848 686.932 451.077C696.479 418.885 728.922 383.681 746.792 386.124C749.813 386.515 753.979 388.78 756.542 397.317C763.313 419.859 755.682 471.614 733.875 490.421C728.208 495.312 721.87 497.77 715.13 497.77ZM703.401 488.905C713.307 493.546 722.245 492.536 729.958 485.885C749.802 468.765 756.984 419.65 750.797 399.041C749.537 394.843 747.787 392.301 746 392.072C732.589 390.234 701.672 422.478 692.688 452.78C689 465.223 687.865 481.593 703.401 488.9V488.905Z" fill="#232323"/>
</g>
<mask id="mask4_433_69900" style="mask-type:luminance" maskUnits="userSpaceOnUse" x="275" y="465" width="542" height="1031">
<path d="M275.5 465.332H816.5V1496H275.5V465.332Z" fill="white"/>
</mask>
<g mask="url(#mask4_433_69900)">
<path d="M606.665 687.7C634.915 697.716 642.801 680.981 656.577 662.601C666.931 648.815 679.644 604.856 688.118 588.95C705.066 593.31 742.379 594.961 767.92 585.653C874.207 546.763 783.223 412.898 707.775 488.315C664.577 452.966 552.405 467.106 497.441 547.825C452.243 614.169 468.134 680.867 476.962 721.758C487.556 771.367 486.728 878.481 440.238 921.492C393.743 964.508 336.186 992.549 343.483 1107.8C351.019 1226.81 287.222 1220.34 276.514 1315.31C261.327 1451.65 420.108 1553.23 525.806 1458.25C581.129 1408.52 475.311 1073.74 545.108 1017.3C614.91 960.737 620.441 869.997 591.014 744.497C591.014 744.617 590.894 682.164 606.67 687.7H606.665Z" fill="#232323"/>
</g>
<path d="M606.665 687.703C606.665 687.703 572.181 668.729 543.228 687.583C515.801 705.38 531.103 750.51 590.54 763.354C602.546 765.713 614.905 765.948 627.15 764.297" fill="white"/>
<path d="M611.465 768.366C604.158 768.366 596.97 767.673 589.96 766.298C548.97 757.444 530.778 734.34 527.642 717.246C525.231 704.116 530.314 692.387 541.59 685.069C571.699 665.465 606.637 684.267 608.111 685.08C609.564 685.877 610.095 687.7 609.293 689.147C608.496 690.601 606.673 691.132 605.22 690.335C604.892 690.153 571.929 672.476 544.861 690.101C535.715 696.033 531.595 705.533 533.543 716.163C536.345 731.444 553.127 752.205 591.173 760.429C602.569 762.663 614.559 762.97 626.746 761.33C628.382 761.121 629.877 762.267 630.095 763.903C630.319 765.533 629.179 767.038 627.548 767.272C622.215 767.996 616.845 768.361 611.465 768.366Z" fill="#232323"/>
<path d="M614.911 735.074C616.557 735.428 618.203 734.251 618.557 732.6C618.677 731.657 618.437 730.714 617.854 730.006C590.661 699.839 560.531 710.443 559.234 710.917C557.588 711.506 556.765 713.272 557.354 714.923C557.942 716.574 559.708 717.397 561.354 716.808C562.531 716.339 588.895 707.261 613.145 734.131C613.635 734.6 614.244 734.928 614.911 735.074ZM750.869 797.443C742.192 797.813 736.536 797.699 719.942 795.339C711.583 794.162 697.578 790.746 693.338 798.173C689.026 805.818 705.635 833.256 754.718 842.381C752.573 826.933 751.89 809.548 750.869 797.443Z" fill="#232323"/>
<path d="M955.065 1203.61C955.065 1203.61 1051.75 1334.12 1094.53 1398.16C1137.3 1462.2 1145.06 1598.86 1145.06 1598.86C1050.55 1607.73 958.138 1608.21 900.805 1467.33L866.555 1363.75L955.065 1203.61Z" fill="white"/>
<path d="M1088.23 1605.11C1060.75 1605.11 1033.47 1601.99 1007.9 1592.05C960.263 1573.5 924.325 1533.08 898.028 1468.46C898.002 1468.39 897.976 1468.33 897.956 1468.27L863.706 1364.69C863.445 1363.89 863.523 1363.02 863.929 1362.3L952.44 1202.15C952.935 1201.26 953.846 1200.68 954.867 1200.61C955.888 1200.54 956.867 1201 957.476 1201.82C958.445 1203.12 1054.7 1333.12 1097.02 1396.49C1139.76 1460.47 1147.74 1593.07 1148.05 1598.68C1148.14 1600.29 1146.95 1601.69 1145.34 1601.84C1126.56 1603.6 1107.35 1605.11 1088.23 1605.11ZM903.622 1466.29C958.299 1600.55 1043.81 1605.11 1141.87 1596.13C1140.44 1576.11 1130.46 1457.34 1092.03 1399.82C1053.84 1342.64 971.581 1231 955.435 1209.14L869.815 1364.05L903.622 1466.29Z" fill="#232323"/>
<path d="M1145.06 1598.85C1169.34 1599.35 1211.3 1586.28 1219.78 1545.22C1283.46 1141.38 1146.45 840.421 1091.72 752.041C1088.77 747.327 1085.48 742.853 1081.72 738.843C1060.06 715.864 1059.35 736.957 1074.18 769.129C1061.35 750.509 1059.59 743.556 1035.93 715.275C1015.68 691.119 994.144 688.41 1025.1 752.28C1025.1 752.28 1010.03 731.655 996.967 717.515C960.248 677.567 958.477 701.843 978.254 741.671C991.082 767.718 1013.92 817.327 1013.92 817.327C1013.92 817.327 1007.68 807.192 978.608 774.666C945.415 737.551 926.582 733.775 953.535 795.645C992.259 884.614 998.264 939.291 1004.74 1079.4C1009.03 1172.06 997.42 1262.83 995.056 1343.06" fill="white"/>
<path d="M1146.44 1601.86C1145.95 1601.86 1145.47 1601.86 1145 1601.85C1143.34 1601.82 1142.03 1600.45 1142.06 1598.79C1142.09 1597.13 1143.46 1595.82 1145.12 1595.85C1169.59 1596.35 1208.84 1583.13 1216.83 1544.68C1244.26 1370.71 1237.66 1197.9 1197.24 1031.04C1159.24 874.187 1104.92 779.046 1089.17 753.619C1086.09 748.682 1082.93 744.515 1079.53 740.9C1070.79 731.624 1067.81 732.171 1067.78 732.182C1066.4 733.218 1065.92 744.031 1076.91 767.874C1077.56 769.291 1077.03 770.968 1075.67 771.739C1074.31 772.51 1072.59 772.114 1071.71 770.833C1067.76 765.088 1064.85 760.463 1062.04 755.984C1055.81 746.057 1049.93 736.687 1033.63 717.202C1023.09 704.63 1015.44 701.531 1013.69 702.666C1013.61 702.713 1006.85 707.744 1027.8 750.973C1028.48 752.369 1027.98 754.051 1026.65 754.853C1025.32 755.65 1023.59 755.301 1022.68 754.046C1022.53 753.843 1007.56 733.4 994.765 719.551C974.693 697.718 969.667 700.176 969.62 700.208C967.385 701.744 968.406 715.093 980.943 740.343C993.646 766.13 1016.42 815.577 1016.65 816.072C1017.31 817.515 1016.73 819.223 1015.33 819.973C1013.94 820.723 1012.19 820.249 1011.36 818.9C1011.3 818.801 1004.74 808.411 976.37 776.666C954.932 752.692 945.969 749.947 944.521 750.874C944.463 750.911 939.078 754.947 956.286 794.447C995.614 884.796 1001.35 941.176 1007.73 1079.26C1010.54 1139.86 1006.61 1198.94 1002.81 1256.07C1000.79 1286.53 998.875 1315.3 998.057 1343.15C997.974 1344.78 996.604 1346.05 994.969 1346C993.338 1345.95 992.047 1344.61 992.057 1342.98C992.88 1315.01 994.797 1286.19 996.828 1255.67C1000.61 1198.71 1004.54 1139.8 1001.74 1079.54C995.396 942.27 989.703 886.26 950.786 796.843C933.547 757.275 936.651 748.791 941.281 745.827C943.729 744.26 951.172 739.489 980.844 772.671C988.963 781.755 995.312 789.103 1000.25 794.978C992.604 778.572 982.552 757.182 975.562 742.999C969.536 730.864 956.557 701.9 966.224 695.265C972.229 691.14 982.703 697.567 999.177 715.489C1003.6 720.281 1008.28 725.838 1012.53 731.093C1010.24 725.103 1008.61 719.869 1007.64 715.426C1005.57 705.999 1006.48 700.182 1010.43 697.635C1019.23 691.942 1033.93 708.228 1038.23 713.353C1050.78 728.359 1057.26 737.468 1062.42 745.4C1060.55 737.369 1060.3 729.994 1064.44 727.208C1070.15 723.353 1078.28 730.827 1083.9 736.791C1087.57 740.697 1090.96 745.171 1094.27 750.458C1110.13 776.083 1164.86 871.916 1203.07 1029.63C1221.46 1105.54 1232.98 1184.11 1237.32 1263.18C1242.46 1356.7 1237.56 1451.74 1222.74 1545.69C1222.73 1545.73 1222.73 1545.78 1222.72 1545.83C1214.18 1587.17 1172.99 1601.86 1146.43 1601.86H1146.44ZM301.937 1553.11C302.172 1558.77 317.354 1392.5 735.437 1377.77C533.458 1635.96 283.927 1660.7 301.937 1553.11Z" fill="#232323"/>
<path d="M960.716 1344.9C963.659 1329.34 979.451 1274.17 989.924 1246.01C957.32 1198.52 909.987 1109.8 891.273 1066.21C839.128 944.83 804.763 919.497 773.57 925.387L794.258 988.679L960.716 1344.9Z" fill="#4CAF7A"/>
<path d="M794.26 988.675C794.26 988.675 790.052 997.264 768.865 997.858C674.818 1000.45 656.578 925.149 587.953 932.457L564.13 1495.38L545.922 1644.22C545.922 1644.22 954.927 1608.09 1066.07 1532.9C1054.3 1511.7 961.896 1349.6 960.719 1344.89L794.26 988.675Z" fill="#4CAF7A"/>
<path d="M1005.52 1425.83C914.313 1265.93 832.479 1087.56 794.125 988.262L788.969 993.194C820.771 1073.36 909.615 1272.89 1012.32 1448.88C1012.32 1448.88 1008.44 1434.2 1005.52 1425.83Z" fill="white"/>
<path d="M1338.78 1524.83C1346.55 1536.15 1341.6 1551.82 1329.01 1557.24C1309.94 1565.49 1270.16 1578.92 1187.89 1598.72C1038.05 1634.54 858.084 1783.37 657.162 1770.18C495.438 1759.57 436.354 1650.8 417.641 1542.28C375.62 1207.37 504.5 933.869 595.839 945.536C667.875 937.405 731.927 1485.23 731.927 1485.23C777.714 1470.85 879.271 1445.41 927.646 1436.57C976.021 1427.73 1168.58 1408.65 1191.77 1409.23C1231.32 1408.41 1258.98 1409.82 1267.8 1412.65C1299.94 1422.67 1295.94 1446.59 1295.94 1446.59C1318.06 1461.08 1312.77 1483.23 1312.77 1483.23C1323.25 1491.37 1329.6 1503.74 1330.19 1516.94C1333.72 1518.71 1336.54 1521.54 1338.78 1524.83Z" fill="white"/>
<mask id="mask5_433_69900" style="mask-type:luminance" maskUnits="userSpaceOnUse" x="405" y="941" width="941" height="833">
<path d="M405.836 941.332H1345.5V1774H405.836V941.332Z" fill="white"/>
</mask>
<g mask="url(#mask5_433_69900)">
<path d="M682.253 1773.99C673.857 1773.99 665.435 1773.72 656.971 1773.17C582.253 1768.27 523.227 1741.95 481.529 1694.94C448.081 1657.22 425.591 1606.03 414.685 1542.78C414.675 1542.74 414.669 1542.69 414.664 1542.64C395.352 1388.73 413.534 1264.17 432.19 1186.78C455.263 1091.08 492.19 1012.56 533.503 971.358C554.784 950.139 576.346 940.176 595.878 942.519C614.05 940.858 631.878 968.014 650.352 1025.51C664.669 1070.07 679.3 1132.74 693.846 1211.79C716.367 1334.14 731.763 1458.77 734.482 1481.3C783.565 1466.18 880.768 1442.09 927.107 1433.62C973.919 1425.07 1167.62 1405.67 1191.78 1406.23C1230.49 1405.43 1259.25 1406.76 1268.72 1409.8C1297.39 1418.73 1299.23 1438.69 1299.05 1445.08C1317.26 1457.95 1316.74 1476.08 1316 1481.99C1325.91 1490.29 1332.05 1502.2 1333.08 1515.11C1336.16 1516.98 1338.9 1519.68 1341.25 1523.13C1345.38 1529.14 1346.57 1536.65 1344.51 1543.74C1342.4 1551.07 1337.18 1556.99 1330.2 1559.99C1312.22 1567.77 1273.05 1581.31 1188.59 1601.63C1134.32 1614.61 1075.83 1642.61 1013.9 1672.26C913.883 1720.14 801.398 1773.98 682.253 1773.99ZM420.612 1541.83C444.914 1682.65 524.57 1758.47 657.362 1767.18C665.669 1767.73 673.961 1767.99 682.211 1767.99C800.05 1767.99 911.867 1714.45 1011.3 1666.85C1073.53 1637.06 1132.3 1608.93 1187.19 1595.8C1271.24 1575.58 1310.05 1562.17 1327.82 1554.49C1333.15 1552.19 1337.13 1547.67 1338.75 1542.08C1340.3 1536.72 1339.41 1531.05 1336.3 1526.53L1336.29 1526.51C1334.14 1523.33 1331.63 1521.01 1328.85 1519.62C1327.87 1519.13 1327.24 1518.15 1327.19 1517.07C1326.64 1504.67 1320.71 1493.2 1310.93 1485.6C1310 1484.88 1309.58 1483.68 1309.85 1482.54C1310.04 1481.72 1314.3 1462.2 1294.29 1449.09C1293.3 1448.44 1292.78 1447.26 1292.98 1446.09C1293.11 1445.23 1296 1424.58 1266.91 1415.51C1260.03 1413.31 1236.72 1411.3 1191.83 1412.23H1191.7C1167.99 1411.63 974.867 1430.99 928.185 1439.52C881.82 1447.99 779.576 1473.41 732.826 1488.09C731.971 1488.36 731.044 1488.23 730.294 1487.74C729.544 1487.26 729.05 1486.46 728.945 1485.58C728.789 1484.21 712.659 1347.14 687.94 1212.85C644.852 978.707 611.951 946.733 596.18 948.514C595.94 948.54 595.701 948.54 595.461 948.509C577.742 946.243 557.784 955.613 537.737 975.603C497.185 1016.04 460.841 1093.52 438.023 1188.19C419.487 1265.08 401.419 1388.84 420.607 1541.83H420.612Z" fill="#232323"/>
</g>
<path d="M1295.93 1449.59C1295.44 1449.59 1294.93 1449.46 1294.47 1449.2C1284.31 1443.51 1262.81 1443.19 1242.17 1448.43C1240.58 1448.82 1238.97 1447.85 1238.56 1446.26C1238.16 1444.67 1239.11 1443.04 1240.7 1442.62C1263.04 1436.95 1285.83 1437.49 1297.4 1443.97C1298.59 1444.64 1299.19 1446.03 1298.84 1447.35C1298.49 1448.67 1297.3 1449.59 1295.94 1449.59H1295.93ZM1256.62 1487.65C1255.15 1487.65 1253.9 1486.58 1253.67 1485.14C1253.43 1483.69 1254.27 1482.28 1255.66 1481.81C1274.45 1475.49 1301.38 1472.94 1314.31 1480.67C1315.71 1481.52 1316.16 1483.35 1315.32 1484.76C1314.47 1486.17 1312.65 1486.64 1311.23 1485.81C1301.4 1479.94 1277.84 1480.68 1257.58 1487.5C1257.27 1487.6 1256.95 1487.65 1256.62 1487.65ZM1275.92 1522.41C1274.46 1522.42 1273.21 1521.36 1272.97 1519.92C1272.72 1518.48 1273.55 1517.07 1274.92 1516.59C1290.43 1511.13 1314.51 1507.21 1331.33 1514.17C1332.33 1514.57 1333.03 1515.48 1333.17 1516.55C1333.32 1517.61 1332.88 1518.68 1332.02 1519.33C1331.17 1519.98 1330.03 1520.13 1329.04 1519.71C1314.76 1513.8 1292.57 1516.72 1276.92 1522.24C1276.59 1522.36 1276.25 1522.41 1275.92 1522.41Z" fill="#232323"/>
<path d="M587.956 932.453C544.711 935.026 462.841 944.24 383.977 1264.76C334.664 1465.09 321.596 1500.44 301.586 1551.11C335.721 1483.94 445.185 1483.94 545.232 1478.05C661.872 1471.22 705.305 1456.84 727.669 1441.52C703.914 1236.19 720.159 924.599 587.956 932.458V932.453Z" fill="#4CAF7A"/>
<path d="M717.693 1287.83C713.443 1215.75 708.625 1134.04 696.38 1070.82C682.469 999.074 668.37 958.381 635.854 940.975C626.552 935.996 615.156 933.032 604.172 932.261C604.172 932.261 614.109 932.22 633.146 945.985C694.818 990.558 700.682 1136.71 711.953 1287.63L711.984 1288.13C713.313 1310.45 714.234 1327.67 714.974 1341.51C717.083 1381.02 723.781 1444.04 723.781 1444.04L729.401 1441.25C729.401 1441.25 722.146 1362.56 717.693 1287.83ZM656.578 669.204C702.599 605.215 704.953 519.782 707.776 488.438C707.776 488.438 696.594 472.412 659.99 472.881C659.99 502.694 663.87 599.324 606.786 687.704C627.031 696.423 643.042 687.938 656.578 669.204Z" fill="white"/>
<path d="M622.059 694.104C616.736 694.104 611.247 692.891 605.601 690.458C604.788 690.109 604.174 689.422 603.919 688.578C603.663 687.734 603.788 686.818 604.268 686.078C657.794 603.208 657.226 512.453 657.012 478.286C657.002 476.297 656.991 474.495 656.991 472.88C656.991 471.24 658.309 469.906 659.95 469.885C697.715 469.401 709.741 486.016 710.236 486.724C710.643 487.302 710.83 488.005 710.762 488.708C710.507 491.578 710.252 494.87 709.96 498.677C707.143 535.521 701.273 612.193 659.012 670.953L659.007 670.958C647.877 686.365 635.497 694.104 622.059 694.104ZM611.283 686.229C627.294 691.698 640.986 685.661 654.143 667.448C695.419 610.057 701.2 534.521 703.981 498.219C704.231 494.922 704.455 492.016 704.679 489.406C702.012 486.526 690.57 476.234 662.997 475.88L663.012 478.245C663.226 512.479 663.799 602.708 611.283 686.229Z" fill="#232323"/>
<path d="M708.455 463.411C712.955 474.718 708.861 486.957 699.315 490.749C689.768 494.541 678.382 488.452 673.887 477.145C669.393 465.838 673.486 453.598 683.028 449.806C692.575 446.015 703.96 452.103 708.455 463.411Z" fill="white"/>
<path d="M693.389 494.87C690.634 494.87 687.832 494.292 685.134 493.141C678.946 490.501 673.842 485.099 671.128 478.329C665.993 465.521 670.8 451.49 681.852 447.047C686.665 445.115 692.118 445.245 697.201 447.417C703.389 450.058 708.498 455.459 711.212 462.23C716.347 475.037 711.535 489.068 700.488 493.511C698.233 494.417 695.821 494.876 693.389 494.87ZM684.087 452.61C676.108 455.818 672.79 466.355 676.696 476.099C678.821 481.407 682.759 485.605 687.493 487.626C691.102 489.172 694.925 489.282 698.248 487.948C706.233 484.74 709.55 474.204 705.644 464.459C703.514 459.157 699.582 454.954 694.847 452.933C691.233 451.391 687.415 451.277 684.087 452.61Z" fill="#232323"/>
<path d="M679.526 490.792C699.657 445.427 592.193 420.683 574.891 440.24C560.297 456.74 655.282 545.474 679.526 490.792Z" fill="white"/>
<path d="M653.686 511.384C623.91 511.384 582.79 476.025 572.686 453.739C568.837 445.249 570.54 440.634 572.644 438.254C581.17 428.614 603.524 430.218 612.738 431.358C631.462 433.666 650.608 440.155 663.946 448.713C682.785 460.801 689.295 476.181 682.274 492.004C676.675 504.629 666.847 511.327 653.837 511.379H653.686V511.384ZM599.186 436.515C588.748 436.515 580.529 438.395 577.139 442.223C575.842 443.692 576.212 446.989 578.149 451.265C587.415 471.697 626.503 505.384 653.681 505.384H653.816C664.425 505.343 672.154 500.025 676.79 489.577C684.066 473.176 672.056 461.046 660.701 453.759C642.988 442.395 617.634 436.52 599.186 436.52V436.515Z" fill="#232323"/>
<path d="M1014.51 923.855C1009.42 911.246 988.496 844.845 1004.27 842.673C1020.04 840.496 1083.75 949.074 1083.75 949.074" fill="white"/>
<path d="M1083.75 952.073C1082.72 952.073 1081.72 951.542 1081.16 950.589C1081 950.318 1065.06 923.193 1047.41 896.698C1014.35 847.053 1006.01 845.459 1004.67 845.641C1004.17 845.709 1003.58 845.922 1002.98 846.959C996.69 857.813 1011.15 907.511 1017.29 922.735C1017.71 923.73 1017.56 924.881 1016.9 925.735C1016.24 926.594 1015.16 927.026 1014.09 926.87C1013.02 926.709 1012.11 925.985 1011.73 924.974C1008.61 917.256 988.929 859.235 997.789 843.954C999.195 841.526 1001.29 840.053 1003.86 839.698C1007.15 839.245 1012.61 840.74 1025.65 856.464C1032.96 865.282 1041.97 877.704 1052.42 893.396C1070.16 920.032 1086.17 947.287 1086.34 947.558C1086.88 948.485 1086.89 949.631 1086.35 950.563C1085.82 951.495 1084.83 952.073 1083.75 952.073ZM1141.47 937.651C1140.28 937.651 1139.2 936.948 1138.72 935.86C1128.8 913.287 1094.05 891.323 1075.32 891.386C1073.66 891.396 1072.31 890.058 1072.31 888.401C1072.3 886.745 1073.64 885.396 1075.29 885.391H1075.4C1096.26 885.391 1133.31 908.641 1144.21 933.443C1144.62 934.37 1144.53 935.443 1143.98 936.292C1143.42 937.141 1142.48 937.651 1141.47 937.651H1141.47ZM1023.78 835.386C1022.82 835.386 1021.88 834.928 1021.29 834.073C1021.25 834 1016.28 826.714 1011.38 818.922C1010.5 817.521 1010.92 815.667 1012.32 814.787C1013.73 813.907 1015.58 814.329 1016.46 815.73C1021.3 823.422 1026.21 830.62 1026.25 830.693C1026.88 831.615 1026.94 832.803 1026.43 833.787C1025.91 834.766 1024.89 835.381 1023.78 835.386ZM1059.9 818.454C1058.67 818.459 1057.58 817.714 1057.12 816.584C1057 816.287 1044.89 786.657 1022.62 753.969C1022 753.084 1021.91 751.933 1022.37 750.959C1022.84 749.985 1023.79 749.339 1024.87 749.261C1025.94 749.188 1026.98 749.693 1027.58 750.594C1050.23 783.839 1062.55 814.032 1062.68 814.334C1063.05 815.256 1062.94 816.308 1062.39 817.136C1061.83 817.959 1060.9 818.459 1059.9 818.459V818.454ZM1092.87 807.266C1091.73 807.266 1090.69 806.615 1090.18 805.594C1090.09 805.412 1080.99 787.037 1071.58 770.62C1071.03 769.688 1071.02 768.537 1071.56 767.599C1072.11 766.667 1073.11 766.094 1074.18 766.099C1075.27 766.11 1076.26 766.698 1076.78 767.641C1086.29 784.219 1095.47 802.75 1095.56 802.938C1096.02 803.865 1095.97 804.969 1095.42 805.849C1094.88 806.73 1093.91 807.266 1092.88 807.266H1092.87Z" fill="#232323"/>
<path d="M731.927 1485.23C696.063 1496.9 631.922 1525.39 631.922 1525.39Z" fill="white"/>
<path d="M631.929 1528.38C630.512 1528.39 629.283 1527.4 628.986 1526.01C628.695 1524.62 629.413 1523.22 630.71 1522.64C631.351 1522.36 695.403 1493.96 731.002 1482.38C732.023 1482.03 733.153 1482.27 733.96 1482.99C734.762 1483.7 735.122 1484.8 734.893 1485.86C734.663 1486.91 733.887 1487.76 732.856 1488.08C697.554 1499.57 633.783 1527.84 633.143 1528.13C632.762 1528.29 632.346 1528.38 631.929 1528.38Z" fill="#232323"/>
<mask id="mask6_433_69900" style="mask-type:luminance" maskUnits="userSpaceOnUse" x="1324" y="1305" width="235" height="207">
<path d="M1324.5 1305H1558.5V1512H1324.5V1305Z" fill="white"/>
</mask>
<g mask="url(#mask6_433_69900)">
<path d="M1446.34 1512C1445.52 1512 1444.73 1511.66 1444.16 1511.06L1325.32 1385.54C1324.18 1384.33 1324.23 1382.44 1325.44 1381.31C1326.65 1380.17 1328.54 1380.23 1329.68 1381.43L1448.52 1506.96C1449.34 1507.82 1449.57 1509.1 1449.1 1510.19C1448.62 1511.29 1447.54 1512 1446.34 1512ZM1484.2 1432.12C1483.04 1432.12 1481.97 1431.45 1481.48 1430.4L1438.35 1339.11C1437.66 1337.62 1438.31 1335.86 1439.8 1335.16C1441.28 1334.46 1443.06 1335.09 1443.77 1336.56L1486.91 1427.85C1487.35 1428.78 1487.28 1429.86 1486.73 1430.73C1486.18 1431.59 1485.22 1432.12 1484.2 1432.12ZM1533.49 1395.25C1532.56 1395.25 1531.69 1394.82 1531.12 1394.09C1530.55 1393.36 1530.35 1392.4 1530.59 1391.5L1552.6 1307.24C1552.86 1306.19 1553.66 1305.37 1554.7 1305.08C1555.74 1304.79 1556.85 1305.08 1557.62 1305.84C1558.39 1306.59 1558.69 1307.71 1558.4 1308.74L1536.4 1393.02C1536.05 1394.33 1534.86 1395.25 1533.49 1395.25V1395.25Z" fill="#232323"/>
</g>
<path d="M2175.55 671C2175.56 685.698 2174.83 700.385 2173.38 715.01C2173.29 715.922 2173.19 716.833 2173.09 717.74C2172.2 726.141 2171.07 734.51 2169.7 742.844C2169.32 745.167 2168.92 747.484 2168.5 749.792L2168.37 750.521C2145.29 876.625 2068.33 983.911 1962.23 1047.61C1962.17 1047.66 1962.1 1047.7 1962.03 1047.73C1960.47 1048.67 1958.91 1049.6 1957.34 1050.51C1942.1 1059.4 1926.33 1067.36 1910.13 1074.33C1907.85 1075.32 1905.56 1076.29 1903.26 1077.23C1902.38 1077.59 1901.5 1077.95 1900.61 1078.31C1861.76 1093.98 1820.14 1104.24 1776.7 1108.19C1776.39 1108.21 1776.07 1108.24 1775.74 1108.27C1765.65 1109.17 1755.53 1109.71 1745.4 1109.91C1744.32 1109.93 1743.23 1109.95 1742.15 1109.96C1742.04 1109.96 1741.93 1109.97 1741.82 1109.97L1739.48 1109.99C1738.49 1110 1737.51 1110 1736.53 1110C1735.71 1110 1734.89 1110 1734.07 1109.99C1716.38 1109.9 1698.71 1108.75 1681.16 1106.54C1632.14 1100.39 1584.52 1085.94 1540.34 1063.83C1521.84 1054.58 1504.03 1044.03 1487.02 1032.26C1484.95 1030.83 1482.89 1029.37 1480.84 1027.9C1474.85 1023.61 1468.98 1019.17 1463.22 1014.57C1463.22 1014.58 1463.21 1014.56 1463.21 1014.56C1462.5 1014.01 1461.81 1013.45 1461.11 1012.89C1361.33 932.422 1297.5 809.161 1297.5 671C1297.5 428.547 1494.06 232 1736.53 232C1978.99 232 2175.55 428.547 2175.55 671Z" fill="white"/>
<mask id="mask7_433_69900" style="mask-type:luminance" maskUnits="userSpaceOnUse" x="1294" y="229" width="886" height="884">
<path d="M1294.5 229H2179.17V1113H1294.5V229Z" fill="white"/>
</mask>
<g mask="url(#mask7_433_69900)">
<path d="M1736.53 1113C1735.7 1113 1734.87 1113 1734.04 1112.99C1716.23 1112.9 1698.45 1111.73 1680.78 1109.52C1631.27 1103.29 1583.56 1088.82 1538.99 1066.51C1520.38 1057.19 1502.44 1046.57 1485.31 1034.73C1483.22 1033.28 1481.15 1031.82 1479.08 1030.33C1473.1 1026.05 1467.22 1021.6 1461.47 1017.01C1460.88 1016.55 1460.3 1016.09 1459.72 1015.62L1459.23 1015.23C1354.54 930.797 1294.5 805.328 1294.5 671C1294.5 611.333 1306.19 553.448 1329.24 498.953C1351.5 446.318 1383.38 399.052 1423.97 358.458C1464.56 317.87 1511.83 286 1564.47 263.734C1618.96 240.688 1676.85 229 1736.53 229C1796.2 229 1854.08 240.688 1908.58 263.734C1961.22 286 2008.49 317.87 2049.08 358.458C2089.68 399.052 2121.55 446.318 2143.81 498.953C2166.86 553.448 2178.55 611.333 2178.55 671C2178.55 685.797 2177.82 700.583 2176.36 715.307C2176.27 716.224 2176.17 717.146 2176.07 718.073C2175.18 726.521 2174.04 734.943 2172.66 743.328C2172.28 745.667 2171.88 748 2171.45 750.333L2171.32 751.063C2148.53 875.615 2072.92 984.604 1963.88 1050.11C1963.76 1050.2 1963.62 1050.28 1963.48 1050.36C1961.94 1051.29 1960.4 1052.2 1958.84 1053.1C1943.49 1062.05 1927.63 1070.06 1911.31 1077.09C1909.22 1077.99 1906.96 1078.95 1904.4 1080C1903.51 1080.37 1902.63 1080.73 1901.74 1081.09C1861.89 1097.16 1819.92 1107.28 1776.97 1111.17C1776.64 1111.2 1776.29 1111.23 1775.95 1111.26C1764.72 1112.26 1753.46 1112.82 1742.18 1112.96L1739.51 1112.99C1738.51 1112.99 1737.52 1112.99 1736.53 1112.99V1113ZM1464.96 1012.13C1465.01 1012.16 1465.05 1012.2 1465.09 1012.23C1470.81 1016.79 1476.64 1021.2 1482.58 1025.46C1484.62 1026.93 1486.67 1028.38 1488.73 1029.8C1505.62 1041.48 1523.31 1051.96 1541.68 1061.15C1585.64 1083.15 1632.69 1097.43 1681.53 1103.57C1698.96 1105.76 1716.52 1106.9 1734.08 1107C1735.89 1107.02 1737.67 1107.01 1739.45 1107L1742.15 1106.97C1753.27 1106.83 1764.39 1106.27 1775.47 1105.28C1775.83 1105.26 1776.13 1105.23 1776.42 1105.2C1818.79 1101.36 1860.19 1091.38 1899.49 1075.54C1900.36 1075.18 1901.23 1074.83 1902.09 1074.47C1904.39 1073.53 1906.66 1072.57 1908.93 1071.59C1925.03 1064.66 1940.69 1056.76 1955.83 1047.92C1957.41 1047.01 1958.97 1046.08 1960.54 1045.14C1960.58 1045.1 1960.64 1045.07 1960.68 1045.04C2068.31 980.432 2142.93 872.891 2165.42 749.984L2165.55 749.281C2165.97 746.984 2166.37 744.667 2166.74 742.365C2168.1 734.089 2169.23 725.771 2170.11 717.432C2170.21 716.516 2170.3 715.62 2170.39 714.724C2171.83 700.193 2172.56 685.604 2172.56 671C2172.56 430.583 1976.95 234.995 1736.53 234.995C1496.1 234.995 1300.49 430.583 1300.49 671C1300.49 803.505 1359.72 927.271 1462.99 1010.56L1463.48 1010.95C1463.97 1011.34 1464.46 1011.74 1464.96 1012.13Z" fill="#232323"/>
</g>
<path d="M2173.09 717.738C2176.61 721.124 2168.23 751.306 2167.19 756.493C2164.53 769.811 2161.25 782.999 2157.35 796.014C2149.57 821.999 2139.38 847.249 2126.97 871.368C2101.81 920.296 2067.55 964.519 2026.22 1000.86C1942.87 1074.14 1835.34 1110.64 1725.05 1109.86C1720.2 1109.83 1683.15 1106.54 1683.15 1106.54C1677.64 1090.87 1674.8 1073.93 1672.88 1055.6C1667.06 1000.43 1670.95 941.993 1682.41 887.868C1692.34 840.988 1708.03 794.15 1735.07 754.207C1748.51 734.368 1764.81 716.509 1784.04 702.139C1787.65 682.858 1798.66 667.79 1808.72 656.613C1827.15 636.144 1854.66 621.405 1878.04 608.582C1895.4 599.061 1939.01 579.441 1947.71 582.191C1980.72 592.624 2017.43 609.613 2045.65 625.035C2084.73 646.384 2130.35 676.577 2173.09 717.738Z" fill="white"/>
<mask id="mask8_433_69900" style="mask-type:luminance" maskUnits="userSpaceOnUse" x="1631" y="281" width="547" height="832">
<path d="M1631.16 281.332H2177.83V1113H1631.16V281.332Z" fill="white"/>
</mask>
<g mask="url(#mask8_433_69900)">
<path d="M1728.51 1112.88C1727.35 1112.88 1726.19 1112.88 1725.02 1112.86C1720.11 1112.83 1684.4 1109.66 1682.88 1109.53C1681.72 1109.42 1680.71 1108.65 1680.32 1107.54C1675.39 1093.54 1672.17 1077.61 1669.89 1055.92C1664.21 1002 1667.52 943.677 1679.48 887.25C1691.15 832.136 1708.52 788.068 1732.59 752.532C1746.61 731.818 1763 714.297 1781.31 700.438C1785.51 679.787 1797.65 664.427 1806.49 654.615C1824.67 634.407 1851.08 619.938 1874.38 607.172L1876.6 605.959C1888.69 599.323 1937.44 575.808 1948.61 579.339C1978.22 588.693 2014.11 604.391 2047.09 622.412C2095.12 648.651 2138.21 680 2175.16 715.584C2178.31 718.61 2177.41 727.11 2171.34 751.979C2170.76 754.323 2170.31 756.172 2170.13 757.084C2167.45 770.495 2164.14 783.776 2160.22 796.88C2152.42 822.907 2142.13 848.433 2129.63 872.745C2103.98 922.63 2069.85 966.495 2028.2 1003.11C1947.61 1073.97 1841.3 1112.88 1728.51 1112.88V1112.88ZM1685.35 1103.73C1698.57 1104.89 1721.51 1106.84 1725.07 1106.87C1837.66 1107.67 1943.92 1069.22 2024.24 998.61C2065.33 962.485 2098.99 919.219 2124.3 870C2136.64 846.016 2146.79 820.834 2154.48 795.157C2158.35 782.235 2161.61 769.136 2164.25 755.907C2164.46 754.87 2164.9 753.063 2165.51 750.552C2169.88 732.662 2171.66 722.282 2170.8 719.698C2134.27 684.563 2091.69 653.604 2044.21 627.667C2011.56 609.828 1976.06 594.297 1946.81 585.052C1940.17 582.959 1900.15 599.875 1879.48 611.214L1877.26 612.427C1854.38 624.964 1828.45 639.177 1810.95 658.625C1802.43 668.084 1790.67 682.943 1786.98 702.693C1786.84 703.433 1786.43 704.094 1785.83 704.542C1767.68 718.11 1751.44 735.386 1737.56 755.891C1713.93 790.776 1696.85 834.146 1685.34 888.49C1673.52 944.313 1670.24 1001.99 1675.85 1055.29C1677.99 1075.56 1680.94 1090.61 1685.35 1103.72V1103.73ZM1648.28 327.37C1660.95 318.693 1677.02 316.625 1691.47 321.818C1699.71 272.037 1764.06 271.787 1777.62 306.933C1816.8 267.526 1877.15 309.209 1864.67 351.677C1860.09 367.271 1853.97 395.375 1864 419.38C1843.97 432.005 1810.64 493.86 1810.64 493.86C1810.64 493.86 1723.72 402.818 1685.31 404.625C1624.9 407.474 1621.53 346.563 1648.28 327.37Z" fill="#232323"/>
</g>
<path d="M1713.88 339.626C1714.39 340.34 1715.21 340.767 1716.09 340.767V340.762C1717.11 340.762 1718.04 340.189 1718.51 339.288C1718.97 338.387 1718.89 337.298 1718.3 336.47C1710.26 325.147 1700.85 319.329 1692.51 316.402C1692.07 318.074 1691.44 321.798 1691.44 321.798C1698.72 324.507 1706.85 329.736 1713.88 339.626ZM1947.71 582.194C1888.98 640.975 1849.59 688.788 1837.5 703.855C1835.12 706.814 1833.8 708.501 1833.58 708.783C1833.56 708.809 1833.56 708.824 1833.56 708.824C1799.63 619.397 1756.99 587.163 1756.99 587.163C1756.99 587.163 1710.67 603.611 1672.16 587.345C1657.35 581.1 1648.77 568.111 1648.34 554.741C1647.33 523.543 1679.45 522.47 1677.96 483.72C1674.01 481.126 1667 474.934 1666.65 469.272C1666.23 462.668 1674.33 463.579 1681.23 452.725C1685.15 446.538 1685.93 431.803 1685.88 420.262C1685.82 411.527 1685.31 404.626 1685.31 404.626C1685.31 404.626 1737.82 396.59 1762.5 413.043C1773.43 420.314 1780.52 434.793 1786.68 447.579C1796.27 467.501 1803.57 483.335 1819.5 461.569C1833.59 442.314 1845.44 423.579 1865.98 417.908C1885.99 412.392 1908.59 423.46 1914.4 442.814C1924.57 476.751 1898.95 505.84 1873.79 512.158C1905.06 557.762 1947.71 582.194 1947.71 582.194Z" fill="white"/>
<path d="M1833.56 711.823C1832.31 711.823 1831.19 711.052 1830.76 709.885C1800.73 630.75 1763.47 596.536 1756.37 590.531C1747.64 593.343 1706.51 605.109 1670.99 590.109C1655.66 583.64 1645.84 570.125 1645.35 554.833C1644.83 538.937 1652.42 530.125 1659.77 521.604C1667.4 512.75 1675.29 503.599 1675.01 485.317C1670.46 482.015 1664.05 475.781 1663.66 469.458C1663.33 464.364 1666.6 462.119 1669.76 459.948C1672.4 458.13 1675.68 455.869 1678.7 451.119C1681.47 446.739 1682.96 435.786 1682.88 420.276C1682.83 411.76 1682.32 404.916 1682.32 404.849C1682.2 403.291 1683.31 401.901 1684.86 401.661C1687.05 401.328 1738.81 393.645 1764.17 410.546C1775.93 418.375 1783.39 433.849 1789.39 446.276L1789.73 446.989C1795.06 458.073 1800.1 468.546 1805.38 469.031C1808.41 469.312 1812.46 466.119 1817.08 459.796C1818.4 458.01 1819.69 456.224 1820.96 454.448C1833.61 436.958 1845.55 420.437 1865.19 415.02C1887.22 408.948 1911.07 421.281 1917.28 441.953C1922.93 460.796 1917.67 476.088 1912.27 485.593C1904.83 498.671 1892.21 509.187 1878.63 513.843C1908.89 556.171 1948.79 579.359 1949.2 579.593C1950.02 580.057 1950.56 580.875 1950.68 581.796C1950.81 582.724 1950.5 583.651 1949.83 584.312C1890.68 643.52 1850.69 692.218 1839.84 705.729C1838.58 707.296 1837.33 708.869 1836.09 710.448L1836.01 710.552C1835.45 711.349 1834.54 711.823 1833.56 711.823ZM1756.99 584.166C1757.63 584.166 1758.27 584.375 1758.8 584.77C1760.53 586.083 1800.97 617.354 1834.46 702.843L1835.16 701.979C1845.89 688.609 1885.02 640.963 1942.91 582.76C1932.19 575.937 1897.57 552.14 1871.32 513.854C1870.76 513.041 1870.64 512.015 1870.99 511.099C1871.33 510.177 1872.11 509.489 1873.06 509.25C1886.63 505.843 1899.66 495.64 1907.05 482.63C1911.88 474.14 1916.57 460.489 1911.53 443.671C1906.33 426.349 1885.42 415.661 1866.78 420.796C1849.17 425.656 1838.35 440.625 1825.82 457.958C1824.54 459.739 1823.24 461.536 1821.92 463.338C1815.73 471.796 1810.3 475.5 1804.83 475C1796.17 474.203 1790.68 462.796 1784.32 449.583L1783.98 448.875C1778.31 437.104 1771.25 422.453 1760.85 415.536C1740.54 402 1699.41 405.895 1688.48 407.229C1688.64 410.062 1688.85 414.776 1688.88 420.244C1688.96 437.369 1687.24 448.833 1683.76 454.323C1680.09 460.109 1676.08 462.869 1673.15 464.885C1669.97 467.073 1669.54 467.583 1669.64 469.078C1669.89 473.099 1675.62 478.593 1679.61 481.208C1680.42 481.744 1680.92 482.635 1680.96 483.599C1681.79 505.234 1672.51 516.005 1664.31 525.515C1657.12 533.864 1650.9 541.078 1651.34 554.64C1651.76 567.562 1660.18 579.036 1673.32 584.578C1710.28 600.187 1755.53 584.494 1755.99 584.333C1756.31 584.218 1756.65 584.161 1756.99 584.161L1756.99 584.166Z" fill="#232323"/>
<path d="M1877.62 514.051C1876.48 512.488 1875.37 510.91 1874.28 509.322L1874.08 509.035L1873.74 509.119C1866.48 510.936 1852.49 513.467 1840.35 509.973L1840.3 509.962C1839.48 509.728 1838.6 509.837 1837.85 510.259C1837.11 510.676 1836.56 511.374 1836.34 512.197C1835.86 513.91 1836.86 515.681 1838.58 516.16C1843.44 517.499 1848.46 518.181 1853.5 518.181C1853.69 518.181 1853.87 518.181 1854.06 518.176C1861.94 518.082 1869.77 516.957 1877.35 514.822L1878.04 514.629L1877.62 514.046V514.051ZM1798.42 549.869C1784.15 574.624 1753.24 585.311 1753.24 585.311C1753.24 585.311 1763.45 593.035 1777.85 611.395C1778.34 611.113 1778.82 610.822 1779.29 610.525C1811.85 590.171 1805.14 552.889 1798.42 549.869ZM1749.57 431.332C1745.84 430.28 1742.32 427.884 1739.1 426.066C1732.2 422.171 1724.7 419.467 1717.22 416.868C1715.44 416.249 1713.63 415.624 1712.08 414.566C1710.53 413.504 1709.22 411.936 1708.9 410.082C1708.32 406.733 1711.02 403.686 1713.9 401.868C1719.3 398.457 1726.02 397.322 1732.33 398.384C1738.63 399.441 1744.5 402.618 1749.13 407.025C1753.67 411.337 1757.08 416.879 1758.58 422.947C1758.99 424.582 1759.25 426.306 1758.86 427.947C1758.39 429.962 1756.86 431.452 1754.81 431.754C1753.02 432.014 1751.28 431.811 1749.57 431.332ZM1734.93 447.853C1729.01 446.181 1714.72 442.509 1701.79 434.79C1700.91 434.27 1699.87 434.118 1698.88 434.374C1697.9 434.629 1697.06 435.264 1696.55 436.145C1693.79 440.848 1690.68 449.238 1700.18 453.363C1711.84 458.431 1731.36 455.952 1735.88 451.03C1736.32 450.52 1736.47 449.822 1736.28 449.176C1736.08 448.535 1735.57 448.035 1734.93 447.853ZM1694.25 514.296C1697.4 515.504 1700.81 515.827 1704.12 515.238C1707.43 514.754 1710.58 513.509 1713.33 511.608C1714.67 510.645 1715.87 509.509 1716.91 508.233C1720.18 504.348 1721.78 499.327 1721.36 494.264L1721.35 494.15C1721.26 492.952 1722.05 491.863 1723.22 491.582C1724.39 491.306 1725.59 491.921 1726.04 493.035C1727.71 497.431 1727.73 502.28 1726.09 506.691C1725.32 508.9 1724.2 510.983 1722.8 512.858C1718.53 518.546 1711.89 521.983 1704.78 522.186C1702.47 522.316 1700.16 522.087 1697.92 521.504C1695.63 520.926 1693.49 519.858 1691.64 518.374C1690.61 517.509 1690.47 515.973 1691.33 514.941C1692.02 514.124 1693.15 513.842 1694.13 514.249L1694.25 514.301L1694.25 514.296ZM1846.82 484.832C1846.01 484.832 1845.24 484.473 1844.73 483.848C1844.21 483.223 1844 482.4 1844.15 481.603C1851.59 442.525 1884.69 441.004 1885.03 440.988C1886.53 440.941 1887.78 442.119 1887.83 443.619C1887.88 445.124 1886.71 446.379 1885.2 446.431C1883.97 446.478 1856.09 447.957 1849.49 482.624C1849.24 483.905 1848.12 484.832 1846.82 484.832Z" fill="#232323"/>
<path d="M1962.22 1047.61C1887.55 879.906 1894.9 707.688 1975.29 668.839C2016.66 648.849 2091.17 660.438 2168.37 750.521C2145.29 876.625 2068.33 983.912 1962.22 1047.61Z" fill="white"/>
<path d="M1962.22 1050.61C1961.04 1050.61 1959.97 1049.91 1959.49 1048.83C1923.33 967.63 1904.92 882.739 1907.62 809.791C1908.93 774.463 1915.15 744.119 1926.1 719.603C1937.57 693.942 1953.68 675.952 1973.99 666.135C2015.1 646.275 2091.27 655.947 2170.65 748.572C2171.23 749.26 2171.48 750.171 2171.32 751.062C2148.52 875.661 2072.87 984.682 1963.77 1050.18C1963.3 1050.46 1962.77 1050.61 1962.22 1050.61ZM2014.51 663.499C1999.84 663.499 1987.03 666.499 1976.6 671.536C1957.6 680.718 1942.45 697.713 1931.58 722.046C1920.94 745.859 1914.89 775.458 1913.61 810.015C1910.97 881.14 1928.71 963.848 1963.59 1043.28C2069.23 978.739 2142.56 872.593 2165.16 751.39C2108.86 686.129 2054.75 663.499 2014.51 663.499Z" fill="#232323"/>
<path d="M1910.13 1074.33C1907.85 1075.32 1905.56 1076.29 1903.26 1077.23C1903.57 1077.78 1903.89 1078.33 1904.2 1078.88C1903.02 1078.69 1901.83 1078.5 1900.62 1078.31C1899.7 1078.16 1898.78 1078.01 1897.85 1077.87C1896.39 1077.63 1895.38 1076.25 1895.6 1074.79C1895.82 1073.32 1897.17 1072.3 1898.64 1072.49C1898.66 1072.49 1898.68 1072.5 1898.69 1072.5C1899.4 1072.61 1900.11 1072.72 1900.81 1072.83C1904 1073.33 1907.1 1073.84 1910.13 1074.33Z" fill="#B0DCF7"/>
<path d="M1805.27 770.714C1804.46 770.714 1803.65 770.615 1802.85 770.417C1785.42 766.141 1779.75 717.298 1781.04 701.891C1781.19 700.245 1782.64 699.027 1784.28 699.167C1785.93 699.303 1787.15 700.745 1787.02 702.391C1785.53 720.131 1792.9 761.803 1804.28 764.594C1805.85 764.985 1807.58 764.412 1809.58 762.855C1820.4 754.381 1830.57 722.938 1830.58 708.777C1830.58 707.126 1831.93 705.782 1833.58 705.782H1833.58C1835.24 705.782 1836.58 707.126 1836.58 708.782C1836.57 724.428 1825.9 757.683 1813.28 767.574C1810.61 769.667 1807.92 770.714 1805.27 770.714Z" fill="#232323"/>
<path d="M1904.21 1078.88C1903.02 1078.69 1901.83 1078.51 1900.62 1078.31C1861.76 1093.98 1820.14 1104.24 1776.7 1108.19C1776.39 1108.21 1776.07 1108.24 1775.75 1108.27C1770.35 1092.67 1765.9 1076.77 1762.44 1060.64C1762.43 1060.57 1762.42 1060.52 1762.4 1060.45C1759.77 1048.16 1739.13 946.531 1771.87 843.318C1776.49 828.771 1790.36 788.344 1795.48 773.458C1796.11 771.604 1796.75 769.75 1797.39 767.901V767.891C1797.4 767.87 1797.41 767.854 1797.41 767.854C1797.41 767.839 1797.42 767.818 1797.42 767.807C1797.86 765.099 1798.45 762.422 1799.18 759.781C1803.09 745.719 1810.61 733.859 1817.63 725.13C1825.07 715.87 1831.94 710.135 1833.31 709.021C1833.47 708.891 1833.56 708.828 1833.56 708.828C1833.59 708.896 1833.76 709.302 1834.05 709.99C1836.32 715.422 1845.91 738.542 1850.7 750.99C1850.69 751 1850.69 751.026 1850.68 751.036C1850.6 751.365 1850.51 751.693 1850.43 752.016C1846.65 766.026 1838.86 776.505 1832.52 779.818C1832.23 779.979 1831.94 780.109 1831.66 780.234C1831.59 781.896 1831.53 783.557 1831.48 785.219C1830.02 832.406 1833.77 900.896 1859.31 978.12C1870.16 1010.92 1884.06 1042.63 1900.81 1072.83C1901.62 1074.31 1902.45 1075.78 1903.26 1077.23C1903.58 1077.78 1903.89 1078.33 1904.21 1078.88Z" fill="#4CAF7A"/>
<path d="M1831.48 785.217C1810.83 784.9 1802.33 779.29 1795.48 773.462L1797.4 767.895C1802.96 773.368 1811.5 779.264 1831.66 780.233L1831.48 785.217Z" fill="white"/>
<path d="M1874.83 774.817C1852.02 774.817 1832.9 716.546 1830.73 709.682C1830.23 708.104 1831.1 706.421 1832.68 705.921C1834.26 705.421 1835.94 706.296 1836.44 707.875C1844.32 732.744 1862.08 771.255 1876.14 768.703C1888.71 766.427 1894.34 747.255 1902.86 718.239C1912.83 684.286 1926.48 637.781 1959.99 585.588C1960.88 584.197 1962.74 583.791 1964.13 584.687C1965.52 585.578 1965.93 587.432 1965.03 588.828C1931.99 640.296 1918.48 686.322 1908.61 719.927C1899.47 751.083 1893.42 771.666 1877.21 774.604C1876.41 774.75 1875.62 774.817 1874.83 774.817Z" fill="#232323"/>
<path d="M1742.03 1109.83C1742.03 1109.83 1689.31 1108.16 1674.35 1105.52C1599.64 1092.33 1530.93 1064.49 1463.22 1014.57C1444.89 928.373 1401.25 832.233 1380.53 739.217C1369.59 716.207 1370.21 696.024 1386.33 689.472C1388.21 677.774 1395.37 664.863 1408.33 661.217C1411.14 648.665 1427.99 632.472 1439.73 635.649C1443.33 624.884 1450.2 619.368 1461.1 618.634C1481.78 617.248 1491.92 649.035 1497.51 661.769C1504.62 643.832 1548.42 541.009 1551.02 612.655C1557.59 793.28 1668.71 934.243 1742.03 1109.83Z" fill="white"/>
<mask id="mask9_433_69900" style="mask-type:luminance" maskUnits="userSpaceOnUse" x="1369" y="584" width="377" height="529">
<path d="M1369.84 584H1745.84V1113H1369.84V584Z" fill="white"/>
</mask>
<g mask="url(#mask9_433_69900)">
<path d="M1742.04 1112.82C1742.01 1112.82 1741.97 1112.82 1741.94 1112.82C1739.78 1112.76 1688.83 1111.12 1673.83 1108.47C1595.7 1094.68 1526.23 1064.75 1461.44 1016.98C1460.85 1016.55 1460.44 1015.91 1460.29 1015.2C1451.15 972.203 1435.95 927.511 1419.86 880.198C1404.23 834.219 1388.06 786.688 1377.68 740.198C1370.18 724.281 1368.2 709.953 1372.13 699.834C1374.32 694.188 1378.2 690 1383.66 687.375C1385.89 676.12 1392.76 663.38 1405.86 658.849C1408.39 650.552 1415.92 641.24 1424.37 636.136C1429.09 633.287 1433.67 631.985 1437.78 632.292C1442.01 621.854 1449.59 616.401 1460.9 615.646C1480.66 614.323 1491.14 638.432 1497.49 653.917C1501.53 644.302 1507.88 630.084 1514.62 617.313C1530.77 586.745 1538.62 583.818 1543.67 584.688C1550.17 585.807 1553.36 594.401 1554.02 612.547C1558.54 736.87 1612.85 842.287 1670.35 953.896C1695.83 1003.34 1722.17 1054.48 1744.8 1108.67C1745.19 1109.6 1745.08 1110.65 1744.53 1111.49C1743.97 1112.32 1743.04 1112.82 1742.04 1112.82ZM1465.92 1012.83C1530.54 1060.29 1596.97 1088.81 1674.87 1102.57C1686.86 1104.69 1724.25 1106.19 1737.46 1106.67C1715.33 1054.29 1689.76 1004.67 1665.02 956.641C1607.2 844.422 1552.59 738.427 1548.03 612.766C1547.28 591.99 1543.12 590.677 1542.66 590.599C1541.99 590.485 1535.65 590.323 1519.93 620.11C1511.45 636.162 1503.6 654.542 1500.3 662.875C1499.85 664 1498.78 664.745 1497.57 664.766C1496.36 664.792 1495.26 664.089 1494.77 662.974C1494.09 661.427 1493.34 659.589 1492.54 657.646C1486.86 643.771 1477.37 620.547 1461.3 621.625C1451.59 622.276 1445.82 626.896 1442.58 636.599C1442.08 638.11 1440.48 638.959 1438.95 638.547C1435.84 637.703 1431.77 638.672 1427.47 641.266C1419.82 645.88 1412.85 654.74 1411.26 661.87C1411.02 662.948 1410.2 663.802 1409.15 664.104C1397.01 667.521 1390.86 680.162 1389.29 689.948C1389.12 690.985 1388.43 691.854 1387.46 692.25C1382.77 694.156 1379.49 697.438 1377.72 702.005C1374.37 710.636 1376.33 723.396 1383.24 737.932C1383.34 738.136 1383.42 738.349 1383.46 738.568C1393.77 784.844 1409.92 832.339 1425.54 878.266C1441.55 925.349 1456.68 969.839 1465.92 1012.83Z" fill="#232323"/>
</g>
<path d="M1744.85 1109.69C1721.53 1109.69 1694.87 1108.27 1664.99 1104.05C1639.01 1099.72 1613.47 1093.09 1588.65 1084.24C1563.86 1075.41 1540.16 1063.83 1517.02 1051.28C1500.45 1042.3 1463.22 1014.57 1463.22 1014.57C1459.78 998.854 1454.76 979.609 1450.23 964.302C1484.39 958.391 1520.68 947.698 1553.17 935C1581.37 923.969 1611.26 910.286 1635.88 892.766C1635.88 892.766 1736.87 1090.68 1744.85 1109.69Z" fill="white"/>
<mask id="mask10_433_69900" style="mask-type:luminance" maskUnits="userSpaceOnUse" x="1447" y="889" width="302" height="224">
<path d="M1447.16 889.332H1748.5V1113H1447.16V889.332Z" fill="white"/>
</mask>
<g mask="url(#mask10_433_69900)">
<path d="M1744.86 1112.69C1717.87 1112.69 1691.61 1110.83 1664.58 1107.01C1638.4 1102.65 1612.65 1095.98 1587.65 1087.07C1565.93 1079.33 1543.04 1068.79 1515.59 1053.91C1499.02 1044.93 1462.96 1018.11 1461.43 1016.97C1460.86 1016.54 1460.45 1015.91 1460.3 1015.21C1457 1000.15 1452.04 980.967 1447.36 965.149C1447.12 964.326 1447.24 963.441 1447.68 962.717C1448.14 961.988 1448.88 961.488 1449.72 961.342C1481.91 955.774 1518.27 945.425 1552.08 932.206C1586.77 918.639 1613.61 904.936 1634.14 890.321C1634.85 889.816 1635.75 889.644 1636.59 889.852C1637.44 890.061 1638.16 890.623 1638.55 891.399C1642.68 899.488 1739.69 1089.63 1747.62 1108.53C1748.01 1109.46 1747.91 1110.51 1747.35 1111.35C1746.8 1112.19 1745.86 1112.69 1744.86 1112.69V1112.69ZM1465.91 1012.83C1471.67 1017.09 1503.67 1040.63 1518.45 1048.64C1545.62 1063.37 1568.25 1073.78 1589.67 1081.42C1614.31 1090.2 1639.68 1096.78 1665.49 1101.09C1690.62 1104.64 1715.13 1106.47 1740.2 1106.68C1725.49 1075.2 1646.91 920.993 1634.78 897.196C1614.23 911.352 1587.84 924.654 1554.27 937.79C1521.24 950.701 1485.8 960.904 1454.05 966.665C1458.37 981.55 1462.81 998.831 1465.91 1012.83Z" fill="#232323"/>
</g>
<path d="M1493.21 992.074C1493.21 996.465 1489.66 1000.02 1485.27 1000.02C1480.89 1000.02 1477.33 996.465 1477.33 992.074C1477.33 987.678 1480.89 984.121 1485.27 984.121C1489.66 984.121 1493.21 987.678 1493.21 992.074Z" fill="#232323"/>
<path d="M1481.29 724.436C1467.08 724.436 1453.3 689.811 1437.09 637.936L1436.61 636.405C1436.11 634.827 1436.99 633.144 1438.58 632.649C1440.15 632.155 1441.84 633.035 1442.33 634.613L1442.81 636.149C1446.87 649.134 1453.66 670.873 1461.2 688.748C1473.19 717.181 1479.89 718.644 1481.65 718.415C1483.54 718.17 1488.57 717.524 1488.57 700.686C1488.57 699.03 1489.91 697.686 1491.57 697.686C1493.23 697.686 1494.56 699.03 1494.56 700.686C1494.56 710.176 1493.31 722.957 1482.42 724.363C1482.04 724.41 1481.67 724.436 1481.29 724.436Z" fill="#232323"/>
<path d="M1490.61 767.379C1489.02 767.379 1487.7 766.124 1487.62 764.53C1487.58 763.817 1484.27 692.895 1495.77 658.655C1496.3 657.087 1498 656.244 1499.57 656.77C1501.14 657.296 1501.98 658.994 1501.45 660.567C1490.31 693.744 1493.57 763.535 1493.61 764.238C1493.69 765.889 1492.42 767.296 1490.76 767.379C1490.71 767.379 1490.66 767.384 1490.61 767.384V767.379ZM1435.14 745.994C1434.19 745.994 1433.2 745.863 1432.15 745.603C1418.39 742.16 1396.27 714.837 1391 704.692C1390.24 703.218 1390.81 701.41 1392.28 700.645C1393.75 699.884 1395.56 700.457 1396.32 701.926C1401.93 712.723 1422.72 737.061 1433.6 739.785C1434.91 740.113 1435.9 740.056 1436.53 739.624C1439 737.926 1439.26 727.999 1429.83 707.598C1429.16 706.103 1429.82 704.343 1431.31 703.655C1432.8 702.968 1434.57 703.603 1435.28 705.082C1440.86 717.181 1448.9 738.4 1439.92 744.567C1438.54 745.514 1436.94 745.994 1435.14 745.994Z" fill="#232323"/>
<path d="M1458.16 736.098C1456.98 736.098 1455.74 735.827 1454.45 735.285C1438.27 728.53 1410.27 675.134 1405.51 662.259C1404.93 660.702 1405.73 658.978 1407.28 658.405C1408.83 657.832 1410.56 658.624 1411.13 660.176C1416.55 674.817 1443.83 724.353 1456.75 729.749C1457.23 729.947 1458.09 730.244 1458.6 730.009C1459.3 729.692 1465.14 725.775 1453.98 686.926C1453.54 685.343 1454.46 683.702 1456.04 683.249C1457.62 682.791 1459.27 683.692 1459.74 685.27C1471.19 725.108 1466.47 733.025 1461.08 735.473C1460.16 735.89 1459.16 736.098 1458.15 736.098H1458.16ZM1483.6 1032.87C1482.02 1032.87 1480.71 1031.64 1480.61 1030.06C1480.51 1028.48 1481.65 1027.1 1483.22 1026.9C1514.33 1022.92 1643.09 981.666 1665.38 952.447C1666.39 951.129 1668.27 950.879 1669.59 951.884C1670.9 952.884 1671.15 954.77 1670.15 956.082C1646.54 987.015 1516.61 1028.67 1483.98 1032.85C1483.86 1032.86 1483.73 1032.87 1483.6 1032.87ZM1406.57 761.619C1405.62 761.619 1404.63 761.525 1403.62 761.332C1393.17 759.369 1381.57 747.916 1377.86 740.572C1377.36 739.614 1377.41 738.462 1378 737.551C1378.59 736.645 1379.62 736.124 1380.7 736.192C1381.77 736.254 1382.73 736.895 1383.21 737.869C1386.25 743.89 1396.63 753.921 1404.73 755.442C1407.17 755.9 1409.03 755.515 1410.43 754.259C1410.46 754.239 1412.86 751.212 1404.16 731.39C1398.93 719.489 1391.78 706.166 1387.51 698.207C1385.47 694.405 1384.12 691.89 1383.59 690.692C1382.91 689.181 1383.59 687.41 1385.11 686.733C1386.62 686.061 1388.39 686.744 1389.07 688.254C1389.51 689.249 1390.96 691.952 1392.79 695.369C1414.66 736.098 1420.52 753.265 1414.44 758.723C1412.3 760.64 1409.62 761.619 1406.57 761.619Z" fill="#232323"/>
<path d="M1858.72 1031.44C1863.02 1027.61 1932.97 968.27 1939.35 963.264C1940.05 962.707 1946.56 961.426 1954.26 964.41L1954.28 964.405C1963.16 967.827 2001.02 983.962 2001.02 983.962L2006.33 986.217L2010.93 982.744C2010.93 982.744 2034.73 964.53 2077.33 910.629C2119.92 856.733 2132.09 829.358 2132.09 829.358L2134.4 824.082L2130.99 819.457C2130.99 819.457 2106.51 786.311 2101.19 778.509L2101.16 778.494V778.478C2096.45 771.619 2096.23 765.004 2096.53 764.369C2098.47 760.353 2109.58 738.16 2120.5 716.514C2131.41 694.879 2142.83 672.52 2144.16 670.124C2144.16 670.129 2145.66 668.863 2148.32 668.212C2150.98 667.561 2154.79 667.525 2159.4 670.004V669.983C2165.03 673.009 2181.49 683.134 2195.84 694.009C2203.02 699.447 2209.76 705.155 2214.45 710.077C2219.14 714.999 2220.99 719.697 2220.93 718.941C2221.64 727.358 2223.63 745.936 2211.63 781.895C2199.62 817.848 2173.35 870.223 2116.8 941.816C2060.23 1013.42 2015.35 1051.12 1983.15 1071.12C1950.95 1091.12 1932.41 1093.48 1924.05 1094.73C1924.79 1094.61 1919.81 1093.9 1913.95 1090.48C1908.08 1087.05 1900.98 1081.8 1894.03 1076.07C1880.13 1064.62 1866.48 1050.95 1862.24 1046.18L1862.22 1046.16C1855.19 1038.28 1858.59 1031.55 1858.72 1031.44Z" fill="white"/>
<mask id="mask11_433_69900" style="mask-type:luminance" maskUnits="userSpaceOnUse" x="1853" y="664" width="372" height="435">
<path d="M1853.84 664H2224.5V1098.67H1853.84V664Z" fill="white"/>
</mask>
<g mask="url(#mask11_433_69900)">
<path d="M1924.05 1097.73C1923.5 1097.73 1922.97 1097.58 1922.5 1097.3L1922.41 1097.27C1920.73 1096.78 1916.81 1095.62 1912.44 1093.07C1905.34 1088.93 1897.47 1082.8 1892.12 1078.38C1878.27 1066.97 1864.5 1053.21 1860.08 1048.26C1860.05 1048.23 1860.02 1048.2 1859.98 1048.16C1855.36 1042.98 1854.62 1038.11 1854.81 1034.94C1854.91 1033.22 1855.5 1030.28 1856.72 1029.2C1859.92 1026.34 1930.7 966.239 1937.49 960.905C1939.32 959.468 1946.97 958.437 1955.14 961.535C1955.21 961.556 1955.29 961.582 1955.36 961.608C1964.18 965.009 2000.64 980.546 2002.19 981.207L2005.9 982.78L2009.12 980.348C2009.34 980.181 2033.19 961.645 2074.97 908.77C2116.75 855.91 2129.23 828.41 2129.35 828.14L2130.96 824.463L2128.57 821.233C2127.58 819.884 2104.18 788.197 2098.77 780.291C2098.72 780.218 2098.67 780.145 2098.62 780.072C2093.7 772.848 2092.87 765.062 2093.83 763.067C2095.81 758.963 2107.02 736.577 2117.82 715.166C2128.4 694.202 2140.15 671.171 2141.54 668.666C2141.74 668.317 2142 668.015 2142.3 667.77C2142.82 667.358 2144.67 666.02 2147.6 665.296C2150.49 664.593 2155.05 664.358 2160.52 667.197C2160.62 667.239 2160.72 667.285 2160.82 667.343C2166.58 670.437 2183.29 680.739 2197.65 691.619C2203.14 695.775 2210.88 701.994 2216.62 708.009C2220.13 711.687 2222.16 715.249 2223.03 716.77L2223.07 716.843C2223.54 717.322 2223.85 717.963 2223.91 718.681V718.692L2223.97 719.348C2224.74 728.395 2226.36 747.218 2214.47 782.843C2199.06 828.994 2166.99 883.103 2119.15 943.671C2071.29 1004.26 2026.06 1047.99 1984.73 1073.67C1952.83 1093.48 1934.14 1096.26 1925.16 1097.6L1924.49 1097.7C1924.34 1097.72 1924.2 1097.73 1924.05 1097.73ZM1864.38 1044.08C1864.42 1044.11 1864.45 1044.15 1864.48 1044.19C1868.69 1048.93 1882.24 1062.47 1895.94 1073.76C1903.37 1079.88 1910.12 1084.77 1915.46 1087.89C1919.21 1090.08 1922.64 1091.09 1924.1 1091.52C1924.21 1091.55 1924.34 1091.59 1924.48 1091.63C1933.15 1090.34 1950.97 1087.57 1981.57 1068.57C2022.31 1043.27 2067.01 999.994 2114.44 939.957C2161.85 879.937 2193.59 826.437 2208.78 780.942C2220.19 746.77 2218.76 728.796 2218.02 720.072C2217.94 719.947 2217.87 719.832 2217.82 719.739C2217.06 718.41 2215.29 715.296 2212.28 712.145C2208.02 707.676 2201.54 702.088 2194.03 696.4C2180.15 685.884 2164.11 675.957 2158.26 672.77C2158.16 672.733 2158.07 672.692 2157.99 672.645C2154.83 670.952 2151.82 670.437 2149.03 671.124C2148.12 671.338 2147.26 671.697 2146.46 672.176C2144.27 676.312 2134.06 696.285 2123.17 717.869C2112.71 738.608 2101.87 760.249 2099.44 765.254C2099.44 766.593 2100.03 771.546 2103.63 776.775C2103.64 776.791 2103.65 776.806 2103.66 776.822C2108.9 784.494 2133.15 817.343 2133.4 817.676L2136.81 822.301C2137.45 823.16 2137.58 824.301 2137.15 825.285L2134.83 830.562C2134.32 831.707 2122.02 858.916 2079.68 912.489C2037.33 966.072 2013.73 984.374 2012.74 985.124L2008.13 988.608C2007.28 989.254 2006.14 989.395 2005.16 988.978L1999.84 986.723C1999.46 986.562 1962.46 970.796 1953.4 967.28C1953.32 967.259 1953.25 967.233 1953.18 967.207C1947.07 964.843 1942.1 965.525 1940.91 965.853C1933.61 971.692 1868.89 1026.53 1861.17 1033.26C1860.76 1034.48 1859.75 1038.83 1864.37 1044.08H1864.38ZM1860.71 1033.67L1860.71 1033.68L1860.7 1033.68L1860.71 1033.67Z" fill="#232323"/>
</g>
</svg>
